<?xml version="1.0" encoding="utf-8"?>
<!-- Generator: Adobe Illustrator 16.0.0, SVG Export Plug-In . SVG Version: 6.00 Build 0)  -->
<!DOCTYPE svg PUBLIC "-//W3C//DTD SVG 1.1//EN" "http://www.w3.org/Graphics/SVG/1.1/DTD/svg11.dtd">
<svg version="1.1" id="Layer_2" xmlns="http://www.w3.org/2000/svg" xmlns:xlink="http://www.w3.org/1999/xlink" x="0px" y="0px"
	 width="75.333px" height="79.994px" viewBox="0 0 75.333 79.994" enable-background="new 0 0 75.333 79.994" xml:space="preserve">
<rect x="22" y="39.33" width="10.333" height="13.333"/>
<rect x="17.875" y="52.997" width="2.063" height="17.938"/>
<rect x="20" y="70.934" width="13.969" height="2"/>
<rect x="34.031" y="53.059" width="2" height="17.906"/>
<rect x="19.75" y="52.997" width="14.583" height="1.917"/>
<rect x="19.917" y="29.089" width="2" height="9.75"/>
<rect x="32" y="29.089" width="2" height="9.833"/>
<rect x="21.75" y="37.006" width="10.5" height="1.833"/>
<rect x="22.083" y="27.172" width="9.917" height="1.917"/>
<rect x="6" y="47.08" width="3.917" height="7.917"/>
<rect x="4.083" y="49.08" width="7.833" height="3.75"/>
<rect x="12.12" y="26.997" width="7.797" height="1.999"/>
<rect x="10" y="29.002" width="2.083" height="1.995"/>
<rect x="8" y="30.914" width="2" height="2.083"/>
<rect x="6" y="32.914" width="2" height="4.057"/>
<rect x="7.99" y="36.976" width="2.01" height="2.021"/>
<rect x="10" y="38.997" width="1.99" height="1.969"/>
<rect x="3.792" y="42.914" width="10.292" height="2"/>
<rect x="12" y="40.971" width="2.068" height="1.943"/>
<rect x="1.917" y="44.914" width="2" height="12.083"/>
<rect x="3.849" y="56.992" width="10.146" height="2.016"/>
<rect x="12" y="58.929" width="1.995" height="2.083"/>
<rect x="43.916" y="61.026" width="2" height="2"/>
<rect x="45.958" y="62.985" width="2" height="2.041"/>
<rect x="47.916" y="65.069" width="2.042" height="1.916"/>
<rect x="49.958" y="67.118" width="1.958" height="1.916"/>
<rect x="49.916" y="69.034" width="2.042" height="2"/>
<rect x="48" y="71.034" width="1.916" height="2"/>
<rect x="46.188" y="73.079" width="1.875" height="2.084"/>
<rect x="37.916" y="75.125" width="8.084" height="1.918"/>
<rect x="35.916" y="72.918" width="2.084" height="2.082"/>
<rect x="46.041" y="47.163" width="3.917" height="7.916"/>
<rect x="44.041" y="49.163" width="7.834" height="3.75"/>
<rect x="34.041" y="27.079" width="9.797" height="1.999"/>
<rect x="43.875" y="29.084" width="2.083" height="1.995"/>
<rect x="45.958" y="30.996" width="2" height="2.083"/>
<rect x="47.958" y="32.996" width="2" height="4.057"/>
<rect x="45.958" y="37.059" width="2.011" height="2.021"/>
<rect x="43.969" y="39.079" width="1.989" height="1.969"/>
<rect x="41.875" y="42.996" width="10.166" height="2"/>
<rect x="41.891" y="41.053" width="2.067" height="1.943"/>
<rect x="52.041" y="44.996" width="2" height="12.083"/>
<rect x="41.963" y="57.075" width="10.146" height="2.016"/>
<rect x="41.963" y="59.012" width="1.995" height="2.082"/>
<rect x="39.917" y="49.497" width="2.046" height="9.594"/>
<rect x="38" y="59.018" width="1.979" height="1.958"/>
<rect x="36.021" y="60.975" width="1.959" height="2"/>
<rect x="10" y="34.997" width="2" height="1.958"/>
<rect x="12" y="33.038" width="2" height="1.958"/>
<rect x="14.042" y="30.997" width="2" height="1.958"/>
<rect x="37.959" y="31.038" width="2" height="1.958"/>
<rect x="40" y="32.997" width="2" height="1.958"/>
<rect x="42" y="34.997" width="2" height="1.958"/>
<rect x="15.875" y="69.02" width="2" height="1.959"/>
<rect x="13.958" y="67.038" width="2" height="1.959"/>
<rect x="12" y="65.039" width="2" height="1.959"/>
<rect x="44" y="64.997" width="2" height="1.959"/>
<rect x="42.042" y="67.038" width="2" height="1.959"/>
<rect x="39.959" y="69.08" width="2" height="1.959"/>
<rect x="10.042" y="60.944" width="2" height="2"/>
<rect x="8" y="62.903" width="2" height="2.041"/>
<rect x="6" y="64.986" width="2.042" height="1.917"/>
<rect x="4.042" y="67.035" width="1.958" height="1.917"/>
<rect x="6" y="68.952" width="2.042" height="2"/>
<rect x="8.042" y="70.952" width="1.917" height="2"/>
<rect x="10.083" y="72.993" width="1.875" height="2.084"/>
<rect x="12.083" y="75.043" width="5.958" height="1.917"/>
<rect x="17.958" y="72.835" width="2.083" height="2.083"/>
<rect x="14" y="39.017" width="2" height="1.958"/>
<rect x="16" y="37.08" width="2" height="1.958"/>
<rect x="34.084" y="35.08" width="2" height="1.958"/>
<rect x="36" y="37.08" width="2" height="1.958"/>
<rect x="14" y="58.997" width="2" height="1.959"/>
<rect x="16" y="60.997" width="2" height="1.959"/>
<rect x="22" y="65.04" width="2" height="4.038"/>
<rect x="30" y="64.916" width="2" height="4.161"/>
<rect x="27.875" y="30.997" width="2" height="1.958"/>
<rect x="24" y="68.997" width="2" height="1.959"/>
<rect x="28" y="69.122" width="2" height="1.959"/>
<rect x="62.758" y="1.838" width="5.984" height="1.984"/>
<rect x="68.727" y="3.822" width="2" height="2.078"/>
<rect x="70.727" y="5.854" width="2.021" height="1.899"/>
<rect x="72.591" y="7.671" width="1.984" height="5.984"/>
<rect x="70.513" y="13.64" width="2.078" height="2"/>
<rect x="68.66" y="15.64" width="1.899" height="2.021"/>
<rect x="62.758" y="17.671" width="5.984" height="1.984"/>
<rect x="60.773" y="15.593" width="2" height="2.078"/>
<rect x="58.752" y="13.741" width="2.021" height="1.899"/>
<rect x="56.894" y="7.814" width="1.984" height="5.984"/>
<rect x="58.878" y="5.83" width="2.078" height="2"/>
<rect x="60.909" y="3.809" width="1.899" height="2.021"/>
<rect x="53.127" y="17.241" width="2.021" height="1.899"/>
<rect x="50.989" y="19.089" width="2.021" height="1.899"/>
<rect x="52.251" y="23.115" width="2.021" height="1.899"/>
<rect x="50.114" y="24.964" width="2.021" height="1.899"/>
<rect x="56.989" y="24.214" width="2.021" height="1.899"/>
<rect x="59.127" y="22.366" width="2.021" height="1.899"/>
</svg>
