  0
SECTION
  2
HEADER
  9
$ACADVER
  1
AC1009
  9
$EXTMIN
 10
0.0
 20
0.0
 30
0.0
  9
$EXTMAX
 10
1000.0
 20
1000.0
 30
0.0
  9
$FILLMODE
 70
 0
  9
$SPLFRAME
 70
 1
  0
ENDSEC
  0
SECTION
  2
TABLES
  0
TABLE
  2
LAYER
 70
1
  0
LAYER
  2
0
 70
     0
 62
     7
  6
CONTINUOUS
  0
ENDTAB
  0
ENDSEC
  0
SECTION
  2
ENTITIES
  0
POLYLINE
  8
0
 62
     0
 66
     1
 10
0
 20
0
 30
0.0
 70
     1
 40
0
 41
0
  0
VERTEX
  8
0
 10
0.229167
 20
0.423665
 30
0.0
 40
0
 41
0
  0
VERTEX
  8
0
 10
0.336806
 20
0.423665
 30
0.0
 40
0
 41
0
  0
VERTEX
  8
0
 10
0.336806
 20
0.284776
 30
0.0
 40
0
 41
0
  0
VERTEX
  8
0
 10
0.229167
 20
0.284776
 30
0.0
 40
0
 41
0
  0
VERTEX
  8
0
 10
0.229167
 20
0.423665
 30
0.0
 40
0
 41
0
  0
SEQEND
 8
0
  0
POLYLINE
  8
0
 62
     0
 66
     1
 10
0
 20
0
 30
0.0
 70
     1
 40
0
 41
0
  0
VERTEX
  8
0
 10
0.186199
 20
0.281304
 30
0.0
 40
0
 41
0
  0
VERTEX
  8
0
 10
0.207682
 20
0.281304
 30
0.0
 40
0
 41
0
  0
VERTEX
  8
0
 10
0.207682
 20
0.0944011
 30
0.0
 40
0
 41
0
  0
VERTEX
  8
0
 10
0.186199
 20
0.0944011
 30
0.0
 40
0
 41
0
  0
VERTEX
  8
0
 10
0.186199
 20
0.281304
 30
0.0
 40
0
 41
0
  0
SEQEND
 8
0
  0
POLYLINE
  8
0
 62
     0
 66
     1
 10
0
 20
0
 30
0.0
 70
     1
 40
0
 41
0
  0
VERTEX
  8
0
 10
0.208333
 20
0.0944553
 30
0.0
 40
0
 41
0
  0
VERTEX
  8
0
 10
0.353842
 20
0.0944553
 30
0.0
 40
0
 41
0
  0
VERTEX
  8
0
 10
0.353842
 20
0.0736219
 30
0.0
 40
0
 41
0
  0
VERTEX
  8
0
 10
0.208333
 20
0.0736219
 30
0.0
 40
0
 41
0
  0
VERTEX
  8
0
 10
0.208333
 20
0.0944553
 30
0.0
 40
0
 41
0
  0
SEQEND
 8
0
  0
POLYLINE
  8
0
 62
     0
 66
     1
 10
0
 20
0
 30
0.0
 70
     1
 40
0
 41
0
  0
VERTEX
  8
0
 10
0.354492
 20
0.280653
 30
0.0
 40
0
 41
0
  0
VERTEX
  8
0
 10
0.375325
 20
0.280653
 30
0.0
 40
0
 41
0
  0
VERTEX
  8
0
 10
0.375325
 20
0.0941297
 30
0.0
 40
0
 41
0
  0
VERTEX
  8
0
 10
0.354492
 20
0.0941297
 30
0.0
 40
0
 41
0
  0
VERTEX
  8
0
 10
0.354492
 20
0.280653
 30
0.0
 40
0
 41
0
  0
SEQEND
 8
0
  0
POLYLINE
  8
0
 62
     0
 66
     1
 10
0
 20
0
 30
0.0
 70
     1
 40
0
 41
0
  0
VERTEX
  8
0
 10
0.205729
 20
0.281304
 30
0.0
 40
0
 41
0
  0
VERTEX
  8
0
 10
0.357639
 20
0.281304
 30
0.0
 40
0
 41
0
  0
VERTEX
  8
0
 10
0.357639
 20
0.261339
 30
0.0
 40
0
 41
0
  0
VERTEX
  8
0
 10
0.205729
 20
0.261339
 30
0.0
 40
0
 41
0
  0
VERTEX
  8
0
 10
0.205729
 20
0.281304
 30
0.0
 40
0
 41
0
  0
SEQEND
 8
0
  0
POLYLINE
  8
0
 62
     0
 66
     1
 10
0
 20
0
 30
0.0
 70
     1
 40
0
 41
0
  0
VERTEX
  8
0
 10
0.207465
 20
0.530328
 30
0.0
 40
0
 41
0
  0
VERTEX
  8
0
 10
0.228299
 20
0.530328
 30
0.0
 40
0
 41
0
  0
VERTEX
  8
0
 10
0.228299
 20
0.428765
 30
0.0
 40
0
 41
0
  0
VERTEX
  8
0
 10
0.207465
 20
0.428765
 30
0.0
 40
0
 41
0
  0
VERTEX
  8
0
 10
0.207465
 20
0.530328
 30
0.0
 40
0
 41
0
  0
SEQEND
 8
0
  0
POLYLINE
  8
0
 62
     0
 66
     1
 10
0
 20
0
 30
0.0
 70
     1
 40
0
 41
0
  0
VERTEX
  8
0
 10
0.333333
 20
0.530328
 30
0.0
 40
0
 41
0
  0
VERTEX
  8
0
 10
0.354167
 20
0.530328
 30
0.0
 40
0
 41
0
  0
VERTEX
  8
0
 10
0.354167
 20
0.427897
 30
0.0
 40
0
 41
0
  0
VERTEX
  8
0
 10
0.333333
 20
0.427897
 30
0.0
 40
0
 41
0
  0
VERTEX
  8
0
 10
0.333333
 20
0.530328
 30
0.0
 40
0
 41
0
  0
SEQEND
 8
0
  0
POLYLINE
  8
0
 62
     0
 66
     1
 10
0
 20
0
 30
0.0
 70
     1
 40
0
 41
0
  0
VERTEX
  8
0
 10
0.226563
 20
0.447863
 30
0.0
 40
0
 41
0
  0
VERTEX
  8
0
 10
0.335938
 20
0.447863
 30
0.0
 40
0
 41
0
  0
VERTEX
  8
0
 10
0.335938
 20
0.428765
 30
0.0
 40
0
 41
0
  0
VERTEX
  8
0
 10
0.226563
 20
0.428765
 30
0.0
 40
0
 41
0
  0
VERTEX
  8
0
 10
0.226563
 20
0.447863
 30
0.0
 40
0
 41
0
  0
SEQEND
 8
0
  0
POLYLINE
  8
0
 62
     0
 66
     1
 10
0
 20
0
 30
0.0
 70
     1
 40
0
 41
0
  0
VERTEX
  8
0
 10
0.230035
 20
0.550293
 30
0.0
 40
0
 41
0
  0
VERTEX
  8
0
 10
0.333333
 20
0.550293
 30
0.0
 40
0
 41
0
  0
VERTEX
  8
0
 10
0.333333
 20
0.530328
 30
0.0
 40
0
 41
0
  0
VERTEX
  8
0
 10
0.230035
 20
0.530328
 30
0.0
 40
0
 41
0
  0
VERTEX
  8
0
 10
0.230035
 20
0.550293
 30
0.0
 40
0
 41
0
  0
SEQEND
 8
0
  0
POLYLINE
  8
0
 62
     0
 66
     1
 10
0
 20
0
 30
0.0
 70
     1
 40
0
 41
0
  0
VERTEX
  8
0
 10
0.0625
 20
0.342936
 30
0.0
 40
0
 41
0
  0
VERTEX
  8
0
 10
0.103299
 20
0.342936
 30
0.0
 40
0
 41
0
  0
VERTEX
  8
0
 10
0.103299
 20
0.260471
 30
0.0
 40
0
 41
0
  0
VERTEX
  8
0
 10
0.0625
 20
0.260471
 30
0.0
 40
0
 41
0
  0
VERTEX
  8
0
 10
0.0625
 20
0.342936
 30
0.0
 40
0
 41
0
  0
SEQEND
 8
0
  0
POLYLINE
  8
0
 62
     0
 66
     1
 10
0
 20
0
 30
0.0
 70
     1
 40
0
 41
0
  0
VERTEX
  8
0
 10
0.0425347
 20
0.322103
 30
0.0
 40
0
 41
0
  0
VERTEX
  8
0
 10
0.124132
 20
0.322103
 30
0.0
 40
0
 41
0
  0
VERTEX
  8
0
 10
0.124132
 20
0.28304
 30
0.0
 40
0
 41
0
  0
VERTEX
  8
0
 10
0.0425347
 20
0.28304
 30
0.0
 40
0
 41
0
  0
VERTEX
  8
0
 10
0.0425347
 20
0.322103
 30
0.0
 40
0
 41
0
  0
SEQEND
 8
0
  0
POLYLINE
  8
0
 62
     0
 66
     1
 10
0
 20
0
 30
0.0
 70
     1
 40
0
 41
0
  0
VERTEX
  8
0
 10
0.126248
 20
0.552137
 30
0.0
 40
0
 41
0
  0
VERTEX
  8
0
 10
0.207465
 20
0.552137
 30
0.0
 40
0
 41
0
  0
VERTEX
  8
0
 10
0.207465
 20
0.531304
 30
0.0
 40
0
 41
0
  0
VERTEX
  8
0
 10
0.126248
 20
0.531304
 30
0.0
 40
0
 41
0
  0
VERTEX
  8
0
 10
0.126248
 20
0.552137
 30
0.0
 40
0
 41
0
  0
SEQEND
 8
0
  0
POLYLINE
  8
0
 62
     0
 66
     1
 10
0
 20
0
 30
0.0
 70
     1
 40
0
 41
0
  0
VERTEX
  8
0
 10
0.104167
 20
0.53125
 30
0.0
 40
0
 41
0
  0
VERTEX
  8
0
 10
0.125868
 20
0.53125
 30
0.0
 40
0
 41
0
  0
VERTEX
  8
0
 10
0.125868
 20
0.510471
 30
0.0
 40
0
 41
0
  0
VERTEX
  8
0
 10
0.104167
 20
0.510471
 30
0.0
 40
0
 41
0
  0
VERTEX
  8
0
 10
0.104167
 20
0.53125
 30
0.0
 40
0
 41
0
  0
SEQEND
 8
0
  0
POLYLINE
  8
0
 62
     0
 66
     1
 10
0
 20
0
 30
0.0
 70
     1
 40
0
 41
0
  0
VERTEX
  8
0
 10
0.0833333
 20
0.511339
 30
0.0
 40
0
 41
0
  0
VERTEX
  8
0
 10
0.104167
 20
0.511339
 30
0.0
 40
0
 41
0
  0
VERTEX
  8
0
 10
0.104167
 20
0.489637
 30
0.0
 40
0
 41
0
  0
VERTEX
  8
0
 10
0.0833333
 20
0.489637
 30
0.0
 40
0
 41
0
  0
VERTEX
  8
0
 10
0.0833333
 20
0.511339
 30
0.0
 40
0
 41
0
  0
SEQEND
 8
0
  0
POLYLINE
  8
0
 62
     0
 66
     1
 10
0
 20
0
 30
0.0
 70
     1
 40
0
 41
0
  0
VERTEX
  8
0
 10
0.0625
 20
0.490506
 30
0.0
 40
0
 41
0
  0
VERTEX
  8
0
 10
0.0833333
 20
0.490506
 30
0.0
 40
0
 41
0
  0
VERTEX
  8
0
 10
0.0833333
 20
0.448242
 30
0.0
 40
0
 41
0
  0
VERTEX
  8
0
 10
0.0625
 20
0.448242
 30
0.0
 40
0
 41
0
  0
VERTEX
  8
0
 10
0.0625
 20
0.490506
 30
0.0
 40
0
 41
0
  0
SEQEND
 8
0
  0
POLYLINE
  8
0
 62
     0
 66
     1
 10
0
 20
0
 30
0.0
 70
     1
 40
0
 41
0
  0
VERTEX
  8
0
 10
0.0832249
 20
0.448188
 30
0.0
 40
0
 41
0
  0
VERTEX
  8
0
 10
0.104167
 20
0.448188
 30
0.0
 40
0
 41
0
  0
VERTEX
  8
0
 10
0.104167
 20
0.427138
 30
0.0
 40
0
 41
0
  0
VERTEX
  8
0
 10
0.0832249
 20
0.427138
 30
0.0
 40
0
 41
0
  0
VERTEX
  8
0
 10
0.0832249
 20
0.448188
 30
0.0
 40
0
 41
0
  0
SEQEND
 8
0
  0
POLYLINE
  8
0
 62
     0
 66
     1
 10
0
 20
0
 30
0.0
 70
     1
 40
0
 41
0
  0
VERTEX
  8
0
 10
0.104167
 20
0.427138
 30
0.0
 40
0
 41
0
  0
VERTEX
  8
0
 10
0.124892
 20
0.427138
 30
0.0
 40
0
 41
0
  0
VERTEX
  8
0
 10
0.124892
 20
0.406629
 30
0.0
 40
0
 41
0
  0
VERTEX
  8
0
 10
0.104167
 20
0.406629
 30
0.0
 40
0
 41
0
  0
VERTEX
  8
0
 10
0.104167
 20
0.427138
 30
0.0
 40
0
 41
0
  0
SEQEND
 8
0
  0
POLYLINE
  8
0
 62
     0
 66
     1
 10
0
 20
0
 30
0.0
 70
     1
 40
0
 41
0
  0
VERTEX
  8
0
 10
0.0394965
 20
0.386339
 30
0.0
 40
0
 41
0
  0
VERTEX
  8
0
 10
0.146701
 20
0.386339
 30
0.0
 40
0
 41
0
  0
VERTEX
  8
0
 10
0.146701
 20
0.365506
 30
0.0
 40
0
 41
0
  0
VERTEX
  8
0
 10
0.0394965
 20
0.365506
 30
0.0
 40
0
 41
0
  0
VERTEX
  8
0
 10
0.0394965
 20
0.386339
 30
0.0
 40
0
 41
0
  0
SEQEND
 8
0
  0
POLYLINE
  8
0
 62
     0
 66
     1
 10
0
 20
0
 30
0.0
 70
     1
 40
0
 41
0
  0
VERTEX
  8
0
 10
0.125
 20
0.406575
 30
0.0
 40
0
 41
0
  0
VERTEX
  8
0
 10
0.146539
 20
0.406575
 30
0.0
 40
0
 41
0
  0
VERTEX
  8
0
 10
0.146539
 20
0.386339
 30
0.0
 40
0
 41
0
  0
VERTEX
  8
0
 10
0.125
 20
0.386339
 30
0.0
 40
0
 41
0
  0
VERTEX
  8
0
 10
0.125
 20
0.406575
 30
0.0
 40
0
 41
0
  0
SEQEND
 8
0
  0
POLYLINE
  8
0
 62
     0
 66
     1
 10
0
 20
0
 30
0.0
 70
     1
 40
0
 41
0
  0
VERTEX
  8
0
 10
0.0199653
 20
0.365506
 30
0.0
 40
0
 41
0
  0
VERTEX
  8
0
 10
0.0407986
 20
0.365506
 30
0.0
 40
0
 41
0
  0
VERTEX
  8
0
 10
0.0407986
 20
0.239638
 30
0.0
 40
0
 41
0
  0
VERTEX
  8
0
 10
0.0199653
 20
0.239638
 30
0.0
 40
0
 41
0
  0
VERTEX
  8
0
 10
0.0199653
 20
0.365506
 30
0.0
 40
0
 41
0
  0
SEQEND
 8
0
  0
POLYLINE
  8
0
 62
     0
 66
     1
 10
0
 20
0
 30
0.0
 70
     1
 40
0
 41
0
  0
VERTEX
  8
0
 10
0.0400933
 20
0.239692
 30
0.0
 40
0
 41
0
  0
VERTEX
  8
0
 10
0.145779
 20
0.239692
 30
0.0
 40
0
 41
0
  0
VERTEX
  8
0
 10
0.145779
 20
0.218642
 30
0.0
 40
0
 41
0
  0
VERTEX
  8
0
 10
0.0400933
 20
0.218642
 30
0.0
 40
0
 41
0
  0
VERTEX
  8
0
 10
0.0400933
 20
0.239692
 30
0.0
 40
0
 41
0
  0
SEQEND
 8
0
  0
POLYLINE
  8
0
 62
     0
 66
     1
 10
0
 20
0
 30
0.0
 70
     1
 40
0
 41
0
  0
VERTEX
  8
0
 10
0.125
 20
0.21951
 30
0.0
 40
0
 41
0
  0
VERTEX
  8
0
 10
0.145779
 20
0.21951
 30
0.0
 40
0
 41
0
  0
VERTEX
  8
0
 10
0.145779
 20
0.197808
 30
0.0
 40
0
 41
0
  0
VERTEX
  8
0
 10
0.125
 20
0.197808
 30
0.0
 40
0
 41
0
  0
VERTEX
  8
0
 10
0.125
 20
0.21951
 30
0.0
 40
0
 41
0
  0
SEQEND
 8
0
  0
POLYLINE
  8
0
 62
     0
 66
     1
 10
0
 20
0
 30
0.0
 70
     1
 40
0
 41
0
  0
VERTEX
  8
0
 10
0.457465
 20
0.197646
 30
0.0
 40
0
 41
0
  0
VERTEX
  8
0
 10
0.478299
 20
0.197646
 30
0.0
 40
0
 41
0
  0
VERTEX
  8
0
 10
0.478299
 20
0.176813
 30
0.0
 40
0
 41
0
  0
VERTEX
  8
0
 10
0.457465
 20
0.176813
 30
0.0
 40
0
 41
0
  0
VERTEX
  8
0
 10
0.457465
 20
0.197646
 30
0.0
 40
0
 41
0
  0
SEQEND
 8
0
  0
POLYLINE
  8
0
 62
     0
 66
     1
 10
0
 20
0
 30
0.0
 70
     1
 40
0
 41
0
  0
VERTEX
  8
0
 10
0.478733
 20
0.177246
 30
0.0
 40
0
 41
0
  0
VERTEX
  8
0
 10
0.499567
 20
0.177246
 30
0.0
 40
0
 41
0
  0
VERTEX
  8
0
 10
0.499567
 20
0.155979
 30
0.0
 40
0
 41
0
  0
VERTEX
  8
0
 10
0.478733
 20
0.155979
 30
0.0
 40
0
 41
0
  0
VERTEX
  8
0
 10
0.478733
 20
0.177246
 30
0.0
 40
0
 41
0
  0
SEQEND
 8
0
  0
POLYLINE
  8
0
 62
     0
 66
     1
 10
0
 20
0
 30
0.0
 70
     1
 40
0
 41
0
  0
VERTEX
  8
0
 10
0.499132
 20
0.155544
 30
0.0
 40
0
 41
0
  0
VERTEX
  8
0
 10
0.5204
 20
0.155544
 30
0.0
 40
0
 41
0
  0
VERTEX
  8
0
 10
0.5204
 20
0.135579
 30
0.0
 40
0
 41
0
  0
VERTEX
  8
0
 10
0.499132
 20
0.135579
 30
0.0
 40
0
 41
0
  0
VERTEX
  8
0
 10
0.499132
 20
0.155544
 30
0.0
 40
0
 41
0
  0
SEQEND
 8
0
  0
POLYLINE
  8
0
 62
     0
 66
     1
 10
0
 20
0
 30
0.0
 70
     1
 40
0
 41
0
  0
VERTEX
  8
0
 10
0.5204
 20
0.134169
 30
0.0
 40
0
 41
0
  0
VERTEX
  8
0
 10
0.540799
 20
0.134169
 30
0.0
 40
0
 41
0
  0
VERTEX
  8
0
 10
0.540799
 20
0.114204
 30
0.0
 40
0
 41
0
  0
VERTEX
  8
0
 10
0.5204
 20
0.114204
 30
0.0
 40
0
 41
0
  0
VERTEX
  8
0
 10
0.5204
 20
0.134169
 30
0.0
 40
0
 41
0
  0
SEQEND
 8
0
  0
POLYLINE
  8
0
 62
     0
 66
     1
 10
0
 20
0
 30
0.0
 70
     1
 40
0
 41
0
  0
VERTEX
  8
0
 10
0.519965
 20
0.114204
 30
0.0
 40
0
 41
0
  0
VERTEX
  8
0
 10
0.541233
 20
0.114204
 30
0.0
 40
0
 41
0
  0
VERTEX
  8
0
 10
0.541233
 20
0.0933703
 30
0.0
 40
0
 41
0
  0
VERTEX
  8
0
 10
0.519965
 20
0.0933703
 30
0.0
 40
0
 41
0
  0
VERTEX
  8
0
 10
0.519965
 20
0.114204
 30
0.0
 40
0
 41
0
  0
SEQEND
 8
0
  0
POLYLINE
  8
0
 62
     0
 66
     1
 10
0
 20
0
 30
0.0
 70
     1
 40
0
 41
0
  0
VERTEX
  8
0
 10
0.5
 20
0.0933703
 30
0.0
 40
0
 41
0
  0
VERTEX
  8
0
 10
0.519965
 20
0.0933703
 30
0.0
 40
0
 41
0
  0
VERTEX
  8
0
 10
0.519965
 20
0.0725369
 30
0.0
 40
0
 41
0
  0
VERTEX
  8
0
 10
0.5
 20
0.0725369
 30
0.0
 40
0
 41
0
  0
VERTEX
  8
0
 10
0.5
 20
0.0933703
 30
0.0
 40
0
 41
0
  0
SEQEND
 8
0
  0
POLYLINE
  8
0
 62
     0
 66
     1
 10
0
 20
0
 30
0.0
 70
     1
 40
0
 41
0
  0
VERTEX
  8
0
 10
0.481119
 20
0.0721029
 30
0.0
 40
0
 41
0
  0
VERTEX
  8
0
 10
0.500651
 20
0.0721029
 30
0.0
 40
0
 41
0
  0
VERTEX
  8
0
 10
0.500651
 20
0.0504015
 30
0.0
 40
0
 41
0
  0
VERTEX
  8
0
 10
0.481119
 20
0.0504015
 30
0.0
 40
0
 41
0
  0
VERTEX
  8
0
 10
0.481119
 20
0.0721029
 30
0.0
 40
0
 41
0
  0
SEQEND
 8
0
  0
POLYLINE
  8
0
 62
     0
 66
     1
 10
0
 20
0
 30
0.0
 70
     1
 40
0
 41
0
  0
VERTEX
  8
0
 10
0.394965
 20
0.0507813
 30
0.0
 40
0
 41
0
  0
VERTEX
  8
0
 10
0.479167
 20
0.0507813
 30
0.0
 40
0
 41
0
  0
VERTEX
  8
0
 10
0.479167
 20
0.030816
 30
0.0
 40
0
 41
0
  0
VERTEX
  8
0
 10
0.394965
 20
0.030816
 30
0.0
 40
0
 41
0
  0
VERTEX
  8
0
 10
0.394965
 20
0.0507813
 30
0.0
 40
0
 41
0
  0
SEQEND
 8
0
  0
POLYLINE
  8
0
 62
     0
 66
     1
 10
0
 20
0
 30
0.0
 70
     1
 40
0
 41
0
  0
VERTEX
  8
0
 10
0.374132
 20
0.0737847
 30
0.0
 40
0
 41
0
  0
VERTEX
  8
0
 10
0.395833
 20
0.0737847
 30
0.0
 40
0
 41
0
  0
VERTEX
  8
0
 10
0.395833
 20
0.0520833
 30
0.0
 40
0
 41
0
  0
VERTEX
  8
0
 10
0.374132
 20
0.0520833
 30
0.0
 40
0
 41
0
  0
VERTEX
  8
0
 10
0.374132
 20
0.0737847
 30
0.0
 40
0
 41
0
  0
SEQEND
 8
0
  0
POLYLINE
  8
0
 62
     0
 66
     1
 10
0
 20
0
 30
0.0
 70
     1
 40
0
 41
0
  0
VERTEX
  8
0
 10
0.479601
 20
0.342068
 30
0.0
 40
0
 41
0
  0
VERTEX
  8
0
 10
0.5204
 20
0.342068
 30
0.0
 40
0
 41
0
  0
VERTEX
  8
0
 10
0.5204
 20
0.259603
 30
0.0
 40
0
 41
0
  0
VERTEX
  8
0
 10
0.479601
 20
0.259603
 30
0.0
 40
0
 41
0
  0
VERTEX
  8
0
 10
0.479601
 20
0.342068
 30
0.0
 40
0
 41
0
  0
SEQEND
 8
0
  0
POLYLINE
  8
0
 62
     0
 66
     1
 10
0
 20
0
 30
0.0
 70
     1
 40
0
 41
0
  0
VERTEX
  8
0
 10
0.458768
 20
0.321235
 30
0.0
 40
0
 41
0
  0
VERTEX
  8
0
 10
0.540365
 20
0.321235
 30
0.0
 40
0
 41
0
  0
VERTEX
  8
0
 10
0.540365
 20
0.282172
 30
0.0
 40
0
 41
0
  0
VERTEX
  8
0
 10
0.458768
 20
0.282172
 30
0.0
 40
0
 41
0
  0
VERTEX
  8
0
 10
0.458768
 20
0.321235
 30
0.0
 40
0
 41
0
  0
SEQEND
 8
0
  0
POLYLINE
  8
0
 62
     0
 66
     1
 10
0
 20
0
 30
0.0
 70
     1
 40
0
 41
0
  0
VERTEX
  8
0
 10
0.354601
 20
0.551269
 30
0.0
 40
0
 41
0
  0
VERTEX
  8
0
 10
0.456651
 20
0.551269
 30
0.0
 40
0
 41
0
  0
VERTEX
  8
0
 10
0.456651
 20
0.530436
 30
0.0
 40
0
 41
0
  0
VERTEX
  8
0
 10
0.354601
 20
0.530436
 30
0.0
 40
0
 41
0
  0
VERTEX
  8
0
 10
0.354601
 20
0.551269
 30
0.0
 40
0
 41
0
  0
SEQEND
 8
0
  0
POLYLINE
  8
0
 62
     0
 66
     1
 10
0
 20
0
 30
0.0
 70
     1
 40
0
 41
0
  0
VERTEX
  8
0
 10
0.457032
 20
0.530382
 30
0.0
 40
0
 41
0
  0
VERTEX
  8
0
 10
0.478733
 20
0.530382
 30
0.0
 40
0
 41
0
  0
VERTEX
  8
0
 10
0.478733
 20
0.509603
 30
0.0
 40
0
 41
0
  0
VERTEX
  8
0
 10
0.457032
 20
0.509603
 30
0.0
 40
0
 41
0
  0
VERTEX
  8
0
 10
0.457032
 20
0.530382
 30
0.0
 40
0
 41
0
  0
SEQEND
 8
0
  0
POLYLINE
  8
0
 62
     0
 66
     1
 10
0
 20
0
 30
0.0
 70
     1
 40
0
 41
0
  0
VERTEX
  8
0
 10
0.478733
 20
0.510471
 30
0.0
 40
0
 41
0
  0
VERTEX
  8
0
 10
0.499567
 20
0.510471
 30
0.0
 40
0
 41
0
  0
VERTEX
  8
0
 10
0.499567
 20
0.488769
 30
0.0
 40
0
 41
0
  0
VERTEX
  8
0
 10
0.478733
 20
0.488769
 30
0.0
 40
0
 41
0
  0
VERTEX
  8
0
 10
0.478733
 20
0.510471
 30
0.0
 40
0
 41
0
  0
SEQEND
 8
0
  0
POLYLINE
  8
0
 62
     0
 66
     1
 10
0
 20
0
 30
0.0
 70
     1
 40
0
 41
0
  0
VERTEX
  8
0
 10
0.499567
 20
0.489637
 30
0.0
 40
0
 41
0
  0
VERTEX
  8
0
 10
0.5204
 20
0.489637
 30
0.0
 40
0
 41
0
  0
VERTEX
  8
0
 10
0.5204
 20
0.447374
 30
0.0
 40
0
 41
0
  0
VERTEX
  8
0
 10
0.499567
 20
0.447374
 30
0.0
 40
0
 41
0
  0
VERTEX
  8
0
 10
0.499567
 20
0.489637
 30
0.0
 40
0
 41
0
  0
SEQEND
 8
0
  0
POLYLINE
  8
0
 62
     0
 66
     1
 10
0
 20
0
 30
0.0
 70
     1
 40
0
 41
0
  0
VERTEX
  8
0
 10
0.478733
 20
0.447319
 30
0.0
 40
0
 41
0
  0
VERTEX
  8
0
 10
0.499675
 20
0.447319
 30
0.0
 40
0
 41
0
  0
VERTEX
  8
0
 10
0.499675
 20
0.426269
 30
0.0
 40
0
 41
0
  0
VERTEX
  8
0
 10
0.478733
 20
0.426269
 30
0.0
 40
0
 41
0
  0
VERTEX
  8
0
 10
0.478733
 20
0.447319
 30
0.0
 40
0
 41
0
  0
SEQEND
 8
0
  0
POLYLINE
  8
0
 62
     0
 66
     1
 10
0
 20
0
 30
0.0
 70
     1
 40
0
 41
0
  0
VERTEX
  8
0
 10
0.458008
 20
0.426269
 30
0.0
 40
0
 41
0
  0
VERTEX
  8
0
 10
0.478733
 20
0.426269
 30
0.0
 40
0
 41
0
  0
VERTEX
  8
0
 10
0.478733
 20
0.405761
 30
0.0
 40
0
 41
0
  0
VERTEX
  8
0
 10
0.458008
 20
0.405761
 30
0.0
 40
0
 41
0
  0
VERTEX
  8
0
 10
0.458008
 20
0.426269
 30
0.0
 40
0
 41
0
  0
SEQEND
 8
0
  0
POLYLINE
  8
0
 62
     0
 66
     1
 10
0
 20
0
 30
0.0
 70
     1
 40
0
 41
0
  0
VERTEX
  8
0
 10
0.436199
 20
0.385471
 30
0.0
 40
0
 41
0
  0
VERTEX
  8
0
 10
0.542101
 20
0.385471
 30
0.0
 40
0
 41
0
  0
VERTEX
  8
0
 10
0.542101
 20
0.364638
 30
0.0
 40
0
 41
0
  0
VERTEX
  8
0
 10
0.436199
 20
0.364638
 30
0.0
 40
0
 41
0
  0
VERTEX
  8
0
 10
0.436199
 20
0.385471
 30
0.0
 40
0
 41
0
  0
SEQEND
 8
0
  0
POLYLINE
  8
0
 62
     0
 66
     1
 10
0
 20
0
 30
0.0
 70
     1
 40
0
 41
0
  0
VERTEX
  8
0
 10
0.436361
 20
0.405707
 30
0.0
 40
0
 41
0
  0
VERTEX
  8
0
 10
0.4579
 20
0.405707
 30
0.0
 40
0
 41
0
  0
VERTEX
  8
0
 10
0.4579
 20
0.385471
 30
0.0
 40
0
 41
0
  0
VERTEX
  8
0
 10
0.436361
 20
0.385471
 30
0.0
 40
0
 41
0
  0
VERTEX
  8
0
 10
0.436361
 20
0.405707
 30
0.0
 40
0
 41
0
  0
SEQEND
 8
0
  0
POLYLINE
  8
0
 62
     0
 66
     1
 10
0
 20
0
 30
0.0
 70
     1
 40
0
 41
0
  0
VERTEX
  8
0
 10
0.542101
 20
0.364638
 30
0.0
 40
0
 41
0
  0
VERTEX
  8
0
 10
0.562935
 20
0.364638
 30
0.0
 40
0
 41
0
  0
VERTEX
  8
0
 10
0.562935
 20
0.238769
 30
0.0
 40
0
 41
0
  0
VERTEX
  8
0
 10
0.542101
 20
0.238769
 30
0.0
 40
0
 41
0
  0
VERTEX
  8
0
 10
0.542101
 20
0.364638
 30
0.0
 40
0
 41
0
  0
SEQEND
 8
0
  0
POLYLINE
  8
0
 62
     0
 66
     1
 10
0
 20
0
 30
0.0
 70
     1
 40
0
 41
0
  0
VERTEX
  8
0
 10
0.437121
 20
0.238824
 30
0.0
 40
0
 41
0
  0
VERTEX
  8
0
 10
0.542806
 20
0.238824
 30
0.0
 40
0
 41
0
  0
VERTEX
  8
0
 10
0.542806
 20
0.217828
 30
0.0
 40
0
 41
0
  0
VERTEX
  8
0
 10
0.437121
 20
0.217828
 30
0.0
 40
0
 41
0
  0
VERTEX
  8
0
 10
0.437121
 20
0.238824
 30
0.0
 40
0
 41
0
  0
SEQEND
 8
0
  0
POLYLINE
  8
0
 62
     0
 66
     1
 10
0
 20
0
 30
0.0
 70
     1
 40
0
 41
0
  0
VERTEX
  8
0
 10
0.437121
 20
0.218642
 30
0.0
 40
0
 41
0
  0
VERTEX
  8
0
 10
0.4579
 20
0.218642
 30
0.0
 40
0
 41
0
  0
VERTEX
  8
0
 10
0.4579
 20
0.19694
 30
0.0
 40
0
 41
0
  0
VERTEX
  8
0
 10
0.437121
 20
0.19694
 30
0.0
 40
0
 41
0
  0
VERTEX
  8
0
 10
0.437121
 20
0.218642
 30
0.0
 40
0
 41
0
  0
SEQEND
 8
0
  0
POLYLINE
  8
0
 62
     0
 66
     1
 10
0
 20
0
 30
0.0
 70
     1
 40
0
 41
0
  0
VERTEX
  8
0
 10
0.415799
 20
0.317763
 30
0.0
 40
0
 41
0
  0
VERTEX
  8
0
 10
0.437121
 20
0.317763
 30
0.0
 40
0
 41
0
  0
VERTEX
  8
0
 10
0.437121
 20
0.217828
 30
0.0
 40
0
 41
0
  0
VERTEX
  8
0
 10
0.415799
 20
0.217828
 30
0.0
 40
0
 41
0
  0
VERTEX
  8
0
 10
0.415799
 20
0.317763
 30
0.0
 40
0
 41
0
  0
SEQEND
 8
0
  0
POLYLINE
  8
0
 62
     0
 66
     1
 10
0
 20
0
 30
0.0
 70
     1
 40
0
 41
0
  0
VERTEX
  8
0
 10
0.395833
 20
0.218588
 30
0.0
 40
0
 41
0
  0
VERTEX
  8
0
 10
0.41645
 20
0.218588
 30
0.0
 40
0
 41
0
  0
VERTEX
  8
0
 10
0.41645
 20
0.198187
 30
0.0
 40
0
 41
0
  0
VERTEX
  8
0
 10
0.395833
 20
0.198187
 30
0.0
 40
0
 41
0
  0
VERTEX
  8
0
 10
0.395833
 20
0.218588
 30
0.0
 40
0
 41
0
  0
SEQEND
 8
0
  0
POLYLINE
  8
0
 62
     0
 66
     1
 10
0
 20
0
 30
0.0
 70
     1
 40
0
 41
0
  0
VERTEX
  8
0
 10
0.375217
 20
0.198187
 30
0.0
 40
0
 41
0
  0
VERTEX
  8
0
 10
0.395617
 20
0.198187
 30
0.0
 40
0
 41
0
  0
VERTEX
  8
0
 10
0.395617
 20
0.177354
 30
0.0
 40
0
 41
0
  0
VERTEX
  8
0
 10
0.375217
 20
0.177354
 30
0.0
 40
0
 41
0
  0
VERTEX
  8
0
 10
0.375217
 20
0.198187
 30
0.0
 40
0
 41
0
  0
SEQEND
 8
0
  0
POLYLINE
  8
0
 62
     0
 66
     1
 10
0
 20
0
 30
0.0
 70
     1
 40
0
 41
0
  0
VERTEX
  8
0
 10
0.104167
 20
0.468804
 30
0.0
 40
0
 41
0
  0
VERTEX
  8
0
 10
0.125
 20
0.468804
 30
0.0
 40
0
 41
0
  0
VERTEX
  8
0
 10
0.125
 20
0.448406
 30
0.0
 40
0
 41
0
  0
VERTEX
  8
0
 10
0.104167
 20
0.448406
 30
0.0
 40
0
 41
0
  0
VERTEX
  8
0
 10
0.104167
 20
0.468804
 30
0.0
 40
0
 41
0
  0
SEQEND
 8
0
  0
POLYLINE
  8
0
 62
     0
 66
     1
 10
0
 20
0
 30
0.0
 70
     1
 40
0
 41
0
  0
VERTEX
  8
0
 10
0.125
 20
0.489204
 30
0.0
 40
0
 41
0
  0
VERTEX
  8
0
 10
0.145833
 20
0.489204
 30
0.0
 40
0
 41
0
  0
VERTEX
  8
0
 10
0.145833
 20
0.468804
 30
0.0
 40
0
 41
0
  0
VERTEX
  8
0
 10
0.125
 20
0.468804
 30
0.0
 40
0
 41
0
  0
VERTEX
  8
0
 10
0.125
 20
0.489204
 30
0.0
 40
0
 41
0
  0
SEQEND
 8
0
  0
POLYLINE
  8
0
 62
     0
 66
     1
 10
0
 20
0
 30
0.0
 70
     1
 40
0
 41
0
  0
VERTEX
  8
0
 10
0.146268
 20
0.510471
 30
0.0
 40
0
 41
0
  0
VERTEX
  8
0
 10
0.167101
 20
0.510471
 30
0.0
 40
0
 41
0
  0
VERTEX
  8
0
 10
0.167101
 20
0.490072
 30
0.0
 40
0
 41
0
  0
VERTEX
  8
0
 10
0.146268
 20
0.490072
 30
0.0
 40
0
 41
0
  0
VERTEX
  8
0
 10
0.146268
 20
0.510471
 30
0.0
 40
0
 41
0
  0
SEQEND
 8
0
  0
POLYLINE
  8
0
 62
     0
 66
     1
 10
0
 20
0
 30
0.0
 70
     1
 40
0
 41
0
  0
VERTEX
  8
0
 10
0.3954
 20
0.510037
 30
0.0
 40
0
 41
0
  0
VERTEX
  8
0
 10
0.416233
 20
0.510037
 30
0.0
 40
0
 41
0
  0
VERTEX
  8
0
 10
0.416233
 20
0.489637
 30
0.0
 40
0
 41
0
  0
VERTEX
  8
0
 10
0.3954
 20
0.489637
 30
0.0
 40
0
 41
0
  0
VERTEX
  8
0
 10
0.3954
 20
0.510037
 30
0.0
 40
0
 41
0
  0
SEQEND
 8
0
  0
POLYLINE
  8
0
 62
     0
 66
     1
 10
0
 20
0
 30
0.0
 70
     1
 40
0
 41
0
  0
VERTEX
  8
0
 10
0.416667
 20
0.489637
 30
0.0
 40
0
 41
0
  0
VERTEX
  8
0
 10
0.4375
 20
0.489637
 30
0.0
 40
0
 41
0
  0
VERTEX
  8
0
 10
0.4375
 20
0.469239
 30
0.0
 40
0
 41
0
  0
VERTEX
  8
0
 10
0.416667
 20
0.469239
 30
0.0
 40
0
 41
0
  0
VERTEX
  8
0
 10
0.416667
 20
0.489637
 30
0.0
 40
0
 41
0
  0
SEQEND
 8
0
  0
POLYLINE
  8
0
 62
     0
 66
     1
 10
0
 20
0
 30
0.0
 70
     1
 40
0
 41
0
  0
VERTEX
  8
0
 10
0.4375
 20
0.468804
 30
0.0
 40
0
 41
0
  0
VERTEX
  8
0
 10
0.458333
 20
0.468804
 30
0.0
 40
0
 41
0
  0
VERTEX
  8
0
 10
0.458333
 20
0.448406
 30
0.0
 40
0
 41
0
  0
VERTEX
  8
0
 10
0.4375
 20
0.448406
 30
0.0
 40
0
 41
0
  0
VERTEX
  8
0
 10
0.4375
 20
0.468804
 30
0.0
 40
0
 41
0
  0
SEQEND
 8
0
  0
POLYLINE
  8
0
 62
     0
 66
     1
 10
0
 20
0
 30
0.0
 70
     1
 40
0
 41
0
  0
VERTEX
  8
0
 10
0.165365
 20
0.114366
 30
0.0
 40
0
 41
0
  0
VERTEX
  8
0
 10
0.186199
 20
0.114366
 30
0.0
 40
0
 41
0
  0
VERTEX
  8
0
 10
0.186199
 20
0.0939671
 30
0.0
 40
0
 41
0
  0
VERTEX
  8
0
 10
0.165365
 20
0.0939671
 30
0.0
 40
0
 41
0
  0
VERTEX
  8
0
 10
0.165365
 20
0.114366
 30
0.0
 40
0
 41
0
  0
SEQEND
 8
0
  0
POLYLINE
  8
0
 62
     0
 66
     1
 10
0
 20
0
 30
0.0
 70
     1
 40
0
 41
0
  0
VERTEX
  8
0
 10
0.1454
 20
0.135037
 30
0.0
 40
0
 41
0
  0
VERTEX
  8
0
 10
0.166233
 20
0.135037
 30
0.0
 40
0
 41
0
  0
VERTEX
  8
0
 10
0.166233
 20
0.114638
 30
0.0
 40
0
 41
0
  0
VERTEX
  8
0
 10
0.1454
 20
0.114638
 30
0.0
 40
0
 41
0
  0
VERTEX
  8
0
 10
0.1454
 20
0.135037
 30
0.0
 40
0
 41
0
  0
SEQEND
 8
0
  0
POLYLINE
  8
0
 62
     0
 66
     1
 10
0
 20
0
 30
0.0
 70
     1
 40
0
 41
0
  0
VERTEX
  8
0
 10
0.125
 20
0.155871
 30
0.0
 40
0
 41
0
  0
VERTEX
  8
0
 10
0.145833
 20
0.155871
 30
0.0
 40
0
 41
0
  0
VERTEX
  8
0
 10
0.145833
 20
0.135417
 30
0.0
 40
0
 41
0
  0
VERTEX
  8
0
 10
0.125
 20
0.135417
 30
0.0
 40
0
 41
0
  0
VERTEX
  8
0
 10
0.125
 20
0.155871
 30
0.0
 40
0
 41
0
  0
SEQEND
 8
0
  0
POLYLINE
  8
0
 62
     0
 66
     1
 10
0
 20
0
 30
0.0
 70
     1
 40
0
 41
0
  0
VERTEX
  8
0
 10
0.458333
 20
0.156304
 30
0.0
 40
0
 41
0
  0
VERTEX
  8
0
 10
0.479167
 20
0.156304
 30
0.0
 40
0
 41
0
  0
VERTEX
  8
0
 10
0.479167
 20
0.135851
 30
0.0
 40
0
 41
0
  0
VERTEX
  8
0
 10
0.458333
 20
0.135851
 30
0.0
 40
0
 41
0
  0
VERTEX
  8
0
 10
0.458333
 20
0.156304
 30
0.0
 40
0
 41
0
  0
SEQEND
 8
0
  0
POLYLINE
  8
0
 62
     0
 66
     1
 10
0
 20
0
 30
0.0
 70
     1
 40
0
 41
0
  0
VERTEX
  8
0
 10
0.437935
 20
0.135037
 30
0.0
 40
0
 41
0
  0
VERTEX
  8
0
 10
0.458768
 20
0.135037
 30
0.0
 40
0
 41
0
  0
VERTEX
  8
0
 10
0.458768
 20
0.114638
 30
0.0
 40
0
 41
0
  0
VERTEX
  8
0
 10
0.437935
 20
0.114638
 30
0.0
 40
0
 41
0
  0
VERTEX
  8
0
 10
0.437935
 20
0.135037
 30
0.0
 40
0
 41
0
  0
SEQEND
 8
0
  0
POLYLINE
  8
0
 62
     0
 66
     1
 10
0
 20
0
 30
0.0
 70
     1
 40
0
 41
0
  0
VERTEX
  8
0
 10
0.416233
 20
0.11377
 30
0.0
 40
0
 41
0
  0
VERTEX
  8
0
 10
0.437067
 20
0.11377
 30
0.0
 40
0
 41
0
  0
VERTEX
  8
0
 10
0.437067
 20
0.0933703
 30
0.0
 40
0
 41
0
  0
VERTEX
  8
0
 10
0.416233
 20
0.0933703
 30
0.0
 40
0
 41
0
  0
VERTEX
  8
0
 10
0.416233
 20
0.11377
 30
0.0
 40
0
 41
0
  0
SEQEND
 8
0
  0
POLYLINE
  8
0
 62
     0
 66
     1
 10
0
 20
0
 30
0.0
 70
     1
 40
0
 41
0
  0
VERTEX
  8
0
 10
0.104601
 20
0.198514
 30
0.0
 40
0
 41
0
  0
VERTEX
  8
0
 10
0.125434
 20
0.198514
 30
0.0
 40
0
 41
0
  0
VERTEX
  8
0
 10
0.125434
 20
0.177681
 30
0.0
 40
0
 41
0
  0
VERTEX
  8
0
 10
0.104601
 20
0.177681
 30
0.0
 40
0
 41
0
  0
VERTEX
  8
0
 10
0.104601
 20
0.198514
 30
0.0
 40
0
 41
0
  0
SEQEND
 8
0
  0
POLYLINE
  8
0
 62
     0
 66
     1
 10
0
 20
0
 30
0.0
 70
     1
 40
0
 41
0
  0
VERTEX
  8
0
 10
0.0833333
 20
0.178114
 30
0.0
 40
0
 41
0
  0
VERTEX
  8
0
 10
0.104167
 20
0.178114
 30
0.0
 40
0
 41
0
  0
VERTEX
  8
0
 10
0.104167
 20
0.156847
 30
0.0
 40
0
 41
0
  0
VERTEX
  8
0
 10
0.0833333
 20
0.156847
 30
0.0
 40
0
 41
0
  0
VERTEX
  8
0
 10
0.0833333
 20
0.178114
 30
0.0
 40
0
 41
0
  0
SEQEND
 8
0
  0
POLYLINE
  8
0
 62
     0
 66
     1
 10
0
 20
0
 30
0.0
 70
     1
 40
0
 41
0
  0
VERTEX
  8
0
 10
0.0625
 20
0.156412
 30
0.0
 40
0
 41
0
  0
VERTEX
  8
0
 10
0.0837674
 20
0.156412
 30
0.0
 40
0
 41
0
  0
VERTEX
  8
0
 10
0.0837674
 20
0.136447
 30
0.0
 40
0
 41
0
  0
VERTEX
  8
0
 10
0.0625
 20
0.136447
 30
0.0
 40
0
 41
0
  0
VERTEX
  8
0
 10
0.0625
 20
0.156412
 30
0.0
 40
0
 41
0
  0
SEQEND
 8
0
  0
POLYLINE
  8
0
 62
     0
 66
     1
 10
0
 20
0
 30
0.0
 70
     1
 40
0
 41
0
  0
VERTEX
  8
0
 10
0.0421007
 20
0.135037
 30
0.0
 40
0
 41
0
  0
VERTEX
  8
0
 10
0.0625
 20
0.135037
 30
0.0
 40
0
 41
0
  0
VERTEX
  8
0
 10
0.0625
 20
0.115072
 30
0.0
 40
0
 41
0
  0
VERTEX
  8
0
 10
0.0421007
 20
0.115072
 30
0.0
 40
0
 41
0
  0
VERTEX
  8
0
 10
0.0421007
 20
0.135037
 30
0.0
 40
0
 41
0
  0
SEQEND
 8
0
  0
POLYLINE
  8
0
 62
     0
 66
     1
 10
0
 20
0
 30
0.0
 70
     1
 40
0
 41
0
  0
VERTEX
  8
0
 10
0.0625
 20
0.115072
 30
0.0
 40
0
 41
0
  0
VERTEX
  8
0
 10
0.0837674
 20
0.115072
 30
0.0
 40
0
 41
0
  0
VERTEX
  8
0
 10
0.0837674
 20
0.0942383
 30
0.0
 40
0
 41
0
  0
VERTEX
  8
0
 10
0.0625
 20
0.0942383
 30
0.0
 40
0
 41
0
  0
VERTEX
  8
0
 10
0.0625
 20
0.115072
 30
0.0
 40
0
 41
0
  0
SEQEND
 8
0
  0
POLYLINE
  8
0
 62
     0
 66
     1
 10
0
 20
0
 30
0.0
 70
     1
 40
0
 41
0
  0
VERTEX
  8
0
 10
0.0837674
 20
0.0942383
 30
0.0
 40
0
 41
0
  0
VERTEX
  8
0
 10
0.103733
 20
0.0942383
 30
0.0
 40
0
 41
0
  0
VERTEX
  8
0
 10
0.103733
 20
0.073405
 30
0.0
 40
0
 41
0
  0
VERTEX
  8
0
 10
0.0837674
 20
0.073405
 30
0.0
 40
0
 41
0
  0
VERTEX
  8
0
 10
0.0837674
 20
0.0942383
 30
0.0
 40
0
 41
0
  0
SEQEND
 8
0
  0
POLYLINE
  8
0
 62
     0
 66
     1
 10
0
 20
0
 30
0.0
 70
     1
 40
0
 41
0
  0
VERTEX
  8
0
 10
0.105035
 20
0.072971
 30
0.0
 40
0
 41
0
  0
VERTEX
  8
0
 10
0.124566
 20
0.072971
 30
0.0
 40
0
 41
0
  0
VERTEX
  8
0
 10
0.124566
 20
0.0512696
 30
0.0
 40
0
 41
0
  0
VERTEX
  8
0
 10
0.105035
 20
0.0512696
 30
0.0
 40
0
 41
0
  0
VERTEX
  8
0
 10
0.105035
 20
0.072971
 30
0.0
 40
0
 41
0
  0
SEQEND
 8
0
  0
POLYLINE
  8
0
 62
     0
 66
     1
 10
0
 20
0
 30
0.0
 70
     1
 40
0
 41
0
  0
VERTEX
  8
0
 10
0.125868
 20
0.0516493
 30
0.0
 40
0
 41
0
  0
VERTEX
  8
0
 10
0.187935
 20
0.0516493
 30
0.0
 40
0
 41
0
  0
VERTEX
  8
0
 10
0.187935
 20
0.031684
 30
0.0
 40
0
 41
0
  0
VERTEX
  8
0
 10
0.125868
 20
0.031684
 30
0.0
 40
0
 41
0
  0
VERTEX
  8
0
 10
0.125868
 20
0.0516493
 30
0.0
 40
0
 41
0
  0
SEQEND
 8
0
  0
POLYLINE
  8
0
 62
     0
 66
     1
 10
0
 20
0
 30
0.0
 70
     1
 40
0
 41
0
  0
VERTEX
  8
0
 10
0.187067
 20
0.0746528
 30
0.0
 40
0
 41
0
  0
VERTEX
  8
0
 10
0.208768
 20
0.0746528
 30
0.0
 40
0
 41
0
  0
VERTEX
  8
0
 10
0.208768
 20
0.0529514
 30
0.0
 40
0
 41
0
  0
VERTEX
  8
0
 10
0.187067
 20
0.0529514
 30
0.0
 40
0
 41
0
  0
VERTEX
  8
0
 10
0.187067
 20
0.0746528
 30
0.0
 40
0
 41
0
  0
SEQEND
 8
0
  0
POLYLINE
  8
0
 62
     0
 66
     1
 10
0
 20
0
 30
0.0
 70
     1
 40
0
 41
0
  0
VERTEX
  8
0
 10
0.145833
 20
0.426921
 30
0.0
 40
0
 41
0
  0
VERTEX
  8
0
 10
0.166667
 20
0.426921
 30
0.0
 40
0
 41
0
  0
VERTEX
  8
0
 10
0.166667
 20
0.406521
 30
0.0
 40
0
 41
0
  0
VERTEX
  8
0
 10
0.145833
 20
0.406521
 30
0.0
 40
0
 41
0
  0
VERTEX
  8
0
 10
0.145833
 20
0.426921
 30
0.0
 40
0
 41
0
  0
SEQEND
 8
0
  0
POLYLINE
  8
0
 62
     0
 66
     1
 10
0
 20
0
 30
0.0
 70
     1
 40
0
 41
0
  0
VERTEX
  8
0
 10
0.166667
 20
0.447103
 30
0.0
 40
0
 41
0
  0
VERTEX
  8
0
 10
0.1875
 20
0.447103
 30
0.0
 40
0
 41
0
  0
VERTEX
  8
0
 10
0.1875
 20
0.426704
 30
0.0
 40
0
 41
0
  0
VERTEX
  8
0
 10
0.166667
 20
0.426704
 30
0.0
 40
0
 41
0
  0
VERTEX
  8
0
 10
0.166667
 20
0.447103
 30
0.0
 40
0
 41
0
  0
SEQEND
 8
0
  0
POLYLINE
  8
0
 62
     0
 66
     1
 10
0
 20
0
 30
0.0
 70
     1
 40
0
 41
0
  0
VERTEX
  8
0
 10
0.355035
 20
0.467936
 30
0.0
 40
0
 41
0
  0
VERTEX
  8
0
 10
0.375868
 20
0.467936
 30
0.0
 40
0
 41
0
  0
VERTEX
  8
0
 10
0.375868
 20
0.447537
 30
0.0
 40
0
 41
0
  0
VERTEX
  8
0
 10
0.355035
 20
0.447537
 30
0.0
 40
0
 41
0
  0
VERTEX
  8
0
 10
0.355035
 20
0.467936
 30
0.0
 40
0
 41
0
  0
SEQEND
 8
0
  0
POLYLINE
  8
0
 62
     0
 66
     1
 10
0
 20
0
 30
0.0
 70
     1
 40
0
 41
0
  0
VERTEX
  8
0
 10
0.375
 20
0.447103
 30
0.0
 40
0
 41
0
  0
VERTEX
  8
0
 10
0.395833
 20
0.447103
 30
0.0
 40
0
 41
0
  0
VERTEX
  8
0
 10
0.395833
 20
0.426704
 30
0.0
 40
0
 41
0
  0
VERTEX
  8
0
 10
0.375
 20
0.426704
 30
0.0
 40
0
 41
0
  0
VERTEX
  8
0
 10
0.375
 20
0.447103
 30
0.0
 40
0
 41
0
  0
SEQEND
 8
0
  0
POLYLINE
  8
0
 62
     0
 66
     1
 10
0
 20
0
 30
0.0
 70
     1
 40
0
 41
0
  0
VERTEX
  8
0
 10
0.145833
 20
0.218804
 30
0.0
 40
0
 41
0
  0
VERTEX
  8
0
 10
0.166667
 20
0.218804
 30
0.0
 40
0
 41
0
  0
VERTEX
  8
0
 10
0.166667
 20
0.198351
 30
0.0
 40
0
 41
0
  0
VERTEX
  8
0
 10
0.145833
 20
0.198351
 30
0.0
 40
0
 41
0
  0
VERTEX
  8
0
 10
0.145833
 20
0.218804
 30
0.0
 40
0
 41
0
  0
SEQEND
 8
0
  0
POLYLINE
  8
0
 62
     0
 66
     1
 10
0
 20
0
 30
0.0
 70
     1
 40
0
 41
0
  0
VERTEX
  8
0
 10
0.166667
 20
0.197971
 30
0.0
 40
0
 41
0
  0
VERTEX
  8
0
 10
0.1875
 20
0.197971
 30
0.0
 40
0
 41
0
  0
VERTEX
  8
0
 10
0.1875
 20
0.177518
 30
0.0
 40
0
 41
0
  0
VERTEX
  8
0
 10
0.166667
 20
0.177518
 30
0.0
 40
0
 41
0
  0
VERTEX
  8
0
 10
0.166667
 20
0.197971
 30
0.0
 40
0
 41
0
  0
SEQEND
 8
0
  0
POLYLINE
  8
0
 62
     0
 66
     1
 10
0
 20
0
 30
0.0
 70
     1
 40
0
 41
0
  0
VERTEX
  8
0
 10
0.229167
 20
0.155817
 30
0.0
 40
0
 41
0
  0
VERTEX
  8
0
 10
0.25
 20
0.155817
 30
0.0
 40
0
 41
0
  0
VERTEX
  8
0
 10
0.25
 20
0.11377
 30
0.0
 40
0
 41
0
  0
VERTEX
  8
0
 10
0.229167
 20
0.11377
 30
0.0
 40
0
 41
0
  0
VERTEX
  8
0
 10
0.229167
 20
0.155817
 30
0.0
 40
0
 41
0
  0
SEQEND
 8
0
  0
POLYLINE
  8
0
 62
     0
 66
     1
 10
0
 20
0
 30
0.0
 70
     1
 40
0
 41
0
  0
VERTEX
  8
0
 10
0.3125
 20
0.157118
 30
0.0
 40
0
 41
0
  0
VERTEX
  8
0
 10
0.333333
 20
0.157118
 30
0.0
 40
0
 41
0
  0
VERTEX
  8
0
 10
0.333333
 20
0.11377
 30
0.0
 40
0
 41
0
  0
VERTEX
  8
0
 10
0.3125
 20
0.11377
 30
0.0
 40
0
 41
0
  0
VERTEX
  8
0
 10
0.3125
 20
0.157118
 30
0.0
 40
0
 41
0
  0
SEQEND
 8
0
  0
POLYLINE
  8
0
 62
     0
 66
     1
 10
0
 20
0
 30
0.0
 70
     1
 40
0
 41
0
  0
VERTEX
  8
0
 10
0.290365
 20
0.510471
 30
0.0
 40
0
 41
0
  0
VERTEX
  8
0
 10
0.311199
 20
0.510471
 30
0.0
 40
0
 41
0
  0
VERTEX
  8
0
 10
0.311199
 20
0.490072
 30
0.0
 40
0
 41
0
  0
VERTEX
  8
0
 10
0.290365
 20
0.490072
 30
0.0
 40
0
 41
0
  0
VERTEX
  8
0
 10
0.290365
 20
0.510471
 30
0.0
 40
0
 41
0
  0
SEQEND
 8
0
  0
POLYLINE
  8
0
 62
     0
 66
     1
 10
0
 20
0
 30
0.0
 70
     1
 40
0
 41
0
  0
VERTEX
  8
0
 10
0.25
 20
0.114638
 30
0.0
 40
0
 41
0
  0
VERTEX
  8
0
 10
0.270833
 20
0.114638
 30
0.0
 40
0
 41
0
  0
VERTEX
  8
0
 10
0.270833
 20
0.094184
 30
0.0
 40
0
 41
0
  0
VERTEX
  8
0
 10
0.25
 20
0.094184
 30
0.0
 40
0
 41
0
  0
VERTEX
  8
0
 10
0.25
 20
0.114638
 30
0.0
 40
0
 41
0
  0
SEQEND
 8
0
  0
POLYLINE
  8
0
 62
     0
 66
     1
 10
0
 20
0
 30
0.0
 70
     1
 40
0
 41
0
  0
VERTEX
  8
0
 10
0.291667
 20
0.113336
 30
0.0
 40
0
 41
0
  0
VERTEX
  8
0
 10
0.3125
 20
0.113336
 30
0.0
 40
0
 41
0
  0
VERTEX
  8
0
 10
0.3125
 20
0.0928819
 30
0.0
 40
0
 41
0
  0
VERTEX
  8
0
 10
0.291667
 20
0.0928819
 30
0.0
 40
0
 41
0
  0
VERTEX
  8
0
 10
0.291667
 20
0.113336
 30
0.0
 40
0
 41
0
  0
SEQEND
 8
0
  0
POLYLINE
  8
0
 62
     0
 66
     1
 10
0
 20
0
 30
0.0
 70
     1
 40
0
 41
0
  0
VERTEX
  8
0
 10
0.653754
 20
0.814182
 30
0.0
 40
0
 41
0
  0
VERTEX
  8
0
 10
0.716037
 20
0.814182
 30
0.0
 40
0
 41
0
  0
VERTEX
  8
0
 10
0.716037
 20
0.793511
 30
0.0
 40
0
 41
0
  0
VERTEX
  8
0
 10
0.653754
 20
0.793511
 30
0.0
 40
0
 41
0
  0
VERTEX
  8
0
 10
0.653754
 20
0.814182
 30
0.0
 40
0
 41
0
  0
SEQEND
 8
0
  0
POLYLINE
  8
0
 62
     0
 66
     1
 10
0
 20
0
 30
0.0
 70
     1
 40
0
 41
0
  0
VERTEX
  8
0
 10
0.715929
 20
0.793511
 30
0.0
 40
0
 41
0
  0
VERTEX
  8
0
 10
0.736763
 20
0.793511
 30
0.0
 40
0
 41
0
  0
VERTEX
  8
0
 10
0.736763
 20
0.771864
 30
0.0
 40
0
 41
0
  0
VERTEX
  8
0
 10
0.715929
 20
0.771864
 30
0.0
 40
0
 41
0
  0
VERTEX
  8
0
 10
0.715929
 20
0.793511
 30
0.0
 40
0
 41
0
  0
SEQEND
 8
0
  0
POLYLINE
  8
0
 62
     0
 66
     1
 10
0
 20
0
 30
0.0
 70
     1
 40
0
 41
0
  0
VERTEX
  8
0
 10
0.736763
 20
0.772353
 30
0.0
 40
0
 41
0
  0
VERTEX
  8
0
 10
0.757813
 20
0.772353
 30
0.0
 40
0
 41
0
  0
VERTEX
  8
0
 10
0.757813
 20
0.75255
 30
0.0
 40
0
 41
0
  0
VERTEX
  8
0
 10
0.736763
 20
0.75255
 30
0.0
 40
0
 41
0
  0
VERTEX
  8
0
 10
0.736763
 20
0.772353
 30
0.0
 40
0
 41
0
  0
SEQEND
 8
0
  0
POLYLINE
  8
0
 62
     0
 66
     1
 10
0
 20
0
 30
0.0
 70
     1
 40
0
 41
0
  0
VERTEX
  8
0
 10
0.756131
 20
0.753418
 30
0.0
 40
0
 41
0
  0
VERTEX
  8
0
 10
0.776801
 20
0.753418
 30
0.0
 40
0
 41
0
  0
VERTEX
  8
0
 10
0.776801
 20
0.691081
 30
0.0
 40
0
 41
0
  0
VERTEX
  8
0
 10
0.756131
 20
0.691081
 30
0.0
 40
0
 41
0
  0
VERTEX
  8
0
 10
0.756131
 20
0.753418
 30
0.0
 40
0
 41
0
  0
SEQEND
 8
0
  0
POLYLINE
  8
0
 62
     0
 66
     1
 10
0
 20
0
 30
0.0
 70
     1
 40
0
 41
0
  0
VERTEX
  8
0
 10
0.734483
 20
0.691243
 30
0.0
 40
0
 41
0
  0
VERTEX
  8
0
 10
0.756131
 20
0.691243
 30
0.0
 40
0
 41
0
  0
VERTEX
  8
0
 10
0.756131
 20
0.67041
 30
0.0
 40
0
 41
0
  0
VERTEX
  8
0
 10
0.734483
 20
0.67041
 30
0.0
 40
0
 41
0
  0
VERTEX
  8
0
 10
0.734483
 20
0.691243
 30
0.0
 40
0
 41
0
  0
SEQEND
 8
0
  0
POLYLINE
  8
0
 62
     0
 66
     1
 10
0
 20
0
 30
0.0
 70
     1
 40
0
 41
0
  0
VERTEX
  8
0
 10
0.715224
 20
0.67041
 30
0.0
 40
0
 41
0
  0
VERTEX
  8
0
 10
0.734972
 20
0.67041
 30
0.0
 40
0
 41
0
  0
VERTEX
  8
0
 10
0.734972
 20
0.64936
 30
0.0
 40
0
 41
0
  0
VERTEX
  8
0
 10
0.715224
 20
0.64936
 30
0.0
 40
0
 41
0
  0
VERTEX
  8
0
 10
0.715224
 20
0.67041
 30
0.0
 40
0
 41
0
  0
SEQEND
 8
0
  0
POLYLINE
  8
0
 62
     0
 66
     1
 10
0
 20
0
 30
0.0
 70
     1
 40
0
 41
0
  0
VERTEX
  8
0
 10
0.653754
 20
0.649251
 30
0.0
 40
0
 41
0
  0
VERTEX
  8
0
 10
0.716037
 20
0.649251
 30
0.0
 40
0
 41
0
  0
VERTEX
  8
0
 10
0.716037
 20
0.628581
 30
0.0
 40
0
 41
0
  0
VERTEX
  8
0
 10
0.653754
 20
0.628581
 30
0.0
 40
0
 41
0
  0
VERTEX
  8
0
 10
0.653754
 20
0.649251
 30
0.0
 40
0
 41
0
  0
SEQEND
 8
0
  0
POLYLINE
  8
0
 62
     0
 66
     1
 10
0
 20
0
 30
0.0
 70
     1
 40
0
 41
0
  0
VERTEX
  8
0
 10
0.633029
 20
0.670899
 30
0.0
 40
0
 41
0
  0
VERTEX
  8
0
 10
0.653862
 20
0.670899
 30
0.0
 40
0
 41
0
  0
VERTEX
  8
0
 10
0.653862
 20
0.649251
 30
0.0
 40
0
 41
0
  0
VERTEX
  8
0
 10
0.633029
 20
0.649251
 30
0.0
 40
0
 41
0
  0
VERTEX
  8
0
 10
0.633029
 20
0.670899
 30
0.0
 40
0
 41
0
  0
SEQEND
 8
0
  0
POLYLINE
  8
0
 62
     0
 66
     1
 10
0
 20
0
 30
0.0
 70
     1
 40
0
 41
0
  0
VERTEX
  8
0
 10
0.611979
 20
0.690213
 30
0.0
 40
0
 41
0
  0
VERTEX
  8
0
 10
0.633029
 20
0.690213
 30
0.0
 40
0
 41
0
  0
VERTEX
  8
0
 10
0.633029
 20
0.67041
 30
0.0
 40
0
 41
0
  0
VERTEX
  8
0
 10
0.611979
 20
0.67041
 30
0.0
 40
0
 41
0
  0
VERTEX
  8
0
 10
0.611979
 20
0.690213
 30
0.0
 40
0
 41
0
  0
SEQEND
 8
0
  0
POLYLINE
  8
0
 62
     0
 66
     1
 10
0
 20
0
 30
0.0
 70
     1
 40
0
 41
0
  0
VERTEX
  8
0
 10
0.592665
 20
0.751953
 30
0.0
 40
0
 41
0
  0
VERTEX
  8
0
 10
0.613336
 20
0.751953
 30
0.0
 40
0
 41
0
  0
VERTEX
  8
0
 10
0.613336
 20
0.689615
 30
0.0
 40
0
 41
0
  0
VERTEX
  8
0
 10
0.592665
 20
0.689615
 30
0.0
 40
0
 41
0
  0
VERTEX
  8
0
 10
0.592665
 20
0.751953
 30
0.0
 40
0
 41
0
  0
SEQEND
 8
0
  0
POLYLINE
  8
0
 62
     0
 66
     1
 10
0
 20
0
 30
0.0
 70
     1
 40
0
 41
0
  0
VERTEX
  8
0
 10
0.613336
 20
0.772624
 30
0.0
 40
0
 41
0
  0
VERTEX
  8
0
 10
0.634983
 20
0.772624
 30
0.0
 40
0
 41
0
  0
VERTEX
  8
0
 10
0.634983
 20
0.75179
 30
0.0
 40
0
 41
0
  0
VERTEX
  8
0
 10
0.613336
 20
0.75179
 30
0.0
 40
0
 41
0
  0
VERTEX
  8
0
 10
0.613336
 20
0.772624
 30
0.0
 40
0
 41
0
  0
SEQEND
 8
0
  0
POLYLINE
  8
0
 62
     0
 66
     1
 10
0
 20
0
 30
0.0
 70
     1
 40
0
 41
0
  0
VERTEX
  8
0
 10
0.634494
 20
0.793674
 30
0.0
 40
0
 41
0
  0
VERTEX
  8
0
 10
0.654243
 20
0.793674
 30
0.0
 40
0
 41
0
  0
VERTEX
  8
0
 10
0.654243
 20
0.772624
 30
0.0
 40
0
 41
0
  0
VERTEX
  8
0
 10
0.634494
 20
0.772624
 30
0.0
 40
0
 41
0
  0
VERTEX
  8
0
 10
0.634494
 20
0.793674
 30
0.0
 40
0
 41
0
  0
SEQEND
 8
0
  0
POLYLINE
  8
0
 62
     0
 66
     1
 10
0
 20
0
 30
0.0
 70
     1
 40
0
 41
0
  0
VERTEX
  8
0
 10
0.553386
 20
0.653754
 30
0.0
 40
0
 41
0
  0
VERTEX
  8
0
 10
0.574436
 20
0.653754
 30
0.0
 40
0
 41
0
  0
VERTEX
  8
0
 10
0.574436
 20
0.633951
 30
0.0
 40
0
 41
0
  0
VERTEX
  8
0
 10
0.553386
 20
0.633951
 30
0.0
 40
0
 41
0
  0
VERTEX
  8
0
 10
0.553386
 20
0.653754
 30
0.0
 40
0
 41
0
  0
SEQEND
 8
0
  0
POLYLINE
  8
0
 62
     0
 66
     1
 10
0
 20
0
 30
0.0
 70
     1
 40
0
 41
0
  0
VERTEX
  8
0
 10
0.531142
 20
0.634494
 30
0.0
 40
0
 41
0
  0
VERTEX
  8
0
 10
0.552192
 20
0.634494
 30
0.0
 40
0
 41
0
  0
VERTEX
  8
0
 10
0.552192
 20
0.614692
 30
0.0
 40
0
 41
0
  0
VERTEX
  8
0
 10
0.531142
 20
0.614692
 30
0.0
 40
0
 41
0
  0
VERTEX
  8
0
 10
0.531142
 20
0.634494
 30
0.0
 40
0
 41
0
  0
SEQEND
 8
0
  0
POLYLINE
  8
0
 62
     0
 66
     1
 10
0
 20
0
 30
0.0
 70
     1
 40
0
 41
0
  0
VERTEX
  8
0
 10
0.544271
 20
0.592557
 30
0.0
 40
0
 41
0
  0
VERTEX
  8
0
 10
0.565321
 20
0.592557
 30
0.0
 40
0
 41
0
  0
VERTEX
  8
0
 10
0.565321
 20
0.572754
 30
0.0
 40
0
 41
0
  0
VERTEX
  8
0
 10
0.544271
 20
0.572754
 30
0.0
 40
0
 41
0
  0
VERTEX
  8
0
 10
0.544271
 20
0.592557
 30
0.0
 40
0
 41
0
  0
SEQEND
 8
0
  0
POLYLINE
  8
0
 62
     0
 66
     1
 10
0
 20
0
 30
0.0
 70
     1
 40
0
 41
0
  0
VERTEX
  8
0
 10
0.522026
 20
0.573296
 30
0.0
 40
0
 41
0
  0
VERTEX
  8
0
 10
0.543078
 20
0.573296
 30
0.0
 40
0
 41
0
  0
VERTEX
  8
0
 10
0.543078
 20
0.553494
 30
0.0
 40
0
 41
0
  0
VERTEX
  8
0
 10
0.522026
 20
0.553494
 30
0.0
 40
0
 41
0
  0
VERTEX
  8
0
 10
0.522026
 20
0.573296
 30
0.0
 40
0
 41
0
  0
SEQEND
 8
0
  0
POLYLINE
  8
0
 62
     0
 66
     1
 10
0
 20
0
 30
0.0
 70
     1
 40
0
 41
0
  0
VERTEX
  8
0
 10
0.593642
 20
0.581108
 30
0.0
 40
0
 41
0
  0
VERTEX
  8
0
 10
0.614692
 20
0.581108
 30
0.0
 40
0
 41
0
  0
VERTEX
  8
0
 10
0.614692
 20
0.561307
 30
0.0
 40
0
 41
0
  0
VERTEX
  8
0
 10
0.593642
 20
0.561307
 30
0.0
 40
0
 41
0
  0
VERTEX
  8
0
 10
0.593642
 20
0.581108
 30
0.0
 40
0
 41
0
  0
SEQEND
 8
0
  0
POLYLINE
  8
0
 62
     0
 66
     1
 10
0
 20
0
 30
0.0
 70
     1
 40
0
 41
0
  0
VERTEX
  8
0
 10
0.615886
 20
0.600369
 30
0.0
 40
0
 41
0
  0
VERTEX
  8
0
 10
0.636936
 20
0.600369
 30
0.0
 40
0
 41
0
  0
VERTEX
  8
0
 10
0.636936
 20
0.580567
 30
0.0
 40
0
 41
0
  0
VERTEX
  8
0
 10
0.615886
 20
0.580567
 30
0.0
 40
0
 41
0
  0
VERTEX
  8
0
 10
0.615886
 20
0.600369
 30
0.0
 40
0
 41
0
  0
SEQEND
 8
0
  0
ENDSEC
  0
EOF
