G04 Layer_Color=8150272*
%FSTAX42Y42*%
%MOMM*%
G71*
G01*
G75*
%ADD18C,3.05*%
%ADD47R,3.40X1.50*%
%ADD48R,3.50X1.00*%
%ADD64R,1.63X1.63*%
%ADD65R,1.50X1.65*%
%ADD66C,2.10*%
%ADD67C,1.00*%
%ADD68C,4.09*%
%ADD69C,3.15*%
%ADD70C,2.00*%
%ADD71R,2.00X2.00*%
%ADD72C,1.85*%
%ADD73C,4.10*%
%ADD74C,3.10*%
%ADD75C,3.30*%
%ADD76C,1.85*%
%ADD77C,3.60*%
%ADD78C,1.88*%
%ADD79O,1.35X1.05*%
%ADD80O,1.10X1.65*%
%ADD81R,2.00X2.00*%
%ADD82C,1.37*%
%ADD83R,1.32X1.01*%
%ADD84R,1.10X1.10*%
%ADD85R,1.65X1.50*%
%ADD86R,1.50X1.60*%
%ADD87R,1.12X1.91*%
%ADD88R,1.30X1.50*%
%ADD89R,1.01X1.32*%
%ADD90R,1.60X1.50*%
%ADD91R,2.10X2.10*%
%ADD92R,1.10X1.10*%
%ADD93R,1.73X0.71*%
%ADD94R,0.75X1.00*%
%ADD95R,1.10X1.90*%
%ADD96R,1.60X1.65*%
%ADD97R,0.48X1.24*%
%ADD98R,0.70X1.60*%
%ADD99R,1.10X1.50*%
%ADD100R,0.50X1.50*%
%ADD101R,0.46X1.50*%
%ADD102R,1.60X1.65*%
%ADD103R,1.50X0.50*%
%ADD104R,1.10X0.50*%
%ADD105R,1.50X0.90*%
%ADD106R,0.50X1.50*%
%ADD107R,0.46X1.50*%
D18*
X042418Y010414D02*
D03*
X041463Y000457D02*
D03*
X009652Y000508D02*
D03*
X020066Y01016D02*
D03*
D47*
X027208Y010791D02*
D03*
Y010121D02*
D03*
D48*
X027763Y010556D02*
D03*
Y010356D02*
D03*
D64*
X022118Y01016D02*
D03*
X02189D02*
D03*
X022118Y010905D02*
D03*
X02189D02*
D03*
D65*
X041845Y004141D02*
D03*
X042035D02*
D03*
X028531Y003802D02*
D03*
X028721D02*
D03*
X028536Y003419D02*
D03*
X028726D02*
D03*
X034707Y002639D02*
D03*
X034517D02*
D03*
X034707Y002943D02*
D03*
X034517D02*
D03*
X009426Y008221D02*
D03*
X009616D02*
D03*
X007558Y008242D02*
D03*
X007748D02*
D03*
X021609Y01016D02*
D03*
X021419D02*
D03*
X021619Y010905D02*
D03*
X021429D02*
D03*
X041827Y012388D02*
D03*
X041636D02*
D03*
X04182Y01107D02*
D03*
X04163D02*
D03*
X024265Y008201D02*
D03*
X024455D02*
D03*
X040464Y007958D02*
D03*
X040654D02*
D03*
X03872Y008202D02*
D03*
X03891D02*
D03*
X036668Y008201D02*
D03*
X036858D02*
D03*
X034253D02*
D03*
X034443D02*
D03*
X032486D02*
D03*
X032677D02*
D03*
X030497D02*
D03*
X030687D02*
D03*
X022641D02*
D03*
X022831D02*
D03*
X020976D02*
D03*
X021166D02*
D03*
X01921D02*
D03*
X0194D02*
D03*
X015029Y008221D02*
D03*
X015218D02*
D03*
X013303D02*
D03*
X013493D02*
D03*
X011232D02*
D03*
X011422D02*
D03*
X005975Y008242D02*
D03*
X006165D02*
D03*
X004087D02*
D03*
X004277D02*
D03*
X001793D02*
D03*
X001983D02*
D03*
X041636Y012648D02*
D03*
X041827D02*
D03*
X030064Y010358D02*
D03*
X029874D02*
D03*
X029102Y008819D02*
D03*
X028912D02*
D03*
X029102Y007282D02*
D03*
X028912D02*
D03*
X028528Y006066D02*
D03*
X028718D02*
D03*
X038117Y012214D02*
D03*
X037927D02*
D03*
X038117Y011194D02*
D03*
X037927D02*
D03*
X039908Y010636D02*
D03*
X039718D02*
D03*
X039908Y010896D02*
D03*
X039718D02*
D03*
X039538Y011733D02*
D03*
X039348D02*
D03*
X017465Y008201D02*
D03*
X017654D02*
D03*
X026478Y007937D02*
D03*
X026668D02*
D03*
D66*
X028593Y00112D02*
D03*
X02446Y005123D02*
D03*
X002431Y00058D02*
D03*
X041191Y004138D02*
D03*
X000401Y004486D02*
D03*
X010488Y0013D02*
D03*
X015488D02*
D03*
X041232Y010185D02*
D03*
X042464Y000386D02*
D03*
D67*
X028867Y010103D02*
D03*
X029547D02*
D03*
D68*
X038472Y000468D02*
D03*
X036084D02*
D03*
X027199Y002374D02*
D03*
X024811D02*
D03*
X027675Y004278D02*
D03*
X025288D02*
D03*
X027913Y008089D02*
D03*
X025526D02*
D03*
X013146Y001294D02*
D03*
X008146Y000468D02*
D03*
X018146D02*
D03*
X001002Y011702D02*
D03*
X004812D02*
D03*
X006717D02*
D03*
X008622D02*
D03*
X010527D02*
D03*
X013385D02*
D03*
X01529D02*
D03*
X017195D02*
D03*
X019099D02*
D03*
X021957D02*
D03*
X023862D02*
D03*
X025767D02*
D03*
X027672D02*
D03*
X030092D02*
D03*
X031997D02*
D03*
X033902D02*
D03*
X001002Y008914D02*
D03*
X002907D02*
D03*
X004812D02*
D03*
X006717D02*
D03*
X010527D02*
D03*
X012432D02*
D03*
X014337D02*
D03*
X016242D02*
D03*
X018147D02*
D03*
X020052D02*
D03*
X021957D02*
D03*
X023862D02*
D03*
X030096Y008914D02*
D03*
X032001D02*
D03*
X036325D02*
D03*
X03825D02*
D03*
X040135D02*
D03*
X001478Y007009D02*
D03*
X00386D02*
D03*
X005765D02*
D03*
X007669D02*
D03*
X009575D02*
D03*
X011479D02*
D03*
X013385D02*
D03*
X01529D02*
D03*
X017195D02*
D03*
X019099D02*
D03*
X021004D02*
D03*
X02291D02*
D03*
X024815D02*
D03*
X030096D02*
D03*
X032001D02*
D03*
X033905D02*
D03*
X036325Y007009D02*
D03*
X03823D02*
D03*
X040135Y007009D02*
D03*
X001716Y005104D02*
D03*
X004336D02*
D03*
X006241D02*
D03*
X008146D02*
D03*
X010051D02*
D03*
X011956D02*
D03*
X013861D02*
D03*
X015766D02*
D03*
X017671D02*
D03*
X019576D02*
D03*
X021481D02*
D03*
X023386D02*
D03*
X036325Y005104D02*
D03*
X03823D02*
D03*
X040135D02*
D03*
X036325Y003199D02*
D03*
X03823Y003199D02*
D03*
X040135D02*
D03*
X005288Y003199D02*
D03*
X007193D02*
D03*
X009098D02*
D03*
X011003D02*
D03*
X012908D02*
D03*
X014813D02*
D03*
X016718D02*
D03*
X018623D02*
D03*
X020528D02*
D03*
X022433D02*
D03*
X032001Y003199D02*
D03*
X006003Y001294D02*
D03*
X02029D02*
D03*
X022671D02*
D03*
X030096Y001295D02*
D03*
X032001D02*
D03*
X033895D02*
D03*
X040135Y001294D02*
D03*
X027196Y007009D02*
D03*
X025053Y001294D02*
D03*
X027434D02*
D03*
X00124Y001295D02*
D03*
X003621D02*
D03*
X033905Y008914D02*
D03*
X008622Y008914D02*
D03*
X003386Y002374D02*
D03*
X000999D02*
D03*
X041215Y001053D02*
D03*
Y00344D02*
D03*
X041215Y004863D02*
D03*
Y00725D02*
D03*
X04204Y008914D02*
D03*
D69*
X038472Y001992D02*
D03*
X036084D02*
D03*
X027199Y003897D02*
D03*
X024811D02*
D03*
X027675Y005803D02*
D03*
X025288D02*
D03*
X027913Y009612D02*
D03*
X025526D02*
D03*
X008146Y001992D02*
D03*
X018146D02*
D03*
X003386Y003898D02*
D03*
X000999D02*
D03*
X042739Y001053D02*
D03*
Y00344D02*
D03*
X042739Y004863D02*
D03*
Y00725D02*
D03*
D70*
X037405Y000786D02*
D03*
X026132Y002691D02*
D03*
X026608Y004596D02*
D03*
X026846Y008406D02*
D03*
X013273Y000786D02*
D03*
X001129Y011194D02*
D03*
X004939D02*
D03*
X006844D02*
D03*
X008749D02*
D03*
X010654D02*
D03*
X013512D02*
D03*
X015416D02*
D03*
X017321D02*
D03*
X019226D02*
D03*
X022084D02*
D03*
X023989D02*
D03*
X025894D02*
D03*
X027799D02*
D03*
X030219D02*
D03*
X032124D02*
D03*
X034029D02*
D03*
X001129Y008406D02*
D03*
X003034D02*
D03*
X004939D02*
D03*
X006844D02*
D03*
X010654D02*
D03*
X012559D02*
D03*
X014464D02*
D03*
X016369D02*
D03*
X018274D02*
D03*
X020179D02*
D03*
X022084D02*
D03*
X023989D02*
D03*
X030223Y008406D02*
D03*
X032128D02*
D03*
X036452D02*
D03*
X038377D02*
D03*
X040262D02*
D03*
X001605Y006501D02*
D03*
X003987D02*
D03*
X005892D02*
D03*
X007796D02*
D03*
X009701D02*
D03*
X011607D02*
D03*
X013512D02*
D03*
X015416D02*
D03*
X017321D02*
D03*
X019226D02*
D03*
X021132D02*
D03*
X023037D02*
D03*
X024941D02*
D03*
X030223D02*
D03*
X032128D02*
D03*
X034032D02*
D03*
X036452Y006501D02*
D03*
X038357D02*
D03*
X040262Y006501D02*
D03*
X001843Y004596D02*
D03*
X004463D02*
D03*
X006368D02*
D03*
X008273D02*
D03*
X010178D02*
D03*
X012083D02*
D03*
X013988D02*
D03*
X015893D02*
D03*
X017798D02*
D03*
X019703D02*
D03*
X021608D02*
D03*
X023513D02*
D03*
X036452Y004596D02*
D03*
X038357D02*
D03*
X040262D02*
D03*
X036452Y002691D02*
D03*
X038357Y002691D02*
D03*
X040262D02*
D03*
X005415Y002691D02*
D03*
X00732D02*
D03*
X009225D02*
D03*
X01113D02*
D03*
X013035D02*
D03*
X01494D02*
D03*
X016845D02*
D03*
X01875D02*
D03*
X020655D02*
D03*
X02256D02*
D03*
X032128Y002691D02*
D03*
X00613Y000786D02*
D03*
X020417D02*
D03*
X022798D02*
D03*
X030223Y000787D02*
D03*
X032128D02*
D03*
X034022D02*
D03*
X040262Y000786D02*
D03*
X027323Y006501D02*
D03*
X02518Y000786D02*
D03*
X027561D02*
D03*
X001367Y000787D02*
D03*
X003748D02*
D03*
X034032Y008406D02*
D03*
X008749Y008406D02*
D03*
X002319Y002692D02*
D03*
X041532Y002119D02*
D03*
X041532Y005929D02*
D03*
X042167Y008406D02*
D03*
D71*
X037151Y000786D02*
D03*
X025878Y002691D02*
D03*
X026354Y004596D02*
D03*
X026592Y008406D02*
D03*
X013019Y000786D02*
D03*
X000875Y011194D02*
D03*
X004685D02*
D03*
X00659D02*
D03*
X008495D02*
D03*
X0104D02*
D03*
X013257D02*
D03*
X015162D02*
D03*
X017068D02*
D03*
X018973D02*
D03*
X02183D02*
D03*
X023735D02*
D03*
X02564D02*
D03*
X027545D02*
D03*
X029965D02*
D03*
X03187D02*
D03*
X033775D02*
D03*
X000875Y008406D02*
D03*
X00278D02*
D03*
X004685D02*
D03*
X00659D02*
D03*
X0104D02*
D03*
X012305D02*
D03*
X01421D02*
D03*
X016115D02*
D03*
X01802D02*
D03*
X019925D02*
D03*
X02183D02*
D03*
X023735D02*
D03*
X029969Y008406D02*
D03*
X031874D02*
D03*
X036198D02*
D03*
X038123D02*
D03*
X040008D02*
D03*
X001351Y006501D02*
D03*
X003733D02*
D03*
X005638D02*
D03*
X007543D02*
D03*
X009447D02*
D03*
X011353D02*
D03*
X013257D02*
D03*
X015162D02*
D03*
X017068D02*
D03*
X018973D02*
D03*
X020877D02*
D03*
X022782D02*
D03*
X024688D02*
D03*
X029969D02*
D03*
X031874D02*
D03*
X033778D02*
D03*
X036198Y006501D02*
D03*
X038103D02*
D03*
X040008Y006501D02*
D03*
X001589Y004596D02*
D03*
X004209D02*
D03*
X006114D02*
D03*
X008019D02*
D03*
X009924D02*
D03*
X011829D02*
D03*
X013734D02*
D03*
X015639D02*
D03*
X017544D02*
D03*
X019449D02*
D03*
X021354D02*
D03*
X023259D02*
D03*
X036198Y004596D02*
D03*
X038103D02*
D03*
X040008D02*
D03*
X036198Y002691D02*
D03*
X038103Y002691D02*
D03*
X040008D02*
D03*
X005161Y002691D02*
D03*
X007066D02*
D03*
X008971D02*
D03*
X010876D02*
D03*
X012781D02*
D03*
X014686D02*
D03*
X016591D02*
D03*
X018496D02*
D03*
X020401D02*
D03*
X022306D02*
D03*
X031874Y002691D02*
D03*
X005876Y000786D02*
D03*
X020163D02*
D03*
X022544D02*
D03*
X029969Y000787D02*
D03*
X031874D02*
D03*
X033768D02*
D03*
X040008Y000786D02*
D03*
X027069Y006501D02*
D03*
X024926Y000786D02*
D03*
X027307D02*
D03*
X001113Y000787D02*
D03*
X003494D02*
D03*
X033778Y008406D02*
D03*
X008495Y008406D02*
D03*
X002066Y002692D02*
D03*
X041913Y008406D02*
D03*
D72*
X03677Y001294D02*
D03*
X037786D02*
D03*
X025497Y003199D02*
D03*
X026513D02*
D03*
X025973Y005104D02*
D03*
X026989D02*
D03*
X026211Y008914D02*
D03*
X027227D02*
D03*
X001684Y0032D02*
D03*
X0027D02*
D03*
X04204Y002754D02*
D03*
Y001738D02*
D03*
X04204Y006564D02*
D03*
Y005548D02*
D03*
D73*
X037278Y001294D02*
D03*
X026005Y003199D02*
D03*
X026481Y005104D02*
D03*
X02672Y008914D02*
D03*
X002192Y0032D02*
D03*
X04204Y002246D02*
D03*
X04204Y006056D02*
D03*
D74*
X037532Y001807D02*
D03*
X026259Y003712D02*
D03*
X026735Y005617D02*
D03*
X026973Y009427D02*
D03*
X0134Y001807D02*
D03*
X001256Y012215D02*
D03*
X005066D02*
D03*
X006971D02*
D03*
X008876D02*
D03*
X010781D02*
D03*
X013638D02*
D03*
X015543D02*
D03*
X017449D02*
D03*
X019354D02*
D03*
X022211D02*
D03*
X024116D02*
D03*
X026021D02*
D03*
X027926D02*
D03*
X030346D02*
D03*
X032251D02*
D03*
X034156D02*
D03*
X001256Y009427D02*
D03*
X003161D02*
D03*
X005066D02*
D03*
X006971D02*
D03*
X010781D02*
D03*
X012686D02*
D03*
X014591D02*
D03*
X016496D02*
D03*
X018401D02*
D03*
X020306D02*
D03*
X022211D02*
D03*
X024116D02*
D03*
X03035Y009427D02*
D03*
X032255D02*
D03*
X036579D02*
D03*
X038504D02*
D03*
X040389D02*
D03*
X001732Y007522D02*
D03*
X004113D02*
D03*
X006019D02*
D03*
X007924D02*
D03*
X009829D02*
D03*
X011733D02*
D03*
X013638D02*
D03*
X015543D02*
D03*
X017449D02*
D03*
X019354D02*
D03*
X021259D02*
D03*
X023163D02*
D03*
X025068D02*
D03*
X03035D02*
D03*
X032255D02*
D03*
X034159D02*
D03*
X036579Y007522D02*
D03*
X038484D02*
D03*
X040389Y007522D02*
D03*
X00197Y005617D02*
D03*
X00459D02*
D03*
X006495D02*
D03*
X0084D02*
D03*
X010305D02*
D03*
X01221D02*
D03*
X014115D02*
D03*
X01602D02*
D03*
X017925D02*
D03*
X01983D02*
D03*
X021735D02*
D03*
X02364D02*
D03*
X036579Y005617D02*
D03*
X038484D02*
D03*
X040389D02*
D03*
X036579Y003712D02*
D03*
X038484Y003712D02*
D03*
X040389D02*
D03*
X005542Y003712D02*
D03*
X007447D02*
D03*
X009352D02*
D03*
X011257D02*
D03*
X013162D02*
D03*
X015067D02*
D03*
X016972D02*
D03*
X018877D02*
D03*
X020782D02*
D03*
X022687D02*
D03*
X032255Y003712D02*
D03*
X006257Y001807D02*
D03*
X020544D02*
D03*
X022925D02*
D03*
X03035Y001808D02*
D03*
X032255D02*
D03*
X034149D02*
D03*
X040389Y001807D02*
D03*
X032982Y010314D02*
D03*
X001752D02*
D03*
X01746Y010315D02*
D03*
X02745Y007522D02*
D03*
X025307Y001807D02*
D03*
X027688D02*
D03*
X001494Y001808D02*
D03*
X003875D02*
D03*
X034159Y009427D02*
D03*
X008876Y009427D02*
D03*
X002447Y003713D02*
D03*
X042553Y001992D02*
D03*
X042553Y005802D02*
D03*
X02998Y005436D02*
D03*
X042294Y009427D02*
D03*
X034112Y004793D02*
D03*
D75*
X03691Y001561D02*
D03*
X025637Y003466D02*
D03*
X026113Y005371D02*
D03*
X026351Y009181D02*
D03*
X012778Y001561D02*
D03*
X000634Y011969D02*
D03*
X004444D02*
D03*
X006349D02*
D03*
X008254D02*
D03*
X010159D02*
D03*
X013016D02*
D03*
X014921D02*
D03*
X016826D02*
D03*
X018731D02*
D03*
X021589D02*
D03*
X023494D02*
D03*
X025399D02*
D03*
X027304D02*
D03*
X029724D02*
D03*
X031629D02*
D03*
X033533D02*
D03*
X000634Y009181D02*
D03*
X002539D02*
D03*
X004444D02*
D03*
X006349D02*
D03*
X010159D02*
D03*
X012064D02*
D03*
X013969D02*
D03*
X015874D02*
D03*
X017779D02*
D03*
X019684D02*
D03*
X021589D02*
D03*
X023494D02*
D03*
X029727Y009181D02*
D03*
X031632D02*
D03*
X035957D02*
D03*
X037881D02*
D03*
X039767D02*
D03*
X00111Y007276D02*
D03*
X003491D02*
D03*
X005396D02*
D03*
X007301D02*
D03*
X009206D02*
D03*
X011111D02*
D03*
X013016D02*
D03*
X014921D02*
D03*
X016826D02*
D03*
X018731D02*
D03*
X020636D02*
D03*
X022541D02*
D03*
X024446D02*
D03*
X029727D02*
D03*
X031632D02*
D03*
X033537D02*
D03*
X035957Y007276D02*
D03*
X037862D02*
D03*
X039767Y007276D02*
D03*
X001348Y005371D02*
D03*
X003967D02*
D03*
X005872D02*
D03*
X007777D02*
D03*
X009682D02*
D03*
X011587D02*
D03*
X013492D02*
D03*
X015397D02*
D03*
X017302D02*
D03*
X019207D02*
D03*
X021112D02*
D03*
X023017D02*
D03*
X035957Y005371D02*
D03*
X037862D02*
D03*
X039767D02*
D03*
X035957Y003466D02*
D03*
X037862Y003466D02*
D03*
X039767D02*
D03*
X00492Y003466D02*
D03*
X006825D02*
D03*
X00873D02*
D03*
X010635D02*
D03*
X01254D02*
D03*
X014445D02*
D03*
X01635D02*
D03*
X018255D02*
D03*
X02016D02*
D03*
X022065D02*
D03*
X031632Y003466D02*
D03*
X005634Y001561D02*
D03*
X019922D02*
D03*
X022303D02*
D03*
X029727Y001561D02*
D03*
X031632D02*
D03*
X033527D02*
D03*
X039767Y001561D02*
D03*
X026827Y007276D02*
D03*
X024684Y001561D02*
D03*
X027066D02*
D03*
X000872Y001562D02*
D03*
X003253D02*
D03*
X033537Y009181D02*
D03*
X008254Y009181D02*
D03*
X001824Y003466D02*
D03*
X042307Y002615D02*
D03*
X042307Y006425D02*
D03*
X041672Y009181D02*
D03*
D76*
X013654Y001294D02*
D03*
X012638D02*
D03*
X00151Y011702D02*
D03*
X000494D02*
D03*
X00532D02*
D03*
X004304D02*
D03*
X007225D02*
D03*
X006209D02*
D03*
X00913D02*
D03*
X008114D02*
D03*
X011035D02*
D03*
X010019D02*
D03*
X013893D02*
D03*
X012876D02*
D03*
X015798D02*
D03*
X014782D02*
D03*
X017702D02*
D03*
X016687D02*
D03*
X019607D02*
D03*
X018591D02*
D03*
X022465D02*
D03*
X021449D02*
D03*
X02437D02*
D03*
X023354D02*
D03*
X026275D02*
D03*
X025259D02*
D03*
X02818D02*
D03*
X027164D02*
D03*
X0306D02*
D03*
X029584D02*
D03*
X032505D02*
D03*
X031489D02*
D03*
X03441D02*
D03*
X033394D02*
D03*
X00151Y008914D02*
D03*
X000494D02*
D03*
X003415D02*
D03*
X002399D02*
D03*
X00532D02*
D03*
X004304D02*
D03*
X007225D02*
D03*
X006209D02*
D03*
X011035D02*
D03*
X010019D02*
D03*
X01294D02*
D03*
X011924D02*
D03*
X014845D02*
D03*
X013829D02*
D03*
X01675D02*
D03*
X015734D02*
D03*
X018655D02*
D03*
X017639D02*
D03*
X02056D02*
D03*
X019544D02*
D03*
X022465D02*
D03*
X021449D02*
D03*
X02437D02*
D03*
X023354D02*
D03*
X030604Y008914D02*
D03*
X029588D02*
D03*
X032509D02*
D03*
X031493D02*
D03*
X036833D02*
D03*
X035817D02*
D03*
X038758D02*
D03*
X037742D02*
D03*
X040643D02*
D03*
X039627D02*
D03*
X001986Y007009D02*
D03*
X00097D02*
D03*
X004367D02*
D03*
X003351D02*
D03*
X006272D02*
D03*
X005256D02*
D03*
X008178D02*
D03*
X007161D02*
D03*
X010082D02*
D03*
X009067D02*
D03*
X011988D02*
D03*
X010971D02*
D03*
X013893D02*
D03*
X012876D02*
D03*
X015798D02*
D03*
X014782D02*
D03*
X017702D02*
D03*
X016687D02*
D03*
X019607D02*
D03*
X018591D02*
D03*
X021512D02*
D03*
X020496D02*
D03*
X023418D02*
D03*
X022401D02*
D03*
X025323D02*
D03*
X024307D02*
D03*
X030604D02*
D03*
X029588D02*
D03*
X032509D02*
D03*
X031493D02*
D03*
X034413D02*
D03*
X033397D02*
D03*
X036833Y007009D02*
D03*
X035817D02*
D03*
X038738D02*
D03*
X037722D02*
D03*
X040643Y007009D02*
D03*
X039627D02*
D03*
X002224Y005104D02*
D03*
X001208D02*
D03*
X004844D02*
D03*
X003828D02*
D03*
X006749D02*
D03*
X005733D02*
D03*
X008654D02*
D03*
X007638D02*
D03*
X010559D02*
D03*
X009543D02*
D03*
X012464D02*
D03*
X011448D02*
D03*
X014369D02*
D03*
X013353D02*
D03*
X016274D02*
D03*
X015258D02*
D03*
X018179D02*
D03*
X017163D02*
D03*
X020084D02*
D03*
X019068D02*
D03*
X021989D02*
D03*
X020973D02*
D03*
X023894D02*
D03*
X022878D02*
D03*
X036833Y005104D02*
D03*
X035817D02*
D03*
X038738D02*
D03*
X037722D02*
D03*
X040643D02*
D03*
X039627D02*
D03*
X036833Y003199D02*
D03*
X035817D02*
D03*
X038738Y003199D02*
D03*
X037722D02*
D03*
X040643D02*
D03*
X039627D02*
D03*
X005796Y003199D02*
D03*
X00478D02*
D03*
X007701D02*
D03*
X006685D02*
D03*
X009606D02*
D03*
X00859D02*
D03*
X011511D02*
D03*
X010495D02*
D03*
X013416D02*
D03*
X0124D02*
D03*
X015321D02*
D03*
X014305D02*
D03*
X017226D02*
D03*
X01621D02*
D03*
X019131D02*
D03*
X018115D02*
D03*
X021036D02*
D03*
X02002D02*
D03*
X022941D02*
D03*
X021925D02*
D03*
X032509Y003199D02*
D03*
X031493D02*
D03*
X006511Y001294D02*
D03*
X005495D02*
D03*
X020798D02*
D03*
X019782D02*
D03*
X023179D02*
D03*
X022163D02*
D03*
X030604Y001295D02*
D03*
X029588D02*
D03*
X032509D02*
D03*
X031493D02*
D03*
X034403D02*
D03*
X033387D02*
D03*
X040643Y001294D02*
D03*
X039627D02*
D03*
X027704Y007009D02*
D03*
X026688D02*
D03*
X025561Y001294D02*
D03*
X024545D02*
D03*
X027942D02*
D03*
X026926D02*
D03*
X001748Y001295D02*
D03*
X000732D02*
D03*
X004129D02*
D03*
X003113D02*
D03*
X034413Y008914D02*
D03*
X033397D02*
D03*
X00913Y008914D02*
D03*
X008114D02*
D03*
X042548Y008914D02*
D03*
X041532D02*
D03*
D77*
X036885Y011105D02*
D03*
Y012312D02*
D03*
D78*
X036185Y011452D02*
D03*
Y011952D02*
D03*
X037635Y011452D02*
D03*
Y011702D02*
D03*
Y011952D02*
D03*
D79*
X020147Y012694D02*
D03*
X020647D02*
D03*
D80*
X020047Y012964D02*
D03*
X020747D02*
D03*
D81*
X041532Y002373D02*
D03*
X041532Y006183D02*
D03*
D82*
X034845Y006198D02*
D03*
X008579Y002909D02*
D03*
X0256Y0048D02*
D03*
X020549Y01209D02*
D03*
X040942Y012578D02*
D03*
X039771Y012743D02*
D03*
X029416Y003238D02*
D03*
X029002Y00335D02*
D03*
X028146Y010549D02*
D03*
X028214Y003475D02*
D03*
X02826Y006066D02*
D03*
X029202Y0041D02*
D03*
X033183Y003686D02*
D03*
X028885Y003094D02*
D03*
X038969Y012494D02*
D03*
X038781Y012179D02*
D03*
X041278Y012532D02*
D03*
X040278Y012347D02*
D03*
X039256Y011547D02*
D03*
X038113Y011006D02*
D03*
X040838Y011806D02*
D03*
X029522Y011212D02*
D03*
X029525Y011374D02*
D03*
X033924Y010309D02*
D03*
X040275Y012139D02*
D03*
X041453Y012302D02*
D03*
X038874Y009785D02*
D03*
X039788Y009521D02*
D03*
X040945Y007795D02*
D03*
X036276Y009805D02*
D03*
X019305Y012728D02*
D03*
X021477Y012383D02*
D03*
X028278Y00205D02*
D03*
X030348Y003248D02*
D03*
X03449D02*
D03*
X034327Y00337D02*
D03*
X03045D02*
D03*
X02978Y002477D02*
D03*
X033288Y002602D02*
D03*
X033089Y004831D02*
D03*
X021071Y002192D02*
D03*
X023426Y002253D02*
D03*
X04081Y01221D02*
D03*
X0108Y00384D02*
D03*
X02959Y00362D02*
D03*
X02958Y00379D02*
D03*
X01068Y00396D02*
D03*
X02899Y00265D02*
D03*
X02888Y0028D02*
D03*
X02872Y00297D02*
D03*
X02348Y00254D02*
D03*
X02995Y00303D02*
D03*
X0357Y00253D02*
D03*
X03545Y00245D02*
D03*
X03967Y00246D02*
D03*
X03519Y00236D02*
D03*
X04107Y00234D02*
D03*
X020549Y012446D02*
D03*
Y012268D02*
D03*
X020914Y011801D02*
D03*
X03954Y010896D02*
D03*
X021674Y010716D02*
D03*
X039494Y010632D02*
D03*
X02241Y011039D02*
D03*
X021664Y010366D02*
D03*
X02063Y011001D02*
D03*
X022202Y010577D02*
D03*
X034983Y009982D02*
D03*
X019814Y011477D02*
D03*
Y011277D02*
D03*
X0213Y011397D02*
D03*
X021219Y011252D02*
D03*
X028219Y011372D02*
D03*
X028214Y011209D02*
D03*
X020638Y010632D02*
D03*
X020218Y010841D02*
D03*
X02922Y010389D02*
D03*
X03431Y002479D02*
D03*
X034836Y003114D02*
D03*
X038019Y011694D02*
D03*
X040805Y01268D02*
D03*
X040394D02*
D03*
X040857Y010244D02*
D03*
X038758Y010493D02*
D03*
X038595Y0105D02*
D03*
X033106Y002756D02*
D03*
X041186Y012151D02*
D03*
X039911Y012174D02*
D03*
X039759Y012177D02*
D03*
X039776Y012568D02*
D03*
X039769Y012398D02*
D03*
X040622Y011755D02*
D03*
X038625Y002864D02*
D03*
X017382Y002512D02*
D03*
X040466Y008646D02*
D03*
X042503Y008606D02*
D03*
X034675Y007003D02*
D03*
X041713Y010308D02*
D03*
X04182Y009952D02*
D03*
D83*
X041078Y00162D02*
D03*
Y001947D02*
D03*
X02643Y01234D02*
D03*
Y012013D02*
D03*
X018809Y009551D02*
D03*
Y009224D02*
D03*
X020714Y009551D02*
D03*
Y009224D02*
D03*
X040796Y009541D02*
D03*
Y009214D02*
D03*
X036986Y009546D02*
D03*
Y009219D02*
D03*
X038909Y009559D02*
D03*
Y009232D02*
D03*
X017864Y01234D02*
D03*
Y012013D02*
D03*
X011189Y01234D02*
D03*
Y012013D02*
D03*
X009284Y01234D02*
D03*
Y012013D02*
D03*
X007379Y01234D02*
D03*
Y012013D02*
D03*
X005474Y01234D02*
D03*
Y012013D02*
D03*
X001664Y01234D02*
D03*
Y012013D02*
D03*
X034563Y01234D02*
D03*
Y012013D02*
D03*
X040789Y005747D02*
D03*
Y00542D02*
D03*
X018332Y005741D02*
D03*
Y005414D02*
D03*
X016427Y005741D02*
D03*
Y005414D02*
D03*
X004997Y005741D02*
D03*
Y005414D02*
D03*
X002378Y005741D02*
D03*
Y005414D02*
D03*
X038889Y005754D02*
D03*
Y005427D02*
D03*
X036984Y005754D02*
D03*
Y005427D02*
D03*
X027143Y005741D02*
D03*
Y005414D02*
D03*
X024047Y005741D02*
D03*
Y005414D02*
D03*
X022142Y005741D02*
D03*
Y005414D02*
D03*
X020237Y005741D02*
D03*
Y005414D02*
D03*
X014522Y005741D02*
D03*
Y005414D02*
D03*
X012617Y005741D02*
D03*
Y005414D02*
D03*
X010712Y005741D02*
D03*
Y005414D02*
D03*
X008807Y005741D02*
D03*
Y005414D02*
D03*
X006902Y005741D02*
D03*
Y005414D02*
D03*
X02262Y01234D02*
D03*
Y012013D02*
D03*
X024525Y01234D02*
D03*
Y012013D02*
D03*
X028335Y01234D02*
D03*
Y012013D02*
D03*
X032658Y01234D02*
D03*
Y012013D02*
D03*
X034563Y009554D02*
D03*
Y009227D02*
D03*
X030753Y009554D02*
D03*
Y009227D02*
D03*
X027381Y009551D02*
D03*
Y009224D02*
D03*
X024524Y009551D02*
D03*
Y009224D02*
D03*
X022619Y009551D02*
D03*
Y009224D02*
D03*
X016904Y009551D02*
D03*
Y009224D02*
D03*
X014999Y009551D02*
D03*
Y009224D02*
D03*
X013094Y009551D02*
D03*
Y009224D02*
D03*
X011189Y009551D02*
D03*
Y009224D02*
D03*
X009284Y009551D02*
D03*
Y009224D02*
D03*
X007379Y009551D02*
D03*
Y009224D02*
D03*
X005474Y009551D02*
D03*
Y009224D02*
D03*
X003569Y009551D02*
D03*
Y009224D02*
D03*
X001664Y009551D02*
D03*
Y009224D02*
D03*
X038896Y007654D02*
D03*
Y007327D02*
D03*
X036989Y007654D02*
D03*
Y007327D02*
D03*
X034472Y007652D02*
D03*
Y007325D02*
D03*
X032663Y007641D02*
D03*
Y007314D02*
D03*
X030753Y007636D02*
D03*
Y007309D02*
D03*
X026364Y006584D02*
D03*
Y006257D02*
D03*
X025472Y006572D02*
D03*
Y006245D02*
D03*
X023571Y007646D02*
D03*
Y007319D02*
D03*
X021666Y007646D02*
D03*
Y007319D02*
D03*
X019761Y007646D02*
D03*
Y007319D02*
D03*
X017856Y007646D02*
D03*
Y007319D02*
D03*
X015951Y007646D02*
D03*
Y007319D02*
D03*
X014046Y007646D02*
D03*
Y007319D02*
D03*
X012141Y007646D02*
D03*
Y007319D02*
D03*
X010236Y007646D02*
D03*
Y007319D02*
D03*
X008331Y007646D02*
D03*
Y007319D02*
D03*
X006426Y007646D02*
D03*
Y007319D02*
D03*
X004521Y007646D02*
D03*
Y007319D02*
D03*
X00214Y007646D02*
D03*
Y007319D02*
D03*
X00595Y003836D02*
D03*
Y003509D02*
D03*
X007855Y003836D02*
D03*
Y003509D02*
D03*
X00976Y003836D02*
D03*
Y003509D02*
D03*
X011665Y003836D02*
D03*
Y003509D02*
D03*
X01357Y003836D02*
D03*
Y003509D02*
D03*
X015475Y003836D02*
D03*
Y003509D02*
D03*
X01738Y003836D02*
D03*
Y003509D02*
D03*
X019285Y003836D02*
D03*
Y003509D02*
D03*
X02119Y003836D02*
D03*
Y003509D02*
D03*
X026667Y003836D02*
D03*
Y003509D02*
D03*
X03263Y003854D02*
D03*
Y003527D02*
D03*
X038901Y003849D02*
D03*
Y003522D02*
D03*
X003327Y003259D02*
D03*
Y002932D02*
D03*
X040789Y001942D02*
D03*
Y001615D02*
D03*
X001902Y001953D02*
D03*
Y001625D02*
D03*
X004283Y001931D02*
D03*
Y001604D02*
D03*
X006664Y001931D02*
D03*
Y001604D02*
D03*
X013808Y001931D02*
D03*
Y001604D02*
D03*
X025714Y001931D02*
D03*
Y001604D02*
D03*
X030753Y001937D02*
D03*
Y00161D02*
D03*
X034558Y001932D02*
D03*
Y001605D02*
D03*
X028096Y001931D02*
D03*
Y001604D02*
D03*
X032663Y001954D02*
D03*
Y001627D02*
D03*
X023095Y003836D02*
D03*
Y003509D02*
D03*
X032658Y009554D02*
D03*
Y009227D02*
D03*
X040488Y002792D02*
D03*
Y002465D02*
D03*
X023333Y001931D02*
D03*
Y001604D02*
D03*
X020952Y001931D02*
D03*
Y001604D02*
D03*
X015964Y01234D02*
D03*
Y012013D02*
D03*
X014064Y01234D02*
D03*
Y012013D02*
D03*
X030758Y012343D02*
D03*
Y012016D02*
D03*
X036984Y003842D02*
D03*
Y003515D02*
D03*
D84*
X026722Y012022D02*
D03*
Y012337D02*
D03*
X040945Y008318D02*
D03*
Y008003D02*
D03*
X039201Y009246D02*
D03*
Y009561D02*
D03*
X042503Y00808D02*
D03*
Y008395D02*
D03*
X037273Y009243D02*
D03*
Y009558D02*
D03*
X028637Y012022D02*
D03*
Y012337D02*
D03*
X03105Y012022D02*
D03*
Y012337D02*
D03*
X032937Y012025D02*
D03*
Y01234D02*
D03*
X024809Y012022D02*
D03*
Y012337D02*
D03*
X022907Y012019D02*
D03*
Y012334D02*
D03*
X018534Y012408D02*
D03*
Y012723D02*
D03*
X014342Y012406D02*
D03*
Y012721D02*
D03*
X01815Y012406D02*
D03*
Y012721D02*
D03*
X011571Y012408D02*
D03*
Y012723D02*
D03*
X007669Y012408D02*
D03*
Y012723D02*
D03*
X005765Y012411D02*
D03*
Y012726D02*
D03*
X002213Y012408D02*
D03*
Y012723D02*
D03*
X003471Y012408D02*
D03*
Y012723D02*
D03*
X01625Y012406D02*
D03*
Y012721D02*
D03*
X009575Y012408D02*
D03*
Y012723D02*
D03*
X038623Y012497D02*
D03*
Y012182D02*
D03*
X035119Y008226D02*
D03*
Y008541D02*
D03*
X035342Y008226D02*
D03*
Y008541D02*
D03*
X03486Y012007D02*
D03*
Y012322D02*
D03*
D85*
X028753Y010819D02*
D03*
Y010629D02*
D03*
X035168Y012249D02*
D03*
Y012059D02*
D03*
X020264Y011376D02*
D03*
Y011566D02*
D03*
X020457Y011373D02*
D03*
Y011563D02*
D03*
X041685Y010674D02*
D03*
Y010484D02*
D03*
X038382Y012247D02*
D03*
Y012437D02*
D03*
D86*
X029213Y011037D02*
D03*
X029403D02*
D03*
X02834Y010042D02*
D03*
X02853D02*
D03*
X020065Y011811D02*
D03*
X020255D02*
D03*
X020656D02*
D03*
X020466D02*
D03*
X041827Y012128D02*
D03*
X041636D02*
D03*
X008763Y001928D02*
D03*
X008573D02*
D03*
X041827Y011868D02*
D03*
X041636D02*
D03*
X037927Y011954D02*
D03*
X038117D02*
D03*
X037927Y011454D02*
D03*
X038117D02*
D03*
D87*
X028555Y010306D02*
D03*
X028273D02*
D03*
D88*
X029207Y009883D02*
D03*
X029457Y010323D02*
D03*
X028957D02*
D03*
D89*
X041708Y007964D02*
D03*
X042036D02*
D03*
X019103Y012566D02*
D03*
X018776D02*
D03*
X04175Y004382D02*
D03*
X042077D02*
D03*
X040478Y006338D02*
D03*
X040805D02*
D03*
X036977Y002248D02*
D03*
X03665D02*
D03*
D90*
X020064Y012082D02*
D03*
Y012272D02*
D03*
X029232Y003234D02*
D03*
Y003424D02*
D03*
X040982Y010476D02*
D03*
Y010666D02*
D03*
X040722Y010476D02*
D03*
Y010666D02*
D03*
X038115Y012602D02*
D03*
Y012412D02*
D03*
X021024Y011563D02*
D03*
Y011373D02*
D03*
X020833Y011563D02*
D03*
Y011373D02*
D03*
X02065Y011563D02*
D03*
Y011373D02*
D03*
X03319Y003234D02*
D03*
Y003424D02*
D03*
D91*
X042244Y012627D02*
D03*
X04261D02*
D03*
X042626Y011727D02*
D03*
D92*
X033531Y012342D02*
D03*
X033216D02*
D03*
D93*
X033559Y003365D02*
D03*
Y003238D02*
D03*
Y00311D02*
D03*
Y002983D02*
D03*
Y002857D02*
D03*
Y00273D02*
D03*
Y002602D02*
D03*
Y002475D02*
D03*
X034101D02*
D03*
Y002602D02*
D03*
Y00273D02*
D03*
Y002857D02*
D03*
Y002983D02*
D03*
Y00311D02*
D03*
Y003238D02*
D03*
Y003365D02*
D03*
X029589D02*
D03*
Y003238D02*
D03*
Y00311D02*
D03*
Y002983D02*
D03*
Y002857D02*
D03*
Y00273D02*
D03*
Y002602D02*
D03*
Y002475D02*
D03*
X030131D02*
D03*
Y002602D02*
D03*
Y00273D02*
D03*
Y002857D02*
D03*
Y002983D02*
D03*
Y00311D02*
D03*
Y003238D02*
D03*
Y003365D02*
D03*
X008579Y001655D02*
D03*
Y001527D02*
D03*
Y001401D02*
D03*
Y001273D02*
D03*
Y001147D02*
D03*
Y001019D02*
D03*
Y000893D02*
D03*
Y000766D02*
D03*
X009121D02*
D03*
Y000893D02*
D03*
Y001019D02*
D03*
Y001147D02*
D03*
Y001273D02*
D03*
Y001401D02*
D03*
Y001527D02*
D03*
Y001655D02*
D03*
D94*
X02851Y010853D02*
D03*
X02832D02*
D03*
Y010613D02*
D03*
X028415D02*
D03*
X02851D02*
D03*
D95*
X040727Y010891D02*
D03*
X040977D02*
D03*
D96*
X041844Y011339D02*
D03*
X041624D02*
D03*
Y011609D02*
D03*
X041844D02*
D03*
D97*
X020489Y010306D02*
D03*
X020552D02*
D03*
X020616D02*
D03*
X020679D02*
D03*
X02106D02*
D03*
X020997D02*
D03*
X020933D02*
D03*
X02087D02*
D03*
X020806D02*
D03*
X020743D02*
D03*
X02106Y010842D02*
D03*
X020997D02*
D03*
X020933D02*
D03*
X02087D02*
D03*
X020489D02*
D03*
X020552D02*
D03*
X020616D02*
D03*
X020679D02*
D03*
X020743D02*
D03*
X020806D02*
D03*
D98*
X029213Y010828D02*
D03*
X029403D02*
D03*
X029308Y010638D02*
D03*
D99*
X019814Y012307D02*
D03*
Y012047D02*
D03*
D100*
X020527Y012694D02*
D03*
X020267D02*
D03*
D101*
X020462D02*
D03*
X020397D02*
D03*
X020332D02*
D03*
D102*
X020297Y012964D02*
D03*
X020497D02*
D03*
D103*
X04008Y01172D02*
D03*
Y01179D02*
D03*
Y01263D02*
D03*
Y01256D02*
D03*
Y01249D02*
D03*
Y01242D02*
D03*
Y01235D02*
D03*
Y01228D02*
D03*
Y01221D02*
D03*
Y01214D02*
D03*
Y01207D02*
D03*
Y012D02*
D03*
Y01193D02*
D03*
Y01186D02*
D03*
X041D02*
D03*
Y01193D02*
D03*
Y012D02*
D03*
Y01207D02*
D03*
Y01214D02*
D03*
Y01221D02*
D03*
Y01228D02*
D03*
Y01235D02*
D03*
Y01242D02*
D03*
Y01179D02*
D03*
D104*
X04025Y012525D02*
D03*
Y012665D02*
D03*
D105*
X04008Y01272D02*
D03*
X041D02*
D03*
D106*
X04012Y01158D02*
D03*
X04019D02*
D03*
X04026D02*
D03*
X04033D02*
D03*
X0404D02*
D03*
X04047D02*
D03*
X04054D02*
D03*
X04068D02*
D03*
X04075D02*
D03*
X04082D02*
D03*
X04089D02*
D03*
X04096D02*
D03*
D107*
X04061D02*
D03*
M02*
