G04 Layer_Color=2752767*
%FSTAX42Y42*%
%MOMM*%
G71*
G01*
G75*
%ADD111C,0.13*%
%ADD112C,0.17*%
%ADD113C,0.10*%
D111*
X028542Y001069D02*
Y001171D01*
X028644D01*
Y001069D01*
X028542D01*
X024409Y005072D02*
Y005174D01*
X024511D01*
Y005072D01*
X024409D01*
X00238Y00053D02*
Y000631D01*
X002481D01*
Y00053D01*
X00238D01*
X04114Y004087D02*
Y004188D01*
X041242D01*
Y004087D01*
X04114D01*
X000351Y004435D02*
Y004536D01*
X000452D01*
Y004435D01*
X000351D01*
X038472Y000418D02*
X038421Y000519D01*
X038522D01*
X038472Y000418D01*
Y001942D02*
X038497Y001967D01*
X038522D01*
X038497Y001992D01*
X038522Y002018D01*
X038497D01*
X038472Y002043D01*
X038446Y002018D01*
X038421D01*
X038446Y001992D01*
X038421Y001967D01*
X038446D01*
X038472Y001942D01*
X036084Y000418D02*
X036033Y000519D01*
X036135D01*
X036084Y000418D01*
Y001942D02*
X036109Y001967D01*
X036135D01*
X036109Y001992D01*
X036135Y002018D01*
X036109D01*
X036084Y002043D01*
X036059Y002018D01*
X036033D01*
X036059Y001992D01*
X036033Y001967D01*
X036059D01*
X036084Y001942D01*
X037354Y000735D02*
X037379Y000786D01*
X037354Y000837D01*
X037405Y000811D01*
X037456Y000837D01*
X03743Y000786D01*
X037456Y000735D01*
X037405Y00076D01*
X037354Y000735D01*
X0371D02*
X037125Y000786D01*
X0371Y000837D01*
X037151Y000811D01*
X037202Y000837D01*
X037176Y000786D01*
X037202Y000735D01*
X037151Y00076D01*
X0371Y000735D01*
X036744Y001268D02*
Y001243D01*
X036795D01*
Y001268D01*
X036821D01*
Y001319D01*
X036795D01*
Y001345D01*
X036744D01*
Y001319D01*
X036719D01*
Y001268D01*
X036744D01*
X03776D02*
Y001243D01*
X037811D01*
Y001268D01*
X037837D01*
Y001319D01*
X037811D01*
Y001345D01*
X03776D01*
Y001319D01*
X037735D01*
Y001268D01*
X03776D01*
X037278Y001243D02*
X037227Y001345D01*
X037329D01*
X037278Y001243D01*
X037481Y001756D02*
X037506D01*
X037532Y001781D01*
X037557Y001756D01*
X037583D01*
Y001781D01*
X037557Y001807D01*
X037583Y001832D01*
Y001858D01*
X037557D01*
X037532Y001832D01*
X037506Y001858D01*
X037481D01*
Y001832D01*
X037506Y001807D01*
X037481Y001781D01*
Y001756D01*
X036859Y00151D02*
X036884D01*
X03691Y001535D01*
X036935Y00151D01*
X03696D01*
Y001535D01*
X036935Y001561D01*
X03696Y001586D01*
Y001611D01*
X036935D01*
X03691Y001586D01*
X036884Y001611D01*
X036859D01*
Y001586D01*
X036884Y001561D01*
X036859Y001535D01*
Y00151D01*
X027199Y002323D02*
X027148Y002424D01*
X02725D01*
X027199Y002323D01*
Y003847D02*
X027224Y003872D01*
X02725D01*
X027224Y003897D01*
X02725Y003923D01*
X027224D01*
X027199Y003948D01*
X027174Y003923D01*
X027148D01*
X027174Y003897D01*
X027148Y003872D01*
X027174D01*
X027199Y003847D01*
X024811Y002323D02*
X024761Y002424D01*
X024862D01*
X024811Y002323D01*
Y003847D02*
X024837Y003872D01*
X024862D01*
X024837Y003897D01*
X024862Y003923D01*
X024837D01*
X024811Y003948D01*
X024786Y003923D01*
X024761D01*
X024786Y003897D01*
X024761Y003872D01*
X024786D01*
X024811Y003847D01*
X026081Y00264D02*
X026107Y002691D01*
X026081Y002742D01*
X026132Y002716D01*
X026183Y002742D01*
X026158Y002691D01*
X026183Y00264D01*
X026132Y002666D01*
X026081Y00264D01*
X025827D02*
X025853Y002691D01*
X025827Y002742D01*
X025878Y002716D01*
X025929Y002742D01*
X025904Y002691D01*
X025929Y00264D01*
X025878Y002666D01*
X025827Y00264D01*
X025472Y003174D02*
Y003148D01*
X025523D01*
Y003174D01*
X025548D01*
Y003224D01*
X025523D01*
Y00325D01*
X025472D01*
Y003224D01*
X025446D01*
Y003174D01*
X025472D01*
X026488D02*
Y003148D01*
X026539D01*
Y003174D01*
X026564D01*
Y003224D01*
X026539D01*
Y00325D01*
X026488D01*
Y003224D01*
X026462D01*
Y003174D01*
X026488D01*
X026005Y003148D02*
X025954Y00325D01*
X026056D01*
X026005Y003148D01*
X026208Y003661D02*
X026234D01*
X026259Y003687D01*
X026285Y003661D01*
X02631D01*
Y003687D01*
X026285Y003712D01*
X02631Y003737D01*
Y003763D01*
X026285D01*
X026259Y003737D01*
X026234Y003763D01*
X026208D01*
Y003737D01*
X026234Y003712D01*
X026208Y003687D01*
Y003661D01*
X025586Y003415D02*
X025611D01*
X025637Y00344D01*
X025662Y003415D01*
X025688D01*
Y00344D01*
X025662Y003466D01*
X025688Y003491D01*
Y003517D01*
X025662D01*
X025637Y003491D01*
X025611Y003517D01*
X025586D01*
Y003491D01*
X025611Y003466D01*
X025586Y00344D01*
Y003415D01*
X027675Y004228D02*
X027624Y004329D01*
X027726D01*
X027675Y004228D01*
Y005752D02*
X027701Y005777D01*
X027726D01*
X027701Y005803D01*
X027726Y005828D01*
X027701D01*
X027675Y005853D01*
X02765Y005828D01*
X027624D01*
X02765Y005803D01*
X027624Y005777D01*
X02765D01*
X027675Y005752D01*
X025288Y004228D02*
X025237Y004329D01*
X025338D01*
X025288Y004228D01*
Y005752D02*
X025313Y005777D01*
X025338D01*
X025313Y005803D01*
X025338Y005828D01*
X025313D01*
X025288Y005853D01*
X025262Y005828D01*
X025237D01*
X025262Y005803D01*
X025237Y005777D01*
X025262D01*
X025288Y005752D01*
X026558Y004545D02*
X026583Y004596D01*
X026558Y004647D01*
X026608Y004621D01*
X026659Y004647D01*
X026634Y004596D01*
X026659Y004545D01*
X026608Y004571D01*
X026558Y004545D01*
X026304D02*
X026329Y004596D01*
X026304Y004647D01*
X026354Y004621D01*
X026405Y004647D01*
X02638Y004596D01*
X026405Y004545D01*
X026354Y004571D01*
X026304Y004545D01*
X025948Y005079D02*
Y005053D01*
X025999D01*
Y005079D01*
X026024D01*
Y005129D01*
X025999D01*
Y005155D01*
X025948D01*
Y005129D01*
X025923D01*
Y005079D01*
X025948D01*
X026964D02*
Y005053D01*
X027015D01*
Y005079D01*
X02704D01*
Y005129D01*
X027015D01*
Y005155D01*
X026964D01*
Y005129D01*
X026939D01*
Y005079D01*
X026964D01*
X026481Y005053D02*
X026431Y005155D01*
X026532D01*
X026481Y005053D01*
X026685Y005566D02*
X02671D01*
X026735Y005592D01*
X026761Y005566D01*
X026786D01*
Y005592D01*
X026761Y005617D01*
X026786Y005642D01*
Y005668D01*
X026761D01*
X026735Y005642D01*
X02671Y005668D01*
X026685D01*
Y005642D01*
X02671Y005617D01*
X026685Y005592D01*
Y005566D01*
X026062Y00532D02*
X026088D01*
X026113Y005345D01*
X026138Y00532D01*
X026164D01*
Y005345D01*
X026138Y005371D01*
X026164Y005396D01*
Y005422D01*
X026138D01*
X026113Y005396D01*
X026088Y005422D01*
X026062D01*
Y005396D01*
X026088Y005371D01*
X026062Y005345D01*
Y00532D01*
X027913Y008038D02*
X027862Y008139D01*
X027964D01*
X027913Y008038D01*
Y009562D02*
X027939Y009587D01*
X027964D01*
X027939Y009612D01*
X027964Y009638D01*
X027939D01*
X027913Y009663D01*
X027888Y009638D01*
X027862D01*
X027888Y009612D01*
X027862Y009587D01*
X027888D01*
X027913Y009562D01*
X025526Y008038D02*
X025475Y008139D01*
X025576D01*
X025526Y008038D01*
Y009562D02*
X025551Y009587D01*
X025576D01*
X025551Y009612D01*
X025576Y009638D01*
X025551D01*
X025526Y009663D01*
X0255Y009638D01*
X025475D01*
X0255Y009612D01*
X025475Y009587D01*
X0255D01*
X025526Y009562D01*
X026796Y008355D02*
X026821Y008406D01*
X026796Y008457D01*
X026846Y008431D01*
X026897Y008457D01*
X026872Y008406D01*
X026897Y008355D01*
X026846Y008381D01*
X026796Y008355D01*
X026542D02*
X026567Y008406D01*
X026542Y008457D01*
X026592Y008431D01*
X026643Y008457D01*
X026618Y008406D01*
X026643Y008355D01*
X026592Y008381D01*
X026542Y008355D01*
X026186Y008889D02*
Y008863D01*
X026237D01*
Y008889D01*
X026262D01*
Y008939D01*
X026237D01*
Y008965D01*
X026186D01*
Y008939D01*
X026161D01*
Y008889D01*
X026186D01*
X027202D02*
Y008863D01*
X027253D01*
Y008889D01*
X027278D01*
Y008939D01*
X027253D01*
Y008965D01*
X027202D01*
Y008939D01*
X027177D01*
Y008889D01*
X027202D01*
X02672Y008863D02*
X026669Y008965D01*
X02677D01*
X02672Y008863D01*
X026923Y009376D02*
X026948D01*
X026973Y009402D01*
X026999Y009376D01*
X027024D01*
Y009402D01*
X026999Y009427D01*
X027024Y009452D01*
Y009478D01*
X026999D01*
X026973Y009452D01*
X026948Y009478D01*
X026923D01*
Y009452D01*
X026948Y009427D01*
X026923Y009402D01*
Y009376D01*
X0263Y00913D02*
X026326D01*
X026351Y009155D01*
X026377Y00913D01*
X026402D01*
Y009155D01*
X026377Y009181D01*
X026402Y009206D01*
Y009232D01*
X026377D01*
X026351Y009206D01*
X026326Y009232D01*
X0263D01*
Y009206D01*
X026326Y009181D01*
X0263Y009155D01*
Y00913D01*
X012727Y00151D02*
X012753D01*
X012778Y001535D01*
X012803Y00151D01*
X012829D01*
Y001535D01*
X012803Y001561D01*
X012829Y001586D01*
Y001611D01*
X012803D01*
X012778Y001586D01*
X012753Y001611D01*
X012727D01*
Y001586D01*
X012753Y001561D01*
X012727Y001535D01*
Y00151D01*
X01335Y001756D02*
X013375D01*
X0134Y001782D01*
X013426Y001756D01*
X013451D01*
Y001782D01*
X013426Y001807D01*
X013451Y001832D01*
Y001858D01*
X013426D01*
X0134Y001832D01*
X013375Y001858D01*
X01335D01*
Y001832D01*
X013375Y001807D01*
X01335Y001782D01*
Y001756D01*
X013146Y001243D02*
X013096Y001345D01*
X013197D01*
X013146Y001243D01*
X013629Y001269D02*
Y001243D01*
X01368D01*
Y001269D01*
X013705D01*
Y001319D01*
X01368D01*
Y001345D01*
X013629D01*
Y001319D01*
X013604D01*
Y001269D01*
X013629D01*
X012613D02*
Y001243D01*
X012664D01*
Y001269D01*
X012689D01*
Y001319D01*
X012664D01*
Y001345D01*
X012613D01*
Y001319D01*
X012588D01*
Y001269D01*
X012613D01*
X012969Y000735D02*
X012994Y000786D01*
X012969Y000837D01*
X013019Y000811D01*
X01307Y000837D01*
X013045Y000786D01*
X01307Y000735D01*
X013019Y000761D01*
X012969Y000735D01*
X013223D02*
X013248Y000786D01*
X013223Y000837D01*
X013273Y000811D01*
X013324Y000837D01*
X013299Y000786D01*
X013324Y000735D01*
X013273Y000761D01*
X013223Y000735D01*
X008146Y001942D02*
X008172Y001967D01*
X008197D01*
X008172Y001992D01*
X008197Y002018D01*
X008172D01*
X008146Y002043D01*
X008121Y002018D01*
X008096D01*
X008121Y001992D01*
X008096Y001967D01*
X008121D01*
X008146Y001942D01*
X018146D02*
X018172Y001967D01*
X018197D01*
X018172Y001992D01*
X018197Y002018D01*
X018172D01*
X018146Y002043D01*
X018121Y002018D01*
X018096D01*
X018121Y001992D01*
X018096Y001967D01*
X018121D01*
X018146Y001942D01*
X008146Y000418D02*
X008096Y000519D01*
X008197D01*
X008146Y000418D01*
X018146D02*
X018096Y000519D01*
X018197D01*
X018146Y000418D01*
X000583Y011918D02*
X000608D01*
X000634Y011943D01*
X000659Y011918D01*
X000684D01*
Y011943D01*
X000659Y011969D01*
X000684Y011994D01*
Y012019D01*
X000659D01*
X000634Y011994D01*
X000608Y012019D01*
X000583D01*
Y011994D01*
X000608Y011969D01*
X000583Y011943D01*
Y011918D01*
X001205Y012164D02*
X001231D01*
X001256Y01219D01*
X001281Y012164D01*
X001307D01*
Y01219D01*
X001281Y012215D01*
X001307Y01224D01*
Y012266D01*
X001281D01*
X001256Y01224D01*
X001231Y012266D01*
X001205D01*
Y01224D01*
X001231Y012215D01*
X001205Y01219D01*
Y012164D01*
X001002Y011651D02*
X000951Y011753D01*
X001053D01*
X001002Y011651D01*
X001485Y011677D02*
Y011651D01*
X001535D01*
Y011677D01*
X001561D01*
Y011727D01*
X001535D01*
Y011753D01*
X001485D01*
Y011727D01*
X001459D01*
Y011677D01*
X001485D01*
X000469D02*
Y011651D01*
X000519D01*
Y011677D01*
X000545D01*
Y011727D01*
X000519D01*
Y011753D01*
X000469D01*
Y011727D01*
X000443D01*
Y011677D01*
X000469D01*
X000824Y011143D02*
X00085Y011194D01*
X000824Y011245D01*
X000875Y011219D01*
X000926Y011245D01*
X0009Y011194D01*
X000926Y011143D01*
X000875Y011169D01*
X000824Y011143D01*
X001078D02*
X001104Y011194D01*
X001078Y011245D01*
X001129Y011219D01*
X00118Y011245D01*
X001154Y011194D01*
X00118Y011143D01*
X001129Y011169D01*
X001078Y011143D01*
X004393Y011918D02*
X004418D01*
X004444Y011943D01*
X004469Y011918D01*
X004494D01*
Y011943D01*
X004469Y011969D01*
X004494Y011994D01*
Y012019D01*
X004469D01*
X004444Y011994D01*
X004418Y012019D01*
X004393D01*
Y011994D01*
X004418Y011969D01*
X004393Y011943D01*
Y011918D01*
X005015Y012164D02*
X005041D01*
X005066Y01219D01*
X005091Y012164D01*
X005117D01*
Y01219D01*
X005091Y012215D01*
X005117Y01224D01*
Y012266D01*
X005091D01*
X005066Y01224D01*
X005041Y012266D01*
X005015D01*
Y01224D01*
X005041Y012215D01*
X005015Y01219D01*
Y012164D01*
X004812Y011651D02*
X004761Y011753D01*
X004863D01*
X004812Y011651D01*
X005295Y011677D02*
Y011651D01*
X005345D01*
Y011677D01*
X005371D01*
Y011727D01*
X005345D01*
Y011753D01*
X005295D01*
Y011727D01*
X005269D01*
Y011677D01*
X005295D01*
X004279D02*
Y011651D01*
X004329D01*
Y011677D01*
X004355D01*
Y011727D01*
X004329D01*
Y011753D01*
X004279D01*
Y011727D01*
X004253D01*
Y011677D01*
X004279D01*
X004634Y011143D02*
X00466Y011194D01*
X004634Y011245D01*
X004685Y011219D01*
X004736Y011245D01*
X00471Y011194D01*
X004736Y011143D01*
X004685Y011169D01*
X004634Y011143D01*
X004888D02*
X004914Y011194D01*
X004888Y011245D01*
X004939Y011219D01*
X00499Y011245D01*
X004964Y011194D01*
X00499Y011143D01*
X004939Y011169D01*
X004888Y011143D01*
X006298Y011918D02*
X006323D01*
X006349Y011943D01*
X006374Y011918D01*
X006399D01*
Y011943D01*
X006374Y011969D01*
X006399Y011994D01*
Y012019D01*
X006374D01*
X006349Y011994D01*
X006323Y012019D01*
X006298D01*
Y011994D01*
X006323Y011969D01*
X006298Y011943D01*
Y011918D01*
X00692Y012164D02*
X006946D01*
X006971Y01219D01*
X006996Y012164D01*
X007022D01*
Y01219D01*
X006996Y012215D01*
X007022Y01224D01*
Y012266D01*
X006996D01*
X006971Y01224D01*
X006946Y012266D01*
X00692D01*
Y01224D01*
X006946Y012215D01*
X00692Y01219D01*
Y012164D01*
X006717Y011651D02*
X006666Y011753D01*
X006768D01*
X006717Y011651D01*
X0072Y011677D02*
Y011651D01*
X00725D01*
Y011677D01*
X007276D01*
Y011727D01*
X00725D01*
Y011753D01*
X0072D01*
Y011727D01*
X007174D01*
Y011677D01*
X0072D01*
X006184D02*
Y011651D01*
X006234D01*
Y011677D01*
X00626D01*
Y011727D01*
X006234D01*
Y011753D01*
X006184D01*
Y011727D01*
X006158D01*
Y011677D01*
X006184D01*
X006539Y011143D02*
X006565Y011194D01*
X006539Y011245D01*
X00659Y011219D01*
X006641Y011245D01*
X006615Y011194D01*
X006641Y011143D01*
X00659Y011169D01*
X006539Y011143D01*
X006793D02*
X006819Y011194D01*
X006793Y011245D01*
X006844Y011219D01*
X006895Y011245D01*
X006869Y011194D01*
X006895Y011143D01*
X006844Y011169D01*
X006793Y011143D01*
X008203Y011918D02*
X008228D01*
X008254Y011943D01*
X008279Y011918D01*
X008304D01*
Y011943D01*
X008279Y011969D01*
X008304Y011994D01*
Y012019D01*
X008279D01*
X008254Y011994D01*
X008228Y012019D01*
X008203D01*
Y011994D01*
X008228Y011969D01*
X008203Y011943D01*
Y011918D01*
X008825Y012164D02*
X008851D01*
X008876Y01219D01*
X008901Y012164D01*
X008927D01*
Y01219D01*
X008901Y012215D01*
X008927Y01224D01*
Y012266D01*
X008901D01*
X008876Y01224D01*
X008851Y012266D01*
X008825D01*
Y01224D01*
X008851Y012215D01*
X008825Y01219D01*
Y012164D01*
X008622Y011651D02*
X008571Y011753D01*
X008673D01*
X008622Y011651D01*
X009105Y011677D02*
Y011651D01*
X009155D01*
Y011677D01*
X009181D01*
Y011727D01*
X009155D01*
Y011753D01*
X009105D01*
Y011727D01*
X009079D01*
Y011677D01*
X009105D01*
X008089D02*
Y011651D01*
X008139D01*
Y011677D01*
X008165D01*
Y011727D01*
X008139D01*
Y011753D01*
X008089D01*
Y011727D01*
X008063D01*
Y011677D01*
X008089D01*
X008444Y011143D02*
X00847Y011194D01*
X008444Y011245D01*
X008495Y011219D01*
X008546Y011245D01*
X00852Y011194D01*
X008546Y011143D01*
X008495Y011169D01*
X008444Y011143D01*
X008698D02*
X008724Y011194D01*
X008698Y011245D01*
X008749Y011219D01*
X0088Y011245D01*
X008774Y011194D01*
X0088Y011143D01*
X008749Y011169D01*
X008698Y011143D01*
X010108Y011918D02*
X010133D01*
X010159Y011943D01*
X010184Y011918D01*
X01021D01*
Y011943D01*
X010184Y011969D01*
X01021Y011994D01*
Y012019D01*
X010184D01*
X010159Y011994D01*
X010133Y012019D01*
X010108D01*
Y011994D01*
X010133Y011969D01*
X010108Y011943D01*
Y011918D01*
X01073Y012164D02*
X010756D01*
X010781Y01219D01*
X010806Y012164D01*
X010832D01*
Y01219D01*
X010806Y012215D01*
X010832Y01224D01*
Y012266D01*
X010806D01*
X010781Y01224D01*
X010756Y012266D01*
X01073D01*
Y01224D01*
X010756Y012215D01*
X01073Y01219D01*
Y012164D01*
X010527Y011651D02*
X010476Y011753D01*
X010578D01*
X010527Y011651D01*
X01101Y011677D02*
Y011651D01*
X01106D01*
Y011677D01*
X011086D01*
Y011727D01*
X01106D01*
Y011753D01*
X01101D01*
Y011727D01*
X010984D01*
Y011677D01*
X01101D01*
X009994D02*
Y011651D01*
X010044D01*
Y011677D01*
X01007D01*
Y011727D01*
X010044D01*
Y011753D01*
X009994D01*
Y011727D01*
X009968D01*
Y011677D01*
X009994D01*
X010349Y011143D02*
X010375Y011194D01*
X010349Y011245D01*
X0104Y011219D01*
X010451Y011245D01*
X010425Y011194D01*
X010451Y011143D01*
X0104Y011169D01*
X010349Y011143D01*
X010603D02*
X010629Y011194D01*
X010603Y011245D01*
X010654Y011219D01*
X010705Y011245D01*
X010679Y011194D01*
X010705Y011143D01*
X010654Y011169D01*
X010603Y011143D01*
X012965Y011918D02*
X012991D01*
X013016Y011943D01*
X013042Y011918D01*
X013067D01*
Y011943D01*
X013042Y011969D01*
X013067Y011994D01*
Y012019D01*
X013042D01*
X013016Y011994D01*
X012991Y012019D01*
X012965D01*
Y011994D01*
X012991Y011969D01*
X012965Y011943D01*
Y011918D01*
X013588Y012164D02*
X013613D01*
X013638Y01219D01*
X013664Y012164D01*
X013689D01*
Y01219D01*
X013664Y012215D01*
X013689Y01224D01*
Y012266D01*
X013664D01*
X013638Y01224D01*
X013613Y012266D01*
X013588D01*
Y01224D01*
X013613Y012215D01*
X013588Y01219D01*
Y012164D01*
X013385Y011651D02*
X013334Y011753D01*
X013435D01*
X013385Y011651D01*
X013867Y011677D02*
Y011651D01*
X013918D01*
Y011677D01*
X013943D01*
Y011727D01*
X013918D01*
Y011753D01*
X013867D01*
Y011727D01*
X013842D01*
Y011677D01*
X013867D01*
X012851D02*
Y011651D01*
X012902D01*
Y011677D01*
X012927D01*
Y011727D01*
X012902D01*
Y011753D01*
X012851D01*
Y011727D01*
X012826D01*
Y011677D01*
X012851D01*
X013207Y011143D02*
X013232Y011194D01*
X013207Y011245D01*
X013257Y011219D01*
X013308Y011245D01*
X013283Y011194D01*
X013308Y011143D01*
X013257Y011169D01*
X013207Y011143D01*
X013461D02*
X013486Y011194D01*
X013461Y011245D01*
X013512Y011219D01*
X013562Y011245D01*
X013537Y011194D01*
X013562Y011143D01*
X013512Y011169D01*
X013461Y011143D01*
X01487Y011918D02*
X014896D01*
X014921Y011943D01*
X014947Y011918D01*
X014972D01*
Y011943D01*
X014947Y011969D01*
X014972Y011994D01*
Y012019D01*
X014947D01*
X014921Y011994D01*
X014896Y012019D01*
X01487D01*
Y011994D01*
X014896Y011969D01*
X01487Y011943D01*
Y011918D01*
X015493Y012164D02*
X015518D01*
X015543Y01219D01*
X015569Y012164D01*
X015594D01*
Y01219D01*
X015569Y012215D01*
X015594Y01224D01*
Y012266D01*
X015569D01*
X015543Y01224D01*
X015518Y012266D01*
X015493D01*
Y01224D01*
X015518Y012215D01*
X015493Y01219D01*
Y012164D01*
X01529Y011651D02*
X015239Y011753D01*
X01534D01*
X01529Y011651D01*
X015772Y011677D02*
Y011651D01*
X015823D01*
Y011677D01*
X015848D01*
Y011727D01*
X015823D01*
Y011753D01*
X015772D01*
Y011727D01*
X015747D01*
Y011677D01*
X015772D01*
X014756D02*
Y011651D01*
X014807D01*
Y011677D01*
X014832D01*
Y011727D01*
X014807D01*
Y011753D01*
X014756D01*
Y011727D01*
X014731D01*
Y011677D01*
X014756D01*
X015112Y011143D02*
X015137Y011194D01*
X015112Y011245D01*
X015162Y011219D01*
X015213Y011245D01*
X015188Y011194D01*
X015213Y011143D01*
X015162Y011169D01*
X015112Y011143D01*
X015366D02*
X015391Y011194D01*
X015366Y011245D01*
X015416Y011219D01*
X015467Y011245D01*
X015442Y011194D01*
X015467Y011143D01*
X015416Y011169D01*
X015366Y011143D01*
X016775Y011918D02*
X016801D01*
X016826Y011943D01*
X016852Y011918D01*
X016877D01*
Y011943D01*
X016852Y011969D01*
X016877Y011994D01*
Y012019D01*
X016852D01*
X016826Y011994D01*
X016801Y012019D01*
X016775D01*
Y011994D01*
X016801Y011969D01*
X016775Y011943D01*
Y011918D01*
X017398Y012164D02*
X017423D01*
X017449Y01219D01*
X017474Y012164D01*
X017499D01*
Y01219D01*
X017474Y012215D01*
X017499Y01224D01*
Y012266D01*
X017474D01*
X017449Y01224D01*
X017423Y012266D01*
X017398D01*
Y01224D01*
X017423Y012215D01*
X017398Y01219D01*
Y012164D01*
X017195Y011651D02*
X017144Y011753D01*
X017245D01*
X017195Y011651D01*
X017677Y011677D02*
Y011651D01*
X017728D01*
Y011677D01*
X017753D01*
Y011727D01*
X017728D01*
Y011753D01*
X017677D01*
Y011727D01*
X017652D01*
Y011677D01*
X017677D01*
X016661D02*
Y011651D01*
X016712D01*
Y011677D01*
X016737D01*
Y011727D01*
X016712D01*
Y011753D01*
X016661D01*
Y011727D01*
X016636D01*
Y011677D01*
X016661D01*
X017017Y011143D02*
X017042Y011194D01*
X017017Y011245D01*
X017068Y011219D01*
X017118Y011245D01*
X017093Y011194D01*
X017118Y011143D01*
X017068Y011169D01*
X017017Y011143D01*
X017271D02*
X017296Y011194D01*
X017271Y011245D01*
X017321Y011219D01*
X017372Y011245D01*
X017347Y011194D01*
X017372Y011143D01*
X017321Y011169D01*
X017271Y011143D01*
X01868Y011918D02*
X018706D01*
X018731Y011943D01*
X018757Y011918D01*
X018782D01*
Y011943D01*
X018757Y011969D01*
X018782Y011994D01*
Y012019D01*
X018757D01*
X018731Y011994D01*
X018706Y012019D01*
X01868D01*
Y011994D01*
X018706Y011969D01*
X01868Y011943D01*
Y011918D01*
X019303Y012164D02*
X019328D01*
X019354Y01219D01*
X019379Y012164D01*
X019404D01*
Y01219D01*
X019379Y012215D01*
X019404Y01224D01*
Y012266D01*
X019379D01*
X019354Y01224D01*
X019328Y012266D01*
X019303D01*
Y01224D01*
X019328Y012215D01*
X019303Y01219D01*
Y012164D01*
X019099Y011651D02*
X019049Y011753D01*
X01915D01*
X019099Y011651D01*
X019582Y011677D02*
Y011651D01*
X019633D01*
Y011677D01*
X019658D01*
Y011727D01*
X019633D01*
Y011753D01*
X019582D01*
Y011727D01*
X019557D01*
Y011677D01*
X019582D01*
X018566D02*
Y011651D01*
X018617D01*
Y011677D01*
X018642D01*
Y011727D01*
X018617D01*
Y011753D01*
X018566D01*
Y011727D01*
X018541D01*
Y011677D01*
X018566D01*
X018922Y011143D02*
X018947Y011194D01*
X018922Y011245D01*
X018973Y011219D01*
X019023Y011245D01*
X018998Y011194D01*
X019023Y011143D01*
X018973Y011169D01*
X018922Y011143D01*
X019176D02*
X019201Y011194D01*
X019176Y011245D01*
X019226Y011219D01*
X019277Y011245D01*
X019252Y011194D01*
X019277Y011143D01*
X019226Y011169D01*
X019176Y011143D01*
X021538Y011918D02*
X021563D01*
X021589Y011943D01*
X021614Y011918D01*
X02164D01*
Y011943D01*
X021614Y011969D01*
X02164Y011994D01*
Y012019D01*
X021614D01*
X021589Y011994D01*
X021563Y012019D01*
X021538D01*
Y011994D01*
X021563Y011969D01*
X021538Y011943D01*
Y011918D01*
X02216Y012164D02*
X022186D01*
X022211Y01219D01*
X022236Y012164D01*
X022262D01*
Y01219D01*
X022236Y012215D01*
X022262Y01224D01*
Y012266D01*
X022236D01*
X022211Y01224D01*
X022186Y012266D01*
X02216D01*
Y01224D01*
X022186Y012215D01*
X02216Y01219D01*
Y012164D01*
X021957Y011651D02*
X021906Y011753D01*
X022008D01*
X021957Y011651D01*
X02244Y011677D02*
Y011651D01*
X02249D01*
Y011677D01*
X022516D01*
Y011727D01*
X02249D01*
Y011753D01*
X02244D01*
Y011727D01*
X022414D01*
Y011677D01*
X02244D01*
X021424D02*
Y011651D01*
X021474D01*
Y011677D01*
X0215D01*
Y011727D01*
X021474D01*
Y011753D01*
X021424D01*
Y011727D01*
X021398D01*
Y011677D01*
X021424D01*
X021779Y011143D02*
X021805Y011194D01*
X021779Y011245D01*
X02183Y011219D01*
X021881Y011245D01*
X021855Y011194D01*
X021881Y011143D01*
X02183Y011169D01*
X021779Y011143D01*
X022033D02*
X022059Y011194D01*
X022033Y011245D01*
X022084Y011219D01*
X022135Y011245D01*
X022109Y011194D01*
X022135Y011143D01*
X022084Y011169D01*
X022033Y011143D01*
X023443Y011918D02*
X023468D01*
X023494Y011943D01*
X023519Y011918D01*
X023545D01*
Y011943D01*
X023519Y011969D01*
X023545Y011994D01*
Y012019D01*
X023519D01*
X023494Y011994D01*
X023468Y012019D01*
X023443D01*
Y011994D01*
X023468Y011969D01*
X023443Y011943D01*
Y011918D01*
X024065Y012164D02*
X024091D01*
X024116Y01219D01*
X024141Y012164D01*
X024167D01*
Y01219D01*
X024141Y012215D01*
X024167Y01224D01*
Y012266D01*
X024141D01*
X024116Y01224D01*
X024091Y012266D01*
X024065D01*
Y01224D01*
X024091Y012215D01*
X024065Y01219D01*
Y012164D01*
X023862Y011651D02*
X023811Y011753D01*
X023913D01*
X023862Y011651D01*
X024345Y011677D02*
Y011651D01*
X024395D01*
Y011677D01*
X024421D01*
Y011727D01*
X024395D01*
Y011753D01*
X024345D01*
Y011727D01*
X024319D01*
Y011677D01*
X024345D01*
X023329D02*
Y011651D01*
X023379D01*
Y011677D01*
X023405D01*
Y011727D01*
X023379D01*
Y011753D01*
X023329D01*
Y011727D01*
X023303D01*
Y011677D01*
X023329D01*
X023684Y011143D02*
X02371Y011194D01*
X023684Y011245D01*
X023735Y011219D01*
X023786Y011245D01*
X02376Y011194D01*
X023786Y011143D01*
X023735Y011169D01*
X023684Y011143D01*
X023938D02*
X023964Y011194D01*
X023938Y011245D01*
X023989Y011219D01*
X02404Y011245D01*
X024014Y011194D01*
X02404Y011143D01*
X023989Y011169D01*
X023938Y011143D01*
X025348Y011918D02*
X025373D01*
X025399Y011943D01*
X025424Y011918D01*
X025449D01*
Y011943D01*
X025424Y011969D01*
X025449Y011994D01*
Y012019D01*
X025424D01*
X025399Y011994D01*
X025373Y012019D01*
X025348D01*
Y011994D01*
X025373Y011969D01*
X025348Y011943D01*
Y011918D01*
X02597Y012164D02*
X025996D01*
X026021Y01219D01*
X026046Y012164D01*
X026072D01*
Y01219D01*
X026046Y012215D01*
X026072Y01224D01*
Y012266D01*
X026046D01*
X026021Y01224D01*
X025996Y012266D01*
X02597D01*
Y01224D01*
X025996Y012215D01*
X02597Y01219D01*
Y012164D01*
X025767Y011651D02*
X025716Y011753D01*
X025818D01*
X025767Y011651D01*
X02625Y011677D02*
Y011651D01*
X0263D01*
Y011677D01*
X026326D01*
Y011727D01*
X0263D01*
Y011753D01*
X02625D01*
Y011727D01*
X026224D01*
Y011677D01*
X02625D01*
X025234D02*
Y011651D01*
X025284D01*
Y011677D01*
X02531D01*
Y011727D01*
X025284D01*
Y011753D01*
X025234D01*
Y011727D01*
X025208D01*
Y011677D01*
X025234D01*
X025589Y011143D02*
X025615Y011194D01*
X025589Y011245D01*
X02564Y011219D01*
X025691Y011245D01*
X025665Y011194D01*
X025691Y011143D01*
X02564Y011169D01*
X025589Y011143D01*
X025843D02*
X025869Y011194D01*
X025843Y011245D01*
X025894Y011219D01*
X025945Y011245D01*
X025919Y011194D01*
X025945Y011143D01*
X025894Y011169D01*
X025843Y011143D01*
X027253Y011918D02*
X027278D01*
X027304Y011943D01*
X027329Y011918D01*
X027355D01*
Y011943D01*
X027329Y011969D01*
X027355Y011994D01*
Y012019D01*
X027329D01*
X027304Y011994D01*
X027278Y012019D01*
X027253D01*
Y011994D01*
X027278Y011969D01*
X027253Y011943D01*
Y011918D01*
X027875Y012164D02*
X027901D01*
X027926Y01219D01*
X027951Y012164D01*
X027977D01*
Y01219D01*
X027951Y012215D01*
X027977Y01224D01*
Y012266D01*
X027951D01*
X027926Y01224D01*
X027901Y012266D01*
X027875D01*
Y01224D01*
X027901Y012215D01*
X027875Y01219D01*
Y012164D01*
X027672Y011651D02*
X027621Y011753D01*
X027723D01*
X027672Y011651D01*
X028155Y011677D02*
Y011651D01*
X028205D01*
Y011677D01*
X028231D01*
Y011727D01*
X028205D01*
Y011753D01*
X028155D01*
Y011727D01*
X028129D01*
Y011677D01*
X028155D01*
X027139D02*
Y011651D01*
X027189D01*
Y011677D01*
X027215D01*
Y011727D01*
X027189D01*
Y011753D01*
X027139D01*
Y011727D01*
X027113D01*
Y011677D01*
X027139D01*
X027494Y011143D02*
X02752Y011194D01*
X027494Y011245D01*
X027545Y011219D01*
X027596Y011245D01*
X02757Y011194D01*
X027596Y011143D01*
X027545Y011169D01*
X027494Y011143D01*
X027748D02*
X027774Y011194D01*
X027748Y011245D01*
X027799Y011219D01*
X02785Y011245D01*
X027824Y011194D01*
X02785Y011143D01*
X027799Y011169D01*
X027748Y011143D01*
X029673Y011918D02*
X029698D01*
X029724Y011943D01*
X029749Y011918D01*
X029774D01*
Y011943D01*
X029749Y011969D01*
X029774Y011994D01*
Y012019D01*
X029749D01*
X029724Y011994D01*
X029698Y012019D01*
X029673D01*
Y011994D01*
X029698Y011969D01*
X029673Y011943D01*
Y011918D01*
X030295Y012164D02*
X030321D01*
X030346Y01219D01*
X030371Y012164D01*
X030397D01*
Y01219D01*
X030371Y012215D01*
X030397Y01224D01*
Y012266D01*
X030371D01*
X030346Y01224D01*
X030321Y012266D01*
X030295D01*
Y01224D01*
X030321Y012215D01*
X030295Y01219D01*
Y012164D01*
X030092Y011651D02*
X030041Y011753D01*
X030143D01*
X030092Y011651D01*
X030575Y011677D02*
Y011651D01*
X030625D01*
Y011677D01*
X030651D01*
Y011727D01*
X030625D01*
Y011753D01*
X030575D01*
Y011727D01*
X030549D01*
Y011677D01*
X030575D01*
X029559D02*
Y011651D01*
X029609D01*
Y011677D01*
X029635D01*
Y011727D01*
X029609D01*
Y011753D01*
X029559D01*
Y011727D01*
X029533D01*
Y011677D01*
X029559D01*
X029914Y011143D02*
X02994Y011194D01*
X029914Y011245D01*
X029965Y011219D01*
X030016Y011245D01*
X02999Y011194D01*
X030016Y011143D01*
X029965Y011169D01*
X029914Y011143D01*
X030168D02*
X030194Y011194D01*
X030168Y011245D01*
X030219Y011219D01*
X03027Y011245D01*
X030244Y011194D01*
X03027Y011143D01*
X030219Y011169D01*
X030168Y011143D01*
X031578Y011918D02*
X031603D01*
X031629Y011943D01*
X031654Y011918D01*
X031679D01*
Y011943D01*
X031654Y011969D01*
X031679Y011994D01*
Y012019D01*
X031654D01*
X031629Y011994D01*
X031603Y012019D01*
X031578D01*
Y011994D01*
X031603Y011969D01*
X031578Y011943D01*
Y011918D01*
X0322Y012164D02*
X032225D01*
X032251Y01219D01*
X032276Y012164D01*
X032302D01*
Y01219D01*
X032276Y012215D01*
X032302Y01224D01*
Y012266D01*
X032276D01*
X032251Y01224D01*
X032225Y012266D01*
X0322D01*
Y01224D01*
X032225Y012215D01*
X0322Y01219D01*
Y012164D01*
X031997Y011651D02*
X031946Y011753D01*
X032048D01*
X031997Y011651D01*
X032479Y011677D02*
Y011651D01*
X03253D01*
Y011677D01*
X032556D01*
Y011727D01*
X03253D01*
Y011753D01*
X032479D01*
Y011727D01*
X032454D01*
Y011677D01*
X032479D01*
X031463D02*
Y011651D01*
X031514D01*
Y011677D01*
X03154D01*
Y011727D01*
X031514D01*
Y011753D01*
X031463D01*
Y011727D01*
X031438D01*
Y011677D01*
X031463D01*
X031819Y011143D02*
X031844Y011194D01*
X031819Y011245D01*
X03187Y011219D01*
X031921Y011245D01*
X031895Y011194D01*
X031921Y011143D01*
X03187Y011169D01*
X031819Y011143D01*
X032073D02*
X032098Y011194D01*
X032073Y011245D01*
X032124Y011219D01*
X032175Y011245D01*
X032149Y011194D01*
X032175Y011143D01*
X032124Y011169D01*
X032073Y011143D01*
X033483Y011918D02*
X033508D01*
X033533Y011943D01*
X033559Y011918D01*
X033584D01*
Y011943D01*
X033559Y011969D01*
X033584Y011994D01*
Y012019D01*
X033559D01*
X033533Y011994D01*
X033508Y012019D01*
X033483D01*
Y011994D01*
X033508Y011969D01*
X033483Y011943D01*
Y011918D01*
X034105Y012164D02*
X03413D01*
X034156Y01219D01*
X034181Y012164D01*
X034206D01*
Y01219D01*
X034181Y012215D01*
X034206Y01224D01*
Y012266D01*
X034181D01*
X034156Y01224D01*
X03413Y012266D01*
X034105D01*
Y01224D01*
X03413Y012215D01*
X034105Y01219D01*
Y012164D01*
X033902Y011651D02*
X033851Y011753D01*
X033952D01*
X033902Y011651D01*
X034384Y011677D02*
Y011651D01*
X034435D01*
Y011677D01*
X03446D01*
Y011727D01*
X034435D01*
Y011753D01*
X034384D01*
Y011727D01*
X034359D01*
Y011677D01*
X034384D01*
X033368D02*
Y011651D01*
X033419D01*
Y011677D01*
X033444D01*
Y011727D01*
X033419D01*
Y011753D01*
X033368D01*
Y011727D01*
X033343D01*
Y011677D01*
X033368D01*
X033724Y011143D02*
X033749Y011194D01*
X033724Y011245D01*
X033775Y011219D01*
X033825Y011245D01*
X0338Y011194D01*
X033825Y011143D01*
X033775Y011169D01*
X033724Y011143D01*
X033978D02*
X034003Y011194D01*
X033978Y011245D01*
X034029Y011219D01*
X034079Y011245D01*
X034054Y011194D01*
X034079Y011143D01*
X034029Y011169D01*
X033978Y011143D01*
X000583Y00913D02*
X000608D01*
X000634Y009155D01*
X000659Y00913D01*
X000684D01*
Y009155D01*
X000659Y009181D01*
X000684Y009206D01*
Y009232D01*
X000659D01*
X000634Y009206D01*
X000608Y009232D01*
X000583D01*
Y009206D01*
X000608Y009181D01*
X000583Y009155D01*
Y00913D01*
X001205Y009376D02*
X001231D01*
X001256Y009402D01*
X001281Y009376D01*
X001307D01*
Y009402D01*
X001281Y009427D01*
X001307Y009452D01*
Y009478D01*
X001281D01*
X001256Y009452D01*
X001231Y009478D01*
X001205D01*
Y009452D01*
X001231Y009427D01*
X001205Y009402D01*
Y009376D01*
X001002Y008863D02*
X000951Y008965D01*
X001053D01*
X001002Y008863D01*
X001485Y008889D02*
Y008863D01*
X001535D01*
Y008889D01*
X001561D01*
Y008939D01*
X001535D01*
Y008965D01*
X001485D01*
Y008939D01*
X001459D01*
Y008889D01*
X001485D01*
X000469D02*
Y008863D01*
X000519D01*
Y008889D01*
X000545D01*
Y008939D01*
X000519D01*
Y008965D01*
X000469D01*
Y008939D01*
X000443D01*
Y008889D01*
X000469D01*
X000824Y008355D02*
X00085Y008406D01*
X000824Y008457D01*
X000875Y008431D01*
X000926Y008457D01*
X0009Y008406D01*
X000926Y008355D01*
X000875Y008381D01*
X000824Y008355D01*
X001078D02*
X001104Y008406D01*
X001078Y008457D01*
X001129Y008431D01*
X00118Y008457D01*
X001154Y008406D01*
X00118Y008355D01*
X001129Y008381D01*
X001078Y008355D01*
X002488Y00913D02*
X002513D01*
X002539Y009155D01*
X002564Y00913D01*
X00259D01*
Y009155D01*
X002564Y009181D01*
X00259Y009206D01*
Y009232D01*
X002564D01*
X002539Y009206D01*
X002513Y009232D01*
X002488D01*
Y009206D01*
X002513Y009181D01*
X002488Y009155D01*
Y00913D01*
X00311Y009376D02*
X003136D01*
X003161Y009402D01*
X003186Y009376D01*
X003212D01*
Y009402D01*
X003186Y009427D01*
X003212Y009452D01*
Y009478D01*
X003186D01*
X003161Y009452D01*
X003136Y009478D01*
X00311D01*
Y009452D01*
X003136Y009427D01*
X00311Y009402D01*
Y009376D01*
X002907Y008863D02*
X002856Y008965D01*
X002958D01*
X002907Y008863D01*
X00339Y008889D02*
Y008863D01*
X00344D01*
Y008889D01*
X003466D01*
Y008939D01*
X00344D01*
Y008965D01*
X00339D01*
Y008939D01*
X003364D01*
Y008889D01*
X00339D01*
X002374D02*
Y008863D01*
X002424D01*
Y008889D01*
X00245D01*
Y008939D01*
X002424D01*
Y008965D01*
X002374D01*
Y008939D01*
X002348D01*
Y008889D01*
X002374D01*
X002729Y008355D02*
X002755Y008406D01*
X002729Y008457D01*
X00278Y008431D01*
X002831Y008457D01*
X002805Y008406D01*
X002831Y008355D01*
X00278Y008381D01*
X002729Y008355D01*
X002983D02*
X003009Y008406D01*
X002983Y008457D01*
X003034Y008431D01*
X003085Y008457D01*
X003059Y008406D01*
X003085Y008355D01*
X003034Y008381D01*
X002983Y008355D01*
X004393Y00913D02*
X004418D01*
X004444Y009155D01*
X004469Y00913D01*
X004494D01*
Y009155D01*
X004469Y009181D01*
X004494Y009206D01*
Y009232D01*
X004469D01*
X004444Y009206D01*
X004418Y009232D01*
X004393D01*
Y009206D01*
X004418Y009181D01*
X004393Y009155D01*
Y00913D01*
X005015Y009376D02*
X005041D01*
X005066Y009402D01*
X005091Y009376D01*
X005117D01*
Y009402D01*
X005091Y009427D01*
X005117Y009452D01*
Y009478D01*
X005091D01*
X005066Y009452D01*
X005041Y009478D01*
X005015D01*
Y009452D01*
X005041Y009427D01*
X005015Y009402D01*
Y009376D01*
X004812Y008863D02*
X004761Y008965D01*
X004863D01*
X004812Y008863D01*
X005295Y008889D02*
Y008863D01*
X005345D01*
Y008889D01*
X005371D01*
Y008939D01*
X005345D01*
Y008965D01*
X005295D01*
Y008939D01*
X005269D01*
Y008889D01*
X005295D01*
X004279D02*
Y008863D01*
X004329D01*
Y008889D01*
X004355D01*
Y008939D01*
X004329D01*
Y008965D01*
X004279D01*
Y008939D01*
X004253D01*
Y008889D01*
X004279D01*
X004634Y008355D02*
X00466Y008406D01*
X004634Y008457D01*
X004685Y008431D01*
X004736Y008457D01*
X00471Y008406D01*
X004736Y008355D01*
X004685Y008381D01*
X004634Y008355D01*
X004888D02*
X004914Y008406D01*
X004888Y008457D01*
X004939Y008431D01*
X00499Y008457D01*
X004964Y008406D01*
X00499Y008355D01*
X004939Y008381D01*
X004888Y008355D01*
X006298Y00913D02*
X006323D01*
X006349Y009155D01*
X006374Y00913D01*
X006399D01*
Y009155D01*
X006374Y009181D01*
X006399Y009206D01*
Y009232D01*
X006374D01*
X006349Y009206D01*
X006323Y009232D01*
X006298D01*
Y009206D01*
X006323Y009181D01*
X006298Y009155D01*
Y00913D01*
X00692Y009376D02*
X006946D01*
X006971Y009402D01*
X006996Y009376D01*
X007022D01*
Y009402D01*
X006996Y009427D01*
X007022Y009452D01*
Y009478D01*
X006996D01*
X006971Y009452D01*
X006946Y009478D01*
X00692D01*
Y009452D01*
X006946Y009427D01*
X00692Y009402D01*
Y009376D01*
X006717Y008863D02*
X006666Y008965D01*
X006768D01*
X006717Y008863D01*
X0072Y008889D02*
Y008863D01*
X00725D01*
Y008889D01*
X007276D01*
Y008939D01*
X00725D01*
Y008965D01*
X0072D01*
Y008939D01*
X007174D01*
Y008889D01*
X0072D01*
X006184D02*
Y008863D01*
X006234D01*
Y008889D01*
X00626D01*
Y008939D01*
X006234D01*
Y008965D01*
X006184D01*
Y008939D01*
X006158D01*
Y008889D01*
X006184D01*
X006539Y008355D02*
X006565Y008406D01*
X006539Y008457D01*
X00659Y008431D01*
X006641Y008457D01*
X006615Y008406D01*
X006641Y008355D01*
X00659Y008381D01*
X006539Y008355D01*
X006793D02*
X006819Y008406D01*
X006793Y008457D01*
X006844Y008431D01*
X006895Y008457D01*
X006869Y008406D01*
X006895Y008355D01*
X006844Y008381D01*
X006793Y008355D01*
X010108Y00913D02*
X010133D01*
X010159Y009155D01*
X010184Y00913D01*
X01021D01*
Y009155D01*
X010184Y009181D01*
X01021Y009206D01*
Y009232D01*
X010184D01*
X010159Y009206D01*
X010133Y009232D01*
X010108D01*
Y009206D01*
X010133Y009181D01*
X010108Y009155D01*
Y00913D01*
X01073Y009376D02*
X010756D01*
X010781Y009402D01*
X010806Y009376D01*
X010832D01*
Y009402D01*
X010806Y009427D01*
X010832Y009452D01*
Y009478D01*
X010806D01*
X010781Y009452D01*
X010756Y009478D01*
X01073D01*
Y009452D01*
X010756Y009427D01*
X01073Y009402D01*
Y009376D01*
X010527Y008863D02*
X010476Y008965D01*
X010578D01*
X010527Y008863D01*
X01101Y008889D02*
Y008863D01*
X01106D01*
Y008889D01*
X011086D01*
Y008939D01*
X01106D01*
Y008965D01*
X01101D01*
Y008939D01*
X010984D01*
Y008889D01*
X01101D01*
X009994D02*
Y008863D01*
X010044D01*
Y008889D01*
X01007D01*
Y008939D01*
X010044D01*
Y008965D01*
X009994D01*
Y008939D01*
X009968D01*
Y008889D01*
X009994D01*
X010349Y008355D02*
X010375Y008406D01*
X010349Y008457D01*
X0104Y008431D01*
X010451Y008457D01*
X010425Y008406D01*
X010451Y008355D01*
X0104Y008381D01*
X010349Y008355D01*
X010603D02*
X010629Y008406D01*
X010603Y008457D01*
X010654Y008431D01*
X010705Y008457D01*
X010679Y008406D01*
X010705Y008355D01*
X010654Y008381D01*
X010603Y008355D01*
X012013Y00913D02*
X012038D01*
X012064Y009155D01*
X012089Y00913D01*
X012114D01*
Y009155D01*
X012089Y009181D01*
X012114Y009206D01*
Y009232D01*
X012089D01*
X012064Y009206D01*
X012038Y009232D01*
X012013D01*
Y009206D01*
X012038Y009181D01*
X012013Y009155D01*
Y00913D01*
X012635Y009376D02*
X012661D01*
X012686Y009402D01*
X012711Y009376D01*
X012737D01*
Y009402D01*
X012711Y009427D01*
X012737Y009452D01*
Y009478D01*
X012711D01*
X012686Y009452D01*
X012661Y009478D01*
X012635D01*
Y009452D01*
X012661Y009427D01*
X012635Y009402D01*
Y009376D01*
X012432Y008863D02*
X012381Y008965D01*
X012483D01*
X012432Y008863D01*
X012915Y008889D02*
Y008863D01*
X012965D01*
Y008889D01*
X012991D01*
Y008939D01*
X012965D01*
Y008965D01*
X012915D01*
Y008939D01*
X012889D01*
Y008889D01*
X012915D01*
X011899D02*
Y008863D01*
X011949D01*
Y008889D01*
X011975D01*
Y008939D01*
X011949D01*
Y008965D01*
X011899D01*
Y008939D01*
X011873D01*
Y008889D01*
X011899D01*
X012254Y008355D02*
X01228Y008406D01*
X012254Y008457D01*
X012305Y008431D01*
X012356Y008457D01*
X01233Y008406D01*
X012356Y008355D01*
X012305Y008381D01*
X012254Y008355D01*
X012508D02*
X012534Y008406D01*
X012508Y008457D01*
X012559Y008431D01*
X01261Y008457D01*
X012584Y008406D01*
X01261Y008355D01*
X012559Y008381D01*
X012508Y008355D01*
X013918Y00913D02*
X013943D01*
X013969Y009155D01*
X013994Y00913D01*
X01402D01*
Y009155D01*
X013994Y009181D01*
X01402Y009206D01*
Y009232D01*
X013994D01*
X013969Y009206D01*
X013943Y009232D01*
X013918D01*
Y009206D01*
X013943Y009181D01*
X013918Y009155D01*
Y00913D01*
X01454Y009376D02*
X014566D01*
X014591Y009402D01*
X014616Y009376D01*
X014642D01*
Y009402D01*
X014616Y009427D01*
X014642Y009452D01*
Y009478D01*
X014616D01*
X014591Y009452D01*
X014566Y009478D01*
X01454D01*
Y009452D01*
X014566Y009427D01*
X01454Y009402D01*
Y009376D01*
X014337Y008863D02*
X014286Y008965D01*
X014388D01*
X014337Y008863D01*
X01482Y008889D02*
Y008863D01*
X01487D01*
Y008889D01*
X014896D01*
Y008939D01*
X01487D01*
Y008965D01*
X01482D01*
Y008939D01*
X014794D01*
Y008889D01*
X01482D01*
X013804D02*
Y008863D01*
X013854D01*
Y008889D01*
X01388D01*
Y008939D01*
X013854D01*
Y008965D01*
X013804D01*
Y008939D01*
X013778D01*
Y008889D01*
X013804D01*
X014159Y008355D02*
X014185Y008406D01*
X014159Y008457D01*
X01421Y008431D01*
X014261Y008457D01*
X014235Y008406D01*
X014261Y008355D01*
X01421Y008381D01*
X014159Y008355D01*
X014413D02*
X014439Y008406D01*
X014413Y008457D01*
X014464Y008431D01*
X014515Y008457D01*
X014489Y008406D01*
X014515Y008355D01*
X014464Y008381D01*
X014413Y008355D01*
X015823Y00913D02*
X015848D01*
X015874Y009155D01*
X015899Y00913D01*
X015924D01*
Y009155D01*
X015899Y009181D01*
X015924Y009206D01*
Y009232D01*
X015899D01*
X015874Y009206D01*
X015848Y009232D01*
X015823D01*
Y009206D01*
X015848Y009181D01*
X015823Y009155D01*
Y00913D01*
X016445Y009376D02*
X016471D01*
X016496Y009402D01*
X016521Y009376D01*
X016547D01*
Y009402D01*
X016521Y009427D01*
X016547Y009452D01*
Y009478D01*
X016521D01*
X016496Y009452D01*
X016471Y009478D01*
X016445D01*
Y009452D01*
X016471Y009427D01*
X016445Y009402D01*
Y009376D01*
X016242Y008863D02*
X016191Y008965D01*
X016293D01*
X016242Y008863D01*
X016725Y008889D02*
Y008863D01*
X016775D01*
Y008889D01*
X016801D01*
Y008939D01*
X016775D01*
Y008965D01*
X016725D01*
Y008939D01*
X016699D01*
Y008889D01*
X016725D01*
X015709D02*
Y008863D01*
X015759D01*
Y008889D01*
X015785D01*
Y008939D01*
X015759D01*
Y008965D01*
X015709D01*
Y008939D01*
X015683D01*
Y008889D01*
X015709D01*
X016064Y008355D02*
X01609Y008406D01*
X016064Y008457D01*
X016115Y008431D01*
X016166Y008457D01*
X01614Y008406D01*
X016166Y008355D01*
X016115Y008381D01*
X016064Y008355D01*
X016318D02*
X016344Y008406D01*
X016318Y008457D01*
X016369Y008431D01*
X01642Y008457D01*
X016394Y008406D01*
X01642Y008355D01*
X016369Y008381D01*
X016318Y008355D01*
X017728Y00913D02*
X017753D01*
X017779Y009155D01*
X017804Y00913D01*
X017829D01*
Y009155D01*
X017804Y009181D01*
X017829Y009206D01*
Y009232D01*
X017804D01*
X017779Y009206D01*
X017753Y009232D01*
X017728D01*
Y009206D01*
X017753Y009181D01*
X017728Y009155D01*
Y00913D01*
X01835Y009376D02*
X018376D01*
X018401Y009402D01*
X018426Y009376D01*
X018452D01*
Y009402D01*
X018426Y009427D01*
X018452Y009452D01*
Y009478D01*
X018426D01*
X018401Y009452D01*
X018376Y009478D01*
X01835D01*
Y009452D01*
X018376Y009427D01*
X01835Y009402D01*
Y009376D01*
X018147Y008863D02*
X018096Y008965D01*
X018198D01*
X018147Y008863D01*
X01863Y008889D02*
Y008863D01*
X01868D01*
Y008889D01*
X018706D01*
Y008939D01*
X01868D01*
Y008965D01*
X01863D01*
Y008939D01*
X018604D01*
Y008889D01*
X01863D01*
X017614D02*
Y008863D01*
X017664D01*
Y008889D01*
X01769D01*
Y008939D01*
X017664D01*
Y008965D01*
X017614D01*
Y008939D01*
X017588D01*
Y008889D01*
X017614D01*
X017969Y008355D02*
X017995Y008406D01*
X017969Y008457D01*
X01802Y008431D01*
X018071Y008457D01*
X018045Y008406D01*
X018071Y008355D01*
X01802Y008381D01*
X017969Y008355D01*
X018223D02*
X018249Y008406D01*
X018223Y008457D01*
X018274Y008431D01*
X018325Y008457D01*
X018299Y008406D01*
X018325Y008355D01*
X018274Y008381D01*
X018223Y008355D01*
X019633Y00913D02*
X019658D01*
X019684Y009155D01*
X019709Y00913D01*
X019735D01*
Y009155D01*
X019709Y009181D01*
X019735Y009206D01*
Y009232D01*
X019709D01*
X019684Y009206D01*
X019658Y009232D01*
X019633D01*
Y009206D01*
X019658Y009181D01*
X019633Y009155D01*
Y00913D01*
X020255Y009376D02*
X020281D01*
X020306Y009402D01*
X020331Y009376D01*
X020357D01*
Y009402D01*
X020331Y009427D01*
X020357Y009452D01*
Y009478D01*
X020331D01*
X020306Y009452D01*
X020281Y009478D01*
X020255D01*
Y009452D01*
X020281Y009427D01*
X020255Y009402D01*
Y009376D01*
X020052Y008863D02*
X020001Y008965D01*
X020103D01*
X020052Y008863D01*
X020535Y008889D02*
Y008863D01*
X020585D01*
Y008889D01*
X020611D01*
Y008939D01*
X020585D01*
Y008965D01*
X020535D01*
Y008939D01*
X020509D01*
Y008889D01*
X020535D01*
X019519D02*
Y008863D01*
X019569D01*
Y008889D01*
X019595D01*
Y008939D01*
X019569D01*
Y008965D01*
X019519D01*
Y008939D01*
X019493D01*
Y008889D01*
X019519D01*
X019874Y008355D02*
X0199Y008406D01*
X019874Y008457D01*
X019925Y008431D01*
X019976Y008457D01*
X01995Y008406D01*
X019976Y008355D01*
X019925Y008381D01*
X019874Y008355D01*
X020128D02*
X020154Y008406D01*
X020128Y008457D01*
X020179Y008431D01*
X02023Y008457D01*
X020204Y008406D01*
X02023Y008355D01*
X020179Y008381D01*
X020128Y008355D01*
X021538Y00913D02*
X021563D01*
X021589Y009155D01*
X021614Y00913D01*
X02164D01*
Y009155D01*
X021614Y009181D01*
X02164Y009206D01*
Y009232D01*
X021614D01*
X021589Y009206D01*
X021563Y009232D01*
X021538D01*
Y009206D01*
X021563Y009181D01*
X021538Y009155D01*
Y00913D01*
X02216Y009376D02*
X022186D01*
X022211Y009402D01*
X022236Y009376D01*
X022262D01*
Y009402D01*
X022236Y009427D01*
X022262Y009452D01*
Y009478D01*
X022236D01*
X022211Y009452D01*
X022186Y009478D01*
X02216D01*
Y009452D01*
X022186Y009427D01*
X02216Y009402D01*
Y009376D01*
X021957Y008863D02*
X021906Y008965D01*
X022008D01*
X021957Y008863D01*
X02244Y008889D02*
Y008863D01*
X02249D01*
Y008889D01*
X022516D01*
Y008939D01*
X02249D01*
Y008965D01*
X02244D01*
Y008939D01*
X022414D01*
Y008889D01*
X02244D01*
X021424D02*
Y008863D01*
X021474D01*
Y008889D01*
X0215D01*
Y008939D01*
X021474D01*
Y008965D01*
X021424D01*
Y008939D01*
X021398D01*
Y008889D01*
X021424D01*
X021779Y008355D02*
X021805Y008406D01*
X021779Y008457D01*
X02183Y008431D01*
X021881Y008457D01*
X021855Y008406D01*
X021881Y008355D01*
X02183Y008381D01*
X021779Y008355D01*
X022033D02*
X022059Y008406D01*
X022033Y008457D01*
X022084Y008431D01*
X022135Y008457D01*
X022109Y008406D01*
X022135Y008355D01*
X022084Y008381D01*
X022033Y008355D01*
X023443Y00913D02*
X023468D01*
X023494Y009155D01*
X023519Y00913D01*
X023545D01*
Y009155D01*
X023519Y009181D01*
X023545Y009206D01*
Y009232D01*
X023519D01*
X023494Y009206D01*
X023468Y009232D01*
X023443D01*
Y009206D01*
X023468Y009181D01*
X023443Y009155D01*
Y00913D01*
X024065Y009376D02*
X024091D01*
X024116Y009402D01*
X024141Y009376D01*
X024167D01*
Y009402D01*
X024141Y009427D01*
X024167Y009452D01*
Y009478D01*
X024141D01*
X024116Y009452D01*
X024091Y009478D01*
X024065D01*
Y009452D01*
X024091Y009427D01*
X024065Y009402D01*
Y009376D01*
X023862Y008863D02*
X023811Y008965D01*
X023913D01*
X023862Y008863D01*
X024345Y008889D02*
Y008863D01*
X024395D01*
Y008889D01*
X024421D01*
Y008939D01*
X024395D01*
Y008965D01*
X024345D01*
Y008939D01*
X024319D01*
Y008889D01*
X024345D01*
X023329D02*
Y008863D01*
X023379D01*
Y008889D01*
X023405D01*
Y008939D01*
X023379D01*
Y008965D01*
X023329D01*
Y008939D01*
X023303D01*
Y008889D01*
X023329D01*
X023684Y008355D02*
X02371Y008406D01*
X023684Y008457D01*
X023735Y008431D01*
X023786Y008457D01*
X02376Y008406D01*
X023786Y008355D01*
X023735Y008381D01*
X023684Y008355D01*
X023938D02*
X023964Y008406D01*
X023938Y008457D01*
X023989Y008431D01*
X02404Y008457D01*
X024014Y008406D01*
X02404Y008355D01*
X023989Y008381D01*
X023938Y008355D01*
X029677Y00913D02*
X029702D01*
X029727Y009155D01*
X029753Y00913D01*
X029778D01*
Y009155D01*
X029753Y009181D01*
X029778Y009206D01*
Y009231D01*
X029753D01*
X029727Y009206D01*
X029702Y009231D01*
X029677D01*
Y009206D01*
X029702Y009181D01*
X029677Y009155D01*
Y00913D01*
X030299Y009376D02*
X030324D01*
X03035Y009401D01*
X030375Y009376D01*
X030401D01*
Y009401D01*
X030375Y009427D01*
X030401Y009452D01*
Y009478D01*
X030375D01*
X03035Y009452D01*
X030324Y009478D01*
X030299D01*
Y009452D01*
X030324Y009427D01*
X030299Y009401D01*
Y009376D01*
X030096Y008863D02*
X030045Y008965D01*
X030147D01*
X030096Y008863D01*
X030578Y008888D02*
Y008863D01*
X030629D01*
Y008888D01*
X030655D01*
Y008939D01*
X030629D01*
Y008965D01*
X030578D01*
Y008939D01*
X030553D01*
Y008888D01*
X030578D01*
X029562D02*
Y008863D01*
X029613D01*
Y008888D01*
X029639D01*
Y008939D01*
X029613D01*
Y008965D01*
X029562D01*
Y008939D01*
X029537D01*
Y008888D01*
X029562D01*
X029918Y008355D02*
X029943Y008406D01*
X029918Y008457D01*
X029969Y008431D01*
X03002Y008457D01*
X029994Y008406D01*
X03002Y008355D01*
X029969Y00838D01*
X029918Y008355D01*
X030172D02*
X030197Y008406D01*
X030172Y008457D01*
X030223Y008431D01*
X030274Y008457D01*
X030248Y008406D01*
X030274Y008355D01*
X030223Y00838D01*
X030172Y008355D01*
X031581Y00913D02*
X031607D01*
X031632Y009155D01*
X031658Y00913D01*
X031683D01*
Y009155D01*
X031658Y009181D01*
X031683Y009206D01*
Y009231D01*
X031658D01*
X031632Y009206D01*
X031607Y009231D01*
X031581D01*
Y009206D01*
X031607Y009181D01*
X031581Y009155D01*
Y00913D01*
X032204Y009376D02*
X032229D01*
X032255Y009401D01*
X03228Y009376D01*
X032305D01*
Y009401D01*
X03228Y009427D01*
X032305Y009452D01*
Y009478D01*
X03228D01*
X032255Y009452D01*
X032229Y009478D01*
X032204D01*
Y009452D01*
X032229Y009427D01*
X032204Y009401D01*
Y009376D01*
X032001Y008863D02*
X03195Y008965D01*
X032051D01*
X032001Y008863D01*
X032483Y008888D02*
Y008863D01*
X032534D01*
Y008888D01*
X032559D01*
Y008939D01*
X032534D01*
Y008965D01*
X032483D01*
Y008939D01*
X032458D01*
Y008888D01*
X032483D01*
X031467D02*
Y008863D01*
X031518D01*
Y008888D01*
X031543D01*
Y008939D01*
X031518D01*
Y008965D01*
X031467D01*
Y008939D01*
X031442D01*
Y008888D01*
X031467D01*
X031823Y008355D02*
X031848Y008406D01*
X031823Y008457D01*
X031874Y008431D01*
X031924Y008457D01*
X031899Y008406D01*
X031924Y008355D01*
X031874Y00838D01*
X031823Y008355D01*
X032077D02*
X032102Y008406D01*
X032077Y008457D01*
X032128Y008431D01*
X032178Y008457D01*
X032153Y008406D01*
X032178Y008355D01*
X032128Y00838D01*
X032077Y008355D01*
X035906Y00913D02*
X035932D01*
X035957Y009155D01*
X035982Y00913D01*
X036008D01*
Y009155D01*
X035982Y009181D01*
X036008Y009206D01*
Y009231D01*
X035982D01*
X035957Y009206D01*
X035932Y009231D01*
X035906D01*
Y009206D01*
X035932Y009181D01*
X035906Y009155D01*
Y00913D01*
X036529Y009376D02*
X036554D01*
X036579Y009401D01*
X036605Y009376D01*
X03663D01*
Y009401D01*
X036605Y009427D01*
X03663Y009452D01*
Y009478D01*
X036605D01*
X036579Y009452D01*
X036554Y009478D01*
X036529D01*
Y009452D01*
X036554Y009427D01*
X036529Y009401D01*
Y009376D01*
X036325Y008863D02*
X036275Y008965D01*
X036376D01*
X036325Y008863D01*
X036808Y008888D02*
Y008863D01*
X036859D01*
Y008888D01*
X036884D01*
Y008939D01*
X036859D01*
Y008965D01*
X036808D01*
Y008939D01*
X036783D01*
Y008888D01*
X036808D01*
X035792D02*
Y008863D01*
X035843D01*
Y008888D01*
X035868D01*
Y008939D01*
X035843D01*
Y008965D01*
X035792D01*
Y008939D01*
X035767D01*
Y008888D01*
X035792D01*
X036148Y008355D02*
X036173Y008406D01*
X036148Y008457D01*
X036198Y008431D01*
X036249Y008457D01*
X036224Y008406D01*
X036249Y008355D01*
X036198Y00838D01*
X036148Y008355D01*
X036402D02*
X036427Y008406D01*
X036402Y008457D01*
X036452Y008431D01*
X036503Y008457D01*
X036478Y008406D01*
X036503Y008355D01*
X036452Y00838D01*
X036402Y008355D01*
X03783Y00913D02*
X037856D01*
X037881Y009155D01*
X037907Y00913D01*
X037932D01*
Y009155D01*
X037907Y009181D01*
X037932Y009206D01*
Y009231D01*
X037907D01*
X037881Y009206D01*
X037856Y009231D01*
X03783D01*
Y009206D01*
X037856Y009181D01*
X03783Y009155D01*
Y00913D01*
X038453Y009376D02*
X038478D01*
X038504Y009401D01*
X038529Y009376D01*
X038554D01*
Y009401D01*
X038529Y009427D01*
X038554Y009452D01*
Y009478D01*
X038529D01*
X038504Y009452D01*
X038478Y009478D01*
X038453D01*
Y009452D01*
X038478Y009427D01*
X038453Y009401D01*
Y009376D01*
X03825Y008863D02*
X038199Y008965D01*
X0383D01*
X03825Y008863D01*
X038732Y008888D02*
Y008863D01*
X038783D01*
Y008888D01*
X038808D01*
Y008939D01*
X038783D01*
Y008965D01*
X038732D01*
Y008939D01*
X038707D01*
Y008888D01*
X038732D01*
X037716D02*
Y008863D01*
X037767D01*
Y008888D01*
X037792D01*
Y008939D01*
X037767D01*
Y008965D01*
X037716D01*
Y008939D01*
X037691D01*
Y008888D01*
X037716D01*
X038072Y008355D02*
X038097Y008406D01*
X038072Y008457D01*
X038123Y008431D01*
X038173Y008457D01*
X038148Y008406D01*
X038173Y008355D01*
X038123Y00838D01*
X038072Y008355D01*
X038326D02*
X038351Y008406D01*
X038326Y008457D01*
X038377Y008431D01*
X038427Y008457D01*
X038402Y008406D01*
X038427Y008355D01*
X038377Y00838D01*
X038326Y008355D01*
X039716Y00913D02*
X039742D01*
X039767Y009155D01*
X039792Y00913D01*
X039818D01*
Y009155D01*
X039792Y009181D01*
X039818Y009206D01*
Y009231D01*
X039792D01*
X039767Y009206D01*
X039742Y009231D01*
X039716D01*
Y009206D01*
X039742Y009181D01*
X039716Y009155D01*
Y00913D01*
X040339Y009376D02*
X040364D01*
X040389Y009401D01*
X040415Y009376D01*
X04044D01*
Y009401D01*
X040415Y009427D01*
X04044Y009452D01*
Y009478D01*
X040415D01*
X040389Y009452D01*
X040364Y009478D01*
X040339D01*
Y009452D01*
X040364Y009427D01*
X040339Y009401D01*
Y009376D01*
X040135Y008863D02*
X040085Y008965D01*
X040186D01*
X040135Y008863D01*
X040618Y008888D02*
Y008863D01*
X040669D01*
Y008888D01*
X040694D01*
Y008939D01*
X040669D01*
Y008965D01*
X040618D01*
Y008939D01*
X040593D01*
Y008888D01*
X040618D01*
X039602D02*
Y008863D01*
X039653D01*
Y008888D01*
X039678D01*
Y008939D01*
X039653D01*
Y008965D01*
X039602D01*
Y008939D01*
X039577D01*
Y008888D01*
X039602D01*
X039958Y008355D02*
X039983Y008406D01*
X039958Y008457D01*
X040008Y008431D01*
X040059Y008457D01*
X040034Y008406D01*
X040059Y008355D01*
X040008Y00838D01*
X039958Y008355D01*
X040212D02*
X040237Y008406D01*
X040212Y008457D01*
X040262Y008431D01*
X040313Y008457D01*
X040288Y008406D01*
X040313Y008355D01*
X040262Y00838D01*
X040212Y008355D01*
X001059Y007225D02*
X001085D01*
X00111Y00725D01*
X001135Y007225D01*
X001161D01*
Y00725D01*
X001135Y007276D01*
X001161Y007301D01*
Y007326D01*
X001135D01*
X00111Y007301D01*
X001085Y007326D01*
X001059D01*
Y007301D01*
X001085Y007276D01*
X001059Y00725D01*
Y007225D01*
X001681Y007471D02*
X001707D01*
X001732Y007497D01*
X001758Y007471D01*
X001783D01*
Y007497D01*
X001758Y007522D01*
X001783Y007547D01*
Y007573D01*
X001758D01*
X001732Y007547D01*
X001707Y007573D01*
X001681D01*
Y007547D01*
X001707Y007522D01*
X001681Y007497D01*
Y007471D01*
X001478Y006958D02*
X001427Y00706D01*
X001529D01*
X001478Y006958D01*
X001961Y006984D02*
Y006958D01*
X002012D01*
Y006984D01*
X002037D01*
Y007034D01*
X002012D01*
Y00706D01*
X001961D01*
Y007034D01*
X001935D01*
Y006984D01*
X001961D01*
X000945D02*
Y006958D01*
X000996D01*
Y006984D01*
X001021D01*
Y007034D01*
X000996D01*
Y00706D01*
X000945D01*
Y007034D01*
X000919D01*
Y006984D01*
X000945D01*
X0013Y00645D02*
X001326Y006501D01*
X0013Y006552D01*
X001351Y006526D01*
X001402Y006552D01*
X001377Y006501D01*
X001402Y00645D01*
X001351Y006476D01*
X0013Y00645D01*
X001554D02*
X00158Y006501D01*
X001554Y006552D01*
X001605Y006526D01*
X001656Y006552D01*
X001631Y006501D01*
X001656Y00645D01*
X001605Y006476D01*
X001554Y00645D01*
X00344Y007225D02*
X003466D01*
X003491Y00725D01*
X003517Y007225D01*
X003542D01*
Y00725D01*
X003517Y007276D01*
X003542Y007301D01*
Y007326D01*
X003517D01*
X003491Y007301D01*
X003466Y007326D01*
X00344D01*
Y007301D01*
X003466Y007276D01*
X00344Y00725D01*
Y007225D01*
X004063Y007471D02*
X004088D01*
X004113Y007497D01*
X004139Y007471D01*
X004164D01*
Y007497D01*
X004139Y007522D01*
X004164Y007547D01*
Y007573D01*
X004139D01*
X004113Y007547D01*
X004088Y007573D01*
X004063D01*
Y007547D01*
X004088Y007522D01*
X004063Y007497D01*
Y007471D01*
X00386Y006958D02*
X003809Y00706D01*
X00391D01*
X00386Y006958D01*
X004342Y006984D02*
Y006958D01*
X004393D01*
Y006984D01*
X004418D01*
Y007034D01*
X004393D01*
Y00706D01*
X004342D01*
Y007034D01*
X004317D01*
Y006984D01*
X004342D01*
X003326D02*
Y006958D01*
X003377D01*
Y006984D01*
X003402D01*
Y007034D01*
X003377D01*
Y00706D01*
X003326D01*
Y007034D01*
X003301D01*
Y006984D01*
X003326D01*
X003682Y00645D02*
X003707Y006501D01*
X003682Y006552D01*
X003733Y006526D01*
X003783Y006552D01*
X003758Y006501D01*
X003783Y00645D01*
X003733Y006476D01*
X003682Y00645D01*
X003936D02*
X003961Y006501D01*
X003936Y006552D01*
X003987Y006526D01*
X004037Y006552D01*
X004012Y006501D01*
X004037Y00645D01*
X003987Y006476D01*
X003936Y00645D01*
X005345Y007225D02*
X005371D01*
X005396Y00725D01*
X005422Y007225D01*
X005447D01*
Y00725D01*
X005422Y007276D01*
X005447Y007301D01*
Y007326D01*
X005422D01*
X005396Y007301D01*
X005371Y007326D01*
X005345D01*
Y007301D01*
X005371Y007276D01*
X005345Y00725D01*
Y007225D01*
X005968Y007471D02*
X005993D01*
X006019Y007497D01*
X006044Y007471D01*
X006069D01*
Y007497D01*
X006044Y007522D01*
X006069Y007547D01*
Y007573D01*
X006044D01*
X006019Y007547D01*
X005993Y007573D01*
X005968D01*
Y007547D01*
X005993Y007522D01*
X005968Y007497D01*
Y007471D01*
X005765Y006958D02*
X005714Y00706D01*
X005815D01*
X005765Y006958D01*
X006247Y006984D02*
Y006958D01*
X006298D01*
Y006984D01*
X006323D01*
Y007034D01*
X006298D01*
Y00706D01*
X006247D01*
Y007034D01*
X006222D01*
Y006984D01*
X006247D01*
X005231D02*
Y006958D01*
X005282D01*
Y006984D01*
X005307D01*
Y007034D01*
X005282D01*
Y00706D01*
X005231D01*
Y007034D01*
X005206D01*
Y006984D01*
X005231D01*
X005587Y00645D02*
X005612Y006501D01*
X005587Y006552D01*
X005638Y006526D01*
X005688Y006552D01*
X005663Y006501D01*
X005688Y00645D01*
X005638Y006476D01*
X005587Y00645D01*
X005841D02*
X005866Y006501D01*
X005841Y006552D01*
X005892Y006526D01*
X005942Y006552D01*
X005917Y006501D01*
X005942Y00645D01*
X005892Y006476D01*
X005841Y00645D01*
X00725Y007225D02*
X007276D01*
X007301Y00725D01*
X007327Y007225D01*
X007352D01*
Y00725D01*
X007327Y007276D01*
X007352Y007301D01*
Y007326D01*
X007327D01*
X007301Y007301D01*
X007276Y007326D01*
X00725D01*
Y007301D01*
X007276Y007276D01*
X00725Y00725D01*
Y007225D01*
X007873Y007471D02*
X007898D01*
X007924Y007497D01*
X007949Y007471D01*
X007974D01*
Y007497D01*
X007949Y007522D01*
X007974Y007547D01*
Y007573D01*
X007949D01*
X007924Y007547D01*
X007898Y007573D01*
X007873D01*
Y007547D01*
X007898Y007522D01*
X007873Y007497D01*
Y007471D01*
X007669Y006958D02*
X007619Y00706D01*
X00772D01*
X007669Y006958D01*
X008152Y006984D02*
Y006958D01*
X008203D01*
Y006984D01*
X008228D01*
Y007034D01*
X008203D01*
Y00706D01*
X008152D01*
Y007034D01*
X008127D01*
Y006984D01*
X008152D01*
X007136D02*
Y006958D01*
X007187D01*
Y006984D01*
X007212D01*
Y007034D01*
X007187D01*
Y00706D01*
X007136D01*
Y007034D01*
X007111D01*
Y006984D01*
X007136D01*
X007492Y00645D02*
X007517Y006501D01*
X007492Y006552D01*
X007543Y006526D01*
X007593Y006552D01*
X007568Y006501D01*
X007593Y00645D01*
X007543Y006476D01*
X007492Y00645D01*
X007746D02*
X007771Y006501D01*
X007746Y006552D01*
X007796Y006526D01*
X007847Y006552D01*
X007822Y006501D01*
X007847Y00645D01*
X007796Y006476D01*
X007746Y00645D01*
X009155Y007225D02*
X009181D01*
X009206Y00725D01*
X009232Y007225D01*
X009257D01*
Y00725D01*
X009232Y007276D01*
X009257Y007301D01*
Y007326D01*
X009232D01*
X009206Y007301D01*
X009181Y007326D01*
X009155D01*
Y007301D01*
X009181Y007276D01*
X009155Y00725D01*
Y007225D01*
X009778Y007471D02*
X009803D01*
X009829Y007497D01*
X009854Y007471D01*
X009879D01*
Y007497D01*
X009854Y007522D01*
X009879Y007547D01*
Y007573D01*
X009854D01*
X009829Y007547D01*
X009803Y007573D01*
X009778D01*
Y007547D01*
X009803Y007522D01*
X009778Y007497D01*
Y007471D01*
X009575Y006958D02*
X009524Y00706D01*
X009625D01*
X009575Y006958D01*
X010057Y006984D02*
Y006958D01*
X010108D01*
Y006984D01*
X010133D01*
Y007034D01*
X010108D01*
Y00706D01*
X010057D01*
Y007034D01*
X010032D01*
Y006984D01*
X010057D01*
X009041D02*
Y006958D01*
X009092D01*
Y006984D01*
X009117D01*
Y007034D01*
X009092D01*
Y00706D01*
X009041D01*
Y007034D01*
X009016D01*
Y006984D01*
X009041D01*
X009397Y00645D02*
X009422Y006501D01*
X009397Y006552D01*
X009447Y006526D01*
X009498Y006552D01*
X009473Y006501D01*
X009498Y00645D01*
X009447Y006476D01*
X009397Y00645D01*
X009651D02*
X009676Y006501D01*
X009651Y006552D01*
X009701Y006526D01*
X009752Y006552D01*
X009727Y006501D01*
X009752Y00645D01*
X009701Y006476D01*
X009651Y00645D01*
X01106Y007225D02*
X011086D01*
X011111Y00725D01*
X011137Y007225D01*
X011162D01*
Y00725D01*
X011137Y007276D01*
X011162Y007301D01*
Y007326D01*
X011137D01*
X011111Y007301D01*
X011086Y007326D01*
X01106D01*
Y007301D01*
X011086Y007276D01*
X01106Y00725D01*
Y007225D01*
X011683Y007471D02*
X011708D01*
X011733Y007497D01*
X011759Y007471D01*
X011784D01*
Y007497D01*
X011759Y007522D01*
X011784Y007547D01*
Y007573D01*
X011759D01*
X011733Y007547D01*
X011708Y007573D01*
X011683D01*
Y007547D01*
X011708Y007522D01*
X011683Y007497D01*
Y007471D01*
X011479Y006958D02*
X011429Y00706D01*
X01153D01*
X011479Y006958D01*
X011962Y006984D02*
Y006958D01*
X012013D01*
Y006984D01*
X012038D01*
Y007034D01*
X012013D01*
Y00706D01*
X011962D01*
Y007034D01*
X011937D01*
Y006984D01*
X011962D01*
X010946D02*
Y006958D01*
X010997D01*
Y006984D01*
X011022D01*
Y007034D01*
X010997D01*
Y00706D01*
X010946D01*
Y007034D01*
X010921D01*
Y006984D01*
X010946D01*
X011302Y00645D02*
X011327Y006501D01*
X011302Y006552D01*
X011353Y006526D01*
X011403Y006552D01*
X011378Y006501D01*
X011403Y00645D01*
X011353Y006476D01*
X011302Y00645D01*
X011556D02*
X011581Y006501D01*
X011556Y006552D01*
X011607Y006526D01*
X011657Y006552D01*
X011632Y006501D01*
X011657Y00645D01*
X011607Y006476D01*
X011556Y00645D01*
X012965Y007225D02*
X012991D01*
X013016Y00725D01*
X013042Y007225D01*
X013067D01*
Y00725D01*
X013042Y007276D01*
X013067Y007301D01*
Y007326D01*
X013042D01*
X013016Y007301D01*
X012991Y007326D01*
X012965D01*
Y007301D01*
X012991Y007276D01*
X012965Y00725D01*
Y007225D01*
X013588Y007471D02*
X013613D01*
X013638Y007497D01*
X013664Y007471D01*
X013689D01*
Y007497D01*
X013664Y007522D01*
X013689Y007547D01*
Y007573D01*
X013664D01*
X013638Y007547D01*
X013613Y007573D01*
X013588D01*
Y007547D01*
X013613Y007522D01*
X013588Y007497D01*
Y007471D01*
X013385Y006958D02*
X013334Y00706D01*
X013435D01*
X013385Y006958D01*
X013867Y006984D02*
Y006958D01*
X013918D01*
Y006984D01*
X013943D01*
Y007034D01*
X013918D01*
Y00706D01*
X013867D01*
Y007034D01*
X013842D01*
Y006984D01*
X013867D01*
X012851D02*
Y006958D01*
X012902D01*
Y006984D01*
X012927D01*
Y007034D01*
X012902D01*
Y00706D01*
X012851D01*
Y007034D01*
X012826D01*
Y006984D01*
X012851D01*
X013207Y00645D02*
X013232Y006501D01*
X013207Y006552D01*
X013257Y006526D01*
X013308Y006552D01*
X013283Y006501D01*
X013308Y00645D01*
X013257Y006476D01*
X013207Y00645D01*
X013461D02*
X013486Y006501D01*
X013461Y006552D01*
X013512Y006526D01*
X013562Y006552D01*
X013537Y006501D01*
X013562Y00645D01*
X013512Y006476D01*
X013461Y00645D01*
X01487Y007225D02*
X014896D01*
X014921Y00725D01*
X014947Y007225D01*
X014972D01*
Y00725D01*
X014947Y007276D01*
X014972Y007301D01*
Y007326D01*
X014947D01*
X014921Y007301D01*
X014896Y007326D01*
X01487D01*
Y007301D01*
X014896Y007276D01*
X01487Y00725D01*
Y007225D01*
X015493Y007471D02*
X015518D01*
X015543Y007497D01*
X015569Y007471D01*
X015594D01*
Y007497D01*
X015569Y007522D01*
X015594Y007547D01*
Y007573D01*
X015569D01*
X015543Y007547D01*
X015518Y007573D01*
X015493D01*
Y007547D01*
X015518Y007522D01*
X015493Y007497D01*
Y007471D01*
X01529Y006958D02*
X015239Y00706D01*
X01534D01*
X01529Y006958D01*
X015772Y006984D02*
Y006958D01*
X015823D01*
Y006984D01*
X015848D01*
Y007034D01*
X015823D01*
Y00706D01*
X015772D01*
Y007034D01*
X015747D01*
Y006984D01*
X015772D01*
X014756D02*
Y006958D01*
X014807D01*
Y006984D01*
X014832D01*
Y007034D01*
X014807D01*
Y00706D01*
X014756D01*
Y007034D01*
X014731D01*
Y006984D01*
X014756D01*
X015112Y00645D02*
X015137Y006501D01*
X015112Y006552D01*
X015162Y006526D01*
X015213Y006552D01*
X015188Y006501D01*
X015213Y00645D01*
X015162Y006476D01*
X015112Y00645D01*
X015366D02*
X015391Y006501D01*
X015366Y006552D01*
X015416Y006526D01*
X015467Y006552D01*
X015442Y006501D01*
X015467Y00645D01*
X015416Y006476D01*
X015366Y00645D01*
X016775Y007225D02*
X016801D01*
X016826Y00725D01*
X016852Y007225D01*
X016877D01*
Y00725D01*
X016852Y007276D01*
X016877Y007301D01*
Y007326D01*
X016852D01*
X016826Y007301D01*
X016801Y007326D01*
X016775D01*
Y007301D01*
X016801Y007276D01*
X016775Y00725D01*
Y007225D01*
X017398Y007471D02*
X017423D01*
X017449Y007497D01*
X017474Y007471D01*
X017499D01*
Y007497D01*
X017474Y007522D01*
X017499Y007547D01*
Y007573D01*
X017474D01*
X017449Y007547D01*
X017423Y007573D01*
X017398D01*
Y007547D01*
X017423Y007522D01*
X017398Y007497D01*
Y007471D01*
X017195Y006958D02*
X017144Y00706D01*
X017245D01*
X017195Y006958D01*
X017677Y006984D02*
Y006958D01*
X017728D01*
Y006984D01*
X017753D01*
Y007034D01*
X017728D01*
Y00706D01*
X017677D01*
Y007034D01*
X017652D01*
Y006984D01*
X017677D01*
X016661D02*
Y006958D01*
X016712D01*
Y006984D01*
X016737D01*
Y007034D01*
X016712D01*
Y00706D01*
X016661D01*
Y007034D01*
X016636D01*
Y006984D01*
X016661D01*
X017017Y00645D02*
X017042Y006501D01*
X017017Y006552D01*
X017068Y006526D01*
X017118Y006552D01*
X017093Y006501D01*
X017118Y00645D01*
X017068Y006476D01*
X017017Y00645D01*
X017271D02*
X017296Y006501D01*
X017271Y006552D01*
X017321Y006526D01*
X017372Y006552D01*
X017347Y006501D01*
X017372Y00645D01*
X017321Y006476D01*
X017271Y00645D01*
X01868Y007225D02*
X018706D01*
X018731Y00725D01*
X018757Y007225D01*
X018782D01*
Y00725D01*
X018757Y007276D01*
X018782Y007301D01*
Y007326D01*
X018757D01*
X018731Y007301D01*
X018706Y007326D01*
X01868D01*
Y007301D01*
X018706Y007276D01*
X01868Y00725D01*
Y007225D01*
X019303Y007471D02*
X019328D01*
X019354Y007497D01*
X019379Y007471D01*
X019404D01*
Y007497D01*
X019379Y007522D01*
X019404Y007547D01*
Y007573D01*
X019379D01*
X019354Y007547D01*
X019328Y007573D01*
X019303D01*
Y007547D01*
X019328Y007522D01*
X019303Y007497D01*
Y007471D01*
X019099Y006958D02*
X019049Y00706D01*
X01915D01*
X019099Y006958D01*
X019582Y006984D02*
Y006958D01*
X019633D01*
Y006984D01*
X019658D01*
Y007034D01*
X019633D01*
Y00706D01*
X019582D01*
Y007034D01*
X019557D01*
Y006984D01*
X019582D01*
X018566D02*
Y006958D01*
X018617D01*
Y006984D01*
X018642D01*
Y007034D01*
X018617D01*
Y00706D01*
X018566D01*
Y007034D01*
X018541D01*
Y006984D01*
X018566D01*
X018922Y00645D02*
X018947Y006501D01*
X018922Y006552D01*
X018973Y006526D01*
X019023Y006552D01*
X018998Y006501D01*
X019023Y00645D01*
X018973Y006476D01*
X018922Y00645D01*
X019176D02*
X019201Y006501D01*
X019176Y006552D01*
X019226Y006526D01*
X019277Y006552D01*
X019252Y006501D01*
X019277Y00645D01*
X019226Y006476D01*
X019176Y00645D01*
X020585Y007225D02*
X020611D01*
X020636Y00725D01*
X020662Y007225D01*
X020687D01*
Y00725D01*
X020662Y007276D01*
X020687Y007301D01*
Y007326D01*
X020662D01*
X020636Y007301D01*
X020611Y007326D01*
X020585D01*
Y007301D01*
X020611Y007276D01*
X020585Y00725D01*
Y007225D01*
X021208Y007471D02*
X021233D01*
X021259Y007497D01*
X021284Y007471D01*
X021309D01*
Y007497D01*
X021284Y007522D01*
X021309Y007547D01*
Y007573D01*
X021284D01*
X021259Y007547D01*
X021233Y007573D01*
X021208D01*
Y007547D01*
X021233Y007522D01*
X021208Y007497D01*
Y007471D01*
X021004Y006958D02*
X020954Y00706D01*
X021055D01*
X021004Y006958D01*
X021487Y006984D02*
Y006958D01*
X021538D01*
Y006984D01*
X021563D01*
Y007034D01*
X021538D01*
Y00706D01*
X021487D01*
Y007034D01*
X021462D01*
Y006984D01*
X021487D01*
X020471D02*
Y006958D01*
X020522D01*
Y006984D01*
X020547D01*
Y007034D01*
X020522D01*
Y00706D01*
X020471D01*
Y007034D01*
X020446D01*
Y006984D01*
X020471D01*
X020827Y00645D02*
X020852Y006501D01*
X020827Y006552D01*
X020877Y006526D01*
X020928Y006552D01*
X020903Y006501D01*
X020928Y00645D01*
X020877Y006476D01*
X020827Y00645D01*
X021081D02*
X021106Y006501D01*
X021081Y006552D01*
X021132Y006526D01*
X021182Y006552D01*
X021157Y006501D01*
X021182Y00645D01*
X021132Y006476D01*
X021081Y00645D01*
X02249Y007225D02*
X022516D01*
X022541Y00725D01*
X022567Y007225D01*
X022592D01*
Y00725D01*
X022567Y007276D01*
X022592Y007301D01*
Y007326D01*
X022567D01*
X022541Y007301D01*
X022516Y007326D01*
X02249D01*
Y007301D01*
X022516Y007276D01*
X02249Y00725D01*
Y007225D01*
X023113Y007471D02*
X023138D01*
X023163Y007497D01*
X023189Y007471D01*
X023214D01*
Y007497D01*
X023189Y007522D01*
X023214Y007547D01*
Y007573D01*
X023189D01*
X023163Y007547D01*
X023138Y007573D01*
X023113D01*
Y007547D01*
X023138Y007522D01*
X023113Y007497D01*
Y007471D01*
X02291Y006958D02*
X022859Y00706D01*
X02296D01*
X02291Y006958D01*
X023392Y006984D02*
Y006958D01*
X023443D01*
Y006984D01*
X023468D01*
Y007034D01*
X023443D01*
Y00706D01*
X023392D01*
Y007034D01*
X023367D01*
Y006984D01*
X023392D01*
X022376D02*
Y006958D01*
X022427D01*
Y006984D01*
X022452D01*
Y007034D01*
X022427D01*
Y00706D01*
X022376D01*
Y007034D01*
X022351D01*
Y006984D01*
X022376D01*
X022732Y00645D02*
X022757Y006501D01*
X022732Y006552D01*
X022782Y006526D01*
X022833Y006552D01*
X022808Y006501D01*
X022833Y00645D01*
X022782Y006476D01*
X022732Y00645D01*
X022986D02*
X023011Y006501D01*
X022986Y006552D01*
X023037Y006526D01*
X023087Y006552D01*
X023062Y006501D01*
X023087Y00645D01*
X023037Y006476D01*
X022986Y00645D01*
X024395Y007225D02*
X024421D01*
X024446Y00725D01*
X024472Y007225D01*
X024497D01*
Y00725D01*
X024472Y007276D01*
X024497Y007301D01*
Y007326D01*
X024472D01*
X024446Y007301D01*
X024421Y007326D01*
X024395D01*
Y007301D01*
X024421Y007276D01*
X024395Y00725D01*
Y007225D01*
X025018Y007471D02*
X025043D01*
X025068Y007497D01*
X025094Y007471D01*
X025119D01*
Y007497D01*
X025094Y007522D01*
X025119Y007547D01*
Y007573D01*
X025094D01*
X025068Y007547D01*
X025043Y007573D01*
X025018D01*
Y007547D01*
X025043Y007522D01*
X025018Y007497D01*
Y007471D01*
X024815Y006958D02*
X024764Y00706D01*
X024865D01*
X024815Y006958D01*
X025297Y006984D02*
Y006958D01*
X025348D01*
Y006984D01*
X025373D01*
Y007034D01*
X025348D01*
Y00706D01*
X025297D01*
Y007034D01*
X025272D01*
Y006984D01*
X025297D01*
X024281D02*
Y006958D01*
X024332D01*
Y006984D01*
X024357D01*
Y007034D01*
X024332D01*
Y00706D01*
X024281D01*
Y007034D01*
X024256D01*
Y006984D01*
X024281D01*
X024637Y00645D02*
X024662Y006501D01*
X024637Y006552D01*
X024688Y006526D01*
X024738Y006552D01*
X024713Y006501D01*
X024738Y00645D01*
X024688Y006476D01*
X024637Y00645D01*
X024891D02*
X024916Y006501D01*
X024891Y006552D01*
X024941Y006526D01*
X024992Y006552D01*
X024967Y006501D01*
X024992Y00645D01*
X024941Y006476D01*
X024891Y00645D01*
X029677Y007225D02*
X029702D01*
X029727Y00725D01*
X029753Y007225D01*
X029778D01*
Y00725D01*
X029753Y007276D01*
X029778Y007301D01*
Y007326D01*
X029753D01*
X029727Y007301D01*
X029702Y007326D01*
X029677D01*
Y007301D01*
X029702Y007276D01*
X029677Y00725D01*
Y007225D01*
X030299Y007471D02*
X030324D01*
X03035Y007497D01*
X030375Y007471D01*
X030401D01*
Y007497D01*
X030375Y007522D01*
X030401Y007547D01*
Y007573D01*
X030375D01*
X03035Y007547D01*
X030324Y007573D01*
X030299D01*
Y007547D01*
X030324Y007522D01*
X030299Y007497D01*
Y007471D01*
X030096Y006958D02*
X030045Y00706D01*
X030147D01*
X030096Y006958D01*
X030578Y006984D02*
Y006958D01*
X030629D01*
Y006984D01*
X030655D01*
Y007034D01*
X030629D01*
Y00706D01*
X030578D01*
Y007034D01*
X030553D01*
Y006984D01*
X030578D01*
X029562D02*
Y006958D01*
X029613D01*
Y006984D01*
X029639D01*
Y007034D01*
X029613D01*
Y00706D01*
X029562D01*
Y007034D01*
X029537D01*
Y006984D01*
X029562D01*
X029918Y00645D02*
X029943Y006501D01*
X029918Y006552D01*
X029969Y006526D01*
X03002Y006552D01*
X029994Y006501D01*
X03002Y00645D01*
X029969Y006476D01*
X029918Y00645D01*
X030172D02*
X030197Y006501D01*
X030172Y006552D01*
X030223Y006526D01*
X030274Y006552D01*
X030248Y006501D01*
X030274Y00645D01*
X030223Y006476D01*
X030172Y00645D01*
X031581Y007225D02*
X031607D01*
X031632Y00725D01*
X031658Y007225D01*
X031683D01*
Y00725D01*
X031658Y007276D01*
X031683Y007301D01*
Y007326D01*
X031658D01*
X031632Y007301D01*
X031607Y007326D01*
X031581D01*
Y007301D01*
X031607Y007276D01*
X031581Y00725D01*
Y007225D01*
X032204Y007471D02*
X032229D01*
X032255Y007497D01*
X03228Y007471D01*
X032305D01*
Y007497D01*
X03228Y007522D01*
X032305Y007547D01*
Y007573D01*
X03228D01*
X032255Y007547D01*
X032229Y007573D01*
X032204D01*
Y007547D01*
X032229Y007522D01*
X032204Y007497D01*
Y007471D01*
X032001Y006958D02*
X03195Y00706D01*
X032051D01*
X032001Y006958D01*
X032483Y006984D02*
Y006958D01*
X032534D01*
Y006984D01*
X032559D01*
Y007034D01*
X032534D01*
Y00706D01*
X032483D01*
Y007034D01*
X032458D01*
Y006984D01*
X032483D01*
X031467D02*
Y006958D01*
X031518D01*
Y006984D01*
X031543D01*
Y007034D01*
X031518D01*
Y00706D01*
X031467D01*
Y007034D01*
X031442D01*
Y006984D01*
X031467D01*
X031823Y00645D02*
X031848Y006501D01*
X031823Y006552D01*
X031874Y006526D01*
X031924Y006552D01*
X031899Y006501D01*
X031924Y00645D01*
X031874Y006476D01*
X031823Y00645D01*
X032077D02*
X032102Y006501D01*
X032077Y006552D01*
X032128Y006526D01*
X032178Y006552D01*
X032153Y006501D01*
X032178Y00645D01*
X032128Y006476D01*
X032077Y00645D01*
X033486Y007225D02*
X033512D01*
X033537Y00725D01*
X033562Y007225D01*
X033588D01*
Y00725D01*
X033562Y007276D01*
X033588Y007301D01*
Y007326D01*
X033562D01*
X033537Y007301D01*
X033512Y007326D01*
X033486D01*
Y007301D01*
X033512Y007276D01*
X033486Y00725D01*
Y007225D01*
X034109Y007471D02*
X034134D01*
X034159Y007497D01*
X034185Y007471D01*
X03421D01*
Y007497D01*
X034185Y007522D01*
X03421Y007547D01*
Y007573D01*
X034185D01*
X034159Y007547D01*
X034134Y007573D01*
X034109D01*
Y007547D01*
X034134Y007522D01*
X034109Y007497D01*
Y007471D01*
X033905Y006958D02*
X033855Y00706D01*
X033956D01*
X033905Y006958D01*
X034388Y006984D02*
Y006958D01*
X034439D01*
Y006984D01*
X034464D01*
Y007034D01*
X034439D01*
Y00706D01*
X034388D01*
Y007034D01*
X034363D01*
Y006984D01*
X034388D01*
X033372D02*
Y006958D01*
X033423D01*
Y006984D01*
X033448D01*
Y007034D01*
X033423D01*
Y00706D01*
X033372D01*
Y007034D01*
X033347D01*
Y006984D01*
X033372D01*
X033728Y00645D02*
X033753Y006501D01*
X033728Y006552D01*
X033778Y006526D01*
X033829Y006552D01*
X033804Y006501D01*
X033829Y00645D01*
X033778Y006476D01*
X033728Y00645D01*
X033982D02*
X034007Y006501D01*
X033982Y006552D01*
X034032Y006526D01*
X034083Y006552D01*
X034058Y006501D01*
X034083Y00645D01*
X034032Y006476D01*
X033982Y00645D01*
X035906Y007225D02*
X035932D01*
X035957Y00725D01*
X035982Y007225D01*
X036008D01*
Y00725D01*
X035982Y007276D01*
X036008Y007301D01*
Y007326D01*
X035982D01*
X035957Y007301D01*
X035932Y007326D01*
X035906D01*
Y007301D01*
X035932Y007276D01*
X035906Y00725D01*
Y007225D01*
X036529Y007471D02*
X036554D01*
X036579Y007497D01*
X036605Y007471D01*
X03663D01*
Y007497D01*
X036605Y007522D01*
X03663Y007547D01*
Y007573D01*
X036605D01*
X036579Y007547D01*
X036554Y007573D01*
X036529D01*
Y007547D01*
X036554Y007522D01*
X036529Y007497D01*
Y007471D01*
X036325Y006958D02*
X036275Y00706D01*
X036376D01*
X036325Y006958D01*
X036808Y006983D02*
Y006958D01*
X036859D01*
Y006983D01*
X036884D01*
Y007034D01*
X036859D01*
Y00706D01*
X036808D01*
Y007034D01*
X036783D01*
Y006983D01*
X036808D01*
X035792D02*
Y006958D01*
X035843D01*
Y006983D01*
X035868D01*
Y007034D01*
X035843D01*
Y00706D01*
X035792D01*
Y007034D01*
X035767D01*
Y006983D01*
X035792D01*
X036148Y00645D02*
X036173Y006501D01*
X036148Y006552D01*
X036198Y006526D01*
X036249Y006552D01*
X036224Y006501D01*
X036249Y00645D01*
X036198Y006475D01*
X036148Y00645D01*
X036402D02*
X036427Y006501D01*
X036402Y006552D01*
X036452Y006526D01*
X036503Y006552D01*
X036478Y006501D01*
X036503Y00645D01*
X036452Y006475D01*
X036402Y00645D01*
X037811Y007225D02*
X037837D01*
X037862Y00725D01*
X037887Y007225D01*
X037913D01*
Y00725D01*
X037887Y007276D01*
X037913Y007301D01*
Y007326D01*
X037887D01*
X037862Y007301D01*
X037837Y007326D01*
X037811D01*
Y007301D01*
X037837Y007276D01*
X037811Y00725D01*
Y007225D01*
X038434Y007471D02*
X038459D01*
X038484Y007497D01*
X03851Y007471D01*
X038535D01*
Y007497D01*
X03851Y007522D01*
X038535Y007547D01*
Y007573D01*
X03851D01*
X038484Y007547D01*
X038459Y007573D01*
X038434D01*
Y007547D01*
X038459Y007522D01*
X038434Y007497D01*
Y007471D01*
X03823Y006958D02*
X03818Y00706D01*
X038281D01*
X03823Y006958D01*
X038713Y006983D02*
Y006958D01*
X038764D01*
Y006983D01*
X038789D01*
Y007034D01*
X038764D01*
Y00706D01*
X038713D01*
Y007034D01*
X038688D01*
Y006983D01*
X038713D01*
X037697D02*
Y006958D01*
X037748D01*
Y006983D01*
X037773D01*
Y007034D01*
X037748D01*
Y00706D01*
X037697D01*
Y007034D01*
X037672D01*
Y006983D01*
X037697D01*
X038053Y00645D02*
X038078Y006501D01*
X038053Y006552D01*
X038103Y006526D01*
X038154Y006552D01*
X038129Y006501D01*
X038154Y00645D01*
X038103Y006475D01*
X038053Y00645D01*
X038307D02*
X038332Y006501D01*
X038307Y006552D01*
X038357Y006526D01*
X038408Y006552D01*
X038383Y006501D01*
X038408Y00645D01*
X038357Y006475D01*
X038307Y00645D01*
X039716Y007225D02*
X039742D01*
X039767Y00725D01*
X039792Y007225D01*
X039818D01*
Y00725D01*
X039792Y007276D01*
X039818Y007301D01*
Y007326D01*
X039792D01*
X039767Y007301D01*
X039742Y007326D01*
X039716D01*
Y007301D01*
X039742Y007276D01*
X039716Y00725D01*
Y007225D01*
X040339Y007471D02*
X040364D01*
X040389Y007496D01*
X040415Y007471D01*
X04044D01*
Y007496D01*
X040415Y007522D01*
X04044Y007547D01*
Y007573D01*
X040415D01*
X040389Y007547D01*
X040364Y007573D01*
X040339D01*
Y007547D01*
X040364Y007522D01*
X040339Y007496D01*
Y007471D01*
X040135Y006958D02*
X040085Y00706D01*
X040186D01*
X040135Y006958D01*
X040618Y006983D02*
Y006958D01*
X040669D01*
Y006983D01*
X040694D01*
Y007034D01*
X040669D01*
Y00706D01*
X040618D01*
Y007034D01*
X040593D01*
Y006983D01*
X040618D01*
X039602D02*
Y006958D01*
X039653D01*
Y006983D01*
X039678D01*
Y007034D01*
X039653D01*
Y00706D01*
X039602D01*
Y007034D01*
X039577D01*
Y006983D01*
X039602D01*
X039958Y00645D02*
X039983Y006501D01*
X039958Y006552D01*
X040008Y006526D01*
X040059Y006552D01*
X040034Y006501D01*
X040059Y00645D01*
X040008Y006475D01*
X039958Y00645D01*
X040212D02*
X040237Y006501D01*
X040212Y006552D01*
X040262Y006526D01*
X040313Y006552D01*
X040288Y006501D01*
X040313Y00645D01*
X040262Y006475D01*
X040212Y00645D01*
X001297Y00532D02*
X001323D01*
X001348Y005345D01*
X001373Y00532D01*
X001399D01*
Y005345D01*
X001373Y005371D01*
X001399Y005396D01*
Y005422D01*
X001373D01*
X001348Y005396D01*
X001323Y005422D01*
X001297D01*
Y005396D01*
X001323Y005371D01*
X001297Y005345D01*
Y00532D01*
X00192Y005566D02*
X001945D01*
X00197Y005592D01*
X001996Y005566D01*
X002021D01*
Y005592D01*
X001996Y005617D01*
X002021Y005642D01*
Y005668D01*
X001996D01*
X00197Y005642D01*
X001945Y005668D01*
X00192D01*
Y005642D01*
X001945Y005617D01*
X00192Y005592D01*
Y005566D01*
X001716Y005053D02*
X001666Y005155D01*
X001767D01*
X001716Y005053D01*
X002199Y005079D02*
Y005053D01*
X00225D01*
Y005079D01*
X002275D01*
Y005129D01*
X00225D01*
Y005155D01*
X002199D01*
Y005129D01*
X002174D01*
Y005079D01*
X002199D01*
X001183D02*
Y005053D01*
X001234D01*
Y005079D01*
X001259D01*
Y005129D01*
X001234D01*
Y005155D01*
X001183D01*
Y005129D01*
X001158D01*
Y005079D01*
X001183D01*
X001539Y004545D02*
X001564Y004596D01*
X001539Y004647D01*
X001589Y004621D01*
X00164Y004647D01*
X001615Y004596D01*
X00164Y004545D01*
X001589Y004571D01*
X001539Y004545D01*
X001793D02*
X001818Y004596D01*
X001793Y004647D01*
X001843Y004621D01*
X001894Y004647D01*
X001869Y004596D01*
X001894Y004545D01*
X001843Y004571D01*
X001793Y004545D01*
X003917Y00532D02*
X003942D01*
X003967Y005345D01*
X003993Y00532D01*
X004018D01*
Y005345D01*
X003993Y005371D01*
X004018Y005396D01*
Y005422D01*
X003993D01*
X003967Y005396D01*
X003942Y005422D01*
X003917D01*
Y005396D01*
X003942Y005371D01*
X003917Y005345D01*
Y00532D01*
X004539Y005566D02*
X004564D01*
X00459Y005592D01*
X004615Y005566D01*
X004641D01*
Y005592D01*
X004615Y005617D01*
X004641Y005642D01*
Y005668D01*
X004615D01*
X00459Y005642D01*
X004564Y005668D01*
X004539D01*
Y005642D01*
X004564Y005617D01*
X004539Y005592D01*
Y005566D01*
X004336Y005053D02*
X004285Y005155D01*
X004387D01*
X004336Y005053D01*
X004818Y005079D02*
Y005053D01*
X004869D01*
Y005079D01*
X004895D01*
Y005129D01*
X004869D01*
Y005155D01*
X004818D01*
Y005129D01*
X004793D01*
Y005079D01*
X004818D01*
X003802D02*
Y005053D01*
X003853D01*
Y005079D01*
X003879D01*
Y005129D01*
X003853D01*
Y005155D01*
X003802D01*
Y005129D01*
X003777D01*
Y005079D01*
X003802D01*
X004158Y004545D02*
X004183Y004596D01*
X004158Y004647D01*
X004209Y004621D01*
X00426Y004647D01*
X004234Y004596D01*
X00426Y004545D01*
X004209Y004571D01*
X004158Y004545D01*
X004412D02*
X004437Y004596D01*
X004412Y004647D01*
X004463Y004621D01*
X004514Y004647D01*
X004488Y004596D01*
X004514Y004545D01*
X004463Y004571D01*
X004412Y004545D01*
X005822Y00532D02*
X005847D01*
X005872Y005345D01*
X005898Y00532D01*
X005923D01*
Y005345D01*
X005898Y005371D01*
X005923Y005396D01*
Y005422D01*
X005898D01*
X005872Y005396D01*
X005847Y005422D01*
X005822D01*
Y005396D01*
X005847Y005371D01*
X005822Y005345D01*
Y00532D01*
X006444Y005566D02*
X006469D01*
X006495Y005592D01*
X00652Y005566D01*
X006546D01*
Y005592D01*
X00652Y005617D01*
X006546Y005642D01*
Y005668D01*
X00652D01*
X006495Y005642D01*
X006469Y005668D01*
X006444D01*
Y005642D01*
X006469Y005617D01*
X006444Y005592D01*
Y005566D01*
X006241Y005053D02*
X00619Y005155D01*
X006292D01*
X006241Y005053D01*
X006723Y005079D02*
Y005053D01*
X006774D01*
Y005079D01*
X0068D01*
Y005129D01*
X006774D01*
Y005155D01*
X006723D01*
Y005129D01*
X006698D01*
Y005079D01*
X006723D01*
X005707D02*
Y005053D01*
X005758D01*
Y005079D01*
X005784D01*
Y005129D01*
X005758D01*
Y005155D01*
X005707D01*
Y005129D01*
X005682D01*
Y005079D01*
X005707D01*
X006063Y004545D02*
X006088Y004596D01*
X006063Y004647D01*
X006114Y004621D01*
X006165Y004647D01*
X006139Y004596D01*
X006165Y004545D01*
X006114Y004571D01*
X006063Y004545D01*
X006317D02*
X006342Y004596D01*
X006317Y004647D01*
X006368Y004621D01*
X006419Y004647D01*
X006393Y004596D01*
X006419Y004545D01*
X006368Y004571D01*
X006317Y004545D01*
X007727Y00532D02*
X007752D01*
X007777Y005345D01*
X007803Y00532D01*
X007828D01*
Y005345D01*
X007803Y005371D01*
X007828Y005396D01*
Y005422D01*
X007803D01*
X007777Y005396D01*
X007752Y005422D01*
X007727D01*
Y005396D01*
X007752Y005371D01*
X007727Y005345D01*
Y00532D01*
X008349Y005566D02*
X008374D01*
X0084Y005592D01*
X008425Y005566D01*
X008451D01*
Y005592D01*
X008425Y005617D01*
X008451Y005642D01*
Y005668D01*
X008425D01*
X0084Y005642D01*
X008374Y005668D01*
X008349D01*
Y005642D01*
X008374Y005617D01*
X008349Y005592D01*
Y005566D01*
X008146Y005053D02*
X008095Y005155D01*
X008197D01*
X008146Y005053D01*
X008628Y005079D02*
Y005053D01*
X008679D01*
Y005079D01*
X008705D01*
Y005129D01*
X008679D01*
Y005155D01*
X008628D01*
Y005129D01*
X008603D01*
Y005079D01*
X008628D01*
X007612D02*
Y005053D01*
X007663D01*
Y005079D01*
X007689D01*
Y005129D01*
X007663D01*
Y005155D01*
X007612D01*
Y005129D01*
X007587D01*
Y005079D01*
X007612D01*
X007968Y004545D02*
X007993Y004596D01*
X007968Y004647D01*
X008019Y004621D01*
X00807Y004647D01*
X008044Y004596D01*
X00807Y004545D01*
X008019Y004571D01*
X007968Y004545D01*
X008222D02*
X008247Y004596D01*
X008222Y004647D01*
X008273Y004621D01*
X008324Y004647D01*
X008298Y004596D01*
X008324Y004545D01*
X008273Y004571D01*
X008222Y004545D01*
X009632Y00532D02*
X009657D01*
X009682Y005345D01*
X009708Y00532D01*
X009733D01*
Y005345D01*
X009708Y005371D01*
X009733Y005396D01*
Y005422D01*
X009708D01*
X009682Y005396D01*
X009657Y005422D01*
X009632D01*
Y005396D01*
X009657Y005371D01*
X009632Y005345D01*
Y00532D01*
X010254Y005566D02*
X010279D01*
X010305Y005592D01*
X01033Y005566D01*
X010356D01*
Y005592D01*
X01033Y005617D01*
X010356Y005642D01*
Y005668D01*
X01033D01*
X010305Y005642D01*
X010279Y005668D01*
X010254D01*
Y005642D01*
X010279Y005617D01*
X010254Y005592D01*
Y005566D01*
X010051Y005053D02*
X01Y005155D01*
X010102D01*
X010051Y005053D01*
X010533Y005079D02*
Y005053D01*
X010584D01*
Y005079D01*
X01061D01*
Y005129D01*
X010584D01*
Y005155D01*
X010533D01*
Y005129D01*
X010508D01*
Y005079D01*
X010533D01*
X009517D02*
Y005053D01*
X009568D01*
Y005079D01*
X009594D01*
Y005129D01*
X009568D01*
Y005155D01*
X009517D01*
Y005129D01*
X009492D01*
Y005079D01*
X009517D01*
X009873Y004545D02*
X009898Y004596D01*
X009873Y004647D01*
X009924Y004621D01*
X009975Y004647D01*
X009949Y004596D01*
X009975Y004545D01*
X009924Y004571D01*
X009873Y004545D01*
X010127D02*
X010152Y004596D01*
X010127Y004647D01*
X010178Y004621D01*
X010229Y004647D01*
X010203Y004596D01*
X010229Y004545D01*
X010178Y004571D01*
X010127Y004545D01*
X011537Y00532D02*
X011562D01*
X011587Y005345D01*
X011613Y00532D01*
X011638D01*
Y005345D01*
X011613Y005371D01*
X011638Y005396D01*
Y005422D01*
X011613D01*
X011587Y005396D01*
X011562Y005422D01*
X011537D01*
Y005396D01*
X011562Y005371D01*
X011537Y005345D01*
Y00532D01*
X012159Y005566D02*
X012184D01*
X01221Y005592D01*
X012235Y005566D01*
X012261D01*
Y005592D01*
X012235Y005617D01*
X012261Y005642D01*
Y005668D01*
X012235D01*
X01221Y005642D01*
X012184Y005668D01*
X012159D01*
Y005642D01*
X012184Y005617D01*
X012159Y005592D01*
Y005566D01*
X011956Y005053D02*
X011905Y005155D01*
X012007D01*
X011956Y005053D01*
X012438Y005079D02*
Y005053D01*
X012489D01*
Y005079D01*
X012515D01*
Y005129D01*
X012489D01*
Y005155D01*
X012438D01*
Y005129D01*
X012413D01*
Y005079D01*
X012438D01*
X011422D02*
Y005053D01*
X011473D01*
Y005079D01*
X011499D01*
Y005129D01*
X011473D01*
Y005155D01*
X011422D01*
Y005129D01*
X011397D01*
Y005079D01*
X011422D01*
X011778Y004545D02*
X011803Y004596D01*
X011778Y004647D01*
X011829Y004621D01*
X01188Y004647D01*
X011854Y004596D01*
X01188Y004545D01*
X011829Y004571D01*
X011778Y004545D01*
X012032D02*
X012057Y004596D01*
X012032Y004647D01*
X012083Y004621D01*
X012134Y004647D01*
X012108Y004596D01*
X012134Y004545D01*
X012083Y004571D01*
X012032Y004545D01*
X013442Y00532D02*
X013467D01*
X013492Y005345D01*
X013518Y00532D01*
X013543D01*
Y005345D01*
X013518Y005371D01*
X013543Y005396D01*
Y005422D01*
X013518D01*
X013492Y005396D01*
X013467Y005422D01*
X013442D01*
Y005396D01*
X013467Y005371D01*
X013442Y005345D01*
Y00532D01*
X014064Y005566D02*
X014089D01*
X014115Y005592D01*
X01414Y005566D01*
X014166D01*
Y005592D01*
X01414Y005617D01*
X014166Y005642D01*
Y005668D01*
X01414D01*
X014115Y005642D01*
X014089Y005668D01*
X014064D01*
Y005642D01*
X014089Y005617D01*
X014064Y005592D01*
Y005566D01*
X013861Y005053D02*
X01381Y005155D01*
X013912D01*
X013861Y005053D01*
X014343Y005079D02*
Y005053D01*
X014394D01*
Y005079D01*
X01442D01*
Y005129D01*
X014394D01*
Y005155D01*
X014343D01*
Y005129D01*
X014318D01*
Y005079D01*
X014343D01*
X013327D02*
Y005053D01*
X013378D01*
Y005079D01*
X013404D01*
Y005129D01*
X013378D01*
Y005155D01*
X013327D01*
Y005129D01*
X013302D01*
Y005079D01*
X013327D01*
X013683Y004545D02*
X013708Y004596D01*
X013683Y004647D01*
X013734Y004621D01*
X013785Y004647D01*
X013759Y004596D01*
X013785Y004545D01*
X013734Y004571D01*
X013683Y004545D01*
X013937D02*
X013962Y004596D01*
X013937Y004647D01*
X013988Y004621D01*
X014039Y004647D01*
X014013Y004596D01*
X014039Y004545D01*
X013988Y004571D01*
X013937Y004545D01*
X015347Y00532D02*
X015372D01*
X015397Y005345D01*
X015423Y00532D01*
X015448D01*
Y005345D01*
X015423Y005371D01*
X015448Y005396D01*
Y005422D01*
X015423D01*
X015397Y005396D01*
X015372Y005422D01*
X015347D01*
Y005396D01*
X015372Y005371D01*
X015347Y005345D01*
Y00532D01*
X015969Y005566D02*
X015994D01*
X01602Y005592D01*
X016045Y005566D01*
X016071D01*
Y005592D01*
X016045Y005617D01*
X016071Y005642D01*
Y005668D01*
X016045D01*
X01602Y005642D01*
X015994Y005668D01*
X015969D01*
Y005642D01*
X015994Y005617D01*
X015969Y005592D01*
Y005566D01*
X015766Y005053D02*
X015715Y005155D01*
X015817D01*
X015766Y005053D01*
X016248Y005079D02*
Y005053D01*
X016299D01*
Y005079D01*
X016325D01*
Y005129D01*
X016299D01*
Y005155D01*
X016248D01*
Y005129D01*
X016223D01*
Y005079D01*
X016248D01*
X015232D02*
Y005053D01*
X015283D01*
Y005079D01*
X015309D01*
Y005129D01*
X015283D01*
Y005155D01*
X015232D01*
Y005129D01*
X015207D01*
Y005079D01*
X015232D01*
X015588Y004545D02*
X015613Y004596D01*
X015588Y004647D01*
X015639Y004621D01*
X01569Y004647D01*
X015664Y004596D01*
X01569Y004545D01*
X015639Y004571D01*
X015588Y004545D01*
X015842D02*
X015867Y004596D01*
X015842Y004647D01*
X015893Y004621D01*
X015944Y004647D01*
X015918Y004596D01*
X015944Y004545D01*
X015893Y004571D01*
X015842Y004545D01*
X017252Y00532D02*
X017277D01*
X017302Y005345D01*
X017328Y00532D01*
X017353D01*
Y005345D01*
X017328Y005371D01*
X017353Y005396D01*
Y005422D01*
X017328D01*
X017302Y005396D01*
X017277Y005422D01*
X017252D01*
Y005396D01*
X017277Y005371D01*
X017252Y005345D01*
Y00532D01*
X017874Y005566D02*
X017899D01*
X017925Y005592D01*
X01795Y005566D01*
X017976D01*
Y005592D01*
X01795Y005617D01*
X017976Y005642D01*
Y005668D01*
X01795D01*
X017925Y005642D01*
X017899Y005668D01*
X017874D01*
Y005642D01*
X017899Y005617D01*
X017874Y005592D01*
Y005566D01*
X017671Y005053D02*
X01762Y005155D01*
X017722D01*
X017671Y005053D01*
X018153Y005079D02*
Y005053D01*
X018204D01*
Y005079D01*
X01823D01*
Y005129D01*
X018204D01*
Y005155D01*
X018153D01*
Y005129D01*
X018128D01*
Y005079D01*
X018153D01*
X017137D02*
Y005053D01*
X017188D01*
Y005079D01*
X017214D01*
Y005129D01*
X017188D01*
Y005155D01*
X017137D01*
Y005129D01*
X017112D01*
Y005079D01*
X017137D01*
X017493Y004545D02*
X017518Y004596D01*
X017493Y004647D01*
X017544Y004621D01*
X017595Y004647D01*
X017569Y004596D01*
X017595Y004545D01*
X017544Y004571D01*
X017493Y004545D01*
X017747D02*
X017772Y004596D01*
X017747Y004647D01*
X017798Y004621D01*
X017849Y004647D01*
X017823Y004596D01*
X017849Y004545D01*
X017798Y004571D01*
X017747Y004545D01*
X019157Y00532D02*
X019182D01*
X019207Y005345D01*
X019233Y00532D01*
X019258D01*
Y005345D01*
X019233Y005371D01*
X019258Y005396D01*
Y005422D01*
X019233D01*
X019207Y005396D01*
X019182Y005422D01*
X019157D01*
Y005396D01*
X019182Y005371D01*
X019157Y005345D01*
Y00532D01*
X019779Y005566D02*
X019804D01*
X01983Y005592D01*
X019855Y005566D01*
X019881D01*
Y005592D01*
X019855Y005617D01*
X019881Y005642D01*
Y005668D01*
X019855D01*
X01983Y005642D01*
X019804Y005668D01*
X019779D01*
Y005642D01*
X019804Y005617D01*
X019779Y005592D01*
Y005566D01*
X019576Y005053D02*
X019525Y005155D01*
X019627D01*
X019576Y005053D01*
X020058Y005079D02*
Y005053D01*
X020109D01*
Y005079D01*
X020135D01*
Y005129D01*
X020109D01*
Y005155D01*
X020058D01*
Y005129D01*
X020033D01*
Y005079D01*
X020058D01*
X019042D02*
Y005053D01*
X019093D01*
Y005079D01*
X019119D01*
Y005129D01*
X019093D01*
Y005155D01*
X019042D01*
Y005129D01*
X019017D01*
Y005079D01*
X019042D01*
X019398Y004545D02*
X019423Y004596D01*
X019398Y004647D01*
X019449Y004621D01*
X0195Y004647D01*
X019474Y004596D01*
X0195Y004545D01*
X019449Y004571D01*
X019398Y004545D01*
X019652D02*
X019677Y004596D01*
X019652Y004647D01*
X019703Y004621D01*
X019754Y004647D01*
X019728Y004596D01*
X019754Y004545D01*
X019703Y004571D01*
X019652Y004545D01*
X021062Y00532D02*
X021087D01*
X021112Y005345D01*
X021138Y00532D01*
X021163D01*
Y005345D01*
X021138Y005371D01*
X021163Y005396D01*
Y005422D01*
X021138D01*
X021112Y005396D01*
X021087Y005422D01*
X021062D01*
Y005396D01*
X021087Y005371D01*
X021062Y005345D01*
Y00532D01*
X021684Y005566D02*
X021709D01*
X021735Y005592D01*
X02176Y005566D01*
X021786D01*
Y005592D01*
X02176Y005617D01*
X021786Y005642D01*
Y005668D01*
X02176D01*
X021735Y005642D01*
X021709Y005668D01*
X021684D01*
Y005642D01*
X021709Y005617D01*
X021684Y005592D01*
Y005566D01*
X021481Y005053D02*
X02143Y005155D01*
X021532D01*
X021481Y005053D01*
X021963Y005079D02*
Y005053D01*
X022014D01*
Y005079D01*
X02204D01*
Y005129D01*
X022014D01*
Y005155D01*
X021963D01*
Y005129D01*
X021938D01*
Y005079D01*
X021963D01*
X020947D02*
Y005053D01*
X020998D01*
Y005079D01*
X021024D01*
Y005129D01*
X020998D01*
Y005155D01*
X020947D01*
Y005129D01*
X020922D01*
Y005079D01*
X020947D01*
X021303Y004545D02*
X021328Y004596D01*
X021303Y004647D01*
X021354Y004621D01*
X021405Y004647D01*
X021379Y004596D01*
X021405Y004545D01*
X021354Y004571D01*
X021303Y004545D01*
X021557D02*
X021582Y004596D01*
X021557Y004647D01*
X021608Y004621D01*
X021659Y004647D01*
X021633Y004596D01*
X021659Y004545D01*
X021608Y004571D01*
X021557Y004545D01*
X022967Y00532D02*
X022992D01*
X023017Y005345D01*
X023043Y00532D01*
X023068D01*
Y005345D01*
X023043Y005371D01*
X023068Y005396D01*
Y005422D01*
X023043D01*
X023017Y005396D01*
X022992Y005422D01*
X022967D01*
Y005396D01*
X022992Y005371D01*
X022967Y005345D01*
Y00532D01*
X023589Y005566D02*
X023614D01*
X02364Y005592D01*
X023665Y005566D01*
X023691D01*
Y005592D01*
X023665Y005617D01*
X023691Y005642D01*
Y005668D01*
X023665D01*
X02364Y005642D01*
X023614Y005668D01*
X023589D01*
Y005642D01*
X023614Y005617D01*
X023589Y005592D01*
Y005566D01*
X023386Y005053D02*
X023335Y005155D01*
X023437D01*
X023386Y005053D01*
X023868Y005079D02*
Y005053D01*
X023919D01*
Y005079D01*
X023945D01*
Y005129D01*
X023919D01*
Y005155D01*
X023868D01*
Y005129D01*
X023843D01*
Y005079D01*
X023868D01*
X022852D02*
Y005053D01*
X022903D01*
Y005079D01*
X022929D01*
Y005129D01*
X022903D01*
Y005155D01*
X022852D01*
Y005129D01*
X022827D01*
Y005079D01*
X022852D01*
X023208Y004545D02*
X023233Y004596D01*
X023208Y004647D01*
X023259Y004621D01*
X02331Y004647D01*
X023284Y004596D01*
X02331Y004545D01*
X023259Y004571D01*
X023208Y004545D01*
X023462D02*
X023487Y004596D01*
X023462Y004647D01*
X023513Y004621D01*
X023564Y004647D01*
X023538Y004596D01*
X023564Y004545D01*
X023513Y004571D01*
X023462Y004545D01*
X035906Y00532D02*
X035932D01*
X035957Y005345D01*
X035982Y00532D01*
X036008D01*
Y005345D01*
X035982Y005371D01*
X036008Y005396D01*
Y005421D01*
X035982D01*
X035957Y005396D01*
X035932Y005421D01*
X035906D01*
Y005396D01*
X035932Y005371D01*
X035906Y005345D01*
Y00532D01*
X036529Y005566D02*
X036554D01*
X036579Y005592D01*
X036605Y005566D01*
X03663D01*
Y005592D01*
X036605Y005617D01*
X03663Y005642D01*
Y005668D01*
X036605D01*
X036579Y005642D01*
X036554Y005668D01*
X036529D01*
Y005642D01*
X036554Y005617D01*
X036529Y005592D01*
Y005566D01*
X036325Y005053D02*
X036275Y005155D01*
X036376D01*
X036325Y005053D01*
X036808Y005078D02*
Y005053D01*
X036859D01*
Y005078D01*
X036884D01*
Y005129D01*
X036859D01*
Y005155D01*
X036808D01*
Y005129D01*
X036783D01*
Y005078D01*
X036808D01*
X035792D02*
Y005053D01*
X035843D01*
Y005078D01*
X035868D01*
Y005129D01*
X035843D01*
Y005155D01*
X035792D01*
Y005129D01*
X035767D01*
Y005078D01*
X035792D01*
X036148Y004545D02*
X036173Y004596D01*
X036148Y004647D01*
X036198Y004621D01*
X036249Y004647D01*
X036224Y004596D01*
X036249Y004545D01*
X036198Y00457D01*
X036148Y004545D01*
X036402D02*
X036427Y004596D01*
X036402Y004647D01*
X036452Y004621D01*
X036503Y004647D01*
X036478Y004596D01*
X036503Y004545D01*
X036452Y00457D01*
X036402Y004545D01*
X037811Y00532D02*
X037837D01*
X037862Y005345D01*
X037887Y00532D01*
X037913D01*
Y005345D01*
X037887Y005371D01*
X037913Y005396D01*
Y005421D01*
X037887D01*
X037862Y005396D01*
X037837Y005421D01*
X037811D01*
Y005396D01*
X037837Y005371D01*
X037811Y005345D01*
Y00532D01*
X038434Y005566D02*
X038459D01*
X038484Y005592D01*
X03851Y005566D01*
X038535D01*
Y005592D01*
X03851Y005617D01*
X038535Y005642D01*
Y005668D01*
X03851D01*
X038484Y005642D01*
X038459Y005668D01*
X038434D01*
Y005642D01*
X038459Y005617D01*
X038434Y005592D01*
Y005566D01*
X03823Y005053D02*
X03818Y005155D01*
X038281D01*
X03823Y005053D01*
X038713Y005078D02*
Y005053D01*
X038764D01*
Y005078D01*
X038789D01*
Y005129D01*
X038764D01*
Y005155D01*
X038713D01*
Y005129D01*
X038688D01*
Y005078D01*
X038713D01*
X037697D02*
Y005053D01*
X037748D01*
Y005078D01*
X037773D01*
Y005129D01*
X037748D01*
Y005155D01*
X037697D01*
Y005129D01*
X037672D01*
Y005078D01*
X037697D01*
X038053Y004545D02*
X038078Y004596D01*
X038053Y004647D01*
X038103Y004621D01*
X038154Y004647D01*
X038129Y004596D01*
X038154Y004545D01*
X038103Y00457D01*
X038053Y004545D01*
X038307D02*
X038332Y004596D01*
X038307Y004647D01*
X038357Y004621D01*
X038408Y004647D01*
X038383Y004596D01*
X038408Y004545D01*
X038357Y00457D01*
X038307Y004545D01*
X039716Y00532D02*
X039742D01*
X039767Y005345D01*
X039792Y00532D01*
X039818D01*
Y005345D01*
X039792Y005371D01*
X039818Y005396D01*
Y005421D01*
X039792D01*
X039767Y005396D01*
X039742Y005421D01*
X039716D01*
Y005396D01*
X039742Y005371D01*
X039716Y005345D01*
Y00532D01*
X040338Y005566D02*
X040364D01*
X040389Y005592D01*
X040415Y005566D01*
X04044D01*
Y005592D01*
X040415Y005617D01*
X04044Y005642D01*
Y005668D01*
X040415D01*
X040389Y005642D01*
X040364Y005668D01*
X040338D01*
Y005642D01*
X040364Y005617D01*
X040338Y005592D01*
Y005566D01*
X040135Y005053D02*
X040084Y005155D01*
X040186D01*
X040135Y005053D01*
X040618Y005078D02*
Y005053D01*
X040669D01*
Y005078D01*
X040694D01*
Y005129D01*
X040669D01*
Y005155D01*
X040618D01*
Y005129D01*
X040592D01*
Y005078D01*
X040618D01*
X039602D02*
Y005053D01*
X039653D01*
Y005078D01*
X039678D01*
Y005129D01*
X039653D01*
Y005155D01*
X039602D01*
Y005129D01*
X039576D01*
Y005078D01*
X039602D01*
X039957Y004545D02*
X039983Y004596D01*
X039957Y004647D01*
X040008Y004621D01*
X040059Y004647D01*
X040034Y004596D01*
X040059Y004545D01*
X040008Y00457D01*
X039957Y004545D01*
X040211D02*
X040237Y004596D01*
X040211Y004647D01*
X040262Y004621D01*
X040313Y004647D01*
X040288Y004596D01*
X040313Y004545D01*
X040262Y00457D01*
X040211Y004545D01*
X035906Y003415D02*
X035932D01*
X035957Y00344D01*
X035982Y003415D01*
X036008D01*
Y00344D01*
X035982Y003466D01*
X036008Y003491D01*
Y003516D01*
X035982D01*
X035957Y003491D01*
X035932Y003516D01*
X035906D01*
Y003491D01*
X035932Y003466D01*
X035906Y00344D01*
Y003415D01*
X036529Y003661D02*
X036554D01*
X036579Y003687D01*
X036605Y003661D01*
X03663D01*
Y003687D01*
X036605Y003712D01*
X03663Y003737D01*
Y003763D01*
X036605D01*
X036579Y003737D01*
X036554Y003763D01*
X036529D01*
Y003737D01*
X036554Y003712D01*
X036529Y003687D01*
Y003661D01*
X036325Y003148D02*
X036275Y00325D01*
X036376D01*
X036325Y003148D01*
X036808Y003174D02*
Y003148D01*
X036859D01*
Y003174D01*
X036884D01*
Y003224D01*
X036859D01*
Y00325D01*
X036808D01*
Y003224D01*
X036783D01*
Y003174D01*
X036808D01*
X035792D02*
Y003148D01*
X035843D01*
Y003174D01*
X035868D01*
Y003224D01*
X035843D01*
Y00325D01*
X035792D01*
Y003224D01*
X035767D01*
Y003174D01*
X035792D01*
X036148Y00264D02*
X036173Y002691D01*
X036148Y002742D01*
X036198Y002716D01*
X036249Y002742D01*
X036224Y002691D01*
X036249Y00264D01*
X036198Y002666D01*
X036148Y00264D01*
X036402D02*
X036427Y002691D01*
X036402Y002742D01*
X036452Y002716D01*
X036503Y002742D01*
X036478Y002691D01*
X036503Y00264D01*
X036452Y002666D01*
X036402Y00264D01*
X037811Y003415D02*
X037837D01*
X037862Y00344D01*
X037887Y003415D01*
X037913D01*
Y00344D01*
X037887Y003466D01*
X037913Y003491D01*
Y003516D01*
X037887D01*
X037862Y003491D01*
X037837Y003516D01*
X037811D01*
Y003491D01*
X037837Y003466D01*
X037811Y00344D01*
Y003415D01*
X038434Y003661D02*
X038459D01*
X038484Y003686D01*
X03851Y003661D01*
X038535D01*
Y003686D01*
X03851Y003712D01*
X038535Y003737D01*
Y003763D01*
X03851D01*
X038484Y003737D01*
X038459Y003763D01*
X038434D01*
Y003737D01*
X038459Y003712D01*
X038434Y003686D01*
Y003661D01*
X03823Y003148D02*
X03818Y00325D01*
X038281D01*
X03823Y003148D01*
X038713Y003173D02*
Y003148D01*
X038764D01*
Y003173D01*
X038789D01*
Y003224D01*
X038764D01*
Y00325D01*
X038713D01*
Y003224D01*
X038688D01*
Y003173D01*
X038713D01*
X037697D02*
Y003148D01*
X037748D01*
Y003173D01*
X037773D01*
Y003224D01*
X037748D01*
Y00325D01*
X037697D01*
Y003224D01*
X037672D01*
Y003173D01*
X037697D01*
X038053Y00264D02*
X038078Y002691D01*
X038053Y002742D01*
X038103Y002716D01*
X038154Y002742D01*
X038129Y002691D01*
X038154Y00264D01*
X038103Y002665D01*
X038053Y00264D01*
X038307D02*
X038332Y002691D01*
X038307Y002742D01*
X038357Y002716D01*
X038408Y002742D01*
X038383Y002691D01*
X038408Y00264D01*
X038357Y002665D01*
X038307Y00264D01*
X039716Y003415D02*
X039742D01*
X039767Y00344D01*
X039792Y003415D01*
X039818D01*
Y00344D01*
X039792Y003466D01*
X039818Y003491D01*
Y003516D01*
X039792D01*
X039767Y003491D01*
X039742Y003516D01*
X039716D01*
Y003491D01*
X039742Y003466D01*
X039716Y00344D01*
Y003415D01*
X040339Y003661D02*
X040364D01*
X040389Y003686D01*
X040415Y003661D01*
X04044D01*
Y003686D01*
X040415Y003712D01*
X04044Y003737D01*
Y003763D01*
X040415D01*
X040389Y003737D01*
X040364Y003763D01*
X040339D01*
Y003737D01*
X040364Y003712D01*
X040339Y003686D01*
Y003661D01*
X040135Y003148D02*
X040085Y00325D01*
X040186D01*
X040135Y003148D01*
X040618Y003173D02*
Y003148D01*
X040669D01*
Y003173D01*
X040694D01*
Y003224D01*
X040669D01*
Y00325D01*
X040618D01*
Y003224D01*
X040593D01*
Y003173D01*
X040618D01*
X039602D02*
Y003148D01*
X039653D01*
Y003173D01*
X039678D01*
Y003224D01*
X039653D01*
Y00325D01*
X039602D01*
Y003224D01*
X039577D01*
Y003173D01*
X039602D01*
X039958Y00264D02*
X039983Y002691D01*
X039958Y002742D01*
X040008Y002716D01*
X040059Y002742D01*
X040034Y002691D01*
X040059Y00264D01*
X040008Y002665D01*
X039958Y00264D01*
X040212D02*
X040237Y002691D01*
X040212Y002742D01*
X040262Y002716D01*
X040313Y002742D01*
X040288Y002691D01*
X040313Y00264D01*
X040262Y002665D01*
X040212Y00264D01*
X004869Y003415D02*
X004895D01*
X00492Y00344D01*
X004945Y003415D01*
X004971D01*
Y00344D01*
X004945Y003466D01*
X004971Y003491D01*
Y003517D01*
X004945D01*
X00492Y003491D01*
X004895Y003517D01*
X004869D01*
Y003491D01*
X004895Y003466D01*
X004869Y00344D01*
Y003415D01*
X005491Y003661D02*
X005517D01*
X005542Y003687D01*
X005568Y003661D01*
X005593D01*
Y003687D01*
X005568Y003712D01*
X005593Y003737D01*
Y003763D01*
X005568D01*
X005542Y003737D01*
X005517Y003763D01*
X005491D01*
Y003737D01*
X005517Y003712D01*
X005491Y003687D01*
Y003661D01*
X005288Y003148D02*
X005237Y00325D01*
X005339D01*
X005288Y003148D01*
X005771Y003174D02*
Y003148D01*
X005822D01*
Y003174D01*
X005847D01*
Y003224D01*
X005822D01*
Y00325D01*
X005771D01*
Y003224D01*
X005745D01*
Y003174D01*
X005771D01*
X004755D02*
Y003148D01*
X004806D01*
Y003174D01*
X004831D01*
Y003224D01*
X004806D01*
Y00325D01*
X004755D01*
Y003224D01*
X004729D01*
Y003174D01*
X004755D01*
X00511Y00264D02*
X005136Y002691D01*
X00511Y002742D01*
X005161Y002716D01*
X005212Y002742D01*
X005187Y002691D01*
X005212Y00264D01*
X005161Y002666D01*
X00511Y00264D01*
X005364D02*
X00539Y002691D01*
X005364Y002742D01*
X005415Y002716D01*
X005466Y002742D01*
X005441Y002691D01*
X005466Y00264D01*
X005415Y002666D01*
X005364Y00264D01*
X006774Y003415D02*
X0068D01*
X006825Y00344D01*
X00685Y003415D01*
X006876D01*
Y00344D01*
X00685Y003466D01*
X006876Y003491D01*
Y003517D01*
X00685D01*
X006825Y003491D01*
X0068Y003517D01*
X006774D01*
Y003491D01*
X0068Y003466D01*
X006774Y00344D01*
Y003415D01*
X007396Y003661D02*
X007422D01*
X007447Y003687D01*
X007473Y003661D01*
X007498D01*
Y003687D01*
X007473Y003712D01*
X007498Y003737D01*
Y003763D01*
X007473D01*
X007447Y003737D01*
X007422Y003763D01*
X007396D01*
Y003737D01*
X007422Y003712D01*
X007396Y003687D01*
Y003661D01*
X007193Y003148D02*
X007142Y00325D01*
X007244D01*
X007193Y003148D01*
X007676Y003174D02*
Y003148D01*
X007727D01*
Y003174D01*
X007752D01*
Y003224D01*
X007727D01*
Y00325D01*
X007676D01*
Y003224D01*
X00765D01*
Y003174D01*
X007676D01*
X00666D02*
Y003148D01*
X006711D01*
Y003174D01*
X006736D01*
Y003224D01*
X006711D01*
Y00325D01*
X00666D01*
Y003224D01*
X006634D01*
Y003174D01*
X00666D01*
X007015Y00264D02*
X007041Y002691D01*
X007015Y002742D01*
X007066Y002716D01*
X007117Y002742D01*
X007092Y002691D01*
X007117Y00264D01*
X007066Y002666D01*
X007015Y00264D01*
X007269D02*
X007295Y002691D01*
X007269Y002742D01*
X00732Y002716D01*
X007371Y002742D01*
X007346Y002691D01*
X007371Y00264D01*
X00732Y002666D01*
X007269Y00264D01*
X008679Y003415D02*
X008705D01*
X00873Y00344D01*
X008755Y003415D01*
X008781D01*
Y00344D01*
X008755Y003466D01*
X008781Y003491D01*
Y003517D01*
X008755D01*
X00873Y003491D01*
X008705Y003517D01*
X008679D01*
Y003491D01*
X008705Y003466D01*
X008679Y00344D01*
Y003415D01*
X009301Y003661D02*
X009327D01*
X009352Y003687D01*
X009378Y003661D01*
X009403D01*
Y003687D01*
X009378Y003712D01*
X009403Y003737D01*
Y003763D01*
X009378D01*
X009352Y003737D01*
X009327Y003763D01*
X009301D01*
Y003737D01*
X009327Y003712D01*
X009301Y003687D01*
Y003661D01*
X009098Y003148D02*
X009047Y00325D01*
X009149D01*
X009098Y003148D01*
X009581Y003174D02*
Y003148D01*
X009632D01*
Y003174D01*
X009657D01*
Y003224D01*
X009632D01*
Y00325D01*
X009581D01*
Y003224D01*
X009555D01*
Y003174D01*
X009581D01*
X008565D02*
Y003148D01*
X008616D01*
Y003174D01*
X008641D01*
Y003224D01*
X008616D01*
Y00325D01*
X008565D01*
Y003224D01*
X008539D01*
Y003174D01*
X008565D01*
X00892Y00264D02*
X008946Y002691D01*
X00892Y002742D01*
X008971Y002716D01*
X009022Y002742D01*
X008997Y002691D01*
X009022Y00264D01*
X008971Y002666D01*
X00892Y00264D01*
X009174D02*
X0092Y002691D01*
X009174Y002742D01*
X009225Y002716D01*
X009276Y002742D01*
X009251Y002691D01*
X009276Y00264D01*
X009225Y002666D01*
X009174Y00264D01*
X010584Y003415D02*
X01061D01*
X010635Y00344D01*
X01066Y003415D01*
X010686D01*
Y00344D01*
X01066Y003466D01*
X010686Y003491D01*
Y003517D01*
X01066D01*
X010635Y003491D01*
X01061Y003517D01*
X010584D01*
Y003491D01*
X01061Y003466D01*
X010584Y00344D01*
Y003415D01*
X011206Y003661D02*
X011232D01*
X011257Y003687D01*
X011283Y003661D01*
X011308D01*
Y003687D01*
X011283Y003712D01*
X011308Y003737D01*
Y003763D01*
X011283D01*
X011257Y003737D01*
X011232Y003763D01*
X011206D01*
Y003737D01*
X011232Y003712D01*
X011206Y003687D01*
Y003661D01*
X011003Y003148D02*
X010952Y00325D01*
X011054D01*
X011003Y003148D01*
X011486Y003174D02*
Y003148D01*
X011537D01*
Y003174D01*
X011562D01*
Y003224D01*
X011537D01*
Y00325D01*
X011486D01*
Y003224D01*
X01146D01*
Y003174D01*
X011486D01*
X01047D02*
Y003148D01*
X010521D01*
Y003174D01*
X010546D01*
Y003224D01*
X010521D01*
Y00325D01*
X01047D01*
Y003224D01*
X010444D01*
Y003174D01*
X01047D01*
X010825Y00264D02*
X010851Y002691D01*
X010825Y002742D01*
X010876Y002716D01*
X010927Y002742D01*
X010902Y002691D01*
X010927Y00264D01*
X010876Y002666D01*
X010825Y00264D01*
X011079D02*
X011105Y002691D01*
X011079Y002742D01*
X01113Y002716D01*
X011181Y002742D01*
X011156Y002691D01*
X011181Y00264D01*
X01113Y002666D01*
X011079Y00264D01*
X012489Y003415D02*
X012515D01*
X01254Y00344D01*
X012565Y003415D01*
X012591D01*
Y00344D01*
X012565Y003466D01*
X012591Y003491D01*
Y003517D01*
X012565D01*
X01254Y003491D01*
X012515Y003517D01*
X012489D01*
Y003491D01*
X012515Y003466D01*
X012489Y00344D01*
Y003415D01*
X013111Y003661D02*
X013137D01*
X013162Y003687D01*
X013188Y003661D01*
X013213D01*
Y003687D01*
X013188Y003712D01*
X013213Y003737D01*
Y003763D01*
X013188D01*
X013162Y003737D01*
X013137Y003763D01*
X013111D01*
Y003737D01*
X013137Y003712D01*
X013111Y003687D01*
Y003661D01*
X012908Y003148D02*
X012857Y00325D01*
X012959D01*
X012908Y003148D01*
X013391Y003174D02*
Y003148D01*
X013442D01*
Y003174D01*
X013467D01*
Y003224D01*
X013442D01*
Y00325D01*
X013391D01*
Y003224D01*
X013365D01*
Y003174D01*
X013391D01*
X012375D02*
Y003148D01*
X012426D01*
Y003174D01*
X012451D01*
Y003224D01*
X012426D01*
Y00325D01*
X012375D01*
Y003224D01*
X012349D01*
Y003174D01*
X012375D01*
X01273Y00264D02*
X012756Y002691D01*
X01273Y002742D01*
X012781Y002716D01*
X012832Y002742D01*
X012807Y002691D01*
X012832Y00264D01*
X012781Y002666D01*
X01273Y00264D01*
X012984D02*
X01301Y002691D01*
X012984Y002742D01*
X013035Y002716D01*
X013086Y002742D01*
X013061Y002691D01*
X013086Y00264D01*
X013035Y002666D01*
X012984Y00264D01*
X014394Y003415D02*
X01442D01*
X014445Y00344D01*
X01447Y003415D01*
X014496D01*
Y00344D01*
X01447Y003466D01*
X014496Y003491D01*
Y003517D01*
X01447D01*
X014445Y003491D01*
X01442Y003517D01*
X014394D01*
Y003491D01*
X01442Y003466D01*
X014394Y00344D01*
Y003415D01*
X015016Y003661D02*
X015042D01*
X015067Y003687D01*
X015093Y003661D01*
X015118D01*
Y003687D01*
X015093Y003712D01*
X015118Y003737D01*
Y003763D01*
X015093D01*
X015067Y003737D01*
X015042Y003763D01*
X015016D01*
Y003737D01*
X015042Y003712D01*
X015016Y003687D01*
Y003661D01*
X014813Y003148D02*
X014762Y00325D01*
X014864D01*
X014813Y003148D01*
X015296Y003174D02*
Y003148D01*
X015347D01*
Y003174D01*
X015372D01*
Y003224D01*
X015347D01*
Y00325D01*
X015296D01*
Y003224D01*
X01527D01*
Y003174D01*
X015296D01*
X01428D02*
Y003148D01*
X014331D01*
Y003174D01*
X014356D01*
Y003224D01*
X014331D01*
Y00325D01*
X01428D01*
Y003224D01*
X014254D01*
Y003174D01*
X01428D01*
X014635Y00264D02*
X014661Y002691D01*
X014635Y002742D01*
X014686Y002716D01*
X014737Y002742D01*
X014712Y002691D01*
X014737Y00264D01*
X014686Y002666D01*
X014635Y00264D01*
X014889D02*
X014915Y002691D01*
X014889Y002742D01*
X01494Y002716D01*
X014991Y002742D01*
X014966Y002691D01*
X014991Y00264D01*
X01494Y002666D01*
X014889Y00264D01*
X016299Y003415D02*
X016325D01*
X01635Y00344D01*
X016375Y003415D01*
X016401D01*
Y00344D01*
X016375Y003466D01*
X016401Y003491D01*
Y003517D01*
X016375D01*
X01635Y003491D01*
X016325Y003517D01*
X016299D01*
Y003491D01*
X016325Y003466D01*
X016299Y00344D01*
Y003415D01*
X016921Y003661D02*
X016947D01*
X016972Y003687D01*
X016998Y003661D01*
X017023D01*
Y003687D01*
X016998Y003712D01*
X017023Y003737D01*
Y003763D01*
X016998D01*
X016972Y003737D01*
X016947Y003763D01*
X016921D01*
Y003737D01*
X016947Y003712D01*
X016921Y003687D01*
Y003661D01*
X016718Y003148D02*
X016667Y00325D01*
X016769D01*
X016718Y003148D01*
X017201Y003174D02*
Y003148D01*
X017252D01*
Y003174D01*
X017277D01*
Y003224D01*
X017252D01*
Y00325D01*
X017201D01*
Y003224D01*
X017175D01*
Y003174D01*
X017201D01*
X016185D02*
Y003148D01*
X016236D01*
Y003174D01*
X016261D01*
Y003224D01*
X016236D01*
Y00325D01*
X016185D01*
Y003224D01*
X016159D01*
Y003174D01*
X016185D01*
X01654Y00264D02*
X016566Y002691D01*
X01654Y002742D01*
X016591Y002716D01*
X016642Y002742D01*
X016617Y002691D01*
X016642Y00264D01*
X016591Y002666D01*
X01654Y00264D01*
X016794D02*
X01682Y002691D01*
X016794Y002742D01*
X016845Y002716D01*
X016896Y002742D01*
X016871Y002691D01*
X016896Y00264D01*
X016845Y002666D01*
X016794Y00264D01*
X018204Y003415D02*
X01823D01*
X018255Y00344D01*
X01828Y003415D01*
X018306D01*
Y00344D01*
X01828Y003466D01*
X018306Y003491D01*
Y003517D01*
X01828D01*
X018255Y003491D01*
X01823Y003517D01*
X018204D01*
Y003491D01*
X01823Y003466D01*
X018204Y00344D01*
Y003415D01*
X018826Y003661D02*
X018852D01*
X018877Y003687D01*
X018903Y003661D01*
X018928D01*
Y003687D01*
X018903Y003712D01*
X018928Y003737D01*
Y003763D01*
X018903D01*
X018877Y003737D01*
X018852Y003763D01*
X018826D01*
Y003737D01*
X018852Y003712D01*
X018826Y003687D01*
Y003661D01*
X018623Y003148D02*
X018572Y00325D01*
X018674D01*
X018623Y003148D01*
X019106Y003174D02*
Y003148D01*
X019157D01*
Y003174D01*
X019182D01*
Y003224D01*
X019157D01*
Y00325D01*
X019106D01*
Y003224D01*
X01908D01*
Y003174D01*
X019106D01*
X01809D02*
Y003148D01*
X018141D01*
Y003174D01*
X018166D01*
Y003224D01*
X018141D01*
Y00325D01*
X01809D01*
Y003224D01*
X018064D01*
Y003174D01*
X01809D01*
X018445Y00264D02*
X018471Y002691D01*
X018445Y002742D01*
X018496Y002716D01*
X018547Y002742D01*
X018522Y002691D01*
X018547Y00264D01*
X018496Y002666D01*
X018445Y00264D01*
X018699D02*
X018725Y002691D01*
X018699Y002742D01*
X01875Y002716D01*
X018801Y002742D01*
X018776Y002691D01*
X018801Y00264D01*
X01875Y002666D01*
X018699Y00264D01*
X020109Y003415D02*
X020135D01*
X02016Y00344D01*
X020185Y003415D01*
X020211D01*
Y00344D01*
X020185Y003466D01*
X020211Y003491D01*
Y003517D01*
X020185D01*
X02016Y003491D01*
X020135Y003517D01*
X020109D01*
Y003491D01*
X020135Y003466D01*
X020109Y00344D01*
Y003415D01*
X020731Y003661D02*
X020757D01*
X020782Y003687D01*
X020808Y003661D01*
X020833D01*
Y003687D01*
X020808Y003712D01*
X020833Y003737D01*
Y003763D01*
X020808D01*
X020782Y003737D01*
X020757Y003763D01*
X020731D01*
Y003737D01*
X020757Y003712D01*
X020731Y003687D01*
Y003661D01*
X020528Y003148D02*
X020477Y00325D01*
X020579D01*
X020528Y003148D01*
X021011Y003174D02*
Y003148D01*
X021062D01*
Y003174D01*
X021087D01*
Y003224D01*
X021062D01*
Y00325D01*
X021011D01*
Y003224D01*
X020985D01*
Y003174D01*
X021011D01*
X019995D02*
Y003148D01*
X020046D01*
Y003174D01*
X020071D01*
Y003224D01*
X020046D01*
Y00325D01*
X019995D01*
Y003224D01*
X019969D01*
Y003174D01*
X019995D01*
X02035Y00264D02*
X020376Y002691D01*
X02035Y002742D01*
X020401Y002716D01*
X020452Y002742D01*
X020427Y002691D01*
X020452Y00264D01*
X020401Y002666D01*
X02035Y00264D01*
X020604D02*
X02063Y002691D01*
X020604Y002742D01*
X020655Y002716D01*
X020706Y002742D01*
X020681Y002691D01*
X020706Y00264D01*
X020655Y002666D01*
X020604Y00264D01*
X022014Y003415D02*
X02204D01*
X022065Y00344D01*
X02209Y003415D01*
X022116D01*
Y00344D01*
X02209Y003466D01*
X022116Y003491D01*
Y003517D01*
X02209D01*
X022065Y003491D01*
X02204Y003517D01*
X022014D01*
Y003491D01*
X02204Y003466D01*
X022014Y00344D01*
Y003415D01*
X022636Y003661D02*
X022662D01*
X022687Y003687D01*
X022713Y003661D01*
X022738D01*
Y003687D01*
X022713Y003712D01*
X022738Y003737D01*
Y003763D01*
X022713D01*
X022687Y003737D01*
X022662Y003763D01*
X022636D01*
Y003737D01*
X022662Y003712D01*
X022636Y003687D01*
Y003661D01*
X022433Y003148D02*
X022382Y00325D01*
X022484D01*
X022433Y003148D01*
X022916Y003174D02*
Y003148D01*
X022967D01*
Y003174D01*
X022992D01*
Y003224D01*
X022967D01*
Y00325D01*
X022916D01*
Y003224D01*
X02289D01*
Y003174D01*
X022916D01*
X0219D02*
Y003148D01*
X021951D01*
Y003174D01*
X021976D01*
Y003224D01*
X021951D01*
Y00325D01*
X0219D01*
Y003224D01*
X021874D01*
Y003174D01*
X0219D01*
X022255Y00264D02*
X022281Y002691D01*
X022255Y002742D01*
X022306Y002716D01*
X022357Y002742D01*
X022332Y002691D01*
X022357Y00264D01*
X022306Y002666D01*
X022255Y00264D01*
X022509D02*
X022535Y002691D01*
X022509Y002742D01*
X02256Y002716D01*
X022611Y002742D01*
X022586Y002691D01*
X022611Y00264D01*
X02256Y002666D01*
X022509Y00264D01*
X031581Y003415D02*
X031607D01*
X031632Y003441D01*
X031658Y003415D01*
X031683D01*
Y003441D01*
X031658Y003466D01*
X031683Y003492D01*
Y003517D01*
X031658D01*
X031632Y003492D01*
X031607Y003517D01*
X031581D01*
Y003492D01*
X031607Y003466D01*
X031581Y003441D01*
Y003415D01*
X032204Y003662D02*
X032229D01*
X032255Y003687D01*
X03228Y003662D01*
X032305D01*
Y003687D01*
X03228Y003712D01*
X032305Y003738D01*
Y003763D01*
X03228D01*
X032255Y003738D01*
X032229Y003763D01*
X032204D01*
Y003738D01*
X032229Y003712D01*
X032204Y003687D01*
Y003662D01*
X032001Y003149D02*
X03195Y00325D01*
X032051D01*
X032001Y003149D01*
X032483Y003174D02*
Y003149D01*
X032534D01*
Y003174D01*
X032559D01*
Y003225D01*
X032534D01*
Y00325D01*
X032483D01*
Y003225D01*
X032458D01*
Y003174D01*
X032483D01*
X031467D02*
Y003149D01*
X031518D01*
Y003174D01*
X031543D01*
Y003225D01*
X031518D01*
Y00325D01*
X031467D01*
Y003225D01*
X031442D01*
Y003174D01*
X031467D01*
X031823Y002641D02*
X031848Y002691D01*
X031823Y002742D01*
X031874Y002717D01*
X031924Y002742D01*
X031899Y002691D01*
X031924Y002641D01*
X031874Y002666D01*
X031823Y002641D01*
X032077D02*
X032102Y002691D01*
X032077Y002742D01*
X032128Y002717D01*
X032178Y002742D01*
X032153Y002691D01*
X032178Y002641D01*
X032128Y002666D01*
X032077Y002641D01*
X005584Y00151D02*
X005609D01*
X005634Y001535D01*
X00566Y00151D01*
X005685D01*
Y001535D01*
X00566Y001561D01*
X005685Y001586D01*
Y001611D01*
X00566D01*
X005634Y001586D01*
X005609Y001611D01*
X005584D01*
Y001586D01*
X005609Y001561D01*
X005584Y001535D01*
Y00151D01*
X006206Y001756D02*
X006231D01*
X006257Y001782D01*
X006282Y001756D01*
X006307D01*
Y001782D01*
X006282Y001807D01*
X006307Y001832D01*
Y001858D01*
X006282D01*
X006257Y001832D01*
X006231Y001858D01*
X006206D01*
Y001832D01*
X006231Y001807D01*
X006206Y001782D01*
Y001756D01*
X006003Y001243D02*
X005952Y001345D01*
X006053D01*
X006003Y001243D01*
X006485Y001269D02*
Y001243D01*
X006536D01*
Y001269D01*
X006561D01*
Y001319D01*
X006536D01*
Y001345D01*
X006485D01*
Y001319D01*
X00646D01*
Y001269D01*
X006485D01*
X005469D02*
Y001243D01*
X00552D01*
Y001269D01*
X005545D01*
Y001319D01*
X00552D01*
Y001345D01*
X005469D01*
Y001319D01*
X005444D01*
Y001269D01*
X005469D01*
X005825Y000735D02*
X00585Y000786D01*
X005825Y000837D01*
X005876Y000811D01*
X005926Y000837D01*
X005901Y000786D01*
X005926Y000735D01*
X005876Y000761D01*
X005825Y000735D01*
X006079D02*
X006104Y000786D01*
X006079Y000837D01*
X00613Y000811D01*
X00618Y000837D01*
X006155Y000786D01*
X00618Y000735D01*
X00613Y000761D01*
X006079Y000735D01*
X019871Y00151D02*
X019896D01*
X019922Y001535D01*
X019947Y00151D01*
X019973D01*
Y001535D01*
X019947Y001561D01*
X019973Y001586D01*
Y001611D01*
X019947D01*
X019922Y001586D01*
X019896Y001611D01*
X019871D01*
Y001586D01*
X019896Y001561D01*
X019871Y001535D01*
Y00151D01*
X020493Y001756D02*
X020519D01*
X020544Y001782D01*
X02057Y001756D01*
X020595D01*
Y001782D01*
X02057Y001807D01*
X020595Y001832D01*
Y001858D01*
X02057D01*
X020544Y001832D01*
X020519Y001858D01*
X020493D01*
Y001832D01*
X020519Y001807D01*
X020493Y001782D01*
Y001756D01*
X02029Y001243D02*
X020239Y001345D01*
X020341D01*
X02029Y001243D01*
X020773Y001269D02*
Y001243D01*
X020824D01*
Y001269D01*
X020849D01*
Y001319D01*
X020824D01*
Y001345D01*
X020773D01*
Y001319D01*
X020747D01*
Y001269D01*
X020773D01*
X019757D02*
Y001243D01*
X019808D01*
Y001269D01*
X019833D01*
Y001319D01*
X019808D01*
Y001345D01*
X019757D01*
Y001319D01*
X019731D01*
Y001269D01*
X019757D01*
X020112Y000735D02*
X020138Y000786D01*
X020112Y000837D01*
X020163Y000811D01*
X020214Y000837D01*
X020189Y000786D01*
X020214Y000735D01*
X020163Y000761D01*
X020112Y000735D01*
X020366D02*
X020392Y000786D01*
X020366Y000837D01*
X020417Y000811D01*
X020468Y000837D01*
X020443Y000786D01*
X020468Y000735D01*
X020417Y000761D01*
X020366Y000735D01*
X022252Y00151D02*
X022278D01*
X022303Y001535D01*
X022328Y00151D01*
X022354D01*
Y001535D01*
X022328Y001561D01*
X022354Y001586D01*
Y001611D01*
X022328D01*
X022303Y001586D01*
X022278Y001611D01*
X022252D01*
Y001586D01*
X022278Y001561D01*
X022252Y001535D01*
Y00151D01*
X022875Y001756D02*
X0229D01*
X022925Y001782D01*
X022951Y001756D01*
X022976D01*
Y001782D01*
X022951Y001807D01*
X022976Y001832D01*
Y001858D01*
X022951D01*
X022925Y001832D01*
X0229Y001858D01*
X022875D01*
Y001832D01*
X0229Y001807D01*
X022875Y001782D01*
Y001756D01*
X022671Y001243D02*
X022621Y001345D01*
X022722D01*
X022671Y001243D01*
X023154Y001269D02*
Y001243D01*
X023205D01*
Y001269D01*
X02323D01*
Y001319D01*
X023205D01*
Y001345D01*
X023154D01*
Y001319D01*
X023129D01*
Y001269D01*
X023154D01*
X022138D02*
Y001243D01*
X022189D01*
Y001269D01*
X022214D01*
Y001319D01*
X022189D01*
Y001345D01*
X022138D01*
Y001319D01*
X022113D01*
Y001269D01*
X022138D01*
X022494Y000735D02*
X022519Y000786D01*
X022494Y000837D01*
X022544Y000811D01*
X022595Y000837D01*
X02257Y000786D01*
X022595Y000735D01*
X022544Y000761D01*
X022494Y000735D01*
X022748D02*
X022773Y000786D01*
X022748Y000837D01*
X022798Y000811D01*
X022849Y000837D01*
X022824Y000786D01*
X022849Y000735D01*
X022798Y000761D01*
X022748Y000735D01*
X029677Y00151D02*
X029702D01*
X029727Y001536D01*
X029753Y00151D01*
X029778D01*
Y001536D01*
X029753Y001561D01*
X029778Y001587D01*
Y001612D01*
X029753D01*
X029727Y001587D01*
X029702Y001612D01*
X029677D01*
Y001587D01*
X029702Y001561D01*
X029677Y001536D01*
Y00151D01*
X030299Y001757D02*
X030324D01*
X03035Y001782D01*
X030375Y001757D01*
X030401D01*
Y001782D01*
X030375Y001808D01*
X030401Y001833D01*
Y001858D01*
X030375D01*
X03035Y001833D01*
X030324Y001858D01*
X030299D01*
Y001833D01*
X030324Y001808D01*
X030299Y001782D01*
Y001757D01*
X030096Y001244D02*
X030045Y001345D01*
X030147D01*
X030096Y001244D01*
X030578Y001269D02*
Y001244D01*
X030629D01*
Y001269D01*
X030655D01*
Y00132D01*
X030629D01*
Y001345D01*
X030578D01*
Y00132D01*
X030553D01*
Y001269D01*
X030578D01*
X029562D02*
Y001244D01*
X029613D01*
Y001269D01*
X029639D01*
Y00132D01*
X029613D01*
Y001345D01*
X029562D01*
Y00132D01*
X029537D01*
Y001269D01*
X029562D01*
X029918Y000736D02*
X029943Y000787D01*
X029918Y000837D01*
X029969Y000812D01*
X03002Y000837D01*
X029994Y000787D01*
X03002Y000736D01*
X029969Y000761D01*
X029918Y000736D01*
X030172D02*
X030197Y000787D01*
X030172Y000837D01*
X030223Y000812D01*
X030274Y000837D01*
X030248Y000787D01*
X030274Y000736D01*
X030223Y000761D01*
X030172Y000736D01*
X031581Y00151D02*
X031607D01*
X031632Y001536D01*
X031658Y00151D01*
X031683D01*
Y001536D01*
X031658Y001561D01*
X031683Y001587D01*
Y001612D01*
X031658D01*
X031632Y001587D01*
X031607Y001612D01*
X031581D01*
Y001587D01*
X031607Y001561D01*
X031581Y001536D01*
Y00151D01*
X032204Y001757D02*
X032229D01*
X032255Y001782D01*
X03228Y001757D01*
X032305D01*
Y001782D01*
X03228Y001808D01*
X032305Y001833D01*
Y001858D01*
X03228D01*
X032255Y001833D01*
X032229Y001858D01*
X032204D01*
Y001833D01*
X032229Y001808D01*
X032204Y001782D01*
Y001757D01*
X032001Y001244D02*
X03195Y001345D01*
X032051D01*
X032001Y001244D01*
X032483Y001269D02*
Y001244D01*
X032534D01*
Y001269D01*
X032559D01*
Y00132D01*
X032534D01*
Y001345D01*
X032483D01*
Y00132D01*
X032458D01*
Y001269D01*
X032483D01*
X031467D02*
Y001244D01*
X031518D01*
Y001269D01*
X031543D01*
Y00132D01*
X031518D01*
Y001345D01*
X031467D01*
Y00132D01*
X031442D01*
Y001269D01*
X031467D01*
X031823Y000736D02*
X031848Y000787D01*
X031823Y000837D01*
X031874Y000812D01*
X031924Y000837D01*
X031899Y000787D01*
X031924Y000736D01*
X031874Y000761D01*
X031823Y000736D01*
X032077D02*
X032102Y000787D01*
X032077Y000837D01*
X032128Y000812D01*
X032178Y000837D01*
X032153Y000787D01*
X032178Y000736D01*
X032128Y000761D01*
X032077Y000736D01*
X033476Y00151D02*
X033502D01*
X033527Y001536D01*
X033552Y00151D01*
X033578D01*
Y001536D01*
X033552Y001561D01*
X033578Y001587D01*
Y001612D01*
X033552D01*
X033527Y001587D01*
X033502Y001612D01*
X033476D01*
Y001587D01*
X033502Y001561D01*
X033476Y001536D01*
Y00151D01*
X034099Y001757D02*
X034124D01*
X034149Y001782D01*
X034175Y001757D01*
X0342D01*
Y001782D01*
X034175Y001808D01*
X0342Y001833D01*
Y001858D01*
X034175D01*
X034149Y001833D01*
X034124Y001858D01*
X034099D01*
Y001833D01*
X034124Y001808D01*
X034099Y001782D01*
Y001757D01*
X033895Y001244D02*
X033845Y001345D01*
X033946D01*
X033895Y001244D01*
X034378Y001269D02*
Y001244D01*
X034429D01*
Y001269D01*
X034454D01*
Y00132D01*
X034429D01*
Y001345D01*
X034378D01*
Y00132D01*
X034353D01*
Y001269D01*
X034378D01*
X033362D02*
Y001244D01*
X033413D01*
Y001269D01*
X033438D01*
Y00132D01*
X033413D01*
Y001345D01*
X033362D01*
Y00132D01*
X033337D01*
Y001269D01*
X033362D01*
X033718Y000736D02*
X033743Y000787D01*
X033718Y000837D01*
X033768Y000812D01*
X033819Y000837D01*
X033794Y000787D01*
X033819Y000736D01*
X033768Y000761D01*
X033718Y000736D01*
X033972D02*
X033997Y000787D01*
X033972Y000837D01*
X034022Y000812D01*
X034073Y000837D01*
X034048Y000787D01*
X034073Y000736D01*
X034022Y000761D01*
X033972Y000736D01*
X039716Y00151D02*
X039742D01*
X039767Y001535D01*
X039792Y00151D01*
X039818D01*
Y001535D01*
X039792Y001561D01*
X039818Y001586D01*
Y001611D01*
X039792D01*
X039767Y001586D01*
X039742Y001611D01*
X039716D01*
Y001586D01*
X039742Y001561D01*
X039716Y001535D01*
Y00151D01*
X040339Y001756D02*
X040364D01*
X040389Y001781D01*
X040415Y001756D01*
X04044D01*
Y001781D01*
X040415Y001807D01*
X04044Y001832D01*
Y001858D01*
X040415D01*
X040389Y001832D01*
X040364Y001858D01*
X040339D01*
Y001832D01*
X040364Y001807D01*
X040339Y001781D01*
Y001756D01*
X040135Y001243D02*
X040085Y001345D01*
X040186D01*
X040135Y001243D01*
X040618Y001268D02*
Y001243D01*
X040669D01*
Y001268D01*
X040694D01*
Y001319D01*
X040669D01*
Y001345D01*
X040618D01*
Y001319D01*
X040593D01*
Y001268D01*
X040618D01*
X039602D02*
Y001243D01*
X039653D01*
Y001268D01*
X039678D01*
Y001319D01*
X039653D01*
Y001345D01*
X039602D01*
Y001319D01*
X039577D01*
Y001268D01*
X039602D01*
X039958Y000735D02*
X039983Y000786D01*
X039958Y000837D01*
X040008Y000811D01*
X040059Y000837D01*
X040034Y000786D01*
X040059Y000735D01*
X040008Y00076D01*
X039958Y000735D01*
X040212D02*
X040237Y000786D01*
X040212Y000837D01*
X040262Y000811D01*
X040313Y000837D01*
X040288Y000786D01*
X040313Y000735D01*
X040262Y00076D01*
X040212Y000735D01*
X032931Y010314D02*
X032982Y010365D01*
X033033Y010314D01*
X032982Y010263D01*
X032931Y010314D01*
X001701D02*
X001752Y010365D01*
X001803Y010314D01*
X001752Y010263D01*
X001701Y010314D01*
X017409Y010315D02*
X01746Y010366D01*
X017511Y010315D01*
X01746Y010264D01*
X017409Y010315D01*
X010437Y001249D02*
Y001351D01*
X010538D01*
Y001249D01*
X010437D01*
X015437D02*
Y001351D01*
X015538D01*
Y001249D01*
X015437D01*
X026777Y007225D02*
X026802D01*
X026827Y00725D01*
X026853Y007225D01*
X026878D01*
Y00725D01*
X026853Y007276D01*
X026878Y007301D01*
Y007326D01*
X026853D01*
X026827Y007301D01*
X026802Y007326D01*
X026777D01*
Y007301D01*
X026802Y007276D01*
X026777Y00725D01*
Y007225D01*
X027399Y007471D02*
X027424D01*
X02745Y007497D01*
X027475Y007471D01*
X027501D01*
Y007497D01*
X027475Y007522D01*
X027501Y007547D01*
Y007573D01*
X027475D01*
X02745Y007547D01*
X027424Y007573D01*
X027399D01*
Y007547D01*
X027424Y007522D01*
X027399Y007497D01*
Y007471D01*
X027196Y006958D02*
X027145Y00706D01*
X027247D01*
X027196Y006958D01*
X027678Y006984D02*
Y006958D01*
X027729D01*
Y006984D01*
X027755D01*
Y007034D01*
X027729D01*
Y00706D01*
X027678D01*
Y007034D01*
X027653D01*
Y006984D01*
X027678D01*
X026662D02*
Y006958D01*
X026713D01*
Y006984D01*
X026739D01*
Y007034D01*
X026713D01*
Y00706D01*
X026662D01*
Y007034D01*
X026637D01*
Y006984D01*
X026662D01*
X027018Y00645D02*
X027043Y006501D01*
X027018Y006552D01*
X027069Y006526D01*
X02712Y006552D01*
X027094Y006501D01*
X02712Y00645D01*
X027069Y006476D01*
X027018Y00645D01*
X027272D02*
X027297Y006501D01*
X027272Y006552D01*
X027323Y006526D01*
X027374Y006552D01*
X027348Y006501D01*
X027374Y00645D01*
X027323Y006476D01*
X027272Y00645D01*
X024634Y00151D02*
X024659D01*
X024684Y001535D01*
X02471Y00151D01*
X024735D01*
Y001535D01*
X02471Y001561D01*
X024735Y001586D01*
Y001611D01*
X02471D01*
X024684Y001586D01*
X024659Y001611D01*
X024634D01*
Y001586D01*
X024659Y001561D01*
X024634Y001535D01*
Y00151D01*
X025256Y001756D02*
X025281D01*
X025307Y001782D01*
X025332Y001756D01*
X025357D01*
Y001782D01*
X025332Y001807D01*
X025357Y001832D01*
Y001858D01*
X025332D01*
X025307Y001832D01*
X025281Y001858D01*
X025256D01*
Y001832D01*
X025281Y001807D01*
X025256Y001782D01*
Y001756D01*
X025053Y001243D02*
X025002Y001345D01*
X025103D01*
X025053Y001243D01*
X025535Y001269D02*
Y001243D01*
X025586D01*
Y001269D01*
X025611D01*
Y001319D01*
X025586D01*
Y001345D01*
X025535D01*
Y001319D01*
X02551D01*
Y001269D01*
X025535D01*
X024519D02*
Y001243D01*
X02457D01*
Y001269D01*
X024595D01*
Y001319D01*
X02457D01*
Y001345D01*
X024519D01*
Y001319D01*
X024494D01*
Y001269D01*
X024519D01*
X024875Y000735D02*
X0249Y000786D01*
X024875Y000837D01*
X024926Y000811D01*
X024976Y000837D01*
X024951Y000786D01*
X024976Y000735D01*
X024926Y000761D01*
X024875Y000735D01*
X025129D02*
X025154Y000786D01*
X025129Y000837D01*
X02518Y000811D01*
X02523Y000837D01*
X025205Y000786D01*
X02523Y000735D01*
X02518Y000761D01*
X025129Y000735D01*
X027015Y00151D02*
X02704D01*
X027066Y001535D01*
X027091Y00151D01*
X027116D01*
Y001535D01*
X027091Y001561D01*
X027116Y001586D01*
Y001611D01*
X027091D01*
X027066Y001586D01*
X02704Y001611D01*
X027015D01*
Y001586D01*
X02704Y001561D01*
X027015Y001535D01*
Y00151D01*
X027637Y001756D02*
X027662D01*
X027688Y001782D01*
X027713Y001756D01*
X027739D01*
Y001782D01*
X027713Y001807D01*
X027739Y001832D01*
Y001858D01*
X027713D01*
X027688Y001832D01*
X027662Y001858D01*
X027637D01*
Y001832D01*
X027662Y001807D01*
X027637Y001782D01*
Y001756D01*
X027434Y001243D02*
X027383Y001345D01*
X027485D01*
X027434Y001243D01*
X027916Y001269D02*
Y001243D01*
X027967D01*
Y001269D01*
X027993D01*
Y001319D01*
X027967D01*
Y001345D01*
X027916D01*
Y001319D01*
X027891D01*
Y001269D01*
X027916D01*
X0269D02*
Y001243D01*
X026951D01*
Y001269D01*
X026977D01*
Y001319D01*
X026951D01*
Y001345D01*
X0269D01*
Y001319D01*
X026875D01*
Y001269D01*
X0269D01*
X027256Y000735D02*
X027281Y000786D01*
X027256Y000837D01*
X027307Y000811D01*
X027358Y000837D01*
X027332Y000786D01*
X027358Y000735D01*
X027307Y000761D01*
X027256Y000735D01*
X02751D02*
X027535Y000786D01*
X02751Y000837D01*
X027561Y000811D01*
X027612Y000837D01*
X027586Y000786D01*
X027612Y000735D01*
X027561Y000761D01*
X02751Y000735D01*
X000821Y001511D02*
X000846D01*
X000872Y001536D01*
X000897Y001511D01*
X000923D01*
Y001536D01*
X000897Y001562D01*
X000923Y001587D01*
Y001612D01*
X000897D01*
X000872Y001587D01*
X000846Y001612D01*
X000821D01*
Y001587D01*
X000846Y001562D01*
X000821Y001536D01*
Y001511D01*
X001443Y001757D02*
X001469D01*
X001494Y001782D01*
X001519Y001757D01*
X001545D01*
Y001782D01*
X001519Y001808D01*
X001545Y001833D01*
Y001859D01*
X001519D01*
X001494Y001833D01*
X001469Y001859D01*
X001443D01*
Y001833D01*
X001469Y001808D01*
X001443Y001782D01*
Y001757D01*
X00124Y001244D02*
X001189Y001346D01*
X001291D01*
X00124Y001244D01*
X001723Y001269D02*
Y001244D01*
X001774D01*
Y001269D01*
X001799D01*
Y00132D01*
X001774D01*
Y001346D01*
X001723D01*
Y00132D01*
X001697D01*
Y001269D01*
X001723D01*
X000707D02*
Y001244D01*
X000757D01*
Y001269D01*
X000783D01*
Y00132D01*
X000757D01*
Y001346D01*
X000707D01*
Y00132D01*
X000681D01*
Y001269D01*
X000707D01*
X001062Y000736D02*
X001088Y000787D01*
X001062Y000838D01*
X001113Y000812D01*
X001164Y000838D01*
X001139Y000787D01*
X001164Y000736D01*
X001113Y000761D01*
X001062Y000736D01*
X001316D02*
X001342Y000787D01*
X001316Y000838D01*
X001367Y000812D01*
X001418Y000838D01*
X001393Y000787D01*
X001418Y000736D01*
X001367Y000761D01*
X001316Y000736D01*
X003202Y001511D02*
X003227D01*
X003253Y001536D01*
X003278Y001511D01*
X003304D01*
Y001536D01*
X003278Y001562D01*
X003304Y001587D01*
Y001612D01*
X003278D01*
X003253Y001587D01*
X003227Y001612D01*
X003202D01*
Y001587D01*
X003227Y001562D01*
X003202Y001536D01*
Y001511D01*
X003824Y001757D02*
X00385D01*
X003875Y001782D01*
X003901Y001757D01*
X003926D01*
Y001782D01*
X003901Y001808D01*
X003926Y001833D01*
Y001859D01*
X003901D01*
X003875Y001833D01*
X00385Y001859D01*
X003824D01*
Y001833D01*
X00385Y001808D01*
X003824Y001782D01*
Y001757D01*
X003621Y001244D02*
X00357Y001346D01*
X003672D01*
X003621Y001244D01*
X004104Y001269D02*
Y001244D01*
X004154D01*
Y001269D01*
X00418D01*
Y00132D01*
X004154D01*
Y001346D01*
X004104D01*
Y00132D01*
X004078D01*
Y001269D01*
X004104D01*
X003088D02*
Y001244D01*
X003139D01*
Y001269D01*
X003164D01*
Y00132D01*
X003139D01*
Y001346D01*
X003088D01*
Y00132D01*
X003062D01*
Y001269D01*
X003088D01*
X003443Y000736D02*
X003469Y000787D01*
X003443Y000838D01*
X003494Y000812D01*
X003545Y000838D01*
X003519Y000787D01*
X003545Y000736D01*
X003494Y000761D01*
X003443Y000736D01*
X003697D02*
X003723Y000787D01*
X003697Y000838D01*
X003748Y000812D01*
X003799Y000838D01*
X003774Y000787D01*
X003799Y000736D01*
X003748Y000761D01*
X003697Y000736D01*
X033486Y00913D02*
X033512D01*
X033537Y009155D01*
X033562Y00913D01*
X033588D01*
Y009155D01*
X033562Y009181D01*
X033588Y009206D01*
Y009231D01*
X033562D01*
X033537Y009206D01*
X033512Y009231D01*
X033486D01*
Y009206D01*
X033512Y009181D01*
X033486Y009155D01*
Y00913D01*
X034109Y009376D02*
X034134D01*
X034159Y009401D01*
X034185Y009376D01*
X03421D01*
Y009401D01*
X034185Y009427D01*
X03421Y009452D01*
Y009478D01*
X034185D01*
X034159Y009452D01*
X034134Y009478D01*
X034109D01*
Y009452D01*
X034134Y009427D01*
X034109Y009401D01*
Y009376D01*
X033905Y008863D02*
X033855Y008965D01*
X033956D01*
X033905Y008863D01*
X034388Y008888D02*
Y008863D01*
X034439D01*
Y008888D01*
X034464D01*
Y008939D01*
X034439D01*
Y008965D01*
X034388D01*
Y008939D01*
X034363D01*
Y008888D01*
X034388D01*
X033372D02*
Y008863D01*
X033423D01*
Y008888D01*
X033448D01*
Y008939D01*
X033423D01*
Y008965D01*
X033372D01*
Y008939D01*
X033347D01*
Y008888D01*
X033372D01*
X033728Y008355D02*
X033753Y008406D01*
X033728Y008457D01*
X033778Y008431D01*
X033829Y008457D01*
X033804Y008406D01*
X033829Y008355D01*
X033778Y00838D01*
X033728Y008355D01*
X033982D02*
X034007Y008406D01*
X033982Y008457D01*
X034032Y008431D01*
X034083Y008457D01*
X034058Y008406D01*
X034083Y008355D01*
X034032Y00838D01*
X033982Y008355D01*
X008203Y00913D02*
X008228D01*
X008254Y009155D01*
X008279Y00913D01*
X008304D01*
Y009155D01*
X008279Y009181D01*
X008304Y009206D01*
Y009232D01*
X008279D01*
X008254Y009206D01*
X008228Y009232D01*
X008203D01*
Y009206D01*
X008228Y009181D01*
X008203Y009155D01*
Y00913D01*
X008825Y009376D02*
X008851D01*
X008876Y009402D01*
X008901Y009376D01*
X008927D01*
Y009402D01*
X008901Y009427D01*
X008927Y009452D01*
Y009478D01*
X008901D01*
X008876Y009452D01*
X008851Y009478D01*
X008825D01*
Y009452D01*
X008851Y009427D01*
X008825Y009402D01*
Y009376D01*
X008622Y008863D02*
X008571Y008965D01*
X008673D01*
X008622Y008863D01*
X009105Y008889D02*
Y008863D01*
X009155D01*
Y008889D01*
X009181D01*
Y008939D01*
X009155D01*
Y008965D01*
X009105D01*
Y008939D01*
X009079D01*
Y008889D01*
X009105D01*
X008089D02*
Y008863D01*
X008139D01*
Y008889D01*
X008165D01*
Y008939D01*
X008139D01*
Y008965D01*
X008089D01*
Y008939D01*
X008063D01*
Y008889D01*
X008089D01*
X008444Y008355D02*
X00847Y008406D01*
X008444Y008457D01*
X008495Y008431D01*
X008546Y008457D01*
X00852Y008406D01*
X008546Y008355D01*
X008495Y008381D01*
X008444Y008355D01*
X008698D02*
X008724Y008406D01*
X008698Y008457D01*
X008749Y008431D01*
X0088Y008457D01*
X008774Y008406D01*
X0088Y008355D01*
X008749Y008381D01*
X008698Y008355D01*
X036834Y011054D02*
Y011156D01*
X036935D01*
Y011054D01*
X036834D01*
X036854Y011075D02*
Y011136D01*
X036915D01*
Y011075D01*
X036854D01*
X036834Y012261D02*
Y012362D01*
X036935D01*
Y012261D01*
X036834D01*
X036854Y012281D02*
Y012342D01*
X036915D01*
Y012281D01*
X036854D01*
X003386Y002323D02*
X003335Y002425D01*
X003437D01*
X003386Y002323D01*
Y003847D02*
X003412Y003873D01*
X003437D01*
X003412Y003898D01*
X003437Y003924D01*
X003412D01*
X003386Y003949D01*
X003361Y003924D01*
X003335D01*
X003361Y003898D01*
X003335Y003873D01*
X003361D01*
X003386Y003847D01*
X000999Y002323D02*
X000948Y002425D01*
X001049D01*
X000999Y002323D01*
Y003847D02*
X001024Y003873D01*
X001049D01*
X001024Y003898D01*
X001049Y003924D01*
X001024D01*
X000999Y003949D01*
X000973Y003924D01*
X000948D01*
X000973Y003898D01*
X000948Y003873D01*
X000973D01*
X000999Y003847D01*
X002269Y002641D02*
X002294Y002692D01*
X002269Y002742D01*
X002319Y002717D01*
X00237Y002742D01*
X002345Y002692D01*
X00237Y002641D01*
X002319Y002666D01*
X002269Y002641D01*
X002015D02*
X00204Y002692D01*
X002015Y002742D01*
X002066Y002717D01*
X002116Y002742D01*
X002091Y002692D01*
X002116Y002641D01*
X002066Y002666D01*
X002015Y002641D01*
X001659Y003174D02*
Y003149D01*
X00171D01*
Y003174D01*
X001735D01*
Y003225D01*
X00171D01*
Y00325D01*
X001659D01*
Y003225D01*
X001634D01*
Y003174D01*
X001659D01*
X002675D02*
Y003149D01*
X002726D01*
Y003174D01*
X002751D01*
Y003225D01*
X002726D01*
Y00325D01*
X002675D01*
Y003225D01*
X00265D01*
Y003174D01*
X002675D01*
X002192Y003149D02*
X002142Y00325D01*
X002243D01*
X002192Y003149D01*
X002396Y003662D02*
X002421D01*
X002447Y003687D01*
X002472Y003662D01*
X002497D01*
Y003687D01*
X002472Y003713D01*
X002497Y003738D01*
Y003763D01*
X002472D01*
X002447Y003738D01*
X002421Y003763D01*
X002396D01*
Y003738D01*
X002421Y003713D01*
X002396Y003687D01*
Y003662D01*
X001773Y003415D02*
X001799D01*
X001824Y003441D01*
X00185Y003415D01*
X001875D01*
Y003441D01*
X00185Y003466D01*
X001875Y003492D01*
Y003517D01*
X00185D01*
X001824Y003492D01*
X001799Y003517D01*
X001773D01*
Y003492D01*
X001799Y003466D01*
X001773Y003441D01*
Y003415D01*
X020147Y012643D02*
X020096Y012745D01*
X020198D01*
X020147Y012643D01*
Y012664D02*
X020117Y012724D01*
X020177D01*
X020147Y012664D01*
X020647Y012643D02*
X020596Y012745D01*
X020698D01*
X020647Y012643D01*
Y012664D02*
X020617Y012724D01*
X020677D01*
X020647Y012664D01*
X020047Y012913D02*
X020072Y012939D01*
X020098D01*
X020072Y012964D01*
X020098Y012989D01*
X020072D01*
X020047Y013015D01*
X020022Y012989D01*
X019996D01*
X020022Y012964D01*
X019996Y012939D01*
X020022D01*
X020047Y012913D01*
Y012934D02*
X020062Y012949D01*
X020077D01*
X020062Y012964D01*
X020077Y012979D01*
X020062D01*
X020047Y012994D01*
X020032Y012979D01*
X020017D01*
X020032Y012964D01*
X020017Y012949D01*
X020032D01*
X020047Y012934D01*
X020747Y012913D02*
X020772Y012939D01*
X020798D01*
X020772Y012964D01*
X020798Y012989D01*
X020772D01*
X020747Y013015D01*
X020722Y012989D01*
X020696D01*
X020722Y012964D01*
X020696Y012939D01*
X020722D01*
X020747Y012913D01*
Y012934D02*
X020762Y012949D01*
X020777D01*
X020762Y012964D01*
X020777Y012979D01*
X020762D01*
X020747Y012994D01*
X020732Y012979D01*
X020717D01*
X020732Y012964D01*
X020717Y012949D01*
X020732D01*
X020747Y012934D01*
X041215Y001002D02*
X041164Y001103D01*
X041266D01*
X041215Y001002D01*
X042739D02*
X042764Y001027D01*
X04279D01*
X042764Y001053D01*
X04279Y001078D01*
X042764D01*
X042739Y001103D01*
X042713Y001078D01*
X042688D01*
X042713Y001053D01*
X042688Y001027D01*
X042713D01*
X042739Y001002D01*
X041215Y003389D02*
X041164Y003491D01*
X041266D01*
X041215Y003389D01*
X042739D02*
X042764Y003415D01*
X04279D01*
X042764Y00344D01*
X04279Y003466D01*
X042764D01*
X042739Y003491D01*
X042713Y003466D01*
X042688D01*
X042713Y00344D01*
X042688Y003415D01*
X042713D01*
X042739Y003389D01*
X041482Y002069D02*
X041507Y002119D01*
X041482Y00217D01*
X041532Y002145D01*
X041583Y00217D01*
X041558Y002119D01*
X041583Y002069D01*
X041532Y002094D01*
X041482Y002069D01*
Y002323D02*
X041507Y002373D01*
X041482Y002424D01*
X041532Y002399D01*
X041583Y002424D01*
X041558Y002373D01*
X041583Y002323D01*
X041532Y002348D01*
X041482Y002323D01*
X042015Y002729D02*
Y002704D01*
X042066D01*
Y002729D01*
X042091D01*
Y00278D01*
X042066D01*
Y002805D01*
X042015D01*
Y00278D01*
X04199D01*
Y002729D01*
X042015D01*
Y001713D02*
Y001688D01*
X042066D01*
Y001713D01*
X042091D01*
Y001764D01*
X042066D01*
Y001789D01*
X042015D01*
Y001764D01*
X04199D01*
Y001713D01*
X042015D01*
X04204Y002196D02*
X04199Y002297D01*
X042091D01*
X04204Y002196D01*
X042503Y001942D02*
X042528D01*
X042553Y001967D01*
X042579Y001942D01*
X042604D01*
Y001967D01*
X042579Y001992D01*
X042604Y002018D01*
Y002043D01*
X042579D01*
X042553Y002018D01*
X042528Y002043D01*
X042503D01*
Y002018D01*
X042528Y001992D01*
X042503Y001967D01*
Y001942D01*
X042256Y002564D02*
X042282D01*
X042307Y002589D01*
X042332Y002564D01*
X042358D01*
Y002589D01*
X042332Y002615D01*
X042358Y00264D01*
Y002665D01*
X042332D01*
X042307Y00264D01*
X042282Y002665D01*
X042256D01*
Y00264D01*
X042282Y002615D01*
X042256Y002589D01*
Y002564D01*
X041215Y004812D02*
X041164Y004913D01*
X041266D01*
X041215Y004812D01*
X042739D02*
X042764Y004837D01*
X04279D01*
X042764Y004863D01*
X04279Y004888D01*
X042764D01*
X042739Y004913D01*
X042713Y004888D01*
X042688D01*
X042713Y004863D01*
X042688Y004837D01*
X042713D01*
X042739Y004812D01*
X041215Y007199D02*
X041164Y007301D01*
X041266D01*
X041215Y007199D01*
X042739D02*
X042764Y007225D01*
X04279D01*
X042764Y00725D01*
X04279Y007276D01*
X042764D01*
X042739Y007301D01*
X042713Y007276D01*
X042688D01*
X042713Y00725D01*
X042688Y007225D01*
X042713D01*
X042739Y007199D01*
X041481Y005879D02*
X041507Y005929D01*
X041481Y00598D01*
X041532Y005955D01*
X041583Y00598D01*
X041558Y005929D01*
X041583Y005879D01*
X041532Y005904D01*
X041481Y005879D01*
Y006133D02*
X041507Y006183D01*
X041481Y006234D01*
X041532Y006209D01*
X041583Y006234D01*
X041558Y006183D01*
X041583Y006133D01*
X041532Y006158D01*
X041481Y006133D01*
X042015Y006539D02*
Y006514D01*
X042066D01*
Y006539D01*
X042091D01*
Y00659D01*
X042066D01*
Y006615D01*
X042015D01*
Y00659D01*
X041989D01*
Y006539D01*
X042015D01*
Y005523D02*
Y005498D01*
X042066D01*
Y005523D01*
X042091D01*
Y005574D01*
X042066D01*
Y005599D01*
X042015D01*
Y005574D01*
X041989D01*
Y005523D01*
X042015D01*
X04204Y006006D02*
X041989Y006107D01*
X042091D01*
X04204Y006006D01*
X042503Y005752D02*
X042528D01*
X042553Y005777D01*
X042579Y005752D01*
X042604D01*
Y005777D01*
X042579Y005802D01*
X042604Y005828D01*
Y005853D01*
X042579D01*
X042553Y005828D01*
X042528Y005853D01*
X042503D01*
Y005828D01*
X042528Y005802D01*
X042503Y005777D01*
Y005752D01*
X042256Y006374D02*
X042282D01*
X042307Y006399D01*
X042332Y006374D01*
X042358D01*
Y006399D01*
X042332Y006425D01*
X042358Y00645D01*
Y006475D01*
X042332D01*
X042307Y00645D01*
X042282Y006475D01*
X042256D01*
Y00645D01*
X042282Y006425D01*
X042256Y006399D01*
Y006374D01*
X029929Y005436D02*
X02998Y005486D01*
X03003Y005436D01*
X02998Y005385D01*
X029929Y005436D01*
X041621Y00913D02*
X041647D01*
X041672Y009155D01*
X041697Y00913D01*
X041723D01*
Y009155D01*
X041697Y009181D01*
X041723Y009206D01*
Y009231D01*
X041697D01*
X041672Y009206D01*
X041647Y009231D01*
X041621D01*
Y009206D01*
X041647Y009181D01*
X041621Y009155D01*
Y00913D01*
X042244Y009376D02*
X042269D01*
X042294Y009401D01*
X04232Y009376D01*
X042345D01*
Y009401D01*
X04232Y009427D01*
X042345Y009452D01*
Y009478D01*
X04232D01*
X042294Y009452D01*
X042269Y009478D01*
X042244D01*
Y009452D01*
X042269Y009427D01*
X042244Y009401D01*
Y009376D01*
X04204Y008863D02*
X04199Y008965D01*
X042091D01*
X04204Y008863D01*
X042523Y008888D02*
Y008863D01*
X042574D01*
Y008888D01*
X042599D01*
Y008939D01*
X042574D01*
Y008965D01*
X042523D01*
Y008939D01*
X042498D01*
Y008888D01*
X042523D01*
X041507D02*
Y008863D01*
X041558D01*
Y008888D01*
X041583D01*
Y008939D01*
X041558D01*
Y008965D01*
X041507D01*
Y008939D01*
X041482D01*
Y008888D01*
X041507D01*
X041863Y008355D02*
X041888Y008406D01*
X041863Y008457D01*
X041913Y008431D01*
X041964Y008457D01*
X041939Y008406D01*
X041964Y008355D01*
X041913Y00838D01*
X041863Y008355D01*
X042117D02*
X042142Y008406D01*
X042117Y008457D01*
X042167Y008431D01*
X042218Y008457D01*
X042193Y008406D01*
X042218Y008355D01*
X042167Y00838D01*
X042117Y008355D01*
X041181Y010135D02*
Y010236D01*
X041283D01*
Y010135D01*
X041181D01*
X034061Y004793D02*
X034112Y004844D01*
X034163Y004793D01*
X034112Y004742D01*
X034061Y004793D01*
X042413Y000335D02*
Y000437D01*
X042515D01*
Y000335D01*
X042413D01*
X034794Y006147D02*
X03482Y006198D01*
X034794Y006249D01*
X034845Y006223D01*
X034896Y006249D01*
X03487Y006198D01*
X034896Y006147D01*
X034845Y006172D01*
X034794Y006147D01*
X034814Y006167D02*
X03483Y006198D01*
X034814Y006228D01*
X034845Y006213D01*
X034875Y006228D01*
X03486Y006198D01*
X034875Y006167D01*
X034845Y006183D01*
X034814Y006167D01*
X008528Y002858D02*
X008553Y002909D01*
X008528Y002959D01*
X008579Y002934D01*
X00863Y002959D01*
X008604Y002909D01*
X00863Y002858D01*
X008579Y002883D01*
X008528Y002858D01*
X008548Y002878D02*
X008564Y002909D01*
X008548Y002939D01*
X008579Y002924D01*
X008609Y002939D01*
X008594Y002909D01*
X008609Y002878D01*
X008579Y002893D01*
X008548Y002878D01*
X025549Y004749D02*
X025575Y0048D01*
X025549Y004851D01*
X0256Y004825D01*
X025651Y004851D01*
X025625Y0048D01*
X025651Y004749D01*
X0256Y004775D01*
X025549Y004749D01*
X02557Y00477D02*
X025585Y0048D01*
X02557Y00483D01*
X0256Y004815D01*
X02563Y00483D01*
X025615Y0048D01*
X02563Y00477D01*
X0256Y004785D01*
X02557Y00477D01*
X020498Y01204D02*
X020523Y01209D01*
X020498Y012141D01*
X020549Y012116D01*
X020599Y012141D01*
X020574Y01209D01*
X020599Y01204D01*
X020549Y012065D01*
X020498Y01204D01*
X020518Y01206D02*
X020533Y01209D01*
X020518Y012121D01*
X020549Y012106D01*
X020579Y012121D01*
X020564Y01209D01*
X020579Y01206D01*
X020549Y012075D01*
X020518Y01206D01*
X040891Y012527D02*
X040917Y012578D01*
X040891Y012629D01*
X040942Y012603D01*
X040993Y012629D01*
X040968Y012578D01*
X040993Y012527D01*
X040942Y012553D01*
X040891Y012527D01*
X040912Y012548D02*
X040927Y012578D01*
X040912Y012609D01*
X040942Y012593D01*
X040973Y012609D01*
X040958Y012578D01*
X040973Y012548D01*
X040942Y012563D01*
X040912Y012548D01*
X039721Y012692D02*
X039746Y012743D01*
X039721Y012794D01*
X039771Y012769D01*
X039822Y012794D01*
X039797Y012743D01*
X039822Y012692D01*
X039771Y012718D01*
X039721Y012692D01*
X039741Y012713D02*
X039756Y012743D01*
X039741Y012774D01*
X039771Y012758D01*
X039802Y012774D01*
X039787Y012743D01*
X039802Y012713D01*
X039771Y012728D01*
X039741Y012713D01*
X029365Y003188D02*
X02939Y003238D01*
X029365Y003289D01*
X029416Y003264D01*
X029467Y003289D01*
X029441Y003238D01*
X029467Y003188D01*
X029416Y003213D01*
X029365Y003188D01*
X029385Y003208D02*
X029401Y003238D01*
X029385Y003269D01*
X029416Y003254D01*
X029446Y003269D01*
X029431Y003238D01*
X029446Y003208D01*
X029416Y003223D01*
X029385Y003208D01*
X028951Y003299D02*
X028976Y00335D01*
X028951Y003401D01*
X029002Y003376D01*
X029053Y003401D01*
X029027Y00335D01*
X029053Y003299D01*
X029002Y003325D01*
X028951Y003299D01*
X028971Y00332D02*
X028986Y00335D01*
X028971Y003381D01*
X029002Y003365D01*
X029032Y003381D01*
X029017Y00335D01*
X029032Y00332D01*
X029002Y003335D01*
X028971Y00332D01*
X028095Y010498D02*
X02812Y010549D01*
X028095Y010599D01*
X028146Y010574D01*
X028197Y010599D01*
X028171Y010549D01*
X028197Y010498D01*
X028146Y010523D01*
X028095Y010498D01*
X028115Y010518D02*
X02813Y010549D01*
X028115Y010579D01*
X028146Y010564D01*
X028176Y010579D01*
X028161Y010549D01*
X028176Y010518D01*
X028146Y010533D01*
X028115Y010518D01*
X028164Y003424D02*
X028189Y003475D01*
X028164Y003526D01*
X028214Y0035D01*
X028265Y003526D01*
X02824Y003475D01*
X028265Y003424D01*
X028214Y003449D01*
X028164Y003424D01*
X028184Y003444D02*
X028199Y003475D01*
X028184Y003505D01*
X028214Y00349D01*
X028245Y003505D01*
X02823Y003475D01*
X028245Y003444D01*
X028214Y003459D01*
X028184Y003444D01*
X028209Y006015D02*
X028235Y006066D01*
X028209Y006116D01*
X02826Y006091D01*
X028311Y006116D01*
X028285Y006066D01*
X028311Y006015D01*
X02826Y00604D01*
X028209Y006015D01*
X02823Y006035D02*
X028245Y006066D01*
X02823Y006096D01*
X02826Y006081D01*
X028291Y006096D01*
X028275Y006066D01*
X028291Y006035D01*
X02826Y00605D01*
X02823Y006035D01*
X029152Y004049D02*
X029177Y0041D01*
X029152Y00415D01*
X029202Y004125D01*
X029253Y00415D01*
X029228Y0041D01*
X029253Y004049D01*
X029202Y004074D01*
X029152Y004049D01*
X029172Y004069D02*
X029187Y0041D01*
X029172Y00413D01*
X029202Y004115D01*
X029233Y00413D01*
X029218Y0041D01*
X029233Y004069D01*
X029202Y004084D01*
X029172Y004069D01*
X033132Y003635D02*
X033157Y003686D01*
X033132Y003736D01*
X033183Y003711D01*
X033233Y003736D01*
X033208Y003686D01*
X033233Y003635D01*
X033183Y00366D01*
X033132Y003635D01*
X033152Y003655D02*
X033167Y003686D01*
X033152Y003716D01*
X033183Y003701D01*
X033213Y003716D01*
X033198Y003686D01*
X033213Y003655D01*
X033183Y00367D01*
X033152Y003655D01*
X028834Y003043D02*
X028859Y003094D01*
X028834Y003145D01*
X028885Y003119D01*
X028936Y003145D01*
X02891Y003094D01*
X028936Y003043D01*
X028885Y003068D01*
X028834Y003043D01*
X028854Y003063D02*
X02887Y003094D01*
X028854Y003124D01*
X028885Y003109D01*
X028915Y003124D01*
X0289Y003094D01*
X028915Y003063D01*
X028885Y003078D01*
X028854Y003063D01*
X038918Y012443D02*
X038943Y012494D01*
X038918Y012545D01*
X038969Y01252D01*
X039019Y012545D01*
X038994Y012494D01*
X039019Y012443D01*
X038969Y012469D01*
X038918Y012443D01*
X038938Y012464D02*
X038953Y012494D01*
X038938Y012525D01*
X038969Y01251D01*
X038999Y012525D01*
X038984Y012494D01*
X038999Y012464D01*
X038969Y012479D01*
X038938Y012464D01*
X03873Y012129D02*
X038755Y012179D01*
X03873Y01223D01*
X038781Y012205D01*
X038832Y01223D01*
X038806Y012179D01*
X038832Y012129D01*
X038781Y012154D01*
X03873Y012129D01*
X03875Y012149D02*
X038765Y012179D01*
X03875Y01221D01*
X038781Y012195D01*
X038811Y01221D01*
X038796Y012179D01*
X038811Y012149D01*
X038781Y012164D01*
X03875Y012149D01*
X041227Y012482D02*
X041252Y012532D01*
X041227Y012583D01*
X041278Y012558D01*
X041328Y012583D01*
X041303Y012532D01*
X041328Y012482D01*
X041278Y012507D01*
X041227Y012482D01*
X041247Y012502D02*
X041262Y012532D01*
X041247Y012563D01*
X041278Y012548D01*
X041308Y012563D01*
X041293Y012532D01*
X041308Y012502D01*
X041278Y012517D01*
X041247Y012502D01*
X040227Y012296D02*
X040252Y012347D01*
X040227Y012398D01*
X040278Y012372D01*
X040329Y012398D01*
X040303Y012347D01*
X040329Y012296D01*
X040278Y012322D01*
X040227Y012296D01*
X040247Y012316D02*
X040263Y012347D01*
X040247Y012377D01*
X040278Y012362D01*
X040308Y012377D01*
X040293Y012347D01*
X040308Y012316D01*
X040278Y012332D01*
X040247Y012316D01*
X039205Y011496D02*
X03923Y011547D01*
X039205Y011598D01*
X039256Y011572D01*
X039307Y011598D01*
X039281Y011547D01*
X039307Y011496D01*
X039256Y011521D01*
X039205Y011496D01*
X039225Y011516D02*
X03924Y011547D01*
X039225Y011577D01*
X039256Y011562D01*
X039286Y011577D01*
X039271Y011547D01*
X039286Y011516D01*
X039256Y011532D01*
X039225Y011516D01*
X038062Y010955D02*
X038087Y011006D01*
X038062Y011057D01*
X038113Y011031D01*
X038164Y011057D01*
X038138Y011006D01*
X038164Y010955D01*
X038113Y01098D01*
X038062Y010955D01*
X038082Y010975D02*
X038097Y011006D01*
X038082Y011036D01*
X038113Y011021D01*
X038143Y011036D01*
X038128Y011006D01*
X038143Y010975D01*
X038113Y010991D01*
X038082Y010975D01*
X040787Y011755D02*
X040813Y011806D01*
X040787Y011857D01*
X040838Y011831D01*
X040889Y011857D01*
X040864Y011806D01*
X040889Y011755D01*
X040838Y011781D01*
X040787Y011755D01*
X040808Y011775D02*
X040823Y011806D01*
X040808Y011836D01*
X040838Y011821D01*
X040869Y011836D01*
X040853Y011806D01*
X040869Y011775D01*
X040838Y011791D01*
X040808Y011775D01*
X029472Y011161D02*
X029497Y011212D01*
X029472Y011262D01*
X029522Y011237D01*
X029573Y011262D01*
X029548Y011212D01*
X029573Y011161D01*
X029522Y011186D01*
X029472Y011161D01*
X029492Y011181D02*
X029507Y011212D01*
X029492Y011242D01*
X029522Y011227D01*
X029553Y011242D01*
X029538Y011212D01*
X029553Y011181D01*
X029522Y011196D01*
X029492Y011181D01*
X029474Y011323D02*
X0295Y011374D01*
X029474Y011425D01*
X029525Y0114D01*
X029576Y011425D01*
X02955Y011374D01*
X029576Y011323D01*
X029525Y011349D01*
X029474Y011323D01*
X029494Y011344D02*
X02951Y011374D01*
X029494Y011405D01*
X029525Y011389D01*
X029555Y011405D01*
X02954Y011374D01*
X029555Y011344D01*
X029525Y011359D01*
X029494Y011344D01*
X033873Y010259D02*
X033899Y010309D01*
X033873Y01036D01*
X033924Y010335D01*
X033975Y01036D01*
X03395Y010309D01*
X033975Y010259D01*
X033924Y010284D01*
X033873Y010259D01*
X033894Y010279D02*
X033909Y010309D01*
X033894Y01034D01*
X033924Y010325D01*
X033955Y01034D01*
X033939Y010309D01*
X033955Y010279D01*
X033924Y010294D01*
X033894Y010279D01*
X040224Y012089D02*
X04025Y012139D01*
X040224Y01219D01*
X040275Y012165D01*
X040326Y01219D01*
X040301Y012139D01*
X040326Y012089D01*
X040275Y012114D01*
X040224Y012089D01*
X040245Y012109D02*
X04026Y012139D01*
X040245Y01217D01*
X040275Y012155D01*
X040306Y01217D01*
X04029Y012139D01*
X040306Y012109D01*
X040275Y012124D01*
X040245Y012109D01*
X041402Y012251D02*
X041427Y012302D01*
X041402Y012353D01*
X041453Y012327D01*
X041503Y012353D01*
X041478Y012302D01*
X041503Y012251D01*
X041453Y012276D01*
X041402Y012251D01*
X041422Y012271D02*
X041437Y012302D01*
X041422Y012332D01*
X041453Y012317D01*
X041483Y012332D01*
X041468Y012302D01*
X041483Y012271D01*
X041453Y012287D01*
X041422Y012271D01*
X038824Y009734D02*
X038849Y009785D01*
X038824Y009835D01*
X038874Y00981D01*
X038925Y009835D01*
X0389Y009785D01*
X038925Y009734D01*
X038874Y009759D01*
X038824Y009734D01*
X038844Y009754D02*
X038859Y009785D01*
X038844Y009815D01*
X038874Y0098D01*
X038905Y009815D01*
X03889Y009785D01*
X038905Y009754D01*
X038874Y009769D01*
X038844Y009754D01*
X039737Y00947D02*
X039763Y009521D01*
X039737Y009571D01*
X039788Y009546D01*
X039839Y009571D01*
X039813Y009521D01*
X039839Y00947D01*
X039788Y009495D01*
X039737Y00947D01*
X039758Y00949D02*
X039773Y009521D01*
X039758Y009551D01*
X039788Y009536D01*
X039818Y009551D01*
X039803Y009521D01*
X039818Y00949D01*
X039788Y009505D01*
X039758Y00949D01*
X040894Y007744D02*
X04092Y007795D01*
X040894Y007846D01*
X040945Y007821D01*
X040996Y007846D01*
X04097Y007795D01*
X040996Y007744D01*
X040945Y00777D01*
X040894Y007744D01*
X040915Y007765D02*
X04093Y007795D01*
X040915Y007826D01*
X040945Y00781D01*
X040976Y007826D01*
X04096Y007795D01*
X040976Y007765D01*
X040945Y00778D01*
X040915Y007765D01*
X036225Y009754D02*
X036251Y009805D01*
X036225Y009856D01*
X036276Y00983D01*
X036327Y009856D01*
X036302Y009805D01*
X036327Y009754D01*
X036276Y009779D01*
X036225Y009754D01*
X036246Y009774D02*
X036261Y009805D01*
X036246Y009835D01*
X036276Y00982D01*
X036307Y009835D01*
X036291Y009805D01*
X036307Y009774D01*
X036276Y00979D01*
X036246Y009774D01*
X019254Y012677D02*
X01928Y012728D01*
X019254Y012779D01*
X019305Y012754D01*
X019356Y012779D01*
X019331Y012728D01*
X019356Y012677D01*
X019305Y012703D01*
X019254Y012677D01*
X019275Y012698D02*
X01929Y012728D01*
X019275Y012759D01*
X019305Y012743D01*
X019336Y012759D01*
X019321Y012728D01*
X019336Y012698D01*
X019305Y012713D01*
X019275Y012698D01*
X021427Y012332D02*
X021452Y012383D01*
X021427Y012434D01*
X021477Y012408D01*
X021528Y012434D01*
X021503Y012383D01*
X021528Y012332D01*
X021477Y012358D01*
X021427Y012332D01*
X021447Y012353D02*
X021462Y012383D01*
X021447Y012413D01*
X021477Y012398D01*
X021508Y012413D01*
X021493Y012383D01*
X021508Y012353D01*
X021477Y012368D01*
X021447Y012353D01*
X028227Y002D02*
X028252Y00205D01*
X028227Y002101D01*
X028278Y002076D01*
X028329Y002101D01*
X028303Y00205D01*
X028329Y002D01*
X028278Y002025D01*
X028227Y002D01*
X028247Y00202D02*
X028263Y00205D01*
X028247Y002081D01*
X028278Y002066D01*
X028308Y002081D01*
X028293Y00205D01*
X028308Y00202D01*
X028278Y002035D01*
X028247Y00202D01*
X030298Y003197D02*
X030323Y003248D01*
X030298Y003299D01*
X030348Y003273D01*
X030399Y003299D01*
X030374Y003248D01*
X030399Y003197D01*
X030348Y003223D01*
X030298Y003197D01*
X030318Y003218D02*
X030333Y003248D01*
X030318Y003278D01*
X030348Y003263D01*
X030379Y003278D01*
X030364Y003248D01*
X030379Y003218D01*
X030348Y003233D01*
X030318Y003218D01*
X034439Y003197D02*
X034464Y003248D01*
X034439Y003299D01*
X03449Y003273D01*
X03454Y003299D01*
X034515Y003248D01*
X03454Y003197D01*
X03449Y003223D01*
X034439Y003197D01*
X034459Y003218D02*
X034474Y003248D01*
X034459Y003278D01*
X03449Y003263D01*
X03452Y003278D01*
X034505Y003248D01*
X03452Y003218D01*
X03449Y003233D01*
X034459Y003218D01*
X034277Y003319D02*
X034302Y00337D01*
X034277Y003421D01*
X034327Y003395D01*
X034378Y003421D01*
X034353Y00337D01*
X034378Y003319D01*
X034327Y003344D01*
X034277Y003319D01*
X034297Y003339D02*
X034312Y00337D01*
X034297Y0034D01*
X034327Y003385D01*
X034358Y0034D01*
X034343Y00337D01*
X034358Y003339D01*
X034327Y003355D01*
X034297Y003339D01*
X030399Y003319D02*
X030425Y00337D01*
X030399Y003421D01*
X03045Y003395D01*
X030501Y003421D01*
X030475Y00337D01*
X030501Y003319D01*
X03045Y003344D01*
X030399Y003319D01*
X03042Y003339D02*
X030435Y00337D01*
X03042Y0034D01*
X03045Y003385D01*
X03048Y0034D01*
X030465Y00337D01*
X03048Y003339D01*
X03045Y003355D01*
X03042Y003339D01*
X029729Y002426D02*
X029755Y002477D01*
X029729Y002527D01*
X02978Y002502D01*
X029831Y002527D01*
X029805Y002477D01*
X029831Y002426D01*
X02978Y002451D01*
X029729Y002426D01*
X02975Y002446D02*
X029765Y002477D01*
X02975Y002507D01*
X02978Y002492D01*
X029811Y002507D01*
X029795Y002477D01*
X029811Y002446D01*
X02978Y002461D01*
X02975Y002446D01*
X033237Y002552D02*
X033262Y002602D01*
X033237Y002653D01*
X033288Y002628D01*
X033339Y002653D01*
X033313Y002602D01*
X033339Y002552D01*
X033288Y002577D01*
X033237Y002552D01*
X033257Y002572D02*
X033273Y002602D01*
X033257Y002633D01*
X033288Y002618D01*
X033318Y002633D01*
X033303Y002602D01*
X033318Y002572D01*
X033288Y002587D01*
X033257Y002572D01*
X033038Y004781D02*
X033064Y004831D01*
X033038Y004882D01*
X033089Y004857D01*
X03314Y004882D01*
X033114Y004831D01*
X03314Y004781D01*
X033089Y004806D01*
X033038Y004781D01*
X033059Y004801D02*
X033074Y004831D01*
X033059Y004862D01*
X033089Y004847D01*
X033119Y004862D01*
X033104Y004831D01*
X033119Y004801D01*
X033089Y004816D01*
X033059Y004801D01*
X021021Y002142D02*
X021046Y002192D01*
X021021Y002243D01*
X021071Y002218D01*
X021122Y002243D01*
X021097Y002192D01*
X021122Y002142D01*
X021071Y002167D01*
X021021Y002142D01*
X021041Y002162D02*
X021056Y002192D01*
X021041Y002223D01*
X021071Y002208D01*
X021102Y002223D01*
X021087Y002192D01*
X021102Y002162D01*
X021071Y002177D01*
X021041Y002162D01*
X023375Y002202D02*
X023401Y002253D01*
X023375Y002304D01*
X023426Y002279D01*
X023477Y002304D01*
X023452Y002253D01*
X023477Y002202D01*
X023426Y002228D01*
X023375Y002202D01*
X023396Y002223D02*
X023411Y002253D01*
X023396Y002284D01*
X023426Y002269D01*
X023457Y002284D01*
X023441Y002253D01*
X023457Y002223D01*
X023426Y002238D01*
X023396Y002223D01*
X040759Y012159D02*
X040785Y01221D01*
X040759Y012261D01*
X04081Y012235D01*
X040861Y012261D01*
X040835Y01221D01*
X040861Y012159D01*
X04081Y012185D01*
X040759Y012159D01*
X04078Y01218D02*
X040795Y01221D01*
X04078Y01224D01*
X04081Y012225D01*
X04084Y01224D01*
X040825Y01221D01*
X04084Y01218D01*
X04081Y012195D01*
X04078Y01218D01*
X010749Y003789D02*
X010775Y00384D01*
X010749Y003891D01*
X0108Y003865D01*
X010851Y003891D01*
X010825Y00384D01*
X010851Y003789D01*
X0108Y003815D01*
X010749Y003789D01*
X01077Y00381D02*
X010785Y00384D01*
X01077Y00387D01*
X0108Y003855D01*
X01083Y00387D01*
X010815Y00384D01*
X01083Y00381D01*
X0108Y003825D01*
X01077Y00381D01*
X029539Y003569D02*
X029565Y00362D01*
X029539Y003671D01*
X02959Y003645D01*
X029641Y003671D01*
X029615Y00362D01*
X029641Y003569D01*
X02959Y003595D01*
X029539Y003569D01*
X02956Y00359D02*
X029575Y00362D01*
X02956Y00365D01*
X02959Y003635D01*
X02962Y00365D01*
X029605Y00362D01*
X02962Y00359D01*
X02959Y003605D01*
X02956Y00359D01*
X029529Y003739D02*
X029555Y00379D01*
X029529Y003841D01*
X02958Y003815D01*
X029631Y003841D01*
X029605Y00379D01*
X029631Y003739D01*
X02958Y003765D01*
X029529Y003739D01*
X02955Y00376D02*
X029565Y00379D01*
X02955Y00382D01*
X02958Y003805D01*
X02961Y00382D01*
X029595Y00379D01*
X02961Y00376D01*
X02958Y003775D01*
X02955Y00376D01*
X010629Y003909D02*
X010654Y00396D01*
X010629Y004011D01*
X01068Y003986D01*
X010731Y004011D01*
X010705Y00396D01*
X010731Y003909D01*
X01068Y003935D01*
X010629Y003909D01*
X010649Y00393D02*
X010665Y00396D01*
X010649Y003991D01*
X01068Y003975D01*
X01071Y003991D01*
X010695Y00396D01*
X01071Y00393D01*
X01068Y003945D01*
X010649Y00393D01*
X028939Y002599D02*
X028965Y00265D01*
X028939Y002701D01*
X02899Y002675D01*
X029041Y002701D01*
X029015Y00265D01*
X029041Y002599D01*
X02899Y002625D01*
X028939Y002599D01*
X02896Y00262D02*
X028975Y00265D01*
X02896Y00268D01*
X02899Y002665D01*
X02902Y00268D01*
X029005Y00265D01*
X02902Y00262D01*
X02899Y002635D01*
X02896Y00262D01*
X028829Y002749D02*
X028855Y0028D01*
X028829Y002851D01*
X02888Y002825D01*
X028931Y002851D01*
X028905Y0028D01*
X028931Y002749D01*
X02888Y002775D01*
X028829Y002749D01*
X02885Y00277D02*
X028865Y0028D01*
X02885Y00283D01*
X02888Y002815D01*
X02891Y00283D01*
X028895Y0028D01*
X02891Y00277D01*
X02888Y002785D01*
X02885Y00277D01*
X028669Y002919D02*
X028695Y00297D01*
X028669Y003021D01*
X02872Y002995D01*
X028771Y003021D01*
X028745Y00297D01*
X028771Y002919D01*
X02872Y002945D01*
X028669Y002919D01*
X02869Y00294D02*
X028705Y00297D01*
X02869Y003D01*
X02872Y002985D01*
X02875Y003D01*
X028735Y00297D01*
X02875Y00294D01*
X02872Y002955D01*
X02869Y00294D01*
X023429Y002489D02*
X023455Y00254D01*
X023429Y002591D01*
X02348Y002565D01*
X023531Y002591D01*
X023505Y00254D01*
X023531Y002489D01*
X02348Y002515D01*
X023429Y002489D01*
X02345Y00251D02*
X023465Y00254D01*
X02345Y00257D01*
X02348Y002555D01*
X02351Y00257D01*
X023495Y00254D01*
X02351Y00251D01*
X02348Y002525D01*
X02345Y00251D01*
X029899Y002979D02*
X029925Y00303D01*
X029899Y003081D01*
X02995Y003055D01*
X030001Y003081D01*
X029975Y00303D01*
X030001Y002979D01*
X02995Y003005D01*
X029899Y002979D01*
X02992Y003D02*
X029935Y00303D01*
X02992Y00306D01*
X02995Y003045D01*
X02998Y00306D01*
X029965Y00303D01*
X02998Y003D01*
X02995Y003015D01*
X02992Y003D01*
X035649Y002479D02*
X035675Y00253D01*
X035649Y002581D01*
X0357Y002555D01*
X035751Y002581D01*
X035725Y00253D01*
X035751Y002479D01*
X0357Y002505D01*
X035649Y002479D01*
X03567Y0025D02*
X035685Y00253D01*
X03567Y00256D01*
X0357Y002545D01*
X03573Y00256D01*
X035715Y00253D01*
X03573Y0025D01*
X0357Y002515D01*
X03567Y0025D01*
X035399Y002399D02*
X035425Y00245D01*
X035399Y002501D01*
X03545Y002475D01*
X035501Y002501D01*
X035475Y00245D01*
X035501Y002399D01*
X03545Y002425D01*
X035399Y002399D01*
X03542Y00242D02*
X035435Y00245D01*
X03542Y00248D01*
X03545Y002465D01*
X03548Y00248D01*
X035465Y00245D01*
X03548Y00242D01*
X03545Y002435D01*
X03542Y00242D01*
X039619Y002409D02*
X039645Y00246D01*
X039619Y002511D01*
X03967Y002485D01*
X039721Y002511D01*
X039695Y00246D01*
X039721Y002409D01*
X03967Y002435D01*
X039619Y002409D01*
X03964Y00243D02*
X039655Y00246D01*
X03964Y00249D01*
X03967Y002475D01*
X0397Y00249D01*
X039685Y00246D01*
X0397Y00243D01*
X03967Y002445D01*
X03964Y00243D01*
X035139Y002309D02*
X035165Y00236D01*
X035139Y002411D01*
X03519Y002385D01*
X035241Y002411D01*
X035215Y00236D01*
X035241Y002309D01*
X03519Y002335D01*
X035139Y002309D01*
X035159Y00233D02*
X035175Y00236D01*
X035159Y00239D01*
X03519Y002375D01*
X03522Y00239D01*
X035205Y00236D01*
X03522Y00233D01*
X03519Y002345D01*
X035159Y00233D01*
X041019Y002289D02*
X041045Y00234D01*
X041019Y002391D01*
X04107Y002365D01*
X041121Y002391D01*
X041095Y00234D01*
X041121Y002289D01*
X04107Y002315D01*
X041019Y002289D01*
X04104Y00231D02*
X041055Y00234D01*
X04104Y00237D01*
X04107Y002355D01*
X0411Y00237D01*
X041085Y00234D01*
X0411Y00231D01*
X04107Y002325D01*
X04104Y00231D01*
X020498Y012395D02*
X020523Y012446D01*
X020498Y012497D01*
X020549Y012471D01*
X020599Y012497D01*
X020574Y012446D01*
X020599Y012395D01*
X020549Y012421D01*
X020498Y012395D01*
X020518Y012416D02*
X020533Y012446D01*
X020518Y012476D01*
X020549Y012461D01*
X020579Y012476D01*
X020564Y012446D01*
X020579Y012416D01*
X020549Y012431D01*
X020518Y012416D01*
X020498Y012217D02*
X020523Y012268D01*
X020498Y012319D01*
X020549Y012294D01*
X020599Y012319D01*
X020574Y012268D01*
X020599Y012217D01*
X020549Y012243D01*
X020498Y012217D01*
X020518Y012238D02*
X020533Y012268D01*
X020518Y012299D01*
X020549Y012283D01*
X020579Y012299D01*
X020564Y012268D01*
X020579Y012238D01*
X020549Y012253D01*
X020518Y012238D01*
X020864Y01175D02*
X020889Y011801D01*
X020864Y011852D01*
X020914Y011826D01*
X020965Y011852D01*
X02094Y011801D01*
X020965Y01175D01*
X020914Y011775D01*
X020864Y01175D01*
X020884Y01177D02*
X020899Y011801D01*
X020884Y011831D01*
X020914Y011816D01*
X020945Y011831D01*
X02093Y011801D01*
X020945Y01177D01*
X020914Y011786D01*
X020884Y01177D01*
X039489Y010845D02*
X039514Y010896D01*
X039489Y010946D01*
X03954Y010921D01*
X03959Y010946D01*
X039565Y010896D01*
X03959Y010845D01*
X03954Y01087D01*
X039489Y010845D01*
X039509Y010865D02*
X039524Y010896D01*
X039509Y010926D01*
X03954Y010911D01*
X03957Y010926D01*
X039555Y010896D01*
X03957Y010865D01*
X03954Y01088D01*
X039509Y010865D01*
X021623Y010665D02*
X021648Y010716D01*
X021623Y010767D01*
X021674Y010742D01*
X021725Y010767D01*
X021699Y010716D01*
X021725Y010665D01*
X021674Y010691D01*
X021623Y010665D01*
X021643Y010686D02*
X021659Y010716D01*
X021643Y010747D01*
X021674Y010732D01*
X021704Y010747D01*
X021689Y010716D01*
X021704Y010686D01*
X021674Y010701D01*
X021643Y010686D01*
X039444Y010582D02*
X039469Y010632D01*
X039444Y010683D01*
X039494Y010658D01*
X039545Y010683D01*
X03952Y010632D01*
X039545Y010582D01*
X039494Y010607D01*
X039444Y010582D01*
X039464Y010602D02*
X039479Y010632D01*
X039464Y010663D01*
X039494Y010648D01*
X039525Y010663D01*
X03951Y010632D01*
X039525Y010602D01*
X039494Y010617D01*
X039464Y010602D01*
X02236Y010988D02*
X022385Y011039D01*
X02236Y01109D01*
X02241Y011064D01*
X022461Y01109D01*
X022436Y011039D01*
X022461Y010988D01*
X02241Y011013D01*
X02236Y010988D01*
X02238Y011008D02*
X022395Y011039D01*
X02238Y011069D01*
X02241Y011054D01*
X022441Y011069D01*
X022426Y011039D01*
X022441Y011008D01*
X02241Y011024D01*
X02238Y011008D01*
X021613Y010315D02*
X021638Y010366D01*
X021613Y010417D01*
X021664Y010391D01*
X021714Y010417D01*
X021689Y010366D01*
X021714Y010315D01*
X021664Y01034D01*
X021613Y010315D01*
X021633Y010335D02*
X021648Y010366D01*
X021633Y010396D01*
X021664Y010381D01*
X021694Y010396D01*
X021679Y010366D01*
X021694Y010335D01*
X021664Y01035D01*
X021633Y010335D01*
X020579Y01095D02*
X020604Y011001D01*
X020579Y011052D01*
X02063Y011026D01*
X020681Y011052D01*
X020655Y011001D01*
X020681Y01095D01*
X02063Y010975D01*
X020579Y01095D01*
X020599Y01097D02*
X020615Y011001D01*
X020599Y011031D01*
X02063Y011016D01*
X02066Y011031D01*
X020645Y011001D01*
X02066Y01097D01*
X02063Y010986D01*
X020599Y01097D01*
X022151Y010526D02*
X022177Y010577D01*
X022151Y010627D01*
X022202Y010602D01*
X022253Y010627D01*
X022228Y010577D01*
X022253Y010526D01*
X022202Y010551D01*
X022151Y010526D01*
X022172Y010546D02*
X022187Y010577D01*
X022172Y010607D01*
X022202Y010592D01*
X022233Y010607D01*
X022217Y010577D01*
X022233Y010546D01*
X022202Y010561D01*
X022172Y010546D01*
X034933Y009931D02*
X034958Y009982D01*
X034933Y010033D01*
X034983Y010008D01*
X035034Y010033D01*
X035009Y009982D01*
X035034Y009931D01*
X034983Y009957D01*
X034933Y009931D01*
X034953Y009952D02*
X034968Y009982D01*
X034953Y010013D01*
X034983Y009997D01*
X035014Y010013D01*
X034999Y009982D01*
X035014Y009952D01*
X034983Y009967D01*
X034953Y009952D01*
X019763Y011426D02*
X019788Y011477D01*
X019763Y011528D01*
X019814Y011502D01*
X019865Y011528D01*
X019839Y011477D01*
X019865Y011426D01*
X019814Y011451D01*
X019763Y011426D01*
X019783Y011446D02*
X019798Y011477D01*
X019783Y011507D01*
X019814Y011492D01*
X019844Y011507D01*
X019829Y011477D01*
X019844Y011446D01*
X019814Y011462D01*
X019783Y011446D01*
X019763Y011226D02*
X019788Y011277D01*
X019763Y011328D01*
X019814Y011302D01*
X019865Y011328D01*
X019839Y011277D01*
X019865Y011226D01*
X019814Y011251D01*
X019763Y011226D01*
X019783Y011246D02*
X019798Y011277D01*
X019783Y011307D01*
X019814Y011292D01*
X019844Y011307D01*
X019829Y011277D01*
X019844Y011246D01*
X019814Y011262D01*
X019783Y011246D01*
X02125Y011346D02*
X021275Y011397D01*
X02125Y011448D01*
X0213Y011422D01*
X021351Y011448D01*
X021326Y011397D01*
X021351Y011346D01*
X0213Y011372D01*
X02125Y011346D01*
X02127Y011367D02*
X021285Y011397D01*
X02127Y011427D01*
X0213Y011412D01*
X021331Y011427D01*
X021316Y011397D01*
X021331Y011367D01*
X0213Y011382D01*
X02127Y011367D01*
X021168Y011201D02*
X021194Y011252D01*
X021168Y011303D01*
X021219Y011278D01*
X02127Y011303D01*
X021245Y011252D01*
X02127Y011201D01*
X021219Y011227D01*
X021168Y011201D01*
X021189Y011222D02*
X021204Y011252D01*
X021189Y011283D01*
X021219Y011267D01*
X02125Y011283D01*
X021234Y011252D01*
X02125Y011222D01*
X021219Y011237D01*
X021189Y011222D01*
X028169Y011321D02*
X028194Y011372D01*
X028169Y011422D01*
X028219Y011397D01*
X02827Y011422D01*
X028245Y011372D01*
X02827Y011321D01*
X028219Y011346D01*
X028169Y011321D01*
X028189Y011341D02*
X028204Y011372D01*
X028189Y011402D01*
X028219Y011387D01*
X02825Y011402D01*
X028235Y011372D01*
X02825Y011341D01*
X028219Y011356D01*
X028189Y011341D01*
X028164Y011158D02*
X028189Y011209D01*
X028164Y01126D01*
X028214Y011234D01*
X028265Y01126D01*
X02824Y011209D01*
X028265Y011158D01*
X028214Y011184D01*
X028164Y011158D01*
X028184Y011179D02*
X028199Y011209D01*
X028184Y011239D01*
X028214Y011224D01*
X028245Y011239D01*
X02823Y011209D01*
X028245Y011179D01*
X028214Y011194D01*
X028184Y011179D01*
X020587Y010582D02*
X020612Y010632D01*
X020587Y010683D01*
X020638Y010658D01*
X020688Y010683D01*
X020663Y010632D01*
X020688Y010582D01*
X020638Y010607D01*
X020587Y010582D01*
X020607Y010602D02*
X020622Y010632D01*
X020607Y010663D01*
X020638Y010648D01*
X020668Y010663D01*
X020653Y010632D01*
X020668Y010602D01*
X020638Y010617D01*
X020607Y010602D01*
X020168Y01079D02*
X020193Y010841D01*
X020168Y010892D01*
X020218Y010866D01*
X020269Y010892D01*
X020244Y010841D01*
X020269Y01079D01*
X020218Y010815D01*
X020168Y01079D01*
X020188Y01081D02*
X020203Y010841D01*
X020188Y010871D01*
X020218Y010856D01*
X020249Y010871D01*
X020234Y010841D01*
X020249Y01081D01*
X020218Y010825D01*
X020188Y01081D01*
X029169Y010338D02*
X029195Y010389D01*
X029169Y010439D01*
X02922Y010414D01*
X029271Y010439D01*
X029246Y010389D01*
X029271Y010338D01*
X02922Y010363D01*
X029169Y010338D01*
X02919Y010358D02*
X029205Y010389D01*
X02919Y010419D01*
X02922Y010404D01*
X029251Y010419D01*
X029235Y010389D01*
X029251Y010358D01*
X02922Y010373D01*
X02919Y010358D01*
X03426Y002428D02*
X034285Y002479D01*
X03426Y00253D01*
X03431Y002504D01*
X034361Y00253D01*
X034336Y002479D01*
X034361Y002428D01*
X03431Y002454D01*
X03426Y002428D01*
X03428Y002449D02*
X034295Y002479D01*
X03428Y00251D01*
X03431Y002494D01*
X034341Y00251D01*
X034326Y002479D01*
X034341Y002449D01*
X03431Y002464D01*
X03428Y002449D01*
X034785Y003063D02*
X034811Y003114D01*
X034785Y003165D01*
X034836Y003139D01*
X034887Y003165D01*
X034861Y003114D01*
X034887Y003063D01*
X034836Y003089D01*
X034785Y003063D01*
X034806Y003084D02*
X034821Y003114D01*
X034806Y003145D01*
X034836Y003129D01*
X034867Y003145D01*
X034851Y003114D01*
X034867Y003084D01*
X034836Y003099D01*
X034806Y003084D01*
X037968Y011643D02*
X037993Y011694D01*
X037968Y011745D01*
X038019Y01172D01*
X03807Y011745D01*
X038044Y011694D01*
X03807Y011643D01*
X038019Y011669D01*
X037968Y011643D01*
X037988Y011664D02*
X038003Y011694D01*
X037988Y011725D01*
X038019Y011709D01*
X038049Y011725D01*
X038034Y011694D01*
X038049Y011664D01*
X038019Y011679D01*
X037988Y011664D01*
X040754Y012629D02*
X04078Y01268D01*
X040754Y01273D01*
X040805Y012705D01*
X040856Y01273D01*
X04083Y01268D01*
X040856Y012629D01*
X040805Y012654D01*
X040754Y012629D01*
X040775Y012649D02*
X04079Y01268D01*
X040775Y01271D01*
X040805Y012695D01*
X040836Y01271D01*
X04082Y01268D01*
X040836Y012649D01*
X040805Y012664D01*
X040775Y012649D01*
X040343Y012629D02*
X040368Y01268D01*
X040343Y01273D01*
X040394Y012705D01*
X040444Y01273D01*
X040419Y01268D01*
X040444Y012629D01*
X040394Y012654D01*
X040343Y012629D01*
X040363Y012649D02*
X040378Y01268D01*
X040363Y01271D01*
X040394Y012695D01*
X040424Y01271D01*
X040409Y01268D01*
X040424Y012649D01*
X040394Y012664D01*
X040363Y012649D01*
X040806Y010193D02*
X040832Y010244D01*
X040806Y010295D01*
X040857Y010269D01*
X040908Y010295D01*
X040883Y010244D01*
X040908Y010193D01*
X040857Y010219D01*
X040806Y010193D01*
X040827Y010214D02*
X040842Y010244D01*
X040827Y010275D01*
X040857Y010259D01*
X040888Y010275D01*
X040872Y010244D01*
X040888Y010214D01*
X040857Y010229D01*
X040827Y010214D01*
X038707Y010442D02*
X038732Y010493D01*
X038707Y010544D01*
X038758Y010518D01*
X038809Y010544D01*
X038783Y010493D01*
X038809Y010442D01*
X038758Y010467D01*
X038707Y010442D01*
X038727Y010462D02*
X038743Y010493D01*
X038727Y010523D01*
X038758Y010508D01*
X038788Y010523D01*
X038773Y010493D01*
X038788Y010462D01*
X038758Y010478D01*
X038727Y010462D01*
X038545Y01045D02*
X03857Y0105D01*
X038545Y010551D01*
X038595Y010526D01*
X038646Y010551D01*
X038621Y0105D01*
X038646Y01045D01*
X038595Y010475D01*
X038545Y01045D01*
X038565Y01047D02*
X03858Y0105D01*
X038565Y010531D01*
X038595Y010516D01*
X038626Y010531D01*
X038611Y0105D01*
X038626Y01047D01*
X038595Y010485D01*
X038565Y01047D01*
X033056Y002705D02*
X033081Y002756D01*
X033056Y002807D01*
X033106Y002781D01*
X033157Y002807D01*
X033132Y002756D01*
X033157Y002705D01*
X033106Y002731D01*
X033056Y002705D01*
X033076Y002725D02*
X033091Y002756D01*
X033076Y002786D01*
X033106Y002771D01*
X033137Y002786D01*
X033122Y002756D01*
X033137Y002725D01*
X033106Y002741D01*
X033076Y002725D01*
X041135Y012101D02*
X041161Y012151D01*
X041135Y012202D01*
X041186Y012177D01*
X041237Y012202D01*
X041211Y012151D01*
X041237Y012101D01*
X041186Y012126D01*
X041135Y012101D01*
X041156Y012121D02*
X041171Y012151D01*
X041156Y012182D01*
X041186Y012167D01*
X041217Y012182D01*
X041201Y012151D01*
X041217Y012121D01*
X041186Y012136D01*
X041156Y012121D01*
X03986Y012123D02*
X039886Y012174D01*
X03986Y012225D01*
X039911Y0122D01*
X039962Y012225D01*
X039936Y012174D01*
X039962Y012123D01*
X039911Y012149D01*
X03986Y012123D01*
X039881Y012144D02*
X039896Y012174D01*
X039881Y012205D01*
X039911Y012189D01*
X039942Y012205D01*
X039926Y012174D01*
X039942Y012144D01*
X039911Y012159D01*
X039881Y012144D01*
X039708Y012126D02*
X039733Y012177D01*
X039708Y012228D01*
X039759Y012202D01*
X039809Y012228D01*
X039784Y012177D01*
X039809Y012126D01*
X039759Y012151D01*
X039708Y012126D01*
X039728Y012146D02*
X039743Y012177D01*
X039728Y012207D01*
X039759Y012192D01*
X039789Y012207D01*
X039774Y012177D01*
X039789Y012146D01*
X039759Y012162D01*
X039728Y012146D01*
X039726Y012517D02*
X039751Y012568D01*
X039726Y012619D01*
X039776Y012593D01*
X039827Y012619D01*
X039802Y012568D01*
X039827Y012517D01*
X039776Y012543D01*
X039726Y012517D01*
X039746Y012537D02*
X039761Y012568D01*
X039746Y012598D01*
X039776Y012583D01*
X039807Y012598D01*
X039792Y012568D01*
X039807Y012537D01*
X039776Y012553D01*
X039746Y012537D01*
X039718Y012347D02*
X039743Y012398D01*
X039718Y012449D01*
X039769Y012423D01*
X03982Y012449D01*
X039794Y012398D01*
X03982Y012347D01*
X039769Y012372D01*
X039718Y012347D01*
X039738Y012367D02*
X039754Y012398D01*
X039738Y012428D01*
X039769Y012413D01*
X039799Y012428D01*
X039784Y012398D01*
X039799Y012367D01*
X039769Y012382D01*
X039738Y012367D01*
X040571Y011704D02*
X040597Y011755D01*
X040571Y011806D01*
X040622Y011781D01*
X040673Y011806D01*
X040648Y011755D01*
X040673Y011704D01*
X040622Y01173D01*
X040571Y011704D01*
X040592Y011725D02*
X040607Y011755D01*
X040592Y011786D01*
X040622Y01177D01*
X040653Y011786D01*
X040637Y011755D01*
X040653Y011725D01*
X040622Y01174D01*
X040592Y011725D01*
X038575Y002813D02*
X0386Y002864D01*
X038575Y002915D01*
X038625Y002889D01*
X038676Y002915D01*
X038651Y002864D01*
X038676Y002813D01*
X038625Y002838D01*
X038575Y002813D01*
X038595Y002833D02*
X03861Y002864D01*
X038595Y002894D01*
X038625Y002879D01*
X038656Y002894D01*
X038641Y002864D01*
X038656Y002833D01*
X038625Y002849D01*
X038595Y002833D01*
X017332Y002461D02*
X017357Y002512D01*
X017332Y002563D01*
X017382Y002538D01*
X017433Y002563D01*
X017408Y002512D01*
X017433Y002461D01*
X017382Y002487D01*
X017332Y002461D01*
X017352Y002482D02*
X017367Y002512D01*
X017352Y002543D01*
X017382Y002528D01*
X017413Y002543D01*
X017398Y002512D01*
X017413Y002482D01*
X017382Y002497D01*
X017352Y002482D01*
X040415Y008596D02*
X040441Y008646D01*
X040415Y008697D01*
X040466Y008672D01*
X040517Y008697D01*
X040491Y008646D01*
X040517Y008596D01*
X040466Y008621D01*
X040415Y008596D01*
X040436Y008616D02*
X040451Y008646D01*
X040436Y008677D01*
X040466Y008662D01*
X040496Y008677D01*
X040481Y008646D01*
X040496Y008616D01*
X040466Y008631D01*
X040436Y008616D01*
X042452Y008555D02*
X042478Y008606D01*
X042452Y008657D01*
X042503Y008631D01*
X042554Y008657D01*
X042528Y008606D01*
X042554Y008555D01*
X042503Y00858D01*
X042452Y008555D01*
X042473Y008575D02*
X042488Y008606D01*
X042473Y008636D01*
X042503Y008621D01*
X042534Y008636D01*
X042518Y008606D01*
X042534Y008575D01*
X042503Y00859D01*
X042473Y008575D01*
X034624Y006952D02*
X034649Y007003D01*
X034624Y007054D01*
X034675Y007028D01*
X034726Y007054D01*
X0347Y007003D01*
X034726Y006952D01*
X034675Y006978D01*
X034624Y006952D01*
X034644Y006973D02*
X03466Y007003D01*
X034644Y007033D01*
X034675Y007018D01*
X034705Y007033D01*
X03469Y007003D01*
X034705Y006973D01*
X034675Y006988D01*
X034644Y006973D01*
X041662Y010257D02*
X041688Y010308D01*
X041662Y010358D01*
X041713Y010333D01*
X041764Y010358D01*
X041739Y010308D01*
X041764Y010257D01*
X041713Y010282D01*
X041662Y010257D01*
X041683Y010277D02*
X041698Y010308D01*
X041683Y010338D01*
X041713Y010323D01*
X041744Y010338D01*
X041728Y010308D01*
X041744Y010277D01*
X041713Y010292D01*
X041683Y010277D01*
X041769Y009901D02*
X041794Y009952D01*
X041769Y010003D01*
X04182Y009977D01*
X041871Y010003D01*
X041845Y009952D01*
X041871Y009901D01*
X04182Y009927D01*
X041769Y009901D01*
X041789Y009921D02*
X041805Y009952D01*
X041789Y009982D01*
X04182Y009967D01*
X04185Y009982D01*
X041835Y009952D01*
X04185Y009921D01*
X04182Y009937D01*
X041789Y009921D01*
D112*
X028917Y010103D02*
G03*
X028917Y010103I-000051J0D01*
G01*
X029597D02*
G03*
X029597Y010103I-000051J0D01*
G01*
X036235Y011452D02*
G03*
X036235Y011452I-000051J0D01*
G01*
Y011952D02*
G03*
X036235Y011952I-000051J0D01*
G01*
X037685Y011452D02*
G03*
X037685Y011452I-000051J0D01*
G01*
Y011702D02*
G03*
X037685Y011702I-000051J0D01*
G01*
Y011952D02*
G03*
X037685Y011952I-000051J0D01*
G01*
D113*
X036215Y011452D02*
G03*
X036215Y011452I-00003J0D01*
G01*
Y011952D02*
G03*
X036215Y011952I-00003J0D01*
G01*
X037665Y011452D02*
G03*
X037665Y011452I-00003J0D01*
G01*
Y011702D02*
G03*
X037665Y011702I-00003J0D01*
G01*
Y011952D02*
G03*
X037665Y011952I-00003J0D01*
G01*
M02*
