M48
;Layer_Color=6321
;FILE_FORMAT=4:4
METRIC
;TYPE=NON_PLATED
T8F00S00C0.9000
T9F00S00C1.7500
T10F00S00C2.0000
T11F00S00C3.0000
T12F00S00C3.0480
T13F00S00C3.9878
%
T08
X02886659Y01010336
X02954659
T09
X00068150Y00131400
X00169750
X00305650
X00265800Y00322625
X00164200
X00471900Y00321400
X00573500
X00661900
X00763500
X00644750Y00131400
X00543150
X00407250
X00851900Y00321400
X00953500
X01041900
X01143500
X01231900
X01333500
X01421900
X01523500
X01357250Y00131400
X01255650
X01611900Y00321400
X01713500
X01801900
X01903500
X01968150Y00131400
X02069750
X02205650
X02307250
X02283500Y00321400
X02181900
X02093500
X01991900
X02538150
X02639750
X02680650Y00131400
X02544750
X02443150
X02782250
X02944900
X03046500
X03134900
Y00321400
X03236500
Y00131400
X03323900
X03425500
X03566400Y00321400
X03668000
X03756400
X03858000
X03946400
Y00131400
X03763000
X03661400
X04048000
X04187200Y00175600
Y00277200
X04048000Y00321400
Y00511400
X04187200Y00555600
Y00657200
X04048000Y00701400
X03946400
X03858000
X03756400
X03668000
Y00511400
X03756400
X03858000
X03946400
X03566400
Y00701400
X03426500
X03324900
X03236500
X03134900
X03046500
X02944900
X02758500Y00702400
X02656900
X02521000
X02419400
X02585650Y00511400
X02687250
X02378500
X02276900
X02188500
X02086900
X01998500
X02039400Y00702400
X02141000
X02229400
X02331000
X01951000
X01849400
X01761000
X01659400
X01618500Y00511400
X01706900
X01808500
X01896900
X01516900
X01428500
X01326900
X01238500
X01279400Y00702400
X01191000
X01381000
X01469400
X01571000
X01089400
X01001000
X00899400
X00811000
X00858500Y00511400
X00946900
X01048500
X01136900
X00756900
X00668500
X00566900
X00478500
X00519400Y00701400
X00431000
X00621000
X00709400Y00702400
X00329400Y00701400
X00193500
X00091900
X00115700Y00511750
X00217300
X00376900Y00511400
X00336000Y00891400
X00234400
X00146000
X00044400
Y01170200
X00146000
X00424400
X00526000
X00614400
X00716000
Y00892400
X00614400
X00526000Y00891400
X00424400
X00804400
X00906000
X00994400
X01096000
X01184400
X01096000Y01170200
X00994400
X00906000
X00804400
X01279400
X01381000
X01469400
X01571000
X01564400Y00891400
X01476000
X01374400
X01286000
X01666000
X01754400
X01856000
X01944400
X01951000Y01170200
X01849400
X01761000
X01659400
X02134400
X02236000
X02324400
Y00891400
X02236000
X02134400
X02046000
X02426000
X02609400
X02711000
X02704400Y01170200
X02616000
X02514400
X02426000
X02806000
X02944900
X03046500
X03134900
Y00891400
X03046500
X02944900
X03236500
X03324900
X03426500
X03566400
X03426500Y01170200
X03324900
X03236500
X03668000Y00891400
X03756400
X03858000
X03946400
X04048000
X04136400
X04238000
T10
X00235966Y00053848
X01048750Y00130000
X01548750
X04246372Y00038608
X04119118Y00413766
X02446020Y00512318
X00040132Y00448564
X04091686Y00996442
T11
X03411220Y00479298
X02997962Y00543560
X00175200Y01031400
X01735200
X03298200
T12
X00095620Y00392475
X00334380
X00806450Y00201250
X01806450
X02469570Y00391250
X02708330
X03592820Y00201250
X03831580
X04257050Y00107020
Y00345780
Y00487020
Y00725780
X02755830Y00581250
X02517070
X02540820Y00961250
X02779580
T13
X00118950Y00131400
X00095620Y00240075
X00215000Y00322625
X00334380Y00240075
X00356450Y00131400
X00593950
X00522700Y00321400
X00712700
X00902700
X01092700
X00806450Y00048850
X01306450Y00131400
X01282700Y00321400
X01472700
X01662700
X01852700
X01806450Y00048850
X02018950Y00131400
X02042700Y00321400
X02232700
X02256450Y00131400
X02493950
X02469570Y00238850
X02588950Y00321400
X02708330Y00238850
X02731450Y00131400
X02995700
X03185700
X03374700
X03185700Y00321400
X03617200
X03807200
X03712200Y00131400
X03592820Y00048850
X03831580
X03997200Y00131400
X04104650Y00107020
X04187200Y00226400
X04104650Y00345780
X03997200Y00321400
Y00511400
X04104650Y00487020
X04187200Y00606400
X04104650Y00725780
X03997200Y00701400
X03807200
Y00511400
X03617200
Y00701400
X03375700
X03185700
X02995700
X02707700Y00702400
X02470200
X02517070Y00428850
X02636450Y00511400
X02755830Y00428850
X02327700Y00511400
X02137700
X02090200Y00702400
X02280200
X01900200
X01710200
X01757700Y00511400
X01947700
X01567700
X01377700
X01330200Y00702400
X01520200
X01140200
X00950200
X00997700Y00511400
X01187700
X00807700
X00617700
X00427700
X00570200Y00701400
X00760200Y00702400
X00380200Y00701400
X00142700
X00166500Y00511750
X00095200Y00891400
X00285200
X00095200Y01170200
X00475200
X00665200
Y00892400
X00475200Y00891400
X00855200
X01045200
Y01170200
X00855200
X01330200
X01520200
X01425200Y00891400
X01235200
X01615200
X01805200
X01900200Y01170200
X01710200
X02185200
X02375200
Y00891400
X02185200
X01995200
X02540820Y00808850
X02660200Y00891400
X02755200Y01170200
X02565200
X02995700
Y00891400
X02779580Y00808850
X03185700Y00891400
X03375700
Y01170200
X03185700
X03617200Y00891400
X03807200
X03997200
X04187200
M30
