M48
;Layer_Color=6321
;FILE_FORMAT=4:4
METRIC
;TYPE=NON_PLATED
T8F00S00C0.9000
T9F00S00C1.7500
T10F00S00C2.0000
T11F00S00C3.0000
T12F00S00C3.0480
T13F00S00C3.9878
%
T08
X02886659Y01010336
X02954659
T09
X00073210Y00129480
X00174810
X00311310
X00270050Y00319960
X00168450
X00478025Y00319900
X00579625
X00668525
X00770125
X00651062Y00129400
X00549463
X00412910Y00129480
X00859025Y00319900
X00960625
X01049525
X01151125
X01240025
X01341625
X01430525
X01532125
X01365437Y00129400
X01263838
X01621025Y00319900
X01722625
X01811525
X01913125
X01978212Y00129400
X02079812
X02216337
X02317937
X02294125Y00319900
X02192525
X02103625
X02002025
X02549713
X02651313
X02692588Y00129400
X02556062
X02454462
X02794188
X02958775Y00129460
X03060375
X03149255
Y00319940
X03250855
Y00129460
X03338735
X03440335
X03676985Y00129380
X03778585
X03962735
Y00319880
X03873835
X03772235
X03683335Y00319892
X03581735
X04064335Y00319880
X04204035Y00275430
Y00173830
X04064335Y00129380
X04064327Y00510388
X04204023Y00554836
Y00656436
X04064335Y00700880
X03962735
X03873831Y00700884
X03772231
X03683335
X03581735
Y00510388
X03683335
X03772231
X03873831
X03962727
X03441335Y00700900
X03339735
X03250855
X03149255
X03060375
X02958775
X02770375
X02668775
X02532250
X02430650
X02389375Y00510400
X02597338
X02698937
X02287775
X02198875
X02097275
X02008375
X02049650Y00700900
X02151250
X02240150
X02341750
X01960750
X01859150
X01770250
X01668650
X01627375Y00510400
X01716275
X01817875
X01906775
X01525775
X01436875
X01335275
X01246375
X01287650Y00700900
X01198750
X01389250
X01478150
X01579750
X01097150
X01008250
X00906650
X00817750
X00865375Y00510400
X00954275
X01055875
X01144775
X00763775
X00674875
X00573275
X00484375
X00525650Y00700900
X00436750
X00627250
X00716150
X00335150
X00198625
X00097025
X00120837Y00510400
X00222437
X00382775
X00341500Y00891400
X00239900
X00151000
X00049400
Y01170200
X00151000
X00430400
X00532000
X00620900
X00722500
Y00891400
X00620900
X00532000
X00430400
X00811400
X00913000
X01001900
X01103500
Y01170200
X01001900
X00913000
X00811400
X01287650
X01389250
X01478150
X01579750
X01573400Y00891400
X01484500
X01382900
X01294000
X01192400
X01675000
X01763900
X01865500
X01954400
X01960750Y01170200
X01859150
X01770250
X01668650
X02144900
X02246500
X02335400
Y00891400
X02246500
X02144900
X02056000
X02437000
X02621150
X02722750
X02716400Y01170200
X02627500
X02525900
X02437000
X02818000
X02958400
X03060000
X03148880
X03149255Y00891380
X03060375
X02958775
X03250855
X03339735
X03441335
X03440960Y01170200
X03339360
X03250480
X03581735Y00891380
X03683335
X03774155
X03875755
X03962735
X04064335
X04153235
X04254835
T10
X00243060Y00058050
X01048750Y00130000
X01548750
X02859278Y00112014
X04246372Y00038608
X04119118Y00413766
X02446020Y00512318
X00040132Y00448564
X04123182Y01018540
T11
X03411220Y00479298
X02997962Y00543560
X00175200Y01031400
X01745996Y01031494
X03298200Y01031400
T12
X00099870Y00389810
X00338630
X00814638Y00199250
X01814637
X02481133Y00389750
X02719893
X03608405Y00199230
X03847165
X04273885Y00105250
Y00344010
X04273873Y00486256
Y00725016
X02767517Y00580250
X02528757
X02552570Y00961250
X02791330
T13
X00124010Y00129480
X00099870Y00237410
X00219250Y00319960
X00338630Y00237410
X00362110Y00129480
X00600262Y00129400
X00528825Y00319900
X00719325
X00909825
X01100325
X00814638Y00046850
X01314637Y00129400
X01290825Y00319900
X01481325
X01671825
X01862325
X01814637Y00046850
X02029012Y00129400
X02052825Y00319900
X02243325
X02267137Y00129400
X02505262
X02481133Y00237350
X02600512Y00319900
X02719893Y00237350
X02743387Y00129400
X03009575Y00129460
X03200055
X03389535
X03200055Y00319940
X03632535Y00319892
X03823035Y00319880
X03727785Y00129380
X03847165Y00046830
X03608405
X04013535Y00129380
X04121485Y00105250
X04204035Y00224630
X04121485Y00344010
X04013535Y00319880
X04013527Y00510388
X04121473Y00486256
X04204023Y00605636
X04121473Y00725016
X04013535Y00700880
X03823031Y00700884
Y00510388
X03632535
Y00700884
X03390535Y00700900
X03200055
X03009575
X02719575
X02481450
X02528757Y00427850
X02648138Y00510400
X02767517Y00427850
X02338575Y00510400
X02148075
X02100450Y00700900
X02290950
X01909950
X01719450
X01767075Y00510400
X01957575
X01576575
X01386075
X01195575
X01338450Y00700900
X01528950
X01147950
X00957450
X01005075Y00510400
X00814575
X00624075
X00433575
X00576450Y00700900
X00766950
X00385950
X00147825
X00171637Y00510400
X00100200Y00891400
X00290700
X00100200Y01170200
X00481200
X00671700
Y00891400
X00481200
X00862200
X01052700
Y01170200
X00862200
X01338450
X01528950
X01433700Y00891400
X01243200
X01624200
X01814700
X01719450Y01170200
X01909950
X02195700
Y00891400
X02005200
X02386200
X02552570Y00808850
X02671950Y00891400
X02576700Y01170200
X02386200
X02767200
X03009200
X03009575Y00891380
X02791330Y00808850
X03200055Y00891380
X03390535
X03390160Y01170200
X03199680
X03632535Y00891380
X03824955
X04013535
X04204035
M30
