G04 Layer_Color=8150272*
%FSTAX42Y42*%
%MOMM*%
G71*
G01*
G75*
%ADD25C,3.05*%
%ADD47R,3.40X1.50*%
%ADD48R,3.50X1.00*%
%ADD64R,1.50X1.65*%
%ADD65R,1.63X1.63*%
%ADD67C,2.10*%
%ADD68C,3.10*%
%ADD69C,2.00*%
%ADD70R,2.00X2.00*%
%ADD71C,1.85*%
%ADD72C,4.09*%
%ADD73C,3.30*%
%ADD74C,4.10*%
%ADD75C,1.85*%
%ADD76R,2.00X2.00*%
%ADD77C,3.15*%
%ADD78O,1.10X1.65*%
%ADD79O,1.35X1.05*%
%ADD80C,1.88*%
%ADD81C,3.60*%
%ADD82C,1.00*%
%ADD83C,1.37*%
%ADD84R,1.50X0.90*%
%ADD85R,1.50X0.50*%
%ADD86R,0.50X1.50*%
%ADD87R,0.46X1.50*%
%ADD88R,1.10X0.50*%
%ADD89R,1.10X1.10*%
%ADD90R,1.32X1.01*%
%ADD91R,1.60X1.65*%
%ADD92R,0.50X1.50*%
%ADD93R,0.46X1.50*%
%ADD94R,1.60X1.50*%
%ADD95R,0.75X1.20*%
%ADD96R,1.10X1.50*%
%ADD97R,0.70X1.60*%
%ADD98R,1.65X1.50*%
%ADD99R,2.10X2.10*%
%ADD100R,0.48X1.24*%
%ADD101R,1.50X1.60*%
%ADD102R,1.60X1.65*%
%ADD103R,1.10X1.90*%
%ADD104R,1.01X1.32*%
%ADD105R,1.73X0.71*%
%ADD106R,0.75X1.00*%
%ADD107R,1.10X1.10*%
%ADD108R,1.30X1.50*%
%ADD109R,1.12X1.91*%
D25*
X020066Y01016D02*
D03*
X009652Y000508D02*
D03*
X041463Y000457D02*
D03*
X042418Y010414D02*
D03*
D47*
X027208Y010121D02*
D03*
Y010791D02*
D03*
D48*
X027763Y010356D02*
D03*
Y010556D02*
D03*
D64*
X026668Y007937D02*
D03*
X026478D02*
D03*
X017654Y008201D02*
D03*
X017465D02*
D03*
X039348Y011733D02*
D03*
X039538D02*
D03*
X039718Y010896D02*
D03*
X039908D02*
D03*
X039718Y010636D02*
D03*
X039908D02*
D03*
X037927Y011194D02*
D03*
X038117D02*
D03*
X037927Y012214D02*
D03*
X038117D02*
D03*
X028718Y006066D02*
D03*
X028528D02*
D03*
X028912Y007282D02*
D03*
X029102D02*
D03*
X028912Y008819D02*
D03*
X029102D02*
D03*
X029874Y010358D02*
D03*
X030064D02*
D03*
X041827Y012648D02*
D03*
X041636D02*
D03*
X001983Y008242D02*
D03*
X001793D02*
D03*
X004277D02*
D03*
X004087D02*
D03*
X006165D02*
D03*
X005975D02*
D03*
X011422Y008221D02*
D03*
X011232D02*
D03*
X013493D02*
D03*
X013303D02*
D03*
X015218D02*
D03*
X015029D02*
D03*
X0194Y008201D02*
D03*
X01921D02*
D03*
X021166D02*
D03*
X020976D02*
D03*
X022831D02*
D03*
X022641D02*
D03*
X030687D02*
D03*
X030497D02*
D03*
X032677D02*
D03*
X032486D02*
D03*
X034443D02*
D03*
X034253D02*
D03*
X036858D02*
D03*
X036668D02*
D03*
X038949D02*
D03*
X038759D02*
D03*
X040654Y007958D02*
D03*
X040464D02*
D03*
X042035Y004141D02*
D03*
X041845D02*
D03*
X024455Y008201D02*
D03*
X024265D02*
D03*
X04163Y01107D02*
D03*
X04182D02*
D03*
X041636Y012388D02*
D03*
X041827D02*
D03*
X039339Y012431D02*
D03*
X039529D02*
D03*
X039525Y01264D02*
D03*
X039335D02*
D03*
X021429Y010905D02*
D03*
X021619D02*
D03*
X021419Y01016D02*
D03*
X021609D02*
D03*
X007748Y008242D02*
D03*
X007558D02*
D03*
X009616Y008221D02*
D03*
X009426D02*
D03*
X034517Y002943D02*
D03*
X034707D02*
D03*
X034517Y002639D02*
D03*
X034707D02*
D03*
X028726Y003419D02*
D03*
X028536D02*
D03*
X028721Y003802D02*
D03*
X028531D02*
D03*
D65*
X02189Y010905D02*
D03*
X022118D02*
D03*
X02189Y01016D02*
D03*
X022118D02*
D03*
D67*
X042464Y000386D02*
D03*
X040917Y009964D02*
D03*
X015488Y0013D02*
D03*
X010488D02*
D03*
X000401Y004486D02*
D03*
X041191Y004138D02*
D03*
X00236Y000538D02*
D03*
X02446Y005123D02*
D03*
D68*
X034112Y004793D02*
D03*
X042126Y009427D02*
D03*
X02998Y005436D02*
D03*
X042385Y00581D02*
D03*
Y00201D02*
D03*
X002404Y003739D02*
D03*
X008806Y009427D02*
D03*
X034011D02*
D03*
X003819Y001827D02*
D03*
X001444D02*
D03*
X027568D02*
D03*
X025193D02*
D03*
X027331Y007537D02*
D03*
X017352Y010314D02*
D03*
X001752D02*
D03*
X032982D02*
D03*
X040226Y001827D02*
D03*
X034001D02*
D03*
X032111D02*
D03*
X030211D02*
D03*
X022818D02*
D03*
X020443D02*
D03*
X006194D02*
D03*
X032111Y003727D02*
D03*
X022581D02*
D03*
X020681D02*
D03*
X018781D02*
D03*
X016881D02*
D03*
X014981D02*
D03*
X013081D02*
D03*
X011181D02*
D03*
X009281D02*
D03*
X007381D02*
D03*
X005481D02*
D03*
X040226D02*
D03*
X038326D02*
D03*
X036426D02*
D03*
X040226Y005627D02*
D03*
X038326D02*
D03*
X036426D02*
D03*
X023531D02*
D03*
X021631D02*
D03*
X019731D02*
D03*
X017831D02*
D03*
X015931D02*
D03*
X014031D02*
D03*
X012131D02*
D03*
X010231D02*
D03*
X008331D02*
D03*
X006431D02*
D03*
X004531D02*
D03*
X001919Y005631D02*
D03*
X040226Y007527D02*
D03*
X038326D02*
D03*
X036426D02*
D03*
X034011D02*
D03*
X032111D02*
D03*
X030211D02*
D03*
X024956Y007537D02*
D03*
X023056D02*
D03*
X021156D02*
D03*
X019256D02*
D03*
X017356D02*
D03*
X015456D02*
D03*
X013556D02*
D03*
X011656D02*
D03*
X009756D02*
D03*
X007856D02*
D03*
X005956Y007527D02*
D03*
X004056D02*
D03*
X001681D02*
D03*
X040226Y009427D02*
D03*
X038326D02*
D03*
X036426D02*
D03*
X032111D02*
D03*
X030211D02*
D03*
X024006D02*
D03*
X022106D02*
D03*
X020206D02*
D03*
X018306D02*
D03*
X016406D02*
D03*
X014506D02*
D03*
X012606D02*
D03*
X010706D02*
D03*
X006906Y009437D02*
D03*
X005006Y009427D02*
D03*
X003106D02*
D03*
X001206D02*
D03*
X034011Y012215D02*
D03*
X032111D02*
D03*
X030211D02*
D03*
X027806D02*
D03*
X025906D02*
D03*
X024006D02*
D03*
X022106D02*
D03*
X019256D02*
D03*
X017356D02*
D03*
X015456D02*
D03*
X013556D02*
D03*
X010706D02*
D03*
X008806D02*
D03*
X006906D02*
D03*
X005006D02*
D03*
X001206D02*
D03*
X013318Y001827D02*
D03*
X026856Y009427D02*
D03*
X026618Y005627D02*
D03*
X026143Y003727D02*
D03*
X037376Y001827D02*
D03*
D69*
X041999Y008406D02*
D03*
X041364Y005937D02*
D03*
Y002137D02*
D03*
X002277Y002718D02*
D03*
X008679Y008406D02*
D03*
X033884D02*
D03*
X003692Y000806D02*
D03*
X001316D02*
D03*
X027442D02*
D03*
X025066D02*
D03*
X027204Y006516D02*
D03*
X040099Y000806D02*
D03*
X033874D02*
D03*
X031984D02*
D03*
X030084D02*
D03*
X022691D02*
D03*
X020316D02*
D03*
X006067D02*
D03*
X031984Y002706D02*
D03*
X022454D02*
D03*
X020554D02*
D03*
X018654D02*
D03*
X016754D02*
D03*
X014854D02*
D03*
X012954D02*
D03*
X011054D02*
D03*
X009154D02*
D03*
X007254D02*
D03*
X005354D02*
D03*
X040099D02*
D03*
X038199D02*
D03*
X036299D02*
D03*
X040099Y004606D02*
D03*
X038199D02*
D03*
X036299D02*
D03*
X023404D02*
D03*
X021504D02*
D03*
X019604D02*
D03*
X017704D02*
D03*
X015804D02*
D03*
X013904D02*
D03*
X012004D02*
D03*
X010104D02*
D03*
X008204D02*
D03*
X006304D02*
D03*
X004404D02*
D03*
X001792Y00461D02*
D03*
X040099Y006506D02*
D03*
X038199D02*
D03*
X036299D02*
D03*
X033884D02*
D03*
X031984D02*
D03*
X030084D02*
D03*
X024829Y006516D02*
D03*
X022929D02*
D03*
X021029D02*
D03*
X019129D02*
D03*
X017229D02*
D03*
X015329D02*
D03*
X013429D02*
D03*
X011529D02*
D03*
X009629D02*
D03*
X007729D02*
D03*
X005829Y006506D02*
D03*
X003929D02*
D03*
X001554D02*
D03*
X040099Y008406D02*
D03*
X038199D02*
D03*
X036299D02*
D03*
X031984D02*
D03*
X030084D02*
D03*
X023879D02*
D03*
X021979D02*
D03*
X020079D02*
D03*
X018179D02*
D03*
X016279D02*
D03*
X014379D02*
D03*
X012479D02*
D03*
X010579D02*
D03*
X006779Y008416D02*
D03*
X004879Y008406D02*
D03*
X002979D02*
D03*
X001079D02*
D03*
X033884Y011194D02*
D03*
X031984D02*
D03*
X030084D02*
D03*
X027679D02*
D03*
X025779D02*
D03*
X023879D02*
D03*
X021979D02*
D03*
X019129D02*
D03*
X017229D02*
D03*
X015329D02*
D03*
X013429D02*
D03*
X010579D02*
D03*
X008679D02*
D03*
X006779D02*
D03*
X004879D02*
D03*
X001079D02*
D03*
X013191Y000806D02*
D03*
X026729Y008406D02*
D03*
X026492Y004606D02*
D03*
X026017Y002706D02*
D03*
X037249Y000806D02*
D03*
D70*
X041745Y008406D02*
D03*
X002023Y002718D02*
D03*
X008425Y008406D02*
D03*
X03363D02*
D03*
X003438Y000806D02*
D03*
X001062D02*
D03*
X027188D02*
D03*
X024812D02*
D03*
X02695Y006516D02*
D03*
X039845Y000806D02*
D03*
X03362D02*
D03*
X03173D02*
D03*
X02983D02*
D03*
X022438D02*
D03*
X020062D02*
D03*
X005812D02*
D03*
X03173Y002706D02*
D03*
X0222D02*
D03*
X0203D02*
D03*
X0184D02*
D03*
X0165D02*
D03*
X0146D02*
D03*
X0127D02*
D03*
X0108D02*
D03*
X0089D02*
D03*
X007D02*
D03*
X0051D02*
D03*
X039845D02*
D03*
X037945D02*
D03*
X036045D02*
D03*
X039845Y004606D02*
D03*
X037945D02*
D03*
X036045D02*
D03*
X02315D02*
D03*
X02125D02*
D03*
X01935D02*
D03*
X01745D02*
D03*
X01555D02*
D03*
X01365D02*
D03*
X01175D02*
D03*
X00985D02*
D03*
X00795D02*
D03*
X00605D02*
D03*
X00415D02*
D03*
X001538Y00461D02*
D03*
X039845Y006506D02*
D03*
X037945D02*
D03*
X036045D02*
D03*
X03363D02*
D03*
X03173D02*
D03*
X02983D02*
D03*
X024575Y006516D02*
D03*
X022675D02*
D03*
X020775D02*
D03*
X018875D02*
D03*
X016975D02*
D03*
X015075D02*
D03*
X013175D02*
D03*
X011275D02*
D03*
X009375D02*
D03*
X007475D02*
D03*
X005575Y006506D02*
D03*
X003675D02*
D03*
X0013D02*
D03*
X039845Y008406D02*
D03*
X037945D02*
D03*
X036045D02*
D03*
X03173D02*
D03*
X02983D02*
D03*
X023625D02*
D03*
X021725D02*
D03*
X019825D02*
D03*
X017925D02*
D03*
X016025D02*
D03*
X014125D02*
D03*
X012225D02*
D03*
X010325D02*
D03*
X006525Y008416D02*
D03*
X004625Y008406D02*
D03*
X002725D02*
D03*
X000825D02*
D03*
X03363Y011194D02*
D03*
X03173D02*
D03*
X02983D02*
D03*
X027425D02*
D03*
X025525D02*
D03*
X023625D02*
D03*
X021725D02*
D03*
X018875D02*
D03*
X016975D02*
D03*
X015075D02*
D03*
X013175D02*
D03*
X010325D02*
D03*
X008425D02*
D03*
X006525D02*
D03*
X004625D02*
D03*
X000825D02*
D03*
X012938Y000806D02*
D03*
X026475Y008406D02*
D03*
X026238Y004606D02*
D03*
X025762Y002706D02*
D03*
X036995Y000806D02*
D03*
D71*
X041364Y008914D02*
D03*
X04238D02*
D03*
X008044D02*
D03*
X00906D02*
D03*
X033249D02*
D03*
X034265D02*
D03*
X003057Y001314D02*
D03*
X004072D02*
D03*
X000682D02*
D03*
X001698D02*
D03*
X026807D02*
D03*
X027823D02*
D03*
X024432D02*
D03*
X025448D02*
D03*
X026569Y007024D02*
D03*
X027585D02*
D03*
X039464Y001314D02*
D03*
X04048D02*
D03*
X033239D02*
D03*
X034255D02*
D03*
X031349D02*
D03*
X032365D02*
D03*
X029449D02*
D03*
X030465D02*
D03*
X022057D02*
D03*
X023073D02*
D03*
X019682D02*
D03*
X020698D02*
D03*
X005431D02*
D03*
X006447D02*
D03*
X031349Y003214D02*
D03*
X032365D02*
D03*
X021819D02*
D03*
X022835D02*
D03*
X019919D02*
D03*
X020935D02*
D03*
X018019D02*
D03*
X019035D02*
D03*
X016119D02*
D03*
X017135D02*
D03*
X014219D02*
D03*
X015235D02*
D03*
X012319D02*
D03*
X013335D02*
D03*
X010419D02*
D03*
X011435D02*
D03*
X008519D02*
D03*
X009535D02*
D03*
X006619D02*
D03*
X007635D02*
D03*
X004719D02*
D03*
X005735D02*
D03*
X039464D02*
D03*
X04048D02*
D03*
X037564D02*
D03*
X03858D02*
D03*
X035664D02*
D03*
X03668D02*
D03*
X039464Y005114D02*
D03*
X04048D02*
D03*
X037564D02*
D03*
X03858D02*
D03*
X035664D02*
D03*
X03668D02*
D03*
X022769D02*
D03*
X023785D02*
D03*
X020869D02*
D03*
X021885D02*
D03*
X018969D02*
D03*
X019985D02*
D03*
X017069D02*
D03*
X018085D02*
D03*
X015169D02*
D03*
X016185D02*
D03*
X013269D02*
D03*
X014285D02*
D03*
X011369D02*
D03*
X012385D02*
D03*
X009469D02*
D03*
X010485D02*
D03*
X007569D02*
D03*
X008585D02*
D03*
X005669D02*
D03*
X006685D02*
D03*
X003769D02*
D03*
X004785D02*
D03*
X001157Y005118D02*
D03*
X002173D02*
D03*
X039464Y007014D02*
D03*
X04048D02*
D03*
X037564D02*
D03*
X03858D02*
D03*
X035664D02*
D03*
X03668D02*
D03*
X033249D02*
D03*
X034265D02*
D03*
X031349D02*
D03*
X032365D02*
D03*
X029449D02*
D03*
X030465D02*
D03*
X024194Y007024D02*
D03*
X02521D02*
D03*
X022294D02*
D03*
X02331D02*
D03*
X020394D02*
D03*
X02141D02*
D03*
X018494D02*
D03*
X01951D02*
D03*
X016594D02*
D03*
X01761D02*
D03*
X014694D02*
D03*
X01571D02*
D03*
X012794D02*
D03*
X01381D02*
D03*
X010894D02*
D03*
X01191D02*
D03*
X008994D02*
D03*
X01001D02*
D03*
X007094D02*
D03*
X00811D02*
D03*
X005194Y007014D02*
D03*
X00621D02*
D03*
X003294D02*
D03*
X00431D02*
D03*
X000919D02*
D03*
X001935D02*
D03*
X039464Y008914D02*
D03*
X04048D02*
D03*
X037564D02*
D03*
X03858D02*
D03*
X035664D02*
D03*
X03668D02*
D03*
X031349D02*
D03*
X032365D02*
D03*
X029449D02*
D03*
X030465D02*
D03*
X023244D02*
D03*
X02426D02*
D03*
X021344D02*
D03*
X02236D02*
D03*
X019444D02*
D03*
X02046D02*
D03*
X017544D02*
D03*
X01856D02*
D03*
X015644D02*
D03*
X01666D02*
D03*
X013744D02*
D03*
X01476D02*
D03*
X011844D02*
D03*
X01286D02*
D03*
X009944D02*
D03*
X01096D02*
D03*
X006144Y008924D02*
D03*
X00716D02*
D03*
X004244Y008914D02*
D03*
X00526D02*
D03*
X002344D02*
D03*
X00336D02*
D03*
X000444D02*
D03*
X00146D02*
D03*
X033249Y011702D02*
D03*
X034265D02*
D03*
X031349D02*
D03*
X032365D02*
D03*
X029449D02*
D03*
X030465D02*
D03*
X027044D02*
D03*
X02806D02*
D03*
X025144D02*
D03*
X02616D02*
D03*
X023244D02*
D03*
X02426D02*
D03*
X021344D02*
D03*
X02236D02*
D03*
X018494D02*
D03*
X01951D02*
D03*
X016594D02*
D03*
X01761D02*
D03*
X014694D02*
D03*
X01571D02*
D03*
X012794D02*
D03*
X01381D02*
D03*
X009944D02*
D03*
X01096D02*
D03*
X008044D02*
D03*
X00906D02*
D03*
X006144D02*
D03*
X00716D02*
D03*
X004244D02*
D03*
X00526D02*
D03*
X000444D02*
D03*
X00146D02*
D03*
X012557Y001314D02*
D03*
X013573D02*
D03*
D72*
X041872Y008914D02*
D03*
X041046Y007258D02*
D03*
Y00487D02*
D03*
Y003458D02*
D03*
Y00107D02*
D03*
X000956Y002401D02*
D03*
X003344D02*
D03*
X008552Y008914D02*
D03*
X033757D02*
D03*
X003565Y001314D02*
D03*
X00119D02*
D03*
X027314D02*
D03*
X02494D02*
D03*
X027077Y007024D02*
D03*
X039972Y001314D02*
D03*
X033747D02*
D03*
X031857D02*
D03*
X029957D02*
D03*
X022565D02*
D03*
X02019D02*
D03*
X00594D02*
D03*
X031857Y003214D02*
D03*
X022327D02*
D03*
X020427D02*
D03*
X018527D02*
D03*
X016627D02*
D03*
X014727D02*
D03*
X012827D02*
D03*
X010927D02*
D03*
X009027D02*
D03*
X007127D02*
D03*
X005227D02*
D03*
X039972D02*
D03*
X038072D02*
D03*
X036172D02*
D03*
X039972Y005114D02*
D03*
X038072D02*
D03*
X036172D02*
D03*
X023277D02*
D03*
X021377D02*
D03*
X019477D02*
D03*
X017577D02*
D03*
X015677D02*
D03*
X013777D02*
D03*
X011877D02*
D03*
X009977D02*
D03*
X008077D02*
D03*
X006177D02*
D03*
X004277D02*
D03*
X001665Y005118D02*
D03*
X039972Y007014D02*
D03*
X038072D02*
D03*
X036172D02*
D03*
X033757D02*
D03*
X031857D02*
D03*
X029957D02*
D03*
X024702Y007024D02*
D03*
X022802D02*
D03*
X020902D02*
D03*
X019002D02*
D03*
X017102D02*
D03*
X015202D02*
D03*
X013302D02*
D03*
X011402D02*
D03*
X009502D02*
D03*
X007602D02*
D03*
X005702Y007014D02*
D03*
X003802D02*
D03*
X001427D02*
D03*
X039972Y008914D02*
D03*
X038072D02*
D03*
X036172D02*
D03*
X031857D02*
D03*
X029957D02*
D03*
X023752D02*
D03*
X021852D02*
D03*
X019952D02*
D03*
X018052D02*
D03*
X016152D02*
D03*
X014252D02*
D03*
X012352D02*
D03*
X010452D02*
D03*
X006652Y008924D02*
D03*
X004752Y008914D02*
D03*
X002852D02*
D03*
X000952D02*
D03*
X033757Y011702D02*
D03*
X031857D02*
D03*
X029957D02*
D03*
X027552D02*
D03*
X025652D02*
D03*
X023752D02*
D03*
X021852D02*
D03*
X019002D02*
D03*
X017102D02*
D03*
X015202D02*
D03*
X013302D02*
D03*
X010452D02*
D03*
X008552D02*
D03*
X006652D02*
D03*
X004752D02*
D03*
X000952D02*
D03*
X018065Y000489D02*
D03*
X008064D02*
D03*
X013065Y001314D02*
D03*
X025408Y008089D02*
D03*
X027796D02*
D03*
X025171Y004288D02*
D03*
X027558D02*
D03*
X024696Y002389D02*
D03*
X027083D02*
D03*
X035928Y000489D02*
D03*
X038316D02*
D03*
D73*
X041504Y009181D02*
D03*
X042139Y006432D02*
D03*
Y002632D02*
D03*
X001782Y003493D02*
D03*
X008184Y009181D02*
D03*
X033389D02*
D03*
X003196Y001581D02*
D03*
X000821D02*
D03*
X026946D02*
D03*
X024571D02*
D03*
X026709Y007291D02*
D03*
X039604Y001581D02*
D03*
X033379D02*
D03*
X031489D02*
D03*
X029589D02*
D03*
X022196D02*
D03*
X019821D02*
D03*
X005571D02*
D03*
X031489Y003481D02*
D03*
X021959D02*
D03*
X020059D02*
D03*
X018159D02*
D03*
X016259D02*
D03*
X014359D02*
D03*
X012459D02*
D03*
X010559D02*
D03*
X008659D02*
D03*
X006759D02*
D03*
X004859D02*
D03*
X039604D02*
D03*
X037704D02*
D03*
X035804D02*
D03*
X039604Y005381D02*
D03*
X037704D02*
D03*
X035804D02*
D03*
X022909D02*
D03*
X021009D02*
D03*
X019109D02*
D03*
X017209D02*
D03*
X015309D02*
D03*
X013409D02*
D03*
X011509D02*
D03*
X009609D02*
D03*
X007709D02*
D03*
X005809D02*
D03*
X003909D02*
D03*
X001297Y005384D02*
D03*
X039604Y007281D02*
D03*
X037704D02*
D03*
X035804D02*
D03*
X033389D02*
D03*
X031489D02*
D03*
X029589D02*
D03*
X024334Y007291D02*
D03*
X022434D02*
D03*
X020534D02*
D03*
X018634D02*
D03*
X016734D02*
D03*
X014834D02*
D03*
X012934D02*
D03*
X011034D02*
D03*
X009134D02*
D03*
X007234D02*
D03*
X005334Y007281D02*
D03*
X003434D02*
D03*
X001059D02*
D03*
X039604Y009181D02*
D03*
X037704D02*
D03*
X035804D02*
D03*
X031489D02*
D03*
X029589D02*
D03*
X023384D02*
D03*
X021484D02*
D03*
X019584D02*
D03*
X017684D02*
D03*
X015784D02*
D03*
X013884D02*
D03*
X011984D02*
D03*
X010084D02*
D03*
X006284Y009191D02*
D03*
X004384Y009181D02*
D03*
X002484D02*
D03*
X000584D02*
D03*
X033389Y011969D02*
D03*
X031489D02*
D03*
X029589D02*
D03*
X027184D02*
D03*
X025284D02*
D03*
X023384D02*
D03*
X021484D02*
D03*
X018634D02*
D03*
X016734D02*
D03*
X014834D02*
D03*
X012934D02*
D03*
X010084D02*
D03*
X008184D02*
D03*
X006284D02*
D03*
X004384D02*
D03*
X000584D02*
D03*
X012696Y001581D02*
D03*
X026234Y009181D02*
D03*
X025996Y005381D02*
D03*
X025521Y003481D02*
D03*
X036754Y001581D02*
D03*
D74*
X041872Y006064D02*
D03*
Y002264D02*
D03*
X00215Y003226D02*
D03*
X026602Y008914D02*
D03*
X026364Y005114D02*
D03*
X025889Y003214D02*
D03*
X037122Y001314D02*
D03*
D75*
X041872Y005556D02*
D03*
Y006572D02*
D03*
Y001756D02*
D03*
Y002772D02*
D03*
X002658Y003226D02*
D03*
X001642D02*
D03*
X02711Y008914D02*
D03*
X026094D02*
D03*
X026873Y005114D02*
D03*
X025857D02*
D03*
X026398Y003214D02*
D03*
X025382D02*
D03*
X03763Y001314D02*
D03*
X036614D02*
D03*
D76*
X041364Y006191D02*
D03*
Y002391D02*
D03*
D77*
X04257Y007258D02*
D03*
Y00487D02*
D03*
Y003458D02*
D03*
Y00107D02*
D03*
X000956Y003925D02*
D03*
X003344D02*
D03*
X018065Y002012D02*
D03*
X008064D02*
D03*
X025408Y009612D02*
D03*
X027796D02*
D03*
X025171Y005812D02*
D03*
X027558D02*
D03*
X024696Y003912D02*
D03*
X027083D02*
D03*
X035928Y002012D02*
D03*
X038316D02*
D03*
D78*
X020747Y012964D02*
D03*
X020047D02*
D03*
D79*
X020647Y012694D02*
D03*
X020147D02*
D03*
D80*
X037635Y011952D02*
D03*
Y011702D02*
D03*
Y011452D02*
D03*
X036185Y011952D02*
D03*
Y011452D02*
D03*
D81*
X036885Y012312D02*
D03*
Y011105D02*
D03*
D82*
X029547Y010103D02*
D03*
X028867D02*
D03*
D83*
X040622Y011755D02*
D03*
X039337Y012832D02*
D03*
X039527Y012832D02*
D03*
X039769Y012398D02*
D03*
X039776Y012568D02*
D03*
X039759Y012177D02*
D03*
X039911Y012174D02*
D03*
X041186Y012151D02*
D03*
X033106Y002756D02*
D03*
X038595Y0105D02*
D03*
X038758Y010493D02*
D03*
X041463Y010117D02*
D03*
X040394Y01268D02*
D03*
X040825Y01267D02*
D03*
X038019Y011694D02*
D03*
X034836Y003114D02*
D03*
X03431Y002479D02*
D03*
X041844Y010142D02*
D03*
X02922Y010389D02*
D03*
X020218Y010841D02*
D03*
X020638Y010632D02*
D03*
X028214Y011209D02*
D03*
X028219Y011372D02*
D03*
X021219Y011252D02*
D03*
X0213Y011397D02*
D03*
X01984Y011267D02*
D03*
X019736Y011389D02*
D03*
X034983Y009982D02*
D03*
X022202Y010577D02*
D03*
X02063Y011001D02*
D03*
X021664Y010366D02*
D03*
X02241Y011039D02*
D03*
X039494Y010632D02*
D03*
X021674Y010716D02*
D03*
X041631Y01031D02*
D03*
X03954Y010896D02*
D03*
X020914Y011801D02*
D03*
X020772Y012327D02*
D03*
X020627Y012464D02*
D03*
X04107Y00234D02*
D03*
X03519Y00236D02*
D03*
X03967Y00246D02*
D03*
X03545Y00245D02*
D03*
X0357Y00253D02*
D03*
X03878Y00302D02*
D03*
X02995Y00303D02*
D03*
X02348Y00254D02*
D03*
X02872Y00297D02*
D03*
X02888Y0028D02*
D03*
X02899Y00265D02*
D03*
X01068Y00396D02*
D03*
X02958Y00379D02*
D03*
X02959Y00362D02*
D03*
X0108Y00384D02*
D03*
X02542Y00483D02*
D03*
X04081Y01221D02*
D03*
X023426Y002253D02*
D03*
X021071Y002192D02*
D03*
X033089Y004831D02*
D03*
X033288Y002602D02*
D03*
X02978Y002477D02*
D03*
X03045Y00337D02*
D03*
X034327D02*
D03*
X03449Y003248D02*
D03*
X030348D02*
D03*
X028278Y00205D02*
D03*
X021477Y012383D02*
D03*
X019305Y012728D02*
D03*
X036276Y009805D02*
D03*
X042346Y008587D02*
D03*
X040945Y007795D02*
D03*
X040295Y008648D02*
D03*
X039788Y009521D02*
D03*
X038874Y009785D02*
D03*
X041453Y012302D02*
D03*
X040275Y012139D02*
D03*
X034618Y006982D02*
D03*
X034839Y00635D02*
D03*
X033924Y010309D02*
D03*
X029525Y011374D02*
D03*
X029522Y011212D02*
D03*
X040838Y011806D02*
D03*
X038113Y011006D02*
D03*
X039256Y011547D02*
D03*
X040278Y012347D02*
D03*
X041278Y012532D02*
D03*
X038781Y012179D02*
D03*
X038976Y012423D02*
D03*
X028885Y003094D02*
D03*
X033183Y003686D02*
D03*
X029202Y0041D02*
D03*
X02826Y006066D02*
D03*
X028214Y003475D02*
D03*
X028146Y010549D02*
D03*
X01734Y002508D02*
D03*
X008092Y002598D02*
D03*
X029002Y00335D02*
D03*
X029416Y003238D02*
D03*
D84*
X041Y01272D02*
D03*
X04008D02*
D03*
D85*
X041Y01179D02*
D03*
Y01242D02*
D03*
Y01235D02*
D03*
Y01228D02*
D03*
Y01221D02*
D03*
Y01214D02*
D03*
Y01207D02*
D03*
Y012D02*
D03*
Y01193D02*
D03*
Y01186D02*
D03*
X04008D02*
D03*
Y01193D02*
D03*
Y012D02*
D03*
Y01207D02*
D03*
Y01214D02*
D03*
Y01221D02*
D03*
Y01228D02*
D03*
Y01235D02*
D03*
Y01242D02*
D03*
Y01249D02*
D03*
Y01256D02*
D03*
Y01263D02*
D03*
Y01179D02*
D03*
Y01172D02*
D03*
D86*
X04096Y01158D02*
D03*
X04089D02*
D03*
X04082D02*
D03*
X04075D02*
D03*
X04068D02*
D03*
X04054D02*
D03*
X04047D02*
D03*
X0404D02*
D03*
X04033D02*
D03*
X04026D02*
D03*
X04019D02*
D03*
X04012D02*
D03*
D87*
X04061D02*
D03*
D88*
X04025Y012665D02*
D03*
Y012525D02*
D03*
D89*
X034712Y012329D02*
D03*
Y012014D02*
D03*
X035342Y008541D02*
D03*
Y008226D02*
D03*
X035119Y008541D02*
D03*
Y008226D02*
D03*
X038623Y012182D02*
D03*
Y012497D02*
D03*
X0095Y012723D02*
D03*
Y012408D02*
D03*
X016138Y012723D02*
D03*
Y012408D02*
D03*
X003471Y012723D02*
D03*
Y012408D02*
D03*
X002213Y012723D02*
D03*
Y012408D02*
D03*
X005704Y012723D02*
D03*
Y012408D02*
D03*
X007612Y012723D02*
D03*
Y012408D02*
D03*
X011409Y012723D02*
D03*
Y012408D02*
D03*
X018047Y012723D02*
D03*
Y012408D02*
D03*
X014251Y012723D02*
D03*
Y012408D02*
D03*
X018534Y012723D02*
D03*
Y012408D02*
D03*
X022797Y012338D02*
D03*
Y012022D02*
D03*
X024705Y012338D02*
D03*
Y012022D02*
D03*
X032805Y012338D02*
D03*
Y012022D02*
D03*
X030897Y012338D02*
D03*
Y012022D02*
D03*
X028501Y012338D02*
D03*
Y012022D02*
D03*
X037129Y009556D02*
D03*
Y009241D02*
D03*
X042346Y008399D02*
D03*
Y008084D02*
D03*
X039017Y009556D02*
D03*
Y009241D02*
D03*
X040945Y008003D02*
D03*
Y008318D02*
D03*
X026593Y012338D02*
D03*
Y012022D02*
D03*
D90*
X014015Y012014D02*
D03*
Y012341D02*
D03*
X015915Y012014D02*
D03*
Y012341D02*
D03*
X020902Y001625D02*
D03*
Y001953D02*
D03*
X023277Y001625D02*
D03*
Y001953D02*
D03*
X040447Y002457D02*
D03*
Y002784D02*
D03*
X03257Y009225D02*
D03*
Y009553D02*
D03*
X02304Y003526D02*
D03*
Y003853D02*
D03*
X03256Y001625D02*
D03*
Y001953D02*
D03*
X028027Y001625D02*
D03*
Y001953D02*
D03*
X03446Y001625D02*
D03*
Y001953D02*
D03*
X03066Y001625D02*
D03*
Y001953D02*
D03*
X025652Y001625D02*
D03*
Y001953D02*
D03*
X013777Y001625D02*
D03*
Y001953D02*
D03*
X006652Y001625D02*
D03*
Y001953D02*
D03*
X004277Y001625D02*
D03*
Y001953D02*
D03*
X001902Y001625D02*
D03*
Y001953D02*
D03*
X03831Y001151D02*
D03*
Y001477D02*
D03*
X040685Y001625D02*
D03*
Y001953D02*
D03*
X003327Y002932D02*
D03*
Y003259D02*
D03*
X038785Y003526D02*
D03*
Y003853D02*
D03*
X036885Y003526D02*
D03*
Y003853D02*
D03*
X03257Y003526D02*
D03*
Y003853D02*
D03*
X026602Y003526D02*
D03*
Y003853D02*
D03*
X02114Y003526D02*
D03*
Y003853D02*
D03*
X01924Y003526D02*
D03*
Y003853D02*
D03*
X01734Y003526D02*
D03*
Y003853D02*
D03*
X01544Y003526D02*
D03*
Y003853D02*
D03*
X01354Y003526D02*
D03*
Y003853D02*
D03*
X011639Y003526D02*
D03*
Y003853D02*
D03*
X009739Y003526D02*
D03*
Y003853D02*
D03*
X007839Y003526D02*
D03*
Y003853D02*
D03*
X00594Y003526D02*
D03*
Y003853D02*
D03*
X00214Y007325D02*
D03*
Y007653D02*
D03*
X004515Y007325D02*
D03*
Y007653D02*
D03*
X006414Y007325D02*
D03*
Y007653D02*
D03*
X008314Y007325D02*
D03*
Y007653D02*
D03*
X010214Y007325D02*
D03*
Y007653D02*
D03*
X012114Y007325D02*
D03*
Y007653D02*
D03*
X014015Y007325D02*
D03*
Y007653D02*
D03*
X015915Y007325D02*
D03*
Y007653D02*
D03*
X017815Y007325D02*
D03*
Y007653D02*
D03*
X019715Y007325D02*
D03*
Y007653D02*
D03*
X021615Y007325D02*
D03*
Y007653D02*
D03*
X023515Y007325D02*
D03*
Y007653D02*
D03*
X025415Y006257D02*
D03*
Y006584D02*
D03*
X026364Y006257D02*
D03*
Y006584D02*
D03*
X03067Y007444D02*
D03*
Y007771D02*
D03*
X03257Y007444D02*
D03*
Y007771D02*
D03*
X03447Y007325D02*
D03*
Y007653D02*
D03*
X036885Y007325D02*
D03*
Y007653D02*
D03*
X038785Y007325D02*
D03*
Y007653D02*
D03*
X040447Y006257D02*
D03*
Y006584D02*
D03*
X001665Y009225D02*
D03*
Y009553D02*
D03*
X003565Y009225D02*
D03*
Y009553D02*
D03*
X005465Y009225D02*
D03*
Y009553D02*
D03*
X007364Y009225D02*
D03*
Y009553D02*
D03*
X009264Y009225D02*
D03*
Y009553D02*
D03*
X011164Y009225D02*
D03*
Y009553D02*
D03*
X013065Y009225D02*
D03*
Y009553D02*
D03*
X014965Y009225D02*
D03*
Y009553D02*
D03*
X016865Y009225D02*
D03*
Y009553D02*
D03*
X022565Y009225D02*
D03*
Y009553D02*
D03*
X024465Y009225D02*
D03*
Y009553D02*
D03*
X027314Y009225D02*
D03*
Y009553D02*
D03*
X03067Y009225D02*
D03*
Y009553D02*
D03*
X03447Y009225D02*
D03*
Y009553D02*
D03*
X03257Y012014D02*
D03*
Y012341D02*
D03*
X03067Y012014D02*
D03*
Y012341D02*
D03*
X028264Y012014D02*
D03*
Y012341D02*
D03*
X024465Y012014D02*
D03*
Y012341D02*
D03*
X022565Y012014D02*
D03*
Y012341D02*
D03*
X006889Y005426D02*
D03*
Y005753D02*
D03*
X008789Y005426D02*
D03*
Y005753D02*
D03*
X010689Y005426D02*
D03*
Y005753D02*
D03*
X012589Y005426D02*
D03*
Y005753D02*
D03*
X01449Y005426D02*
D03*
Y005753D02*
D03*
X02019Y005426D02*
D03*
Y005753D02*
D03*
X02209Y005426D02*
D03*
Y005753D02*
D03*
X02399Y005426D02*
D03*
Y005753D02*
D03*
X027077Y005426D02*
D03*
Y005753D02*
D03*
X036885Y005426D02*
D03*
Y005753D02*
D03*
X038785Y005426D02*
D03*
Y005753D02*
D03*
X002377Y005426D02*
D03*
Y005753D02*
D03*
X00499Y005426D02*
D03*
Y005753D02*
D03*
X01639Y005426D02*
D03*
Y005753D02*
D03*
X01829Y005426D02*
D03*
Y005753D02*
D03*
X040685Y005307D02*
D03*
Y005634D02*
D03*
X03447Y012014D02*
D03*
Y012341D02*
D03*
X001665Y012014D02*
D03*
Y012341D02*
D03*
X005465Y012014D02*
D03*
Y012341D02*
D03*
X007364Y012014D02*
D03*
Y012341D02*
D03*
X009264Y012014D02*
D03*
Y012341D02*
D03*
X011164Y012014D02*
D03*
Y012341D02*
D03*
X017815Y012014D02*
D03*
Y012341D02*
D03*
X038785Y009225D02*
D03*
Y009553D02*
D03*
X036885Y009225D02*
D03*
Y009553D02*
D03*
X040685Y009225D02*
D03*
Y009553D02*
D03*
X020665Y009225D02*
D03*
Y009553D02*
D03*
X018765Y009225D02*
D03*
Y009553D02*
D03*
X026364Y012014D02*
D03*
Y012341D02*
D03*
D91*
X020497Y012964D02*
D03*
X020297D02*
D03*
D92*
X020267Y012694D02*
D03*
X020527D02*
D03*
D93*
X020332D02*
D03*
X020397D02*
D03*
X020462D02*
D03*
D94*
X03319Y003424D02*
D03*
Y003234D02*
D03*
X02065Y011373D02*
D03*
Y011563D02*
D03*
X020833Y011373D02*
D03*
Y011563D02*
D03*
X021024Y011373D02*
D03*
Y011563D02*
D03*
X038115Y012412D02*
D03*
Y012602D02*
D03*
X040722Y010666D02*
D03*
Y010476D02*
D03*
X040982Y010666D02*
D03*
Y010476D02*
D03*
X029232Y003424D02*
D03*
Y003234D02*
D03*
X02001Y012275D02*
D03*
Y012085D02*
D03*
D95*
X020265Y01206D02*
D03*
X02036D02*
D03*
X020455D02*
D03*
Y0123D02*
D03*
X02036D02*
D03*
X020265D02*
D03*
D96*
X019752Y01205D02*
D03*
Y01231D02*
D03*
D97*
X029308Y010638D02*
D03*
X029403Y010828D02*
D03*
X029213D02*
D03*
D98*
X038382Y012437D02*
D03*
Y012247D02*
D03*
X041628Y010479D02*
D03*
Y010669D02*
D03*
X020457Y011563D02*
D03*
Y011373D02*
D03*
X020264Y011566D02*
D03*
Y011376D02*
D03*
X034994Y012059D02*
D03*
Y012249D02*
D03*
X028753Y010629D02*
D03*
Y010819D02*
D03*
D99*
X042626Y011727D02*
D03*
X04261Y012627D02*
D03*
X042244D02*
D03*
D100*
X020806Y010842D02*
D03*
X020743D02*
D03*
X020679D02*
D03*
X020616D02*
D03*
X020552D02*
D03*
X020489D02*
D03*
X02087D02*
D03*
X020933D02*
D03*
X020997D02*
D03*
X02106D02*
D03*
X020743Y010306D02*
D03*
X020806D02*
D03*
X02087D02*
D03*
X020933D02*
D03*
X020997D02*
D03*
X02106D02*
D03*
X020679D02*
D03*
X020616D02*
D03*
X020552D02*
D03*
X020489D02*
D03*
D101*
X038117Y011454D02*
D03*
X037927D02*
D03*
X038117Y011954D02*
D03*
X037927D02*
D03*
X041636Y011868D02*
D03*
X041827D02*
D03*
X008573Y001928D02*
D03*
X008763D02*
D03*
X041636Y012128D02*
D03*
X041827D02*
D03*
X020466Y011811D02*
D03*
X020656D02*
D03*
X020255D02*
D03*
X020065D02*
D03*
X02853Y010042D02*
D03*
X02834D02*
D03*
X029403Y011037D02*
D03*
X029213D02*
D03*
D102*
X041844Y011609D02*
D03*
X041624D02*
D03*
Y011339D02*
D03*
X041844D02*
D03*
D103*
X040977Y010891D02*
D03*
X040727D02*
D03*
D104*
X042036Y003451D02*
D03*
X041708D02*
D03*
X042036Y004877D02*
D03*
X041708D02*
D03*
X018776Y012566D02*
D03*
X019103D02*
D03*
X042036Y007964D02*
D03*
X041708D02*
D03*
D105*
X009121Y001655D02*
D03*
Y001527D02*
D03*
Y001401D02*
D03*
Y001273D02*
D03*
Y001147D02*
D03*
Y001019D02*
D03*
Y000893D02*
D03*
Y000766D02*
D03*
X008579D02*
D03*
Y000893D02*
D03*
Y001019D02*
D03*
Y001147D02*
D03*
Y001273D02*
D03*
Y001401D02*
D03*
Y001527D02*
D03*
Y001655D02*
D03*
X030131Y003365D02*
D03*
Y003238D02*
D03*
Y00311D02*
D03*
Y002983D02*
D03*
Y002857D02*
D03*
Y00273D02*
D03*
Y002602D02*
D03*
Y002475D02*
D03*
X029589D02*
D03*
Y002602D02*
D03*
Y00273D02*
D03*
Y002857D02*
D03*
Y002983D02*
D03*
Y00311D02*
D03*
Y003238D02*
D03*
Y003365D02*
D03*
X034101D02*
D03*
Y003238D02*
D03*
Y00311D02*
D03*
Y002983D02*
D03*
Y002857D02*
D03*
Y00273D02*
D03*
Y002602D02*
D03*
Y002475D02*
D03*
X033559D02*
D03*
Y002602D02*
D03*
Y00273D02*
D03*
Y002857D02*
D03*
Y002983D02*
D03*
Y00311D02*
D03*
Y003238D02*
D03*
Y003365D02*
D03*
D106*
X02851Y010613D02*
D03*
X028415D02*
D03*
X02832D02*
D03*
Y010853D02*
D03*
X02851D02*
D03*
D107*
X033216Y012342D02*
D03*
X033531D02*
D03*
D108*
X028957Y010323D02*
D03*
X029457D02*
D03*
X029207Y009883D02*
D03*
D109*
X028273Y010306D02*
D03*
X028555D02*
D03*
M02*
