G04 Layer_Color=2752767*
%FSTAX42Y42*%
%MOMM*%
G71*
G01*
G75*
%ADD113C,0.13*%
%ADD114C,0.17*%
%ADD115C,0.10*%
D113*
X042413Y000335D02*
Y000437D01*
X042515D01*
Y000335D01*
X042413D01*
X040866Y009914D02*
Y010015D01*
X040968D01*
Y009914D01*
X040866D01*
X041999Y008355D02*
X041948Y008457D01*
X04205D01*
X041999Y008355D01*
X041745D02*
X041694Y008457D01*
X041796D01*
X041745Y008355D01*
X041364Y008863D02*
X041389Y008889D01*
X041415D01*
X041389Y008914D01*
X041415Y008939D01*
X041389D01*
X041364Y008965D01*
X041339Y008939D01*
X041313D01*
X041339Y008914D01*
X041313Y008889D01*
X041339D01*
X041364Y008863D01*
X04238D02*
X042405Y008889D01*
X042431D01*
X042405Y008914D01*
X042431Y008939D01*
X042405D01*
X04238Y008965D01*
X042355Y008939D01*
X042329D01*
X042355Y008914D01*
X042329Y008889D01*
X042355D01*
X04238Y008863D01*
X041821D02*
X041847Y008914D01*
X041821Y008965D01*
X041872Y008939D01*
X041923Y008965D01*
X041897Y008914D01*
X041923Y008863D01*
X041872Y008889D01*
X041821Y008863D01*
X042101Y009402D02*
Y009376D01*
X042151D01*
Y009402D01*
X042177D01*
Y009452D01*
X042151D01*
Y009478D01*
X042101D01*
Y009452D01*
X042075D01*
Y009402D01*
X042101D01*
X041478Y009155D02*
Y00913D01*
X041529D01*
Y009155D01*
X041555D01*
Y009206D01*
X041529D01*
Y009232D01*
X041478D01*
Y009206D01*
X041453D01*
Y009155D01*
X041478D01*
X042113Y006407D02*
Y006382D01*
X042164D01*
Y006407D01*
X042189D01*
Y006458D01*
X042164D01*
Y006483D01*
X042113D01*
Y006458D01*
X042088D01*
Y006407D01*
X042113D01*
X04236Y005785D02*
Y005759D01*
X04241D01*
Y005785D01*
X042436D01*
Y005835D01*
X04241D01*
Y005861D01*
X04236D01*
Y005835D01*
X042334D01*
Y005785D01*
X04236D01*
X041821Y006013D02*
X041847Y006064D01*
X041821Y006115D01*
X041872Y006089D01*
X041923Y006115D01*
X041897Y006064D01*
X041923Y006013D01*
X041872Y006039D01*
X041821Y006013D01*
X041872Y005505D02*
X041897Y005531D01*
X041923D01*
X041897Y005556D01*
X041923Y005581D01*
X041897D01*
X041872Y005607D01*
X041847Y005581D01*
X041821D01*
X041847Y005556D01*
X041821Y005531D01*
X041847D01*
X041872Y005505D01*
Y006521D02*
X041897Y006547D01*
X041923D01*
X041897Y006572D01*
X041923Y006597D01*
X041897D01*
X041872Y006623D01*
X041847Y006597D01*
X041821D01*
X041847Y006572D01*
X041821Y006547D01*
X041847D01*
X041872Y006521D01*
X041364Y00614D02*
X041313Y006242D01*
X041415D01*
X041364Y00614D01*
Y005886D02*
X041313Y005988D01*
X041415D01*
X041364Y005886D01*
X04252Y007207D02*
X042545D01*
X04257Y007232D01*
X042596Y007207D01*
X042621D01*
Y007232D01*
X042596Y007258D01*
X042621Y007283D01*
Y007309D01*
X042596D01*
X04257Y007283D01*
X042545Y007309D01*
X04252D01*
Y007283D01*
X042545Y007258D01*
X04252Y007232D01*
Y007207D01*
X040996D02*
X041021Y007258D01*
X040996Y007309D01*
X041046Y007283D01*
X041097Y007309D01*
X041072Y007258D01*
X041097Y007207D01*
X041046Y007232D01*
X040996Y007207D01*
X04252Y004819D02*
X042545D01*
X04257Y004845D01*
X042596Y004819D01*
X042621D01*
Y004845D01*
X042596Y00487D01*
X042621Y004896D01*
Y004921D01*
X042596D01*
X04257Y004896D01*
X042545Y004921D01*
X04252D01*
Y004896D01*
X042545Y00487D01*
X04252Y004845D01*
Y004819D01*
X040996D02*
X041021Y00487D01*
X040996Y004921D01*
X041046Y004896D01*
X041097Y004921D01*
X041072Y00487D01*
X041097Y004819D01*
X041046Y004845D01*
X040996Y004819D01*
X042113Y002607D02*
Y002582D01*
X042164D01*
Y002607D01*
X042189D01*
Y002658D01*
X042164D01*
Y002683D01*
X042113D01*
Y002658D01*
X042088D01*
Y002607D01*
X042113D01*
X04236Y001985D02*
Y001959D01*
X04241D01*
Y001985D01*
X042436D01*
Y002035D01*
X04241D01*
Y002061D01*
X04236D01*
Y002035D01*
X042334D01*
Y001985D01*
X04236D01*
X041821Y002213D02*
X041847Y002264D01*
X041821Y002315D01*
X041872Y002289D01*
X041923Y002315D01*
X041897Y002264D01*
X041923Y002213D01*
X041872Y002239D01*
X041821Y002213D01*
X041872Y001705D02*
X041897Y001731D01*
X041923D01*
X041897Y001756D01*
X041923Y001781D01*
X041897D01*
X041872Y001807D01*
X041847Y001781D01*
X041821D01*
X041847Y001756D01*
X041821Y001731D01*
X041847D01*
X041872Y001705D01*
Y002721D02*
X041897Y002747D01*
X041923D01*
X041897Y002772D01*
X041923Y002797D01*
X041897D01*
X041872Y002823D01*
X041847Y002797D01*
X041821D01*
X041847Y002772D01*
X041821Y002747D01*
X041847D01*
X041872Y002721D01*
X041364Y00234D02*
X041313Y002442D01*
X041415D01*
X041364Y00234D01*
Y002086D02*
X041313Y002188D01*
X041415D01*
X041364Y002086D01*
X04252Y003407D02*
X042545D01*
X04257Y003432D01*
X042596Y003407D01*
X042621D01*
Y003432D01*
X042596Y003458D01*
X042621Y003483D01*
Y003509D01*
X042596D01*
X04257Y003483D01*
X042545Y003509D01*
X04252D01*
Y003483D01*
X042545Y003458D01*
X04252Y003432D01*
Y003407D01*
X040996D02*
X041021Y003458D01*
X040996Y003509D01*
X041046Y003483D01*
X041097Y003509D01*
X041072Y003458D01*
X041097Y003407D01*
X041046Y003432D01*
X040996Y003407D01*
X04252Y001019D02*
X042545D01*
X04257Y001045D01*
X042596Y001019D01*
X042621D01*
Y001045D01*
X042596Y00107D01*
X042621Y001096D01*
Y001121D01*
X042596D01*
X04257Y001096D01*
X042545Y001121D01*
X04252D01*
Y001096D01*
X042545Y00107D01*
X04252Y001045D01*
Y001019D01*
X040996D02*
X041021Y00107D01*
X040996Y001121D01*
X041046Y001096D01*
X041097Y001121D01*
X041072Y00107D01*
X041097Y001019D01*
X041046Y001045D01*
X040996Y001019D01*
X020696Y012964D02*
X020747Y013015D01*
X020798Y012964D01*
X020747Y012913D01*
X020696Y012964D01*
X019996D02*
X020047Y013015D01*
X020098Y012964D01*
X020047Y012913D01*
X019996Y012964D01*
X020596Y012643D02*
Y012745D01*
X020698D01*
Y012643D01*
X020596D01*
X020617Y012664D02*
Y012724D01*
X020677D01*
Y012664D01*
X020617D01*
X020096Y012643D02*
Y012745D01*
X020198D01*
Y012643D01*
X020096D01*
X020117Y012664D02*
Y012724D01*
X020177D01*
Y012664D01*
X020117D01*
X001756Y003468D02*
Y003442D01*
X001807D01*
Y003468D01*
X001833D01*
Y003518D01*
X001807D01*
Y003544D01*
X001756D01*
Y003518D01*
X001731D01*
Y003468D01*
X001756D01*
X002379Y003714D02*
Y003689D01*
X002429D01*
Y003714D01*
X002455D01*
Y003765D01*
X002429D01*
Y00379D01*
X002379D01*
Y003765D01*
X002353D01*
Y003714D01*
X002379D01*
X002099Y003175D02*
X002125Y003226D01*
X002099Y003277D01*
X00215Y003252D01*
X002201Y003277D01*
X002175Y003226D01*
X002201Y003175D01*
X00215Y003201D01*
X002099Y003175D01*
X002658D02*
X002683Y003201D01*
X002709D01*
X002683Y003226D01*
X002709Y003252D01*
X002683D01*
X002658Y003277D01*
X002633Y003252D01*
X002607D01*
X002633Y003226D01*
X002607Y003201D01*
X002633D01*
X002658Y003175D01*
X001642D02*
X001667Y003201D01*
X001693D01*
X001667Y003226D01*
X001693Y003252D01*
X001667D01*
X001642Y003277D01*
X001617Y003252D01*
X001591D01*
X001617Y003226D01*
X001591Y003201D01*
X001617D01*
X001642Y003175D01*
X002023Y002667D02*
X001972Y002769D01*
X002074D01*
X002023Y002667D01*
X002277D02*
X002226Y002769D01*
X002328D01*
X002277Y002667D01*
X000905Y003874D02*
X000931D01*
X000956Y003899D01*
X000982Y003874D01*
X001007D01*
Y003899D01*
X000982Y003925D01*
X001007Y00395D01*
Y003976D01*
X000982D01*
X000956Y00395D01*
X000931Y003976D01*
X000905D01*
Y00395D01*
X000931Y003925D01*
X000905Y003899D01*
Y003874D01*
Y00235D02*
X000931Y002401D01*
X000905Y002452D01*
X000956Y002426D01*
X001007Y002452D01*
X000982Y002401D01*
X001007Y00235D01*
X000956Y002375D01*
X000905Y00235D01*
X003293Y003874D02*
X003318D01*
X003344Y003899D01*
X003369Y003874D01*
X003395D01*
Y003899D01*
X003369Y003925D01*
X003395Y00395D01*
Y003976D01*
X003369D01*
X003344Y00395D01*
X003318Y003976D01*
X003293D01*
Y00395D01*
X003318Y003925D01*
X003293Y003899D01*
Y003874D01*
Y00235D02*
X003318Y002401D01*
X003293Y002452D01*
X003344Y002426D01*
X003395Y002452D01*
X003369Y002401D01*
X003395Y00235D01*
X003344Y002375D01*
X003293Y00235D01*
X036885Y012261D02*
X036834Y012362D01*
X036935D01*
X036885Y012261D01*
Y012281D02*
X036854Y012342D01*
X036915D01*
X036885Y012281D01*
Y011054D02*
X036834Y011156D01*
X036935D01*
X036885Y011054D01*
Y011075D02*
X036854Y011136D01*
X036915D01*
X036885Y011075D01*
X008679Y008355D02*
X008628Y008457D01*
X00873D01*
X008679Y008355D01*
X008425D02*
X008374Y008457D01*
X008476D01*
X008425Y008355D01*
X008044Y008863D02*
X008069Y008889D01*
X008095D01*
X008069Y008914D01*
X008095Y008939D01*
X008069D01*
X008044Y008965D01*
X008019Y008939D01*
X007993D01*
X008019Y008914D01*
X007993Y008889D01*
X008019D01*
X008044Y008863D01*
X00906D02*
X009085Y008889D01*
X009111D01*
X009085Y008914D01*
X009111Y008939D01*
X009085D01*
X00906Y008965D01*
X009035Y008939D01*
X009009D01*
X009035Y008914D01*
X009009Y008889D01*
X009035D01*
X00906Y008863D01*
X008501D02*
X008527Y008914D01*
X008501Y008965D01*
X008552Y008939D01*
X008603Y008965D01*
X008577Y008914D01*
X008603Y008863D01*
X008552Y008889D01*
X008501Y008863D01*
X008781Y009402D02*
Y009376D01*
X008831D01*
Y009402D01*
X008857D01*
Y009452D01*
X008831D01*
Y009478D01*
X008781D01*
Y009452D01*
X008755D01*
Y009402D01*
X008781D01*
X008158Y009155D02*
Y00913D01*
X008209D01*
Y009155D01*
X008235D01*
Y009206D01*
X008209D01*
Y009232D01*
X008158D01*
Y009206D01*
X008133D01*
Y009155D01*
X008158D01*
X033884Y008355D02*
X033833Y008457D01*
X033935D01*
X033884Y008355D01*
X03363D02*
X033579Y008457D01*
X033681D01*
X03363Y008355D01*
X033249Y008863D02*
X033274Y008889D01*
X0333D01*
X033274Y008914D01*
X0333Y008939D01*
X033274D01*
X033249Y008965D01*
X033224Y008939D01*
X033198D01*
X033224Y008914D01*
X033198Y008889D01*
X033224D01*
X033249Y008863D01*
X034265D02*
X03429Y008889D01*
X034316D01*
X03429Y008914D01*
X034316Y008939D01*
X03429D01*
X034265Y008965D01*
X03424Y008939D01*
X034214D01*
X03424Y008914D01*
X034214Y008889D01*
X03424D01*
X034265Y008863D01*
X033706D02*
X033732Y008914D01*
X033706Y008965D01*
X033757Y008939D01*
X033808Y008965D01*
X033782Y008914D01*
X033808Y008863D01*
X033757Y008889D01*
X033706Y008863D01*
X033986Y009402D02*
Y009376D01*
X034036D01*
Y009402D01*
X034062D01*
Y009452D01*
X034036D01*
Y009478D01*
X033986D01*
Y009452D01*
X03396D01*
Y009402D01*
X033986D01*
X033363Y009155D02*
Y00913D01*
X033414D01*
Y009155D01*
X033439D01*
Y009206D01*
X033414D01*
Y009232D01*
X033363D01*
Y009206D01*
X033338D01*
Y009155D01*
X033363D01*
X003692Y000755D02*
X003641Y000857D01*
X003742D01*
X003692Y000755D01*
X003438D02*
X003387Y000857D01*
X003488D01*
X003438Y000755D01*
X003057Y001263D02*
X003082Y001289D01*
X003107D01*
X003082Y001314D01*
X003107Y001339D01*
X003082D01*
X003057Y001365D01*
X003031Y001339D01*
X003006D01*
X003031Y001314D01*
X003006Y001289D01*
X003031D01*
X003057Y001263D01*
X004072D02*
X004098Y001289D01*
X004123D01*
X004098Y001314D01*
X004123Y001339D01*
X004098D01*
X004072Y001365D01*
X004047Y001339D01*
X004022D01*
X004047Y001314D01*
X004022Y001289D01*
X004047D01*
X004072Y001263D01*
X003514D02*
X003539Y001314D01*
X003514Y001365D01*
X003565Y001339D01*
X003615Y001365D01*
X00359Y001314D01*
X003615Y001263D01*
X003565Y001289D01*
X003514Y001263D01*
X003793Y001802D02*
Y001776D01*
X003844D01*
Y001802D01*
X003869D01*
Y001852D01*
X003844D01*
Y001878D01*
X003793D01*
Y001852D01*
X003768D01*
Y001802D01*
X003793D01*
X003171Y001555D02*
Y00153D01*
X003222D01*
Y001555D01*
X003247D01*
Y001606D01*
X003222D01*
Y001632D01*
X003171D01*
Y001606D01*
X003145D01*
Y001555D01*
X003171D01*
X001316Y000755D02*
X001266Y000857D01*
X001367D01*
X001316Y000755D01*
X001062D02*
X001012Y000857D01*
X001113D01*
X001062Y000755D01*
X000682Y001263D02*
X000707Y001289D01*
X000732D01*
X000707Y001314D01*
X000732Y001339D01*
X000707D01*
X000682Y001365D01*
X000656Y001339D01*
X000631D01*
X000656Y001314D01*
X000631Y001289D01*
X000656D01*
X000682Y001263D01*
X001698D02*
X001723Y001289D01*
X001748D01*
X001723Y001314D01*
X001748Y001339D01*
X001723D01*
X001698Y001365D01*
X001672Y001339D01*
X001647D01*
X001672Y001314D01*
X001647Y001289D01*
X001672D01*
X001698Y001263D01*
X001139D02*
X001164Y001314D01*
X001139Y001365D01*
X00119Y001339D01*
X00124Y001365D01*
X001215Y001314D01*
X00124Y001263D01*
X00119Y001289D01*
X001139Y001263D01*
X001418Y001802D02*
Y001776D01*
X001469D01*
Y001802D01*
X001494D01*
Y001852D01*
X001469D01*
Y001878D01*
X001418D01*
Y001852D01*
X001393D01*
Y001802D01*
X001418D01*
X000796Y001555D02*
Y00153D01*
X000847D01*
Y001555D01*
X000872D01*
Y001606D01*
X000847D01*
Y001632D01*
X000796D01*
Y001606D01*
X00077D01*
Y001555D01*
X000796D01*
X027442Y000755D02*
X027391Y000857D01*
X027492D01*
X027442Y000755D01*
X027188D02*
X027137Y000857D01*
X027238D01*
X027188Y000755D01*
X026807Y001263D02*
X026832Y001289D01*
X026857D01*
X026832Y001314D01*
X026857Y001339D01*
X026832D01*
X026807Y001365D01*
X026781Y001339D01*
X026756D01*
X026781Y001314D01*
X026756Y001289D01*
X026781D01*
X026807Y001263D01*
X027823D02*
X027848Y001289D01*
X027873D01*
X027848Y001314D01*
X027873Y001339D01*
X027848D01*
X027823Y001365D01*
X027797Y001339D01*
X027772D01*
X027797Y001314D01*
X027772Y001289D01*
X027797D01*
X027823Y001263D01*
X027264D02*
X027289Y001314D01*
X027264Y001365D01*
X027314Y001339D01*
X027365Y001365D01*
X02734Y001314D01*
X027365Y001263D01*
X027314Y001289D01*
X027264Y001263D01*
X027543Y001802D02*
Y001776D01*
X027594D01*
Y001802D01*
X027619D01*
Y001852D01*
X027594D01*
Y001878D01*
X027543D01*
Y001852D01*
X027518D01*
Y001802D01*
X027543D01*
X026921Y001555D02*
Y00153D01*
X026972D01*
Y001555D01*
X026997D01*
Y001606D01*
X026972D01*
Y001632D01*
X026921D01*
Y001606D01*
X026895D01*
Y001555D01*
X026921D01*
X025066Y000755D02*
X025016Y000857D01*
X025117D01*
X025066Y000755D01*
X024812D02*
X024762Y000857D01*
X024863D01*
X024812Y000755D01*
X024432Y001263D02*
X024457Y001289D01*
X024482D01*
X024457Y001314D01*
X024482Y001339D01*
X024457D01*
X024432Y001365D01*
X024406Y001339D01*
X024381D01*
X024406Y001314D01*
X024381Y001289D01*
X024406D01*
X024432Y001263D01*
X025448D02*
X025473Y001289D01*
X025498D01*
X025473Y001314D01*
X025498Y001339D01*
X025473D01*
X025448Y001365D01*
X025422Y001339D01*
X025397D01*
X025422Y001314D01*
X025397Y001289D01*
X025422D01*
X025448Y001263D01*
X024889D02*
X024914Y001314D01*
X024889Y001365D01*
X02494Y001339D01*
X02499Y001365D01*
X024965Y001314D01*
X02499Y001263D01*
X02494Y001289D01*
X024889Y001263D01*
X025168Y001802D02*
Y001776D01*
X025219D01*
Y001802D01*
X025244D01*
Y001852D01*
X025219D01*
Y001878D01*
X025168D01*
Y001852D01*
X025143D01*
Y001802D01*
X025168D01*
X024546Y001555D02*
Y00153D01*
X024597D01*
Y001555D01*
X024622D01*
Y001606D01*
X024597D01*
Y001632D01*
X024546D01*
Y001606D01*
X02452D01*
Y001555D01*
X024546D01*
X027204Y006465D02*
X027153Y006567D01*
X027255D01*
X027204Y006465D01*
X02695D02*
X026899Y006567D01*
X027001D01*
X02695Y006465D01*
X026569Y006973D02*
X026594Y006999D01*
X02662D01*
X026594Y007024D01*
X02662Y007049D01*
X026594D01*
X026569Y007075D01*
X026544Y007049D01*
X026518D01*
X026544Y007024D01*
X026518Y006999D01*
X026544D01*
X026569Y006973D01*
X027585D02*
X02761Y006999D01*
X027636D01*
X02761Y007024D01*
X027636Y007049D01*
X02761D01*
X027585Y007075D01*
X02756Y007049D01*
X027534D01*
X02756Y007024D01*
X027534Y006999D01*
X02756D01*
X027585Y006973D01*
X027026D02*
X027052Y007024D01*
X027026Y007075D01*
X027077Y007049D01*
X027128Y007075D01*
X027102Y007024D01*
X027128Y006973D01*
X027077Y006999D01*
X027026Y006973D01*
X027306Y007512D02*
Y007486D01*
X027356D01*
Y007512D01*
X027382D01*
Y007562D01*
X027356D01*
Y007588D01*
X027306D01*
Y007562D01*
X02728D01*
Y007512D01*
X027306D01*
X026683Y007265D02*
Y00724D01*
X026734D01*
Y007265D01*
X02676D01*
Y007316D01*
X026734D01*
Y007342D01*
X026683D01*
Y007316D01*
X026658D01*
Y007265D01*
X026683D01*
X015437Y001249D02*
Y001351D01*
X015538D01*
Y001249D01*
X015437D01*
X010437D02*
Y001351D01*
X010538D01*
Y001249D01*
X010437D01*
X040099Y000755D02*
X040048Y000857D01*
X04015D01*
X040099Y000755D01*
X039845D02*
X039794Y000857D01*
X039896D01*
X039845Y000755D01*
X039464Y001263D02*
X039489Y001289D01*
X039515D01*
X039489Y001314D01*
X039515Y001339D01*
X039489D01*
X039464Y001365D01*
X039439Y001339D01*
X039413D01*
X039439Y001314D01*
X039413Y001289D01*
X039439D01*
X039464Y001263D01*
X04048D02*
X040505Y001289D01*
X040531D01*
X040505Y001314D01*
X040531Y001339D01*
X040505D01*
X04048Y001365D01*
X040455Y001339D01*
X040429D01*
X040455Y001314D01*
X040429Y001289D01*
X040455D01*
X04048Y001263D01*
X039921D02*
X039947Y001314D01*
X039921Y001365D01*
X039972Y001339D01*
X040023Y001365D01*
X039997Y001314D01*
X040023Y001263D01*
X039972Y001289D01*
X039921Y001263D01*
X040201Y001802D02*
Y001776D01*
X040251D01*
Y001802D01*
X040277D01*
Y001852D01*
X040251D01*
Y001878D01*
X040201D01*
Y001852D01*
X040175D01*
Y001802D01*
X040201D01*
X039578Y001555D02*
Y00153D01*
X039629D01*
Y001555D01*
X039655D01*
Y001606D01*
X039629D01*
Y001632D01*
X039578D01*
Y001606D01*
X039553D01*
Y001555D01*
X039578D01*
X033874Y000755D02*
X033823Y000857D01*
X033925D01*
X033874Y000755D01*
X03362D02*
X033569Y000857D01*
X033671D01*
X03362Y000755D01*
X033239Y001263D02*
X033264Y001289D01*
X03329D01*
X033264Y001314D01*
X03329Y001339D01*
X033264D01*
X033239Y001365D01*
X033214Y001339D01*
X033188D01*
X033214Y001314D01*
X033188Y001289D01*
X033214D01*
X033239Y001263D01*
X034255D02*
X03428Y001289D01*
X034306D01*
X03428Y001314D01*
X034306Y001339D01*
X03428D01*
X034255Y001365D01*
X03423Y001339D01*
X034204D01*
X03423Y001314D01*
X034204Y001289D01*
X03423D01*
X034255Y001263D01*
X033696D02*
X033722Y001314D01*
X033696Y001365D01*
X033747Y001339D01*
X033798Y001365D01*
X033772Y001314D01*
X033798Y001263D01*
X033747Y001289D01*
X033696Y001263D01*
X033976Y001802D02*
Y001776D01*
X034026D01*
Y001802D01*
X034052D01*
Y001852D01*
X034026D01*
Y001878D01*
X033976D01*
Y001852D01*
X03395D01*
Y001802D01*
X033976D01*
X033353Y001555D02*
Y00153D01*
X033404D01*
Y001555D01*
X03343D01*
Y001606D01*
X033404D01*
Y001632D01*
X033353D01*
Y001606D01*
X033328D01*
Y001555D01*
X033353D01*
X031984Y000755D02*
X031933Y000857D01*
X032035D01*
X031984Y000755D01*
X03173D02*
X031679Y000857D01*
X031781D01*
X03173Y000755D01*
X031349Y001263D02*
X031374Y001289D01*
X0314D01*
X031374Y001314D01*
X0314Y001339D01*
X031374D01*
X031349Y001365D01*
X031324Y001339D01*
X031298D01*
X031324Y001314D01*
X031298Y001289D01*
X031324D01*
X031349Y001263D01*
X032365D02*
X03239Y001289D01*
X032416D01*
X03239Y001314D01*
X032416Y001339D01*
X03239D01*
X032365Y001365D01*
X03234Y001339D01*
X032314D01*
X03234Y001314D01*
X032314Y001289D01*
X03234D01*
X032365Y001263D01*
X031806D02*
X031832Y001314D01*
X031806Y001365D01*
X031857Y001339D01*
X031908Y001365D01*
X031882Y001314D01*
X031908Y001263D01*
X031857Y001289D01*
X031806Y001263D01*
X032086Y001802D02*
Y001776D01*
X032136D01*
Y001802D01*
X032162D01*
Y001852D01*
X032136D01*
Y001878D01*
X032086D01*
Y001852D01*
X03206D01*
Y001802D01*
X032086D01*
X031463Y001555D02*
Y00153D01*
X031514D01*
Y001555D01*
X031539D01*
Y001606D01*
X031514D01*
Y001632D01*
X031463D01*
Y001606D01*
X031438D01*
Y001555D01*
X031463D01*
X030084Y000755D02*
X030033Y000857D01*
X030135D01*
X030084Y000755D01*
X02983D02*
X029779Y000857D01*
X029881D01*
X02983Y000755D01*
X029449Y001263D02*
X029474Y001289D01*
X0295D01*
X029474Y001314D01*
X0295Y001339D01*
X029474D01*
X029449Y001365D01*
X029424Y001339D01*
X029398D01*
X029424Y001314D01*
X029398Y001289D01*
X029424D01*
X029449Y001263D01*
X030465D02*
X03049Y001289D01*
X030516D01*
X03049Y001314D01*
X030516Y001339D01*
X03049D01*
X030465Y001365D01*
X03044Y001339D01*
X030414D01*
X03044Y001314D01*
X030414Y001289D01*
X03044D01*
X030465Y001263D01*
X029906D02*
X029932Y001314D01*
X029906Y001365D01*
X029957Y001339D01*
X030008Y001365D01*
X029982Y001314D01*
X030008Y001263D01*
X029957Y001289D01*
X029906Y001263D01*
X030186Y001802D02*
Y001776D01*
X030236D01*
Y001802D01*
X030262D01*
Y001852D01*
X030236D01*
Y001878D01*
X030186D01*
Y001852D01*
X03016D01*
Y001802D01*
X030186D01*
X029563Y001555D02*
Y00153D01*
X029614D01*
Y001555D01*
X029639D01*
Y001606D01*
X029614D01*
Y001632D01*
X029563D01*
Y001606D01*
X029538D01*
Y001555D01*
X029563D01*
X022691Y000755D02*
X022641Y000857D01*
X022742D01*
X022691Y000755D01*
X022438D02*
X022387Y000857D01*
X022488D01*
X022438Y000755D01*
X022057Y001263D02*
X022082Y001289D01*
X022107D01*
X022082Y001314D01*
X022107Y001339D01*
X022082D01*
X022057Y001365D01*
X022031Y001339D01*
X022006D01*
X022031Y001314D01*
X022006Y001289D01*
X022031D01*
X022057Y001263D01*
X023073D02*
X023098Y001289D01*
X023123D01*
X023098Y001314D01*
X023123Y001339D01*
X023098D01*
X023073Y001365D01*
X023047Y001339D01*
X023022D01*
X023047Y001314D01*
X023022Y001289D01*
X023047D01*
X023073Y001263D01*
X022514D02*
X022539Y001314D01*
X022514Y001365D01*
X022565Y001339D01*
X022615Y001365D01*
X02259Y001314D01*
X022615Y001263D01*
X022565Y001289D01*
X022514Y001263D01*
X022793Y001802D02*
Y001776D01*
X022844D01*
Y001802D01*
X022869D01*
Y001852D01*
X022844D01*
Y001878D01*
X022793D01*
Y001852D01*
X022768D01*
Y001802D01*
X022793D01*
X022171Y001555D02*
Y00153D01*
X022222D01*
Y001555D01*
X022247D01*
Y001606D01*
X022222D01*
Y001632D01*
X022171D01*
Y001606D01*
X022145D01*
Y001555D01*
X022171D01*
X020316Y000755D02*
X020266Y000857D01*
X020367D01*
X020316Y000755D01*
X020062D02*
X020012Y000857D01*
X020113D01*
X020062Y000755D01*
X019682Y001263D02*
X019707Y001289D01*
X019732D01*
X019707Y001314D01*
X019732Y001339D01*
X019707D01*
X019682Y001365D01*
X019656Y001339D01*
X019631D01*
X019656Y001314D01*
X019631Y001289D01*
X019656D01*
X019682Y001263D01*
X020698D02*
X020723Y001289D01*
X020748D01*
X020723Y001314D01*
X020748Y001339D01*
X020723D01*
X020698Y001365D01*
X020672Y001339D01*
X020647D01*
X020672Y001314D01*
X020647Y001289D01*
X020672D01*
X020698Y001263D01*
X020139D02*
X020164Y001314D01*
X020139Y001365D01*
X02019Y001339D01*
X02024Y001365D01*
X020215Y001314D01*
X02024Y001263D01*
X02019Y001289D01*
X020139Y001263D01*
X020418Y001802D02*
Y001776D01*
X020469D01*
Y001802D01*
X020494D01*
Y001852D01*
X020469D01*
Y001878D01*
X020418D01*
Y001852D01*
X020393D01*
Y001802D01*
X020418D01*
X019796Y001555D02*
Y00153D01*
X019847D01*
Y001555D01*
X019872D01*
Y001606D01*
X019847D01*
Y001632D01*
X019796D01*
Y001606D01*
X01977D01*
Y001555D01*
X019796D01*
X006067Y000755D02*
X006016Y000857D01*
X006117D01*
X006067Y000755D01*
X005812D02*
X005762Y000857D01*
X005863D01*
X005812Y000755D01*
X005431Y001263D02*
X005457Y001289D01*
X005482D01*
X005457Y001314D01*
X005482Y001339D01*
X005457D01*
X005431Y001365D01*
X005406Y001339D01*
X005381D01*
X005406Y001314D01*
X005381Y001289D01*
X005406D01*
X005431Y001263D01*
X006447D02*
X006473Y001289D01*
X006498D01*
X006473Y001314D01*
X006498Y001339D01*
X006473D01*
X006447Y001365D01*
X006422Y001339D01*
X006397D01*
X006422Y001314D01*
X006397Y001289D01*
X006422D01*
X006447Y001263D01*
X005889D02*
X005914Y001314D01*
X005889Y001365D01*
X00594Y001339D01*
X00599Y001365D01*
X005965Y001314D01*
X00599Y001263D01*
X00594Y001289D01*
X005889Y001263D01*
X006168Y001802D02*
Y001776D01*
X006219D01*
Y001802D01*
X006244D01*
Y001852D01*
X006219D01*
Y001878D01*
X006168D01*
Y001852D01*
X006143D01*
Y001802D01*
X006168D01*
X005546Y001555D02*
Y00153D01*
X005597D01*
Y001555D01*
X005622D01*
Y001606D01*
X005597D01*
Y001632D01*
X005546D01*
Y001606D01*
X00552D01*
Y001555D01*
X005546D01*
X031984Y002655D02*
X031933Y002757D01*
X032035D01*
X031984Y002655D01*
X03173D02*
X031679Y002757D01*
X031781D01*
X03173Y002655D01*
X031349Y003163D02*
X031374Y003189D01*
X0314D01*
X031374Y003214D01*
X0314Y003239D01*
X031374D01*
X031349Y003265D01*
X031324Y003239D01*
X031298D01*
X031324Y003214D01*
X031298Y003189D01*
X031324D01*
X031349Y003163D01*
X032365D02*
X03239Y003189D01*
X032416D01*
X03239Y003214D01*
X032416Y003239D01*
X03239D01*
X032365Y003265D01*
X03234Y003239D01*
X032314D01*
X03234Y003214D01*
X032314Y003189D01*
X03234D01*
X032365Y003163D01*
X031806D02*
X031832Y003214D01*
X031806Y003265D01*
X031857Y003239D01*
X031908Y003265D01*
X031882Y003214D01*
X031908Y003163D01*
X031857Y003189D01*
X031806Y003163D01*
X032086Y003702D02*
Y003676D01*
X032136D01*
Y003702D01*
X032162D01*
Y003752D01*
X032136D01*
Y003778D01*
X032086D01*
Y003752D01*
X03206D01*
Y003702D01*
X032086D01*
X031463Y003455D02*
Y00343D01*
X031514D01*
Y003455D01*
X031539D01*
Y003506D01*
X031514D01*
Y003531D01*
X031463D01*
Y003506D01*
X031438D01*
Y003455D01*
X031463D01*
X022454Y002655D02*
X022403Y002757D01*
X022505D01*
X022454Y002655D01*
X0222D02*
X022149Y002757D01*
X022251D01*
X0222Y002655D01*
X021819Y003163D02*
X021844Y003189D01*
X02187D01*
X021844Y003214D01*
X02187Y003239D01*
X021844D01*
X021819Y003265D01*
X021794Y003239D01*
X021768D01*
X021794Y003214D01*
X021768Y003189D01*
X021794D01*
X021819Y003163D01*
X022835D02*
X02286Y003189D01*
X022886D01*
X02286Y003214D01*
X022886Y003239D01*
X02286D01*
X022835Y003265D01*
X02281Y003239D01*
X022784D01*
X02281Y003214D01*
X022784Y003189D01*
X02281D01*
X022835Y003163D01*
X022276D02*
X022302Y003214D01*
X022276Y003265D01*
X022327Y003239D01*
X022378Y003265D01*
X022352Y003214D01*
X022378Y003163D01*
X022327Y003189D01*
X022276Y003163D01*
X022556Y003702D02*
Y003676D01*
X022606D01*
Y003702D01*
X022632D01*
Y003752D01*
X022606D01*
Y003778D01*
X022556D01*
Y003752D01*
X02253D01*
Y003702D01*
X022556D01*
X021933Y003455D02*
Y00343D01*
X021984D01*
Y003455D01*
X02201D01*
Y003506D01*
X021984D01*
Y003531D01*
X021933D01*
Y003506D01*
X021908D01*
Y003455D01*
X021933D01*
X020554Y002655D02*
X020503Y002757D01*
X020605D01*
X020554Y002655D01*
X0203D02*
X020249Y002757D01*
X020351D01*
X0203Y002655D01*
X019919Y003163D02*
X019944Y003189D01*
X01997D01*
X019944Y003214D01*
X01997Y003239D01*
X019944D01*
X019919Y003265D01*
X019894Y003239D01*
X019868D01*
X019894Y003214D01*
X019868Y003189D01*
X019894D01*
X019919Y003163D01*
X020935D02*
X02096Y003189D01*
X020986D01*
X02096Y003214D01*
X020986Y003239D01*
X02096D01*
X020935Y003265D01*
X02091Y003239D01*
X020884D01*
X02091Y003214D01*
X020884Y003189D01*
X02091D01*
X020935Y003163D01*
X020376D02*
X020402Y003214D01*
X020376Y003265D01*
X020427Y003239D01*
X020478Y003265D01*
X020452Y003214D01*
X020478Y003163D01*
X020427Y003189D01*
X020376Y003163D01*
X020656Y003702D02*
Y003676D01*
X020706D01*
Y003702D01*
X020732D01*
Y003752D01*
X020706D01*
Y003778D01*
X020656D01*
Y003752D01*
X02063D01*
Y003702D01*
X020656D01*
X020033Y003455D02*
Y00343D01*
X020084D01*
Y003455D01*
X02011D01*
Y003506D01*
X020084D01*
Y003531D01*
X020033D01*
Y003506D01*
X020008D01*
Y003455D01*
X020033D01*
X018654Y002655D02*
X018603Y002757D01*
X018705D01*
X018654Y002655D01*
X0184D02*
X018349Y002757D01*
X018451D01*
X0184Y002655D01*
X018019Y003163D02*
X018044Y003189D01*
X01807D01*
X018044Y003214D01*
X01807Y003239D01*
X018044D01*
X018019Y003265D01*
X017994Y003239D01*
X017968D01*
X017994Y003214D01*
X017968Y003189D01*
X017994D01*
X018019Y003163D01*
X019035D02*
X01906Y003189D01*
X019086D01*
X01906Y003214D01*
X019086Y003239D01*
X01906D01*
X019035Y003265D01*
X01901Y003239D01*
X018984D01*
X01901Y003214D01*
X018984Y003189D01*
X01901D01*
X019035Y003163D01*
X018476D02*
X018502Y003214D01*
X018476Y003265D01*
X018527Y003239D01*
X018578Y003265D01*
X018552Y003214D01*
X018578Y003163D01*
X018527Y003189D01*
X018476Y003163D01*
X018756Y003702D02*
Y003676D01*
X018806D01*
Y003702D01*
X018832D01*
Y003752D01*
X018806D01*
Y003778D01*
X018756D01*
Y003752D01*
X01873D01*
Y003702D01*
X018756D01*
X018133Y003455D02*
Y00343D01*
X018184D01*
Y003455D01*
X01821D01*
Y003506D01*
X018184D01*
Y003531D01*
X018133D01*
Y003506D01*
X018108D01*
Y003455D01*
X018133D01*
X016754Y002655D02*
X016703Y002757D01*
X016805D01*
X016754Y002655D01*
X0165D02*
X016449Y002757D01*
X016551D01*
X0165Y002655D01*
X016119Y003163D02*
X016144Y003189D01*
X01617D01*
X016144Y003214D01*
X01617Y003239D01*
X016144D01*
X016119Y003265D01*
X016094Y003239D01*
X016068D01*
X016094Y003214D01*
X016068Y003189D01*
X016094D01*
X016119Y003163D01*
X017135D02*
X01716Y003189D01*
X017186D01*
X01716Y003214D01*
X017186Y003239D01*
X01716D01*
X017135Y003265D01*
X01711Y003239D01*
X017084D01*
X01711Y003214D01*
X017084Y003189D01*
X01711D01*
X017135Y003163D01*
X016576D02*
X016602Y003214D01*
X016576Y003265D01*
X016627Y003239D01*
X016678Y003265D01*
X016652Y003214D01*
X016678Y003163D01*
X016627Y003189D01*
X016576Y003163D01*
X016856Y003702D02*
Y003676D01*
X016906D01*
Y003702D01*
X016932D01*
Y003752D01*
X016906D01*
Y003778D01*
X016856D01*
Y003752D01*
X01683D01*
Y003702D01*
X016856D01*
X016233Y003455D02*
Y00343D01*
X016284D01*
Y003455D01*
X01631D01*
Y003506D01*
X016284D01*
Y003531D01*
X016233D01*
Y003506D01*
X016208D01*
Y003455D01*
X016233D01*
X014854Y002655D02*
X014803Y002757D01*
X014905D01*
X014854Y002655D01*
X0146D02*
X014549Y002757D01*
X014651D01*
X0146Y002655D01*
X014219Y003163D02*
X014244Y003189D01*
X01427D01*
X014244Y003214D01*
X01427Y003239D01*
X014244D01*
X014219Y003265D01*
X014194Y003239D01*
X014168D01*
X014194Y003214D01*
X014168Y003189D01*
X014194D01*
X014219Y003163D01*
X015235D02*
X01526Y003189D01*
X015286D01*
X01526Y003214D01*
X015286Y003239D01*
X01526D01*
X015235Y003265D01*
X01521Y003239D01*
X015184D01*
X01521Y003214D01*
X015184Y003189D01*
X01521D01*
X015235Y003163D01*
X014676D02*
X014702Y003214D01*
X014676Y003265D01*
X014727Y003239D01*
X014778Y003265D01*
X014752Y003214D01*
X014778Y003163D01*
X014727Y003189D01*
X014676Y003163D01*
X014956Y003702D02*
Y003676D01*
X015006D01*
Y003702D01*
X015032D01*
Y003752D01*
X015006D01*
Y003778D01*
X014956D01*
Y003752D01*
X01493D01*
Y003702D01*
X014956D01*
X014333Y003455D02*
Y00343D01*
X014384D01*
Y003455D01*
X01441D01*
Y003506D01*
X014384D01*
Y003531D01*
X014333D01*
Y003506D01*
X014308D01*
Y003455D01*
X014333D01*
X012954Y002655D02*
X012903Y002757D01*
X013005D01*
X012954Y002655D01*
X0127D02*
X012649Y002757D01*
X012751D01*
X0127Y002655D01*
X012319Y003163D02*
X012344Y003189D01*
X01237D01*
X012344Y003214D01*
X01237Y003239D01*
X012344D01*
X012319Y003265D01*
X012294Y003239D01*
X012268D01*
X012294Y003214D01*
X012268Y003189D01*
X012294D01*
X012319Y003163D01*
X013335D02*
X01336Y003189D01*
X013386D01*
X01336Y003214D01*
X013386Y003239D01*
X01336D01*
X013335Y003265D01*
X01331Y003239D01*
X013284D01*
X01331Y003214D01*
X013284Y003189D01*
X01331D01*
X013335Y003163D01*
X012776D02*
X012802Y003214D01*
X012776Y003265D01*
X012827Y003239D01*
X012878Y003265D01*
X012852Y003214D01*
X012878Y003163D01*
X012827Y003189D01*
X012776Y003163D01*
X013056Y003702D02*
Y003676D01*
X013106D01*
Y003702D01*
X013132D01*
Y003752D01*
X013106D01*
Y003778D01*
X013056D01*
Y003752D01*
X01303D01*
Y003702D01*
X013056D01*
X012433Y003455D02*
Y00343D01*
X012484D01*
Y003455D01*
X01251D01*
Y003506D01*
X012484D01*
Y003531D01*
X012433D01*
Y003506D01*
X012408D01*
Y003455D01*
X012433D01*
X011054Y002655D02*
X011003Y002757D01*
X011105D01*
X011054Y002655D01*
X0108D02*
X010749Y002757D01*
X010851D01*
X0108Y002655D01*
X010419Y003163D02*
X010444Y003189D01*
X01047D01*
X010444Y003214D01*
X01047Y003239D01*
X010444D01*
X010419Y003265D01*
X010394Y003239D01*
X010368D01*
X010394Y003214D01*
X010368Y003189D01*
X010394D01*
X010419Y003163D01*
X011435D02*
X01146Y003189D01*
X011486D01*
X01146Y003214D01*
X011486Y003239D01*
X01146D01*
X011435Y003265D01*
X01141Y003239D01*
X011384D01*
X01141Y003214D01*
X011384Y003189D01*
X01141D01*
X011435Y003163D01*
X010876D02*
X010902Y003214D01*
X010876Y003265D01*
X010927Y003239D01*
X010978Y003265D01*
X010952Y003214D01*
X010978Y003163D01*
X010927Y003189D01*
X010876Y003163D01*
X011156Y003702D02*
Y003676D01*
X011206D01*
Y003702D01*
X011232D01*
Y003752D01*
X011206D01*
Y003778D01*
X011156D01*
Y003752D01*
X01113D01*
Y003702D01*
X011156D01*
X010533Y003455D02*
Y00343D01*
X010584D01*
Y003455D01*
X01061D01*
Y003506D01*
X010584D01*
Y003531D01*
X010533D01*
Y003506D01*
X010508D01*
Y003455D01*
X010533D01*
X009154Y002655D02*
X009103Y002757D01*
X009205D01*
X009154Y002655D01*
X0089D02*
X008849Y002757D01*
X008951D01*
X0089Y002655D01*
X008519Y003163D02*
X008544Y003189D01*
X00857D01*
X008544Y003214D01*
X00857Y003239D01*
X008544D01*
X008519Y003265D01*
X008494Y003239D01*
X008468D01*
X008494Y003214D01*
X008468Y003189D01*
X008494D01*
X008519Y003163D01*
X009535D02*
X00956Y003189D01*
X009586D01*
X00956Y003214D01*
X009586Y003239D01*
X00956D01*
X009535Y003265D01*
X00951Y003239D01*
X009484D01*
X00951Y003214D01*
X009484Y003189D01*
X00951D01*
X009535Y003163D01*
X008976D02*
X009002Y003214D01*
X008976Y003265D01*
X009027Y003239D01*
X009078Y003265D01*
X009052Y003214D01*
X009078Y003163D01*
X009027Y003189D01*
X008976Y003163D01*
X009256Y003702D02*
Y003676D01*
X009306D01*
Y003702D01*
X009332D01*
Y003752D01*
X009306D01*
Y003778D01*
X009256D01*
Y003752D01*
X00923D01*
Y003702D01*
X009256D01*
X008633Y003455D02*
Y00343D01*
X008684D01*
Y003455D01*
X00871D01*
Y003506D01*
X008684D01*
Y003531D01*
X008633D01*
Y003506D01*
X008608D01*
Y003455D01*
X008633D01*
X007254Y002655D02*
X007203Y002757D01*
X007305D01*
X007254Y002655D01*
X007D02*
X006949Y002757D01*
X007051D01*
X007Y002655D01*
X006619Y003163D02*
X006644Y003189D01*
X00667D01*
X006644Y003214D01*
X00667Y003239D01*
X006644D01*
X006619Y003265D01*
X006594Y003239D01*
X006568D01*
X006594Y003214D01*
X006568Y003189D01*
X006594D01*
X006619Y003163D01*
X007635D02*
X00766Y003189D01*
X007686D01*
X00766Y003214D01*
X007686Y003239D01*
X00766D01*
X007635Y003265D01*
X00761Y003239D01*
X007584D01*
X00761Y003214D01*
X007584Y003189D01*
X00761D01*
X007635Y003163D01*
X007076D02*
X007102Y003214D01*
X007076Y003265D01*
X007127Y003239D01*
X007178Y003265D01*
X007152Y003214D01*
X007178Y003163D01*
X007127Y003189D01*
X007076Y003163D01*
X007356Y003702D02*
Y003676D01*
X007406D01*
Y003702D01*
X007432D01*
Y003752D01*
X007406D01*
Y003778D01*
X007356D01*
Y003752D01*
X00733D01*
Y003702D01*
X007356D01*
X006733Y003455D02*
Y00343D01*
X006784D01*
Y003455D01*
X00681D01*
Y003506D01*
X006784D01*
Y003531D01*
X006733D01*
Y003506D01*
X006708D01*
Y003455D01*
X006733D01*
X005354Y002655D02*
X005303Y002757D01*
X005405D01*
X005354Y002655D01*
X0051D02*
X005049Y002757D01*
X005151D01*
X0051Y002655D01*
X004719Y003163D02*
X004744Y003189D01*
X00477D01*
X004744Y003214D01*
X00477Y003239D01*
X004744D01*
X004719Y003265D01*
X004694Y003239D01*
X004668D01*
X004694Y003214D01*
X004668Y003189D01*
X004694D01*
X004719Y003163D01*
X005735D02*
X00576Y003189D01*
X005786D01*
X00576Y003214D01*
X005786Y003239D01*
X00576D01*
X005735Y003265D01*
X00571Y003239D01*
X005684D01*
X00571Y003214D01*
X005684Y003189D01*
X00571D01*
X005735Y003163D01*
X005176D02*
X005202Y003214D01*
X005176Y003265D01*
X005227Y003239D01*
X005278Y003265D01*
X005252Y003214D01*
X005278Y003163D01*
X005227Y003189D01*
X005176Y003163D01*
X005456Y003702D02*
Y003676D01*
X005506D01*
Y003702D01*
X005532D01*
Y003752D01*
X005506D01*
Y003778D01*
X005456D01*
Y003752D01*
X00543D01*
Y003702D01*
X005456D01*
X004833Y003455D02*
Y00343D01*
X004884D01*
Y003455D01*
X00491D01*
Y003506D01*
X004884D01*
Y003531D01*
X004833D01*
Y003506D01*
X004808D01*
Y003455D01*
X004833D01*
X040099Y002655D02*
X040048Y002757D01*
X04015D01*
X040099Y002655D01*
X039845D02*
X039794Y002757D01*
X039896D01*
X039845Y002655D01*
X039464Y003163D02*
X039489Y003189D01*
X039515D01*
X039489Y003214D01*
X039515Y003239D01*
X039489D01*
X039464Y003265D01*
X039439Y003239D01*
X039413D01*
X039439Y003214D01*
X039413Y003189D01*
X039439D01*
X039464Y003163D01*
X04048D02*
X040505Y003189D01*
X040531D01*
X040505Y003214D01*
X040531Y003239D01*
X040505D01*
X04048Y003265D01*
X040455Y003239D01*
X040429D01*
X040455Y003214D01*
X040429Y003189D01*
X040455D01*
X04048Y003163D01*
X039921D02*
X039947Y003214D01*
X039921Y003265D01*
X039972Y003239D01*
X040023Y003265D01*
X039997Y003214D01*
X040023Y003163D01*
X039972Y003189D01*
X039921Y003163D01*
X040201Y003702D02*
Y003676D01*
X040251D01*
Y003702D01*
X040277D01*
Y003752D01*
X040251D01*
Y003778D01*
X040201D01*
Y003752D01*
X040175D01*
Y003702D01*
X040201D01*
X039578Y003455D02*
Y00343D01*
X039629D01*
Y003455D01*
X039655D01*
Y003506D01*
X039629D01*
Y003531D01*
X039578D01*
Y003506D01*
X039553D01*
Y003455D01*
X039578D01*
X038199Y002655D02*
X038148Y002757D01*
X03825D01*
X038199Y002655D01*
X037945D02*
X037894Y002757D01*
X037996D01*
X037945Y002655D01*
X037564Y003163D02*
X037589Y003189D01*
X037615D01*
X037589Y003214D01*
X037615Y003239D01*
X037589D01*
X037564Y003265D01*
X037539Y003239D01*
X037513D01*
X037539Y003214D01*
X037513Y003189D01*
X037539D01*
X037564Y003163D01*
X03858D02*
X038605Y003189D01*
X038631D01*
X038605Y003214D01*
X038631Y003239D01*
X038605D01*
X03858Y003265D01*
X038555Y003239D01*
X038529D01*
X038555Y003214D01*
X038529Y003189D01*
X038555D01*
X03858Y003163D01*
X038021D02*
X038047Y003214D01*
X038021Y003265D01*
X038072Y003239D01*
X038123Y003265D01*
X038097Y003214D01*
X038123Y003163D01*
X038072Y003189D01*
X038021Y003163D01*
X038301Y003702D02*
Y003676D01*
X038351D01*
Y003702D01*
X038377D01*
Y003752D01*
X038351D01*
Y003778D01*
X038301D01*
Y003752D01*
X038275D01*
Y003702D01*
X038301D01*
X037678Y003455D02*
Y00343D01*
X037729D01*
Y003455D01*
X037755D01*
Y003506D01*
X037729D01*
Y003531D01*
X037678D01*
Y003506D01*
X037653D01*
Y003455D01*
X037678D01*
X036299Y002655D02*
X036248Y002757D01*
X03635D01*
X036299Y002655D01*
X036045D02*
X035994Y002757D01*
X036096D01*
X036045Y002655D01*
X035664Y003163D02*
X035689Y003189D01*
X035715D01*
X035689Y003214D01*
X035715Y003239D01*
X035689D01*
X035664Y003265D01*
X035639Y003239D01*
X035613D01*
X035639Y003214D01*
X035613Y003189D01*
X035639D01*
X035664Y003163D01*
X03668D02*
X036705Y003189D01*
X036731D01*
X036705Y003214D01*
X036731Y003239D01*
X036705D01*
X03668Y003265D01*
X036655Y003239D01*
X036629D01*
X036655Y003214D01*
X036629Y003189D01*
X036655D01*
X03668Y003163D01*
X036121D02*
X036147Y003214D01*
X036121Y003265D01*
X036172Y003239D01*
X036223Y003265D01*
X036197Y003214D01*
X036223Y003163D01*
X036172Y003189D01*
X036121Y003163D01*
X036401Y003702D02*
Y003676D01*
X036451D01*
Y003702D01*
X036477D01*
Y003752D01*
X036451D01*
Y003778D01*
X036401D01*
Y003752D01*
X036375D01*
Y003702D01*
X036401D01*
X035778Y003455D02*
Y00343D01*
X035829D01*
Y003455D01*
X035855D01*
Y003506D01*
X035829D01*
Y003531D01*
X035778D01*
Y003506D01*
X035753D01*
Y003455D01*
X035778D01*
X040099Y004555D02*
X040048Y004657D01*
X04015D01*
X040099Y004555D01*
X039845D02*
X039794Y004657D01*
X039896D01*
X039845Y004555D01*
X039464Y005063D02*
X039489Y005089D01*
X039515D01*
X039489Y005114D01*
X039515Y005139D01*
X039489D01*
X039464Y005165D01*
X039439Y005139D01*
X039413D01*
X039439Y005114D01*
X039413Y005089D01*
X039439D01*
X039464Y005063D01*
X04048D02*
X040505Y005089D01*
X040531D01*
X040505Y005114D01*
X040531Y005139D01*
X040505D01*
X04048Y005165D01*
X040455Y005139D01*
X040429D01*
X040455Y005114D01*
X040429Y005089D01*
X040455D01*
X04048Y005063D01*
X039921D02*
X039947Y005114D01*
X039921Y005165D01*
X039972Y005139D01*
X040023Y005165D01*
X039997Y005114D01*
X040023Y005063D01*
X039972Y005089D01*
X039921Y005063D01*
X040201Y005602D02*
Y005576D01*
X040251D01*
Y005602D01*
X040277D01*
Y005652D01*
X040251D01*
Y005678D01*
X040201D01*
Y005652D01*
X040175D01*
Y005602D01*
X040201D01*
X039578Y005355D02*
Y00533D01*
X039629D01*
Y005355D01*
X039655D01*
Y005406D01*
X039629D01*
Y005431D01*
X039578D01*
Y005406D01*
X039553D01*
Y005355D01*
X039578D01*
X038199Y004555D02*
X038148Y004657D01*
X03825D01*
X038199Y004555D01*
X037945D02*
X037894Y004657D01*
X037996D01*
X037945Y004555D01*
X037564Y005063D02*
X037589Y005089D01*
X037615D01*
X037589Y005114D01*
X037615Y005139D01*
X037589D01*
X037564Y005165D01*
X037539Y005139D01*
X037513D01*
X037539Y005114D01*
X037513Y005089D01*
X037539D01*
X037564Y005063D01*
X03858D02*
X038605Y005089D01*
X038631D01*
X038605Y005114D01*
X038631Y005139D01*
X038605D01*
X03858Y005165D01*
X038555Y005139D01*
X038529D01*
X038555Y005114D01*
X038529Y005089D01*
X038555D01*
X03858Y005063D01*
X038021D02*
X038047Y005114D01*
X038021Y005165D01*
X038072Y005139D01*
X038123Y005165D01*
X038097Y005114D01*
X038123Y005063D01*
X038072Y005089D01*
X038021Y005063D01*
X038301Y005602D02*
Y005576D01*
X038351D01*
Y005602D01*
X038377D01*
Y005652D01*
X038351D01*
Y005678D01*
X038301D01*
Y005652D01*
X038275D01*
Y005602D01*
X038301D01*
X037678Y005355D02*
Y00533D01*
X037729D01*
Y005355D01*
X037755D01*
Y005406D01*
X037729D01*
Y005431D01*
X037678D01*
Y005406D01*
X037653D01*
Y005355D01*
X037678D01*
X036299Y004555D02*
X036248Y004657D01*
X03635D01*
X036299Y004555D01*
X036045D02*
X035994Y004657D01*
X036096D01*
X036045Y004555D01*
X035664Y005063D02*
X035689Y005089D01*
X035715D01*
X035689Y005114D01*
X035715Y005139D01*
X035689D01*
X035664Y005165D01*
X035639Y005139D01*
X035613D01*
X035639Y005114D01*
X035613Y005089D01*
X035639D01*
X035664Y005063D01*
X03668D02*
X036705Y005089D01*
X036731D01*
X036705Y005114D01*
X036731Y005139D01*
X036705D01*
X03668Y005165D01*
X036655Y005139D01*
X036629D01*
X036655Y005114D01*
X036629Y005089D01*
X036655D01*
X03668Y005063D01*
X036121D02*
X036147Y005114D01*
X036121Y005165D01*
X036172Y005139D01*
X036223Y005165D01*
X036197Y005114D01*
X036223Y005063D01*
X036172Y005089D01*
X036121Y005063D01*
X036401Y005602D02*
Y005576D01*
X036451D01*
Y005602D01*
X036477D01*
Y005652D01*
X036451D01*
Y005678D01*
X036401D01*
Y005652D01*
X036375D01*
Y005602D01*
X036401D01*
X035778Y005355D02*
Y00533D01*
X035829D01*
Y005355D01*
X035855D01*
Y005406D01*
X035829D01*
Y005431D01*
X035778D01*
Y005406D01*
X035753D01*
Y005355D01*
X035778D01*
X023404Y004555D02*
X023353Y004657D01*
X023455D01*
X023404Y004555D01*
X02315D02*
X023099Y004657D01*
X023201D01*
X02315Y004555D01*
X022769Y005063D02*
X022794Y005089D01*
X02282D01*
X022794Y005114D01*
X02282Y005139D01*
X022794D01*
X022769Y005165D01*
X022744Y005139D01*
X022718D01*
X022744Y005114D01*
X022718Y005089D01*
X022744D01*
X022769Y005063D01*
X023785D02*
X02381Y005089D01*
X023836D01*
X02381Y005114D01*
X023836Y005139D01*
X02381D01*
X023785Y005165D01*
X02376Y005139D01*
X023734D01*
X02376Y005114D01*
X023734Y005089D01*
X02376D01*
X023785Y005063D01*
X023226D02*
X023252Y005114D01*
X023226Y005165D01*
X023277Y005139D01*
X023328Y005165D01*
X023302Y005114D01*
X023328Y005063D01*
X023277Y005089D01*
X023226Y005063D01*
X023506Y005602D02*
Y005576D01*
X023556D01*
Y005602D01*
X023582D01*
Y005652D01*
X023556D01*
Y005678D01*
X023506D01*
Y005652D01*
X02348D01*
Y005602D01*
X023506D01*
X022883Y005355D02*
Y00533D01*
X022934D01*
Y005355D01*
X02296D01*
Y005406D01*
X022934D01*
Y005431D01*
X022883D01*
Y005406D01*
X022858D01*
Y005355D01*
X022883D01*
X021504Y004555D02*
X021453Y004657D01*
X021555D01*
X021504Y004555D01*
X02125D02*
X021199Y004657D01*
X021301D01*
X02125Y004555D01*
X020869Y005063D02*
X020894Y005089D01*
X02092D01*
X020894Y005114D01*
X02092Y005139D01*
X020894D01*
X020869Y005165D01*
X020844Y005139D01*
X020818D01*
X020844Y005114D01*
X020818Y005089D01*
X020844D01*
X020869Y005063D01*
X021885D02*
X02191Y005089D01*
X021936D01*
X02191Y005114D01*
X021936Y005139D01*
X02191D01*
X021885Y005165D01*
X02186Y005139D01*
X021834D01*
X02186Y005114D01*
X021834Y005089D01*
X02186D01*
X021885Y005063D01*
X021326D02*
X021352Y005114D01*
X021326Y005165D01*
X021377Y005139D01*
X021428Y005165D01*
X021402Y005114D01*
X021428Y005063D01*
X021377Y005089D01*
X021326Y005063D01*
X021606Y005602D02*
Y005576D01*
X021656D01*
Y005602D01*
X021682D01*
Y005652D01*
X021656D01*
Y005678D01*
X021606D01*
Y005652D01*
X02158D01*
Y005602D01*
X021606D01*
X020983Y005355D02*
Y00533D01*
X021034D01*
Y005355D01*
X02106D01*
Y005406D01*
X021034D01*
Y005431D01*
X020983D01*
Y005406D01*
X020958D01*
Y005355D01*
X020983D01*
X019604Y004555D02*
X019553Y004657D01*
X019655D01*
X019604Y004555D01*
X01935D02*
X019299Y004657D01*
X019401D01*
X01935Y004555D01*
X018969Y005063D02*
X018994Y005089D01*
X01902D01*
X018994Y005114D01*
X01902Y005139D01*
X018994D01*
X018969Y005165D01*
X018944Y005139D01*
X018918D01*
X018944Y005114D01*
X018918Y005089D01*
X018944D01*
X018969Y005063D01*
X019985D02*
X02001Y005089D01*
X020036D01*
X02001Y005114D01*
X020036Y005139D01*
X02001D01*
X019985Y005165D01*
X01996Y005139D01*
X019934D01*
X01996Y005114D01*
X019934Y005089D01*
X01996D01*
X019985Y005063D01*
X019426D02*
X019452Y005114D01*
X019426Y005165D01*
X019477Y005139D01*
X019528Y005165D01*
X019502Y005114D01*
X019528Y005063D01*
X019477Y005089D01*
X019426Y005063D01*
X019706Y005602D02*
Y005576D01*
X019756D01*
Y005602D01*
X019782D01*
Y005652D01*
X019756D01*
Y005678D01*
X019706D01*
Y005652D01*
X01968D01*
Y005602D01*
X019706D01*
X019083Y005355D02*
Y00533D01*
X019134D01*
Y005355D01*
X01916D01*
Y005406D01*
X019134D01*
Y005431D01*
X019083D01*
Y005406D01*
X019058D01*
Y005355D01*
X019083D01*
X017704Y004555D02*
X017653Y004657D01*
X017755D01*
X017704Y004555D01*
X01745D02*
X017399Y004657D01*
X017501D01*
X01745Y004555D01*
X017069Y005063D02*
X017094Y005089D01*
X01712D01*
X017094Y005114D01*
X01712Y005139D01*
X017094D01*
X017069Y005165D01*
X017044Y005139D01*
X017018D01*
X017044Y005114D01*
X017018Y005089D01*
X017044D01*
X017069Y005063D01*
X018085D02*
X01811Y005089D01*
X018136D01*
X01811Y005114D01*
X018136Y005139D01*
X01811D01*
X018085Y005165D01*
X01806Y005139D01*
X018034D01*
X01806Y005114D01*
X018034Y005089D01*
X01806D01*
X018085Y005063D01*
X017526D02*
X017552Y005114D01*
X017526Y005165D01*
X017577Y005139D01*
X017628Y005165D01*
X017602Y005114D01*
X017628Y005063D01*
X017577Y005089D01*
X017526Y005063D01*
X017806Y005602D02*
Y005576D01*
X017856D01*
Y005602D01*
X017882D01*
Y005652D01*
X017856D01*
Y005678D01*
X017806D01*
Y005652D01*
X01778D01*
Y005602D01*
X017806D01*
X017183Y005355D02*
Y00533D01*
X017234D01*
Y005355D01*
X01726D01*
Y005406D01*
X017234D01*
Y005431D01*
X017183D01*
Y005406D01*
X017158D01*
Y005355D01*
X017183D01*
X015804Y004555D02*
X015753Y004657D01*
X015855D01*
X015804Y004555D01*
X01555D02*
X015499Y004657D01*
X015601D01*
X01555Y004555D01*
X015169Y005063D02*
X015194Y005089D01*
X01522D01*
X015194Y005114D01*
X01522Y005139D01*
X015194D01*
X015169Y005165D01*
X015144Y005139D01*
X015118D01*
X015144Y005114D01*
X015118Y005089D01*
X015144D01*
X015169Y005063D01*
X016185D02*
X01621Y005089D01*
X016236D01*
X01621Y005114D01*
X016236Y005139D01*
X01621D01*
X016185Y005165D01*
X01616Y005139D01*
X016134D01*
X01616Y005114D01*
X016134Y005089D01*
X01616D01*
X016185Y005063D01*
X015626D02*
X015652Y005114D01*
X015626Y005165D01*
X015677Y005139D01*
X015728Y005165D01*
X015702Y005114D01*
X015728Y005063D01*
X015677Y005089D01*
X015626Y005063D01*
X015906Y005602D02*
Y005576D01*
X015956D01*
Y005602D01*
X015982D01*
Y005652D01*
X015956D01*
Y005678D01*
X015906D01*
Y005652D01*
X01588D01*
Y005602D01*
X015906D01*
X015283Y005355D02*
Y00533D01*
X015334D01*
Y005355D01*
X01536D01*
Y005406D01*
X015334D01*
Y005431D01*
X015283D01*
Y005406D01*
X015258D01*
Y005355D01*
X015283D01*
X013904Y004555D02*
X013853Y004657D01*
X013955D01*
X013904Y004555D01*
X01365D02*
X013599Y004657D01*
X013701D01*
X01365Y004555D01*
X013269Y005063D02*
X013294Y005089D01*
X01332D01*
X013294Y005114D01*
X01332Y005139D01*
X013294D01*
X013269Y005165D01*
X013244Y005139D01*
X013218D01*
X013244Y005114D01*
X013218Y005089D01*
X013244D01*
X013269Y005063D01*
X014285D02*
X01431Y005089D01*
X014336D01*
X01431Y005114D01*
X014336Y005139D01*
X01431D01*
X014285Y005165D01*
X01426Y005139D01*
X014234D01*
X01426Y005114D01*
X014234Y005089D01*
X01426D01*
X014285Y005063D01*
X013726D02*
X013752Y005114D01*
X013726Y005165D01*
X013777Y005139D01*
X013828Y005165D01*
X013802Y005114D01*
X013828Y005063D01*
X013777Y005089D01*
X013726Y005063D01*
X014006Y005602D02*
Y005576D01*
X014056D01*
Y005602D01*
X014082D01*
Y005652D01*
X014056D01*
Y005678D01*
X014006D01*
Y005652D01*
X01398D01*
Y005602D01*
X014006D01*
X013383Y005355D02*
Y00533D01*
X013434D01*
Y005355D01*
X01346D01*
Y005406D01*
X013434D01*
Y005431D01*
X013383D01*
Y005406D01*
X013358D01*
Y005355D01*
X013383D01*
X012004Y004555D02*
X011953Y004657D01*
X012055D01*
X012004Y004555D01*
X01175D02*
X011699Y004657D01*
X011801D01*
X01175Y004555D01*
X011369Y005063D02*
X011394Y005089D01*
X01142D01*
X011394Y005114D01*
X01142Y005139D01*
X011394D01*
X011369Y005165D01*
X011344Y005139D01*
X011318D01*
X011344Y005114D01*
X011318Y005089D01*
X011344D01*
X011369Y005063D01*
X012385D02*
X01241Y005089D01*
X012436D01*
X01241Y005114D01*
X012436Y005139D01*
X01241D01*
X012385Y005165D01*
X01236Y005139D01*
X012334D01*
X01236Y005114D01*
X012334Y005089D01*
X01236D01*
X012385Y005063D01*
X011826D02*
X011852Y005114D01*
X011826Y005165D01*
X011877Y005139D01*
X011928Y005165D01*
X011902Y005114D01*
X011928Y005063D01*
X011877Y005089D01*
X011826Y005063D01*
X012106Y005602D02*
Y005576D01*
X012156D01*
Y005602D01*
X012182D01*
Y005652D01*
X012156D01*
Y005678D01*
X012106D01*
Y005652D01*
X01208D01*
Y005602D01*
X012106D01*
X011483Y005355D02*
Y00533D01*
X011534D01*
Y005355D01*
X01156D01*
Y005406D01*
X011534D01*
Y005431D01*
X011483D01*
Y005406D01*
X011458D01*
Y005355D01*
X011483D01*
X010104Y004555D02*
X010053Y004657D01*
X010155D01*
X010104Y004555D01*
X00985D02*
X009799Y004657D01*
X009901D01*
X00985Y004555D01*
X009469Y005063D02*
X009494Y005089D01*
X00952D01*
X009494Y005114D01*
X00952Y005139D01*
X009494D01*
X009469Y005165D01*
X009444Y005139D01*
X009418D01*
X009444Y005114D01*
X009418Y005089D01*
X009444D01*
X009469Y005063D01*
X010485D02*
X01051Y005089D01*
X010536D01*
X01051Y005114D01*
X010536Y005139D01*
X01051D01*
X010485Y005165D01*
X01046Y005139D01*
X010434D01*
X01046Y005114D01*
X010434Y005089D01*
X01046D01*
X010485Y005063D01*
X009926D02*
X009952Y005114D01*
X009926Y005165D01*
X009977Y005139D01*
X010028Y005165D01*
X010002Y005114D01*
X010028Y005063D01*
X009977Y005089D01*
X009926Y005063D01*
X010206Y005602D02*
Y005576D01*
X010256D01*
Y005602D01*
X010282D01*
Y005652D01*
X010256D01*
Y005678D01*
X010206D01*
Y005652D01*
X01018D01*
Y005602D01*
X010206D01*
X009583Y005355D02*
Y00533D01*
X009634D01*
Y005355D01*
X00966D01*
Y005406D01*
X009634D01*
Y005431D01*
X009583D01*
Y005406D01*
X009558D01*
Y005355D01*
X009583D01*
X008204Y004555D02*
X008153Y004657D01*
X008255D01*
X008204Y004555D01*
X00795D02*
X007899Y004657D01*
X008001D01*
X00795Y004555D01*
X007569Y005063D02*
X007594Y005089D01*
X00762D01*
X007594Y005114D01*
X00762Y005139D01*
X007594D01*
X007569Y005165D01*
X007544Y005139D01*
X007518D01*
X007544Y005114D01*
X007518Y005089D01*
X007544D01*
X007569Y005063D01*
X008585D02*
X00861Y005089D01*
X008636D01*
X00861Y005114D01*
X008636Y005139D01*
X00861D01*
X008585Y005165D01*
X00856Y005139D01*
X008534D01*
X00856Y005114D01*
X008534Y005089D01*
X00856D01*
X008585Y005063D01*
X008026D02*
X008052Y005114D01*
X008026Y005165D01*
X008077Y005139D01*
X008128Y005165D01*
X008102Y005114D01*
X008128Y005063D01*
X008077Y005089D01*
X008026Y005063D01*
X008306Y005602D02*
Y005576D01*
X008356D01*
Y005602D01*
X008382D01*
Y005652D01*
X008356D01*
Y005678D01*
X008306D01*
Y005652D01*
X00828D01*
Y005602D01*
X008306D01*
X007683Y005355D02*
Y00533D01*
X007734D01*
Y005355D01*
X00776D01*
Y005406D01*
X007734D01*
Y005431D01*
X007683D01*
Y005406D01*
X007658D01*
Y005355D01*
X007683D01*
X006304Y004555D02*
X006253Y004657D01*
X006355D01*
X006304Y004555D01*
X00605D02*
X005999Y004657D01*
X006101D01*
X00605Y004555D01*
X005669Y005063D02*
X005694Y005089D01*
X00572D01*
X005694Y005114D01*
X00572Y005139D01*
X005694D01*
X005669Y005165D01*
X005644Y005139D01*
X005618D01*
X005644Y005114D01*
X005618Y005089D01*
X005644D01*
X005669Y005063D01*
X006685D02*
X00671Y005089D01*
X006736D01*
X00671Y005114D01*
X006736Y005139D01*
X00671D01*
X006685Y005165D01*
X00666Y005139D01*
X006634D01*
X00666Y005114D01*
X006634Y005089D01*
X00666D01*
X006685Y005063D01*
X006126D02*
X006152Y005114D01*
X006126Y005165D01*
X006177Y005139D01*
X006228Y005165D01*
X006202Y005114D01*
X006228Y005063D01*
X006177Y005089D01*
X006126Y005063D01*
X006406Y005602D02*
Y005576D01*
X006456D01*
Y005602D01*
X006482D01*
Y005652D01*
X006456D01*
Y005678D01*
X006406D01*
Y005652D01*
X00638D01*
Y005602D01*
X006406D01*
X005783Y005355D02*
Y00533D01*
X005834D01*
Y005355D01*
X00586D01*
Y005406D01*
X005834D01*
Y005431D01*
X005783D01*
Y005406D01*
X005758D01*
Y005355D01*
X005783D01*
X004404Y004555D02*
X004353Y004657D01*
X004455D01*
X004404Y004555D01*
X00415D02*
X004099Y004657D01*
X004201D01*
X00415Y004555D01*
X003769Y005063D02*
X003794Y005089D01*
X00382D01*
X003794Y005114D01*
X00382Y005139D01*
X003794D01*
X003769Y005165D01*
X003744Y005139D01*
X003718D01*
X003744Y005114D01*
X003718Y005089D01*
X003744D01*
X003769Y005063D01*
X004785D02*
X00481Y005089D01*
X004836D01*
X00481Y005114D01*
X004836Y005139D01*
X00481D01*
X004785Y005165D01*
X00476Y005139D01*
X004734D01*
X00476Y005114D01*
X004734Y005089D01*
X00476D01*
X004785Y005063D01*
X004226D02*
X004252Y005114D01*
X004226Y005165D01*
X004277Y005139D01*
X004328Y005165D01*
X004302Y005114D01*
X004328Y005063D01*
X004277Y005089D01*
X004226Y005063D01*
X004506Y005602D02*
Y005576D01*
X004556D01*
Y005602D01*
X004582D01*
Y005652D01*
X004556D01*
Y005678D01*
X004506D01*
Y005652D01*
X00448D01*
Y005602D01*
X004506D01*
X003883Y005355D02*
Y00533D01*
X003934D01*
Y005355D01*
X00396D01*
Y005406D01*
X003934D01*
Y005431D01*
X003883D01*
Y005406D01*
X003858D01*
Y005355D01*
X003883D01*
X001792Y004559D02*
X001741Y00466D01*
X001843D01*
X001792Y004559D01*
X001538D02*
X001487Y00466D01*
X001589D01*
X001538Y004559D01*
X001157Y005067D02*
X001182Y005092D01*
X001208D01*
X001182Y005118D01*
X001208Y005143D01*
X001182D01*
X001157Y005168D01*
X001132Y005143D01*
X001106D01*
X001132Y005118D01*
X001106Y005092D01*
X001132D01*
X001157Y005067D01*
X002173D02*
X002198Y005092D01*
X002224D01*
X002198Y005118D01*
X002224Y005143D01*
X002198D01*
X002173Y005168D01*
X002148Y005143D01*
X002122D01*
X002148Y005118D01*
X002122Y005092D01*
X002148D01*
X002173Y005067D01*
X001614D02*
X00164Y005118D01*
X001614Y005168D01*
X001665Y005143D01*
X001716Y005168D01*
X00169Y005118D01*
X001716Y005067D01*
X001665Y005092D01*
X001614Y005067D01*
X001894Y005605D02*
Y00558D01*
X001944D01*
Y005605D01*
X00197D01*
Y005656D01*
X001944D01*
Y005681D01*
X001894D01*
Y005656D01*
X001868D01*
Y005605D01*
X001894D01*
X001271Y005359D02*
Y005333D01*
X001322D01*
Y005359D01*
X001348D01*
Y00541D01*
X001322D01*
Y005435D01*
X001271D01*
Y00541D01*
X001246D01*
Y005359D01*
X001271D01*
X040099Y006455D02*
X040048Y006557D01*
X04015D01*
X040099Y006455D01*
X039845D02*
X039794Y006557D01*
X039896D01*
X039845Y006455D01*
X039464Y006963D02*
X039489Y006989D01*
X039515D01*
X039489Y007014D01*
X039515Y007039D01*
X039489D01*
X039464Y007065D01*
X039439Y007039D01*
X039413D01*
X039439Y007014D01*
X039413Y006989D01*
X039439D01*
X039464Y006963D01*
X04048D02*
X040505Y006989D01*
X040531D01*
X040505Y007014D01*
X040531Y007039D01*
X040505D01*
X04048Y007065D01*
X040455Y007039D01*
X040429D01*
X040455Y007014D01*
X040429Y006989D01*
X040455D01*
X04048Y006963D01*
X039921D02*
X039947Y007014D01*
X039921Y007065D01*
X039972Y007039D01*
X040023Y007065D01*
X039997Y007014D01*
X040023Y006963D01*
X039972Y006989D01*
X039921Y006963D01*
X040201Y007502D02*
Y007476D01*
X040251D01*
Y007502D01*
X040277D01*
Y007552D01*
X040251D01*
Y007578D01*
X040201D01*
Y007552D01*
X040175D01*
Y007502D01*
X040201D01*
X039578Y007255D02*
Y00723D01*
X039629D01*
Y007255D01*
X039655D01*
Y007306D01*
X039629D01*
Y007332D01*
X039578D01*
Y007306D01*
X039553D01*
Y007255D01*
X039578D01*
X038199Y006455D02*
X038148Y006557D01*
X03825D01*
X038199Y006455D01*
X037945D02*
X037894Y006557D01*
X037996D01*
X037945Y006455D01*
X037564Y006963D02*
X037589Y006989D01*
X037615D01*
X037589Y007014D01*
X037615Y007039D01*
X037589D01*
X037564Y007065D01*
X037539Y007039D01*
X037513D01*
X037539Y007014D01*
X037513Y006989D01*
X037539D01*
X037564Y006963D01*
X03858D02*
X038605Y006989D01*
X038631D01*
X038605Y007014D01*
X038631Y007039D01*
X038605D01*
X03858Y007065D01*
X038555Y007039D01*
X038529D01*
X038555Y007014D01*
X038529Y006989D01*
X038555D01*
X03858Y006963D01*
X038021D02*
X038047Y007014D01*
X038021Y007065D01*
X038072Y007039D01*
X038123Y007065D01*
X038097Y007014D01*
X038123Y006963D01*
X038072Y006989D01*
X038021Y006963D01*
X038301Y007502D02*
Y007476D01*
X038351D01*
Y007502D01*
X038377D01*
Y007552D01*
X038351D01*
Y007578D01*
X038301D01*
Y007552D01*
X038275D01*
Y007502D01*
X038301D01*
X037678Y007255D02*
Y00723D01*
X037729D01*
Y007255D01*
X037755D01*
Y007306D01*
X037729D01*
Y007332D01*
X037678D01*
Y007306D01*
X037653D01*
Y007255D01*
X037678D01*
X036299Y006455D02*
X036248Y006557D01*
X03635D01*
X036299Y006455D01*
X036045D02*
X035994Y006557D01*
X036096D01*
X036045Y006455D01*
X035664Y006963D02*
X035689Y006989D01*
X035715D01*
X035689Y007014D01*
X035715Y007039D01*
X035689D01*
X035664Y007065D01*
X035639Y007039D01*
X035613D01*
X035639Y007014D01*
X035613Y006989D01*
X035639D01*
X035664Y006963D01*
X03668D02*
X036705Y006989D01*
X036731D01*
X036705Y007014D01*
X036731Y007039D01*
X036705D01*
X03668Y007065D01*
X036655Y007039D01*
X036629D01*
X036655Y007014D01*
X036629Y006989D01*
X036655D01*
X03668Y006963D01*
X036121D02*
X036147Y007014D01*
X036121Y007065D01*
X036172Y007039D01*
X036223Y007065D01*
X036197Y007014D01*
X036223Y006963D01*
X036172Y006989D01*
X036121Y006963D01*
X036401Y007502D02*
Y007476D01*
X036451D01*
Y007502D01*
X036477D01*
Y007552D01*
X036451D01*
Y007578D01*
X036401D01*
Y007552D01*
X036375D01*
Y007502D01*
X036401D01*
X035778Y007255D02*
Y00723D01*
X035829D01*
Y007255D01*
X035855D01*
Y007306D01*
X035829D01*
Y007332D01*
X035778D01*
Y007306D01*
X035753D01*
Y007255D01*
X035778D01*
X033884Y006455D02*
X033833Y006557D01*
X033935D01*
X033884Y006455D01*
X03363D02*
X033579Y006557D01*
X033681D01*
X03363Y006455D01*
X033249Y006963D02*
X033274Y006989D01*
X0333D01*
X033274Y007014D01*
X0333Y007039D01*
X033274D01*
X033249Y007065D01*
X033224Y007039D01*
X033198D01*
X033224Y007014D01*
X033198Y006989D01*
X033224D01*
X033249Y006963D01*
X034265D02*
X03429Y006989D01*
X034316D01*
X03429Y007014D01*
X034316Y007039D01*
X03429D01*
X034265Y007065D01*
X03424Y007039D01*
X034214D01*
X03424Y007014D01*
X034214Y006989D01*
X03424D01*
X034265Y006963D01*
X033706D02*
X033732Y007014D01*
X033706Y007065D01*
X033757Y007039D01*
X033808Y007065D01*
X033782Y007014D01*
X033808Y006963D01*
X033757Y006989D01*
X033706Y006963D01*
X033986Y007502D02*
Y007476D01*
X034036D01*
Y007502D01*
X034062D01*
Y007552D01*
X034036D01*
Y007578D01*
X033986D01*
Y007552D01*
X03396D01*
Y007502D01*
X033986D01*
X033363Y007255D02*
Y00723D01*
X033414D01*
Y007255D01*
X033439D01*
Y007306D01*
X033414D01*
Y007332D01*
X033363D01*
Y007306D01*
X033338D01*
Y007255D01*
X033363D01*
X031984Y006455D02*
X031933Y006557D01*
X032035D01*
X031984Y006455D01*
X03173D02*
X031679Y006557D01*
X031781D01*
X03173Y006455D01*
X031349Y006963D02*
X031374Y006989D01*
X0314D01*
X031374Y007014D01*
X0314Y007039D01*
X031374D01*
X031349Y007065D01*
X031324Y007039D01*
X031298D01*
X031324Y007014D01*
X031298Y006989D01*
X031324D01*
X031349Y006963D01*
X032365D02*
X03239Y006989D01*
X032416D01*
X03239Y007014D01*
X032416Y007039D01*
X03239D01*
X032365Y007065D01*
X03234Y007039D01*
X032314D01*
X03234Y007014D01*
X032314Y006989D01*
X03234D01*
X032365Y006963D01*
X031806D02*
X031832Y007014D01*
X031806Y007065D01*
X031857Y007039D01*
X031908Y007065D01*
X031882Y007014D01*
X031908Y006963D01*
X031857Y006989D01*
X031806Y006963D01*
X032086Y007502D02*
Y007476D01*
X032136D01*
Y007502D01*
X032162D01*
Y007552D01*
X032136D01*
Y007578D01*
X032086D01*
Y007552D01*
X03206D01*
Y007502D01*
X032086D01*
X031463Y007255D02*
Y00723D01*
X031514D01*
Y007255D01*
X031539D01*
Y007306D01*
X031514D01*
Y007332D01*
X031463D01*
Y007306D01*
X031438D01*
Y007255D01*
X031463D01*
X030084Y006455D02*
X030033Y006557D01*
X030135D01*
X030084Y006455D01*
X02983D02*
X029779Y006557D01*
X029881D01*
X02983Y006455D01*
X029449Y006963D02*
X029474Y006989D01*
X0295D01*
X029474Y007014D01*
X0295Y007039D01*
X029474D01*
X029449Y007065D01*
X029424Y007039D01*
X029398D01*
X029424Y007014D01*
X029398Y006989D01*
X029424D01*
X029449Y006963D01*
X030465D02*
X03049Y006989D01*
X030516D01*
X03049Y007014D01*
X030516Y007039D01*
X03049D01*
X030465Y007065D01*
X03044Y007039D01*
X030414D01*
X03044Y007014D01*
X030414Y006989D01*
X03044D01*
X030465Y006963D01*
X029906D02*
X029932Y007014D01*
X029906Y007065D01*
X029957Y007039D01*
X030008Y007065D01*
X029982Y007014D01*
X030008Y006963D01*
X029957Y006989D01*
X029906Y006963D01*
X030186Y007502D02*
Y007476D01*
X030236D01*
Y007502D01*
X030262D01*
Y007552D01*
X030236D01*
Y007578D01*
X030186D01*
Y007552D01*
X03016D01*
Y007502D01*
X030186D01*
X029563Y007255D02*
Y00723D01*
X029614D01*
Y007255D01*
X029639D01*
Y007306D01*
X029614D01*
Y007332D01*
X029563D01*
Y007306D01*
X029538D01*
Y007255D01*
X029563D01*
X024829Y006465D02*
X024778Y006567D01*
X02488D01*
X024829Y006465D01*
X024575D02*
X024524Y006567D01*
X024626D01*
X024575Y006465D01*
X024194Y006973D02*
X024219Y006999D01*
X024245D01*
X024219Y007024D01*
X024245Y007049D01*
X024219D01*
X024194Y007075D01*
X024169Y007049D01*
X024143D01*
X024169Y007024D01*
X024143Y006999D01*
X024169D01*
X024194Y006973D01*
X02521D02*
X025235Y006999D01*
X025261D01*
X025235Y007024D01*
X025261Y007049D01*
X025235D01*
X02521Y007075D01*
X025185Y007049D01*
X025159D01*
X025185Y007024D01*
X025159Y006999D01*
X025185D01*
X02521Y006973D01*
X024651D02*
X024677Y007024D01*
X024651Y007075D01*
X024702Y007049D01*
X024753Y007075D01*
X024727Y007024D01*
X024753Y006973D01*
X024702Y006999D01*
X024651Y006973D01*
X024931Y007512D02*
Y007486D01*
X024981D01*
Y007512D01*
X025007D01*
Y007562D01*
X024981D01*
Y007588D01*
X024931D01*
Y007562D01*
X024905D01*
Y007512D01*
X024931D01*
X024308Y007265D02*
Y00724D01*
X024359D01*
Y007265D01*
X024385D01*
Y007316D01*
X024359D01*
Y007342D01*
X024308D01*
Y007316D01*
X024283D01*
Y007265D01*
X024308D01*
X022929Y006465D02*
X022878Y006567D01*
X02298D01*
X022929Y006465D01*
X022675D02*
X022624Y006567D01*
X022726D01*
X022675Y006465D01*
X022294Y006973D02*
X022319Y006999D01*
X022345D01*
X022319Y007024D01*
X022345Y007049D01*
X022319D01*
X022294Y007075D01*
X022269Y007049D01*
X022243D01*
X022269Y007024D01*
X022243Y006999D01*
X022269D01*
X022294Y006973D01*
X02331D02*
X023335Y006999D01*
X023361D01*
X023335Y007024D01*
X023361Y007049D01*
X023335D01*
X02331Y007075D01*
X023285Y007049D01*
X023259D01*
X023285Y007024D01*
X023259Y006999D01*
X023285D01*
X02331Y006973D01*
X022751D02*
X022777Y007024D01*
X022751Y007075D01*
X022802Y007049D01*
X022853Y007075D01*
X022827Y007024D01*
X022853Y006973D01*
X022802Y006999D01*
X022751Y006973D01*
X023031Y007512D02*
Y007486D01*
X023081D01*
Y007512D01*
X023107D01*
Y007562D01*
X023081D01*
Y007588D01*
X023031D01*
Y007562D01*
X023005D01*
Y007512D01*
X023031D01*
X022408Y007265D02*
Y00724D01*
X022459D01*
Y007265D01*
X022485D01*
Y007316D01*
X022459D01*
Y007342D01*
X022408D01*
Y007316D01*
X022383D01*
Y007265D01*
X022408D01*
X021029Y006465D02*
X020978Y006567D01*
X02108D01*
X021029Y006465D01*
X020775D02*
X020724Y006567D01*
X020826D01*
X020775Y006465D01*
X020394Y006973D02*
X020419Y006999D01*
X020445D01*
X020419Y007024D01*
X020445Y007049D01*
X020419D01*
X020394Y007075D01*
X020369Y007049D01*
X020343D01*
X020369Y007024D01*
X020343Y006999D01*
X020369D01*
X020394Y006973D01*
X02141D02*
X021435Y006999D01*
X021461D01*
X021435Y007024D01*
X021461Y007049D01*
X021435D01*
X02141Y007075D01*
X021385Y007049D01*
X021359D01*
X021385Y007024D01*
X021359Y006999D01*
X021385D01*
X02141Y006973D01*
X020851D02*
X020877Y007024D01*
X020851Y007075D01*
X020902Y007049D01*
X020953Y007075D01*
X020927Y007024D01*
X020953Y006973D01*
X020902Y006999D01*
X020851Y006973D01*
X021131Y007512D02*
Y007486D01*
X021181D01*
Y007512D01*
X021207D01*
Y007562D01*
X021181D01*
Y007588D01*
X021131D01*
Y007562D01*
X021105D01*
Y007512D01*
X021131D01*
X020508Y007265D02*
Y00724D01*
X020559D01*
Y007265D01*
X020585D01*
Y007316D01*
X020559D01*
Y007342D01*
X020508D01*
Y007316D01*
X020483D01*
Y007265D01*
X020508D01*
X019129Y006465D02*
X019078Y006567D01*
X01918D01*
X019129Y006465D01*
X018875D02*
X018824Y006567D01*
X018926D01*
X018875Y006465D01*
X018494Y006973D02*
X018519Y006999D01*
X018545D01*
X018519Y007024D01*
X018545Y007049D01*
X018519D01*
X018494Y007075D01*
X018469Y007049D01*
X018443D01*
X018469Y007024D01*
X018443Y006999D01*
X018469D01*
X018494Y006973D01*
X01951D02*
X019535Y006999D01*
X019561D01*
X019535Y007024D01*
X019561Y007049D01*
X019535D01*
X01951Y007075D01*
X019485Y007049D01*
X019459D01*
X019485Y007024D01*
X019459Y006999D01*
X019485D01*
X01951Y006973D01*
X018951D02*
X018977Y007024D01*
X018951Y007075D01*
X019002Y007049D01*
X019053Y007075D01*
X019027Y007024D01*
X019053Y006973D01*
X019002Y006999D01*
X018951Y006973D01*
X019231Y007512D02*
Y007486D01*
X019281D01*
Y007512D01*
X019307D01*
Y007562D01*
X019281D01*
Y007588D01*
X019231D01*
Y007562D01*
X019205D01*
Y007512D01*
X019231D01*
X018608Y007265D02*
Y00724D01*
X018659D01*
Y007265D01*
X018685D01*
Y007316D01*
X018659D01*
Y007342D01*
X018608D01*
Y007316D01*
X018583D01*
Y007265D01*
X018608D01*
X017229Y006465D02*
X017178Y006567D01*
X01728D01*
X017229Y006465D01*
X016975D02*
X016924Y006567D01*
X017026D01*
X016975Y006465D01*
X016594Y006973D02*
X016619Y006999D01*
X016645D01*
X016619Y007024D01*
X016645Y007049D01*
X016619D01*
X016594Y007075D01*
X016569Y007049D01*
X016543D01*
X016569Y007024D01*
X016543Y006999D01*
X016569D01*
X016594Y006973D01*
X01761D02*
X017635Y006999D01*
X017661D01*
X017635Y007024D01*
X017661Y007049D01*
X017635D01*
X01761Y007075D01*
X017585Y007049D01*
X017559D01*
X017585Y007024D01*
X017559Y006999D01*
X017585D01*
X01761Y006973D01*
X017051D02*
X017077Y007024D01*
X017051Y007075D01*
X017102Y007049D01*
X017153Y007075D01*
X017127Y007024D01*
X017153Y006973D01*
X017102Y006999D01*
X017051Y006973D01*
X017331Y007512D02*
Y007486D01*
X017381D01*
Y007512D01*
X017407D01*
Y007562D01*
X017381D01*
Y007588D01*
X017331D01*
Y007562D01*
X017305D01*
Y007512D01*
X017331D01*
X016708Y007265D02*
Y00724D01*
X016759D01*
Y007265D01*
X016785D01*
Y007316D01*
X016759D01*
Y007342D01*
X016708D01*
Y007316D01*
X016683D01*
Y007265D01*
X016708D01*
X015329Y006465D02*
X015278Y006567D01*
X01538D01*
X015329Y006465D01*
X015075D02*
X015024Y006567D01*
X015126D01*
X015075Y006465D01*
X014694Y006973D02*
X014719Y006999D01*
X014745D01*
X014719Y007024D01*
X014745Y007049D01*
X014719D01*
X014694Y007075D01*
X014669Y007049D01*
X014643D01*
X014669Y007024D01*
X014643Y006999D01*
X014669D01*
X014694Y006973D01*
X01571D02*
X015735Y006999D01*
X015761D01*
X015735Y007024D01*
X015761Y007049D01*
X015735D01*
X01571Y007075D01*
X015685Y007049D01*
X015659D01*
X015685Y007024D01*
X015659Y006999D01*
X015685D01*
X01571Y006973D01*
X015151D02*
X015177Y007024D01*
X015151Y007075D01*
X015202Y007049D01*
X015253Y007075D01*
X015227Y007024D01*
X015253Y006973D01*
X015202Y006999D01*
X015151Y006973D01*
X015431Y007512D02*
Y007486D01*
X015481D01*
Y007512D01*
X015507D01*
Y007562D01*
X015481D01*
Y007588D01*
X015431D01*
Y007562D01*
X015405D01*
Y007512D01*
X015431D01*
X014808Y007265D02*
Y00724D01*
X014859D01*
Y007265D01*
X014885D01*
Y007316D01*
X014859D01*
Y007342D01*
X014808D01*
Y007316D01*
X014783D01*
Y007265D01*
X014808D01*
X013429Y006465D02*
X013378Y006567D01*
X01348D01*
X013429Y006465D01*
X013175D02*
X013124Y006567D01*
X013226D01*
X013175Y006465D01*
X012794Y006973D02*
X012819Y006999D01*
X012845D01*
X012819Y007024D01*
X012845Y007049D01*
X012819D01*
X012794Y007075D01*
X012769Y007049D01*
X012743D01*
X012769Y007024D01*
X012743Y006999D01*
X012769D01*
X012794Y006973D01*
X01381D02*
X013835Y006999D01*
X013861D01*
X013835Y007024D01*
X013861Y007049D01*
X013835D01*
X01381Y007075D01*
X013785Y007049D01*
X013759D01*
X013785Y007024D01*
X013759Y006999D01*
X013785D01*
X01381Y006973D01*
X013251D02*
X013277Y007024D01*
X013251Y007075D01*
X013302Y007049D01*
X013353Y007075D01*
X013327Y007024D01*
X013353Y006973D01*
X013302Y006999D01*
X013251Y006973D01*
X013531Y007512D02*
Y007486D01*
X013581D01*
Y007512D01*
X013607D01*
Y007562D01*
X013581D01*
Y007588D01*
X013531D01*
Y007562D01*
X013505D01*
Y007512D01*
X013531D01*
X012908Y007265D02*
Y00724D01*
X012959D01*
Y007265D01*
X012985D01*
Y007316D01*
X012959D01*
Y007342D01*
X012908D01*
Y007316D01*
X012883D01*
Y007265D01*
X012908D01*
X011529Y006465D02*
X011478Y006567D01*
X01158D01*
X011529Y006465D01*
X011275D02*
X011224Y006567D01*
X011326D01*
X011275Y006465D01*
X010894Y006973D02*
X010919Y006999D01*
X010945D01*
X010919Y007024D01*
X010945Y007049D01*
X010919D01*
X010894Y007075D01*
X010869Y007049D01*
X010843D01*
X010869Y007024D01*
X010843Y006999D01*
X010869D01*
X010894Y006973D01*
X01191D02*
X011935Y006999D01*
X011961D01*
X011935Y007024D01*
X011961Y007049D01*
X011935D01*
X01191Y007075D01*
X011885Y007049D01*
X011859D01*
X011885Y007024D01*
X011859Y006999D01*
X011885D01*
X01191Y006973D01*
X011351D02*
X011377Y007024D01*
X011351Y007075D01*
X011402Y007049D01*
X011453Y007075D01*
X011427Y007024D01*
X011453Y006973D01*
X011402Y006999D01*
X011351Y006973D01*
X011631Y007512D02*
Y007486D01*
X011681D01*
Y007512D01*
X011707D01*
Y007562D01*
X011681D01*
Y007588D01*
X011631D01*
Y007562D01*
X011605D01*
Y007512D01*
X011631D01*
X011008Y007265D02*
Y00724D01*
X011059D01*
Y007265D01*
X011085D01*
Y007316D01*
X011059D01*
Y007342D01*
X011008D01*
Y007316D01*
X010983D01*
Y007265D01*
X011008D01*
X009629Y006465D02*
X009578Y006567D01*
X00968D01*
X009629Y006465D01*
X009375D02*
X009324Y006567D01*
X009426D01*
X009375Y006465D01*
X008994Y006973D02*
X009019Y006999D01*
X009045D01*
X009019Y007024D01*
X009045Y007049D01*
X009019D01*
X008994Y007075D01*
X008969Y007049D01*
X008943D01*
X008969Y007024D01*
X008943Y006999D01*
X008969D01*
X008994Y006973D01*
X01001D02*
X010035Y006999D01*
X010061D01*
X010035Y007024D01*
X010061Y007049D01*
X010035D01*
X01001Y007075D01*
X009985Y007049D01*
X009959D01*
X009985Y007024D01*
X009959Y006999D01*
X009985D01*
X01001Y006973D01*
X009451D02*
X009477Y007024D01*
X009451Y007075D01*
X009502Y007049D01*
X009553Y007075D01*
X009527Y007024D01*
X009553Y006973D01*
X009502Y006999D01*
X009451Y006973D01*
X009731Y007512D02*
Y007486D01*
X009781D01*
Y007512D01*
X009807D01*
Y007562D01*
X009781D01*
Y007588D01*
X009731D01*
Y007562D01*
X009705D01*
Y007512D01*
X009731D01*
X009108Y007265D02*
Y00724D01*
X009159D01*
Y007265D01*
X009185D01*
Y007316D01*
X009159D01*
Y007342D01*
X009108D01*
Y007316D01*
X009083D01*
Y007265D01*
X009108D01*
X007729Y006465D02*
X007678Y006567D01*
X00778D01*
X007729Y006465D01*
X007475D02*
X007424Y006567D01*
X007526D01*
X007475Y006465D01*
X007094Y006973D02*
X007119Y006999D01*
X007145D01*
X007119Y007024D01*
X007145Y007049D01*
X007119D01*
X007094Y007075D01*
X007069Y007049D01*
X007043D01*
X007069Y007024D01*
X007043Y006999D01*
X007069D01*
X007094Y006973D01*
X00811D02*
X008135Y006999D01*
X008161D01*
X008135Y007024D01*
X008161Y007049D01*
X008135D01*
X00811Y007075D01*
X008085Y007049D01*
X008059D01*
X008085Y007024D01*
X008059Y006999D01*
X008085D01*
X00811Y006973D01*
X007551D02*
X007577Y007024D01*
X007551Y007075D01*
X007602Y007049D01*
X007653Y007075D01*
X007627Y007024D01*
X007653Y006973D01*
X007602Y006999D01*
X007551Y006973D01*
X007831Y007512D02*
Y007486D01*
X007881D01*
Y007512D01*
X007907D01*
Y007562D01*
X007881D01*
Y007588D01*
X007831D01*
Y007562D01*
X007805D01*
Y007512D01*
X007831D01*
X007208Y007265D02*
Y00724D01*
X007259D01*
Y007265D01*
X007285D01*
Y007316D01*
X007259D01*
Y007342D01*
X007208D01*
Y007316D01*
X007183D01*
Y007265D01*
X007208D01*
X005829Y006455D02*
X005778Y006557D01*
X00588D01*
X005829Y006455D01*
X005575D02*
X005524Y006557D01*
X005626D01*
X005575Y006455D01*
X005194Y006963D02*
X005219Y006989D01*
X005245D01*
X005219Y007014D01*
X005245Y007039D01*
X005219D01*
X005194Y007065D01*
X005169Y007039D01*
X005143D01*
X005169Y007014D01*
X005143Y006989D01*
X005169D01*
X005194Y006963D01*
X00621D02*
X006235Y006989D01*
X006261D01*
X006235Y007014D01*
X006261Y007039D01*
X006235D01*
X00621Y007065D01*
X006185Y007039D01*
X006159D01*
X006185Y007014D01*
X006159Y006989D01*
X006185D01*
X00621Y006963D01*
X005651D02*
X005677Y007014D01*
X005651Y007065D01*
X005702Y007039D01*
X005753Y007065D01*
X005727Y007014D01*
X005753Y006963D01*
X005702Y006989D01*
X005651Y006963D01*
X005931Y007502D02*
Y007476D01*
X005981D01*
Y007502D01*
X006007D01*
Y007552D01*
X005981D01*
Y007578D01*
X005931D01*
Y007552D01*
X005905D01*
Y007502D01*
X005931D01*
X005308Y007255D02*
Y00723D01*
X005359D01*
Y007255D01*
X005385D01*
Y007306D01*
X005359D01*
Y007332D01*
X005308D01*
Y007306D01*
X005283D01*
Y007255D01*
X005308D01*
X003929Y006455D02*
X003878Y006557D01*
X00398D01*
X003929Y006455D01*
X003675D02*
X003624Y006557D01*
X003726D01*
X003675Y006455D01*
X003294Y006963D02*
X003319Y006989D01*
X003345D01*
X003319Y007014D01*
X003345Y007039D01*
X003319D01*
X003294Y007065D01*
X003269Y007039D01*
X003243D01*
X003269Y007014D01*
X003243Y006989D01*
X003269D01*
X003294Y006963D01*
X00431D02*
X004335Y006989D01*
X004361D01*
X004335Y007014D01*
X004361Y007039D01*
X004335D01*
X00431Y007065D01*
X004285Y007039D01*
X004259D01*
X004285Y007014D01*
X004259Y006989D01*
X004285D01*
X00431Y006963D01*
X003751D02*
X003777Y007014D01*
X003751Y007065D01*
X003802Y007039D01*
X003853Y007065D01*
X003827Y007014D01*
X003853Y006963D01*
X003802Y006989D01*
X003751Y006963D01*
X004031Y007502D02*
Y007476D01*
X004081D01*
Y007502D01*
X004107D01*
Y007552D01*
X004081D01*
Y007578D01*
X004031D01*
Y007552D01*
X004005D01*
Y007502D01*
X004031D01*
X003408Y007255D02*
Y00723D01*
X003459D01*
Y007255D01*
X003485D01*
Y007306D01*
X003459D01*
Y007332D01*
X003408D01*
Y007306D01*
X003383D01*
Y007255D01*
X003408D01*
X001554Y006455D02*
X001503Y006557D01*
X001605D01*
X001554Y006455D01*
X0013D02*
X001249Y006557D01*
X001351D01*
X0013Y006455D01*
X000919Y006963D02*
X000944Y006989D01*
X00097D01*
X000944Y007014D01*
X00097Y007039D01*
X000944D01*
X000919Y007065D01*
X000894Y007039D01*
X000868D01*
X000894Y007014D01*
X000868Y006989D01*
X000894D01*
X000919Y006963D01*
X001935D02*
X00196Y006989D01*
X001986D01*
X00196Y007014D01*
X001986Y007039D01*
X00196D01*
X001935Y007065D01*
X00191Y007039D01*
X001884D01*
X00191Y007014D01*
X001884Y006989D01*
X00191D01*
X001935Y006963D01*
X001376D02*
X001402Y007014D01*
X001376Y007065D01*
X001427Y007039D01*
X001478Y007065D01*
X001452Y007014D01*
X001478Y006963D01*
X001427Y006989D01*
X001376Y006963D01*
X001656Y007502D02*
Y007476D01*
X001706D01*
Y007502D01*
X001732D01*
Y007552D01*
X001706D01*
Y007578D01*
X001656D01*
Y007552D01*
X00163D01*
Y007502D01*
X001656D01*
X001033Y007255D02*
Y00723D01*
X001084D01*
Y007255D01*
X00111D01*
Y007306D01*
X001084D01*
Y007332D01*
X001033D01*
Y007306D01*
X001008D01*
Y007255D01*
X001033D01*
X040099Y008355D02*
X040048Y008457D01*
X04015D01*
X040099Y008355D01*
X039845D02*
X039794Y008457D01*
X039896D01*
X039845Y008355D01*
X039464Y008863D02*
X039489Y008889D01*
X039515D01*
X039489Y008914D01*
X039515Y008939D01*
X039489D01*
X039464Y008965D01*
X039439Y008939D01*
X039413D01*
X039439Y008914D01*
X039413Y008889D01*
X039439D01*
X039464Y008863D01*
X04048D02*
X040505Y008889D01*
X040531D01*
X040505Y008914D01*
X040531Y008939D01*
X040505D01*
X04048Y008965D01*
X040455Y008939D01*
X040429D01*
X040455Y008914D01*
X040429Y008889D01*
X040455D01*
X04048Y008863D01*
X039921D02*
X039947Y008914D01*
X039921Y008965D01*
X039972Y008939D01*
X040023Y008965D01*
X039997Y008914D01*
X040023Y008863D01*
X039972Y008889D01*
X039921Y008863D01*
X040201Y009402D02*
Y009376D01*
X040251D01*
Y009402D01*
X040277D01*
Y009452D01*
X040251D01*
Y009478D01*
X040201D01*
Y009452D01*
X040175D01*
Y009402D01*
X040201D01*
X039578Y009155D02*
Y00913D01*
X039629D01*
Y009155D01*
X039655D01*
Y009206D01*
X039629D01*
Y009232D01*
X039578D01*
Y009206D01*
X039553D01*
Y009155D01*
X039578D01*
X038199Y008355D02*
X038148Y008457D01*
X03825D01*
X038199Y008355D01*
X037945D02*
X037894Y008457D01*
X037996D01*
X037945Y008355D01*
X037564Y008863D02*
X037589Y008889D01*
X037615D01*
X037589Y008914D01*
X037615Y008939D01*
X037589D01*
X037564Y008965D01*
X037539Y008939D01*
X037513D01*
X037539Y008914D01*
X037513Y008889D01*
X037539D01*
X037564Y008863D01*
X03858D02*
X038605Y008889D01*
X038631D01*
X038605Y008914D01*
X038631Y008939D01*
X038605D01*
X03858Y008965D01*
X038555Y008939D01*
X038529D01*
X038555Y008914D01*
X038529Y008889D01*
X038555D01*
X03858Y008863D01*
X038021D02*
X038047Y008914D01*
X038021Y008965D01*
X038072Y008939D01*
X038123Y008965D01*
X038097Y008914D01*
X038123Y008863D01*
X038072Y008889D01*
X038021Y008863D01*
X038301Y009402D02*
Y009376D01*
X038351D01*
Y009402D01*
X038377D01*
Y009452D01*
X038351D01*
Y009478D01*
X038301D01*
Y009452D01*
X038275D01*
Y009402D01*
X038301D01*
X037678Y009155D02*
Y00913D01*
X037729D01*
Y009155D01*
X037755D01*
Y009206D01*
X037729D01*
Y009232D01*
X037678D01*
Y009206D01*
X037653D01*
Y009155D01*
X037678D01*
X036299Y008355D02*
X036248Y008457D01*
X03635D01*
X036299Y008355D01*
X036045D02*
X035994Y008457D01*
X036096D01*
X036045Y008355D01*
X035664Y008863D02*
X035689Y008889D01*
X035715D01*
X035689Y008914D01*
X035715Y008939D01*
X035689D01*
X035664Y008965D01*
X035639Y008939D01*
X035613D01*
X035639Y008914D01*
X035613Y008889D01*
X035639D01*
X035664Y008863D01*
X03668D02*
X036705Y008889D01*
X036731D01*
X036705Y008914D01*
X036731Y008939D01*
X036705D01*
X03668Y008965D01*
X036655Y008939D01*
X036629D01*
X036655Y008914D01*
X036629Y008889D01*
X036655D01*
X03668Y008863D01*
X036121D02*
X036147Y008914D01*
X036121Y008965D01*
X036172Y008939D01*
X036223Y008965D01*
X036197Y008914D01*
X036223Y008863D01*
X036172Y008889D01*
X036121Y008863D01*
X036401Y009402D02*
Y009376D01*
X036451D01*
Y009402D01*
X036477D01*
Y009452D01*
X036451D01*
Y009478D01*
X036401D01*
Y009452D01*
X036375D01*
Y009402D01*
X036401D01*
X035778Y009155D02*
Y00913D01*
X035829D01*
Y009155D01*
X035855D01*
Y009206D01*
X035829D01*
Y009232D01*
X035778D01*
Y009206D01*
X035753D01*
Y009155D01*
X035778D01*
X031984Y008355D02*
X031933Y008457D01*
X032035D01*
X031984Y008355D01*
X03173D02*
X031679Y008457D01*
X031781D01*
X03173Y008355D01*
X031349Y008863D02*
X031374Y008889D01*
X0314D01*
X031374Y008914D01*
X0314Y008939D01*
X031374D01*
X031349Y008965D01*
X031324Y008939D01*
X031298D01*
X031324Y008914D01*
X031298Y008889D01*
X031324D01*
X031349Y008863D01*
X032365D02*
X03239Y008889D01*
X032416D01*
X03239Y008914D01*
X032416Y008939D01*
X03239D01*
X032365Y008965D01*
X03234Y008939D01*
X032314D01*
X03234Y008914D01*
X032314Y008889D01*
X03234D01*
X032365Y008863D01*
X031806D02*
X031832Y008914D01*
X031806Y008965D01*
X031857Y008939D01*
X031908Y008965D01*
X031882Y008914D01*
X031908Y008863D01*
X031857Y008889D01*
X031806Y008863D01*
X032086Y009402D02*
Y009376D01*
X032136D01*
Y009402D01*
X032162D01*
Y009452D01*
X032136D01*
Y009478D01*
X032086D01*
Y009452D01*
X03206D01*
Y009402D01*
X032086D01*
X031463Y009155D02*
Y00913D01*
X031514D01*
Y009155D01*
X031539D01*
Y009206D01*
X031514D01*
Y009232D01*
X031463D01*
Y009206D01*
X031438D01*
Y009155D01*
X031463D01*
X030084Y008355D02*
X030033Y008457D01*
X030135D01*
X030084Y008355D01*
X02983D02*
X029779Y008457D01*
X029881D01*
X02983Y008355D01*
X029449Y008863D02*
X029474Y008889D01*
X0295D01*
X029474Y008914D01*
X0295Y008939D01*
X029474D01*
X029449Y008965D01*
X029424Y008939D01*
X029398D01*
X029424Y008914D01*
X029398Y008889D01*
X029424D01*
X029449Y008863D01*
X030465D02*
X03049Y008889D01*
X030516D01*
X03049Y008914D01*
X030516Y008939D01*
X03049D01*
X030465Y008965D01*
X03044Y008939D01*
X030414D01*
X03044Y008914D01*
X030414Y008889D01*
X03044D01*
X030465Y008863D01*
X029906D02*
X029932Y008914D01*
X029906Y008965D01*
X029957Y008939D01*
X030008Y008965D01*
X029982Y008914D01*
X030008Y008863D01*
X029957Y008889D01*
X029906Y008863D01*
X030186Y009402D02*
Y009376D01*
X030236D01*
Y009402D01*
X030262D01*
Y009452D01*
X030236D01*
Y009478D01*
X030186D01*
Y009452D01*
X03016D01*
Y009402D01*
X030186D01*
X029563Y009155D02*
Y00913D01*
X029614D01*
Y009155D01*
X029639D01*
Y009206D01*
X029614D01*
Y009232D01*
X029563D01*
Y009206D01*
X029538D01*
Y009155D01*
X029563D01*
X023879Y008355D02*
X023828Y008457D01*
X02393D01*
X023879Y008355D01*
X023625D02*
X023574Y008457D01*
X023676D01*
X023625Y008355D01*
X023244Y008863D02*
X023269Y008889D01*
X023295D01*
X023269Y008914D01*
X023295Y008939D01*
X023269D01*
X023244Y008965D01*
X023219Y008939D01*
X023193D01*
X023219Y008914D01*
X023193Y008889D01*
X023219D01*
X023244Y008863D01*
X02426D02*
X024285Y008889D01*
X024311D01*
X024285Y008914D01*
X024311Y008939D01*
X024285D01*
X02426Y008965D01*
X024235Y008939D01*
X024209D01*
X024235Y008914D01*
X024209Y008889D01*
X024235D01*
X02426Y008863D01*
X023701D02*
X023727Y008914D01*
X023701Y008965D01*
X023752Y008939D01*
X023803Y008965D01*
X023777Y008914D01*
X023803Y008863D01*
X023752Y008889D01*
X023701Y008863D01*
X023981Y009402D02*
Y009376D01*
X024031D01*
Y009402D01*
X024057D01*
Y009452D01*
X024031D01*
Y009478D01*
X023981D01*
Y009452D01*
X023955D01*
Y009402D01*
X023981D01*
X023358Y009155D02*
Y00913D01*
X023409D01*
Y009155D01*
X023435D01*
Y009206D01*
X023409D01*
Y009232D01*
X023358D01*
Y009206D01*
X023333D01*
Y009155D01*
X023358D01*
X021979Y008355D02*
X021928Y008457D01*
X02203D01*
X021979Y008355D01*
X021725D02*
X021674Y008457D01*
X021776D01*
X021725Y008355D01*
X021344Y008863D02*
X021369Y008889D01*
X021395D01*
X021369Y008914D01*
X021395Y008939D01*
X021369D01*
X021344Y008965D01*
X021319Y008939D01*
X021293D01*
X021319Y008914D01*
X021293Y008889D01*
X021319D01*
X021344Y008863D01*
X02236D02*
X022385Y008889D01*
X022411D01*
X022385Y008914D01*
X022411Y008939D01*
X022385D01*
X02236Y008965D01*
X022335Y008939D01*
X022309D01*
X022335Y008914D01*
X022309Y008889D01*
X022335D01*
X02236Y008863D01*
X021801D02*
X021827Y008914D01*
X021801Y008965D01*
X021852Y008939D01*
X021903Y008965D01*
X021877Y008914D01*
X021903Y008863D01*
X021852Y008889D01*
X021801Y008863D01*
X022081Y009402D02*
Y009376D01*
X022131D01*
Y009402D01*
X022157D01*
Y009452D01*
X022131D01*
Y009478D01*
X022081D01*
Y009452D01*
X022055D01*
Y009402D01*
X022081D01*
X021458Y009155D02*
Y00913D01*
X021509D01*
Y009155D01*
X021535D01*
Y009206D01*
X021509D01*
Y009232D01*
X021458D01*
Y009206D01*
X021433D01*
Y009155D01*
X021458D01*
X020079Y008355D02*
X020028Y008457D01*
X02013D01*
X020079Y008355D01*
X019825D02*
X019774Y008457D01*
X019876D01*
X019825Y008355D01*
X019444Y008863D02*
X019469Y008889D01*
X019495D01*
X019469Y008914D01*
X019495Y008939D01*
X019469D01*
X019444Y008965D01*
X019419Y008939D01*
X019393D01*
X019419Y008914D01*
X019393Y008889D01*
X019419D01*
X019444Y008863D01*
X02046D02*
X020485Y008889D01*
X020511D01*
X020485Y008914D01*
X020511Y008939D01*
X020485D01*
X02046Y008965D01*
X020435Y008939D01*
X020409D01*
X020435Y008914D01*
X020409Y008889D01*
X020435D01*
X02046Y008863D01*
X019901D02*
X019927Y008914D01*
X019901Y008965D01*
X019952Y008939D01*
X020003Y008965D01*
X019977Y008914D01*
X020003Y008863D01*
X019952Y008889D01*
X019901Y008863D01*
X020181Y009402D02*
Y009376D01*
X020231D01*
Y009402D01*
X020257D01*
Y009452D01*
X020231D01*
Y009478D01*
X020181D01*
Y009452D01*
X020155D01*
Y009402D01*
X020181D01*
X019558Y009155D02*
Y00913D01*
X019609D01*
Y009155D01*
X019635D01*
Y009206D01*
X019609D01*
Y009232D01*
X019558D01*
Y009206D01*
X019533D01*
Y009155D01*
X019558D01*
X018179Y008355D02*
X018128Y008457D01*
X01823D01*
X018179Y008355D01*
X017925D02*
X017874Y008457D01*
X017976D01*
X017925Y008355D01*
X017544Y008863D02*
X017569Y008889D01*
X017595D01*
X017569Y008914D01*
X017595Y008939D01*
X017569D01*
X017544Y008965D01*
X017519Y008939D01*
X017493D01*
X017519Y008914D01*
X017493Y008889D01*
X017519D01*
X017544Y008863D01*
X01856D02*
X018585Y008889D01*
X018611D01*
X018585Y008914D01*
X018611Y008939D01*
X018585D01*
X01856Y008965D01*
X018535Y008939D01*
X018509D01*
X018535Y008914D01*
X018509Y008889D01*
X018535D01*
X01856Y008863D01*
X018001D02*
X018027Y008914D01*
X018001Y008965D01*
X018052Y008939D01*
X018103Y008965D01*
X018077Y008914D01*
X018103Y008863D01*
X018052Y008889D01*
X018001Y008863D01*
X018281Y009402D02*
Y009376D01*
X018331D01*
Y009402D01*
X018357D01*
Y009452D01*
X018331D01*
Y009478D01*
X018281D01*
Y009452D01*
X018255D01*
Y009402D01*
X018281D01*
X017658Y009155D02*
Y00913D01*
X017709D01*
Y009155D01*
X017735D01*
Y009206D01*
X017709D01*
Y009232D01*
X017658D01*
Y009206D01*
X017633D01*
Y009155D01*
X017658D01*
X016279Y008355D02*
X016228Y008457D01*
X01633D01*
X016279Y008355D01*
X016025D02*
X015974Y008457D01*
X016076D01*
X016025Y008355D01*
X015644Y008863D02*
X015669Y008889D01*
X015695D01*
X015669Y008914D01*
X015695Y008939D01*
X015669D01*
X015644Y008965D01*
X015619Y008939D01*
X015593D01*
X015619Y008914D01*
X015593Y008889D01*
X015619D01*
X015644Y008863D01*
X01666D02*
X016685Y008889D01*
X016711D01*
X016685Y008914D01*
X016711Y008939D01*
X016685D01*
X01666Y008965D01*
X016635Y008939D01*
X016609D01*
X016635Y008914D01*
X016609Y008889D01*
X016635D01*
X01666Y008863D01*
X016101D02*
X016127Y008914D01*
X016101Y008965D01*
X016152Y008939D01*
X016203Y008965D01*
X016177Y008914D01*
X016203Y008863D01*
X016152Y008889D01*
X016101Y008863D01*
X016381Y009402D02*
Y009376D01*
X016431D01*
Y009402D01*
X016457D01*
Y009452D01*
X016431D01*
Y009478D01*
X016381D01*
Y009452D01*
X016355D01*
Y009402D01*
X016381D01*
X015758Y009155D02*
Y00913D01*
X015809D01*
Y009155D01*
X015835D01*
Y009206D01*
X015809D01*
Y009232D01*
X015758D01*
Y009206D01*
X015733D01*
Y009155D01*
X015758D01*
X014379Y008355D02*
X014328Y008457D01*
X01443D01*
X014379Y008355D01*
X014125D02*
X014074Y008457D01*
X014176D01*
X014125Y008355D01*
X013744Y008863D02*
X013769Y008889D01*
X013795D01*
X013769Y008914D01*
X013795Y008939D01*
X013769D01*
X013744Y008965D01*
X013719Y008939D01*
X013693D01*
X013719Y008914D01*
X013693Y008889D01*
X013719D01*
X013744Y008863D01*
X01476D02*
X014785Y008889D01*
X014811D01*
X014785Y008914D01*
X014811Y008939D01*
X014785D01*
X01476Y008965D01*
X014735Y008939D01*
X014709D01*
X014735Y008914D01*
X014709Y008889D01*
X014735D01*
X01476Y008863D01*
X014201D02*
X014227Y008914D01*
X014201Y008965D01*
X014252Y008939D01*
X014303Y008965D01*
X014277Y008914D01*
X014303Y008863D01*
X014252Y008889D01*
X014201Y008863D01*
X014481Y009402D02*
Y009376D01*
X014531D01*
Y009402D01*
X014557D01*
Y009452D01*
X014531D01*
Y009478D01*
X014481D01*
Y009452D01*
X014455D01*
Y009402D01*
X014481D01*
X013858Y009155D02*
Y00913D01*
X013909D01*
Y009155D01*
X013935D01*
Y009206D01*
X013909D01*
Y009232D01*
X013858D01*
Y009206D01*
X013833D01*
Y009155D01*
X013858D01*
X012479Y008355D02*
X012428Y008457D01*
X01253D01*
X012479Y008355D01*
X012225D02*
X012174Y008457D01*
X012276D01*
X012225Y008355D01*
X011844Y008863D02*
X011869Y008889D01*
X011895D01*
X011869Y008914D01*
X011895Y008939D01*
X011869D01*
X011844Y008965D01*
X011819Y008939D01*
X011793D01*
X011819Y008914D01*
X011793Y008889D01*
X011819D01*
X011844Y008863D01*
X01286D02*
X012885Y008889D01*
X012911D01*
X012885Y008914D01*
X012911Y008939D01*
X012885D01*
X01286Y008965D01*
X012835Y008939D01*
X012809D01*
X012835Y008914D01*
X012809Y008889D01*
X012835D01*
X01286Y008863D01*
X012301D02*
X012327Y008914D01*
X012301Y008965D01*
X012352Y008939D01*
X012403Y008965D01*
X012377Y008914D01*
X012403Y008863D01*
X012352Y008889D01*
X012301Y008863D01*
X012581Y009402D02*
Y009376D01*
X012631D01*
Y009402D01*
X012657D01*
Y009452D01*
X012631D01*
Y009478D01*
X012581D01*
Y009452D01*
X012555D01*
Y009402D01*
X012581D01*
X011958Y009155D02*
Y00913D01*
X012009D01*
Y009155D01*
X012035D01*
Y009206D01*
X012009D01*
Y009232D01*
X011958D01*
Y009206D01*
X011933D01*
Y009155D01*
X011958D01*
X010579Y008355D02*
X010528Y008457D01*
X01063D01*
X010579Y008355D01*
X010325D02*
X010274Y008457D01*
X010376D01*
X010325Y008355D01*
X009944Y008863D02*
X009969Y008889D01*
X009995D01*
X009969Y008914D01*
X009995Y008939D01*
X009969D01*
X009944Y008965D01*
X009919Y008939D01*
X009893D01*
X009919Y008914D01*
X009893Y008889D01*
X009919D01*
X009944Y008863D01*
X01096D02*
X010985Y008889D01*
X011011D01*
X010985Y008914D01*
X011011Y008939D01*
X010985D01*
X01096Y008965D01*
X010935Y008939D01*
X010909D01*
X010935Y008914D01*
X010909Y008889D01*
X010935D01*
X01096Y008863D01*
X010401D02*
X010427Y008914D01*
X010401Y008965D01*
X010452Y008939D01*
X010503Y008965D01*
X010477Y008914D01*
X010503Y008863D01*
X010452Y008889D01*
X010401Y008863D01*
X010681Y009402D02*
Y009376D01*
X010731D01*
Y009402D01*
X010757D01*
Y009452D01*
X010731D01*
Y009478D01*
X010681D01*
Y009452D01*
X010655D01*
Y009402D01*
X010681D01*
X010058Y009155D02*
Y00913D01*
X010109D01*
Y009155D01*
X010135D01*
Y009206D01*
X010109D01*
Y009232D01*
X010058D01*
Y009206D01*
X010033D01*
Y009155D01*
X010058D01*
X006779Y008365D02*
X006728Y008467D01*
X00683D01*
X006779Y008365D01*
X006525D02*
X006474Y008467D01*
X006576D01*
X006525Y008365D01*
X006144Y008873D02*
X006169Y008899D01*
X006195D01*
X006169Y008924D01*
X006195Y008949D01*
X006169D01*
X006144Y008975D01*
X006119Y008949D01*
X006093D01*
X006119Y008924D01*
X006093Y008899D01*
X006119D01*
X006144Y008873D01*
X00716D02*
X007185Y008899D01*
X007211D01*
X007185Y008924D01*
X007211Y008949D01*
X007185D01*
X00716Y008975D01*
X007135Y008949D01*
X007109D01*
X007135Y008924D01*
X007109Y008899D01*
X007135D01*
X00716Y008873D01*
X006601D02*
X006627Y008924D01*
X006601Y008975D01*
X006652Y008949D01*
X006703Y008975D01*
X006677Y008924D01*
X006703Y008873D01*
X006652Y008899D01*
X006601Y008873D01*
X006881Y009412D02*
Y009386D01*
X006931D01*
Y009412D01*
X006957D01*
Y009462D01*
X006931D01*
Y009488D01*
X006881D01*
Y009462D01*
X006855D01*
Y009412D01*
X006881D01*
X006258Y009165D02*
Y00914D01*
X006309D01*
Y009165D01*
X006335D01*
Y009216D01*
X006309D01*
Y009242D01*
X006258D01*
Y009216D01*
X006233D01*
Y009165D01*
X006258D01*
X004879Y008355D02*
X004828Y008457D01*
X00493D01*
X004879Y008355D01*
X004625D02*
X004574Y008457D01*
X004676D01*
X004625Y008355D01*
X004244Y008863D02*
X004269Y008889D01*
X004295D01*
X004269Y008914D01*
X004295Y008939D01*
X004269D01*
X004244Y008965D01*
X004219Y008939D01*
X004193D01*
X004219Y008914D01*
X004193Y008889D01*
X004219D01*
X004244Y008863D01*
X00526D02*
X005285Y008889D01*
X005311D01*
X005285Y008914D01*
X005311Y008939D01*
X005285D01*
X00526Y008965D01*
X005235Y008939D01*
X005209D01*
X005235Y008914D01*
X005209Y008889D01*
X005235D01*
X00526Y008863D01*
X004701D02*
X004727Y008914D01*
X004701Y008965D01*
X004752Y008939D01*
X004803Y008965D01*
X004777Y008914D01*
X004803Y008863D01*
X004752Y008889D01*
X004701Y008863D01*
X004981Y009402D02*
Y009376D01*
X005031D01*
Y009402D01*
X005057D01*
Y009452D01*
X005031D01*
Y009478D01*
X004981D01*
Y009452D01*
X004955D01*
Y009402D01*
X004981D01*
X004358Y009155D02*
Y00913D01*
X004409D01*
Y009155D01*
X004435D01*
Y009206D01*
X004409D01*
Y009232D01*
X004358D01*
Y009206D01*
X004333D01*
Y009155D01*
X004358D01*
X002979Y008355D02*
X002928Y008457D01*
X00303D01*
X002979Y008355D01*
X002725D02*
X002674Y008457D01*
X002776D01*
X002725Y008355D01*
X002344Y008863D02*
X002369Y008889D01*
X002395D01*
X002369Y008914D01*
X002395Y008939D01*
X002369D01*
X002344Y008965D01*
X002319Y008939D01*
X002293D01*
X002319Y008914D01*
X002293Y008889D01*
X002319D01*
X002344Y008863D01*
X00336D02*
X003385Y008889D01*
X003411D01*
X003385Y008914D01*
X003411Y008939D01*
X003385D01*
X00336Y008965D01*
X003335Y008939D01*
X003309D01*
X003335Y008914D01*
X003309Y008889D01*
X003335D01*
X00336Y008863D01*
X002801D02*
X002827Y008914D01*
X002801Y008965D01*
X002852Y008939D01*
X002903Y008965D01*
X002877Y008914D01*
X002903Y008863D01*
X002852Y008889D01*
X002801Y008863D01*
X003081Y009402D02*
Y009376D01*
X003131D01*
Y009402D01*
X003157D01*
Y009452D01*
X003131D01*
Y009478D01*
X003081D01*
Y009452D01*
X003055D01*
Y009402D01*
X003081D01*
X002458Y009155D02*
Y00913D01*
X002509D01*
Y009155D01*
X002534D01*
Y009206D01*
X002509D01*
Y009232D01*
X002458D01*
Y009206D01*
X002433D01*
Y009155D01*
X002458D01*
X001079Y008355D02*
X001028Y008457D01*
X00113D01*
X001079Y008355D01*
X000825D02*
X000774Y008457D01*
X000876D01*
X000825Y008355D01*
X000444Y008863D02*
X000469Y008889D01*
X000495D01*
X000469Y008914D01*
X000495Y008939D01*
X000469D01*
X000444Y008965D01*
X000419Y008939D01*
X000393D01*
X000419Y008914D01*
X000393Y008889D01*
X000419D01*
X000444Y008863D01*
X00146D02*
X001485Y008889D01*
X001511D01*
X001485Y008914D01*
X001511Y008939D01*
X001485D01*
X00146Y008965D01*
X001435Y008939D01*
X001409D01*
X001435Y008914D01*
X001409Y008889D01*
X001435D01*
X00146Y008863D01*
X000901D02*
X000927Y008914D01*
X000901Y008965D01*
X000952Y008939D01*
X001003Y008965D01*
X000977Y008914D01*
X001003Y008863D01*
X000952Y008889D01*
X000901Y008863D01*
X001181Y009402D02*
Y009376D01*
X001231D01*
Y009402D01*
X001257D01*
Y009452D01*
X001231D01*
Y009478D01*
X001181D01*
Y009452D01*
X001155D01*
Y009402D01*
X001181D01*
X000558Y009155D02*
Y00913D01*
X000609D01*
Y009155D01*
X000634D01*
Y009206D01*
X000609D01*
Y009232D01*
X000558D01*
Y009206D01*
X000533D01*
Y009155D01*
X000558D01*
X033884Y011143D02*
X033833Y011245D01*
X033935D01*
X033884Y011143D01*
X03363D02*
X033579Y011245D01*
X033681D01*
X03363Y011143D01*
X033249Y011651D02*
X033274Y011677D01*
X0333D01*
X033274Y011702D01*
X0333Y011727D01*
X033274D01*
X033249Y011753D01*
X033224Y011727D01*
X033198D01*
X033224Y011702D01*
X033198Y011677D01*
X033224D01*
X033249Y011651D01*
X034265D02*
X03429Y011677D01*
X034316D01*
X03429Y011702D01*
X034316Y011727D01*
X03429D01*
X034265Y011753D01*
X03424Y011727D01*
X034214D01*
X03424Y011702D01*
X034214Y011677D01*
X03424D01*
X034265Y011651D01*
X033706D02*
X033732Y011702D01*
X033706Y011753D01*
X033757Y011727D01*
X033808Y011753D01*
X033782Y011702D01*
X033808Y011651D01*
X033757Y011677D01*
X033706Y011651D01*
X033986Y01219D02*
Y012164D01*
X034036D01*
Y01219D01*
X034062D01*
Y01224D01*
X034036D01*
Y012266D01*
X033986D01*
Y01224D01*
X03396D01*
Y01219D01*
X033986D01*
X033363Y011943D02*
Y011918D01*
X033414D01*
Y011943D01*
X033439D01*
Y011994D01*
X033414D01*
Y012019D01*
X033363D01*
Y011994D01*
X033338D01*
Y011943D01*
X033363D01*
X031984Y011143D02*
X031933Y011245D01*
X032035D01*
X031984Y011143D01*
X03173D02*
X031679Y011245D01*
X031781D01*
X03173Y011143D01*
X031349Y011651D02*
X031374Y011677D01*
X0314D01*
X031374Y011702D01*
X0314Y011727D01*
X031374D01*
X031349Y011753D01*
X031324Y011727D01*
X031298D01*
X031324Y011702D01*
X031298Y011677D01*
X031324D01*
X031349Y011651D01*
X032365D02*
X03239Y011677D01*
X032416D01*
X03239Y011702D01*
X032416Y011727D01*
X03239D01*
X032365Y011753D01*
X03234Y011727D01*
X032314D01*
X03234Y011702D01*
X032314Y011677D01*
X03234D01*
X032365Y011651D01*
X031806D02*
X031832Y011702D01*
X031806Y011753D01*
X031857Y011727D01*
X031908Y011753D01*
X031882Y011702D01*
X031908Y011651D01*
X031857Y011677D01*
X031806Y011651D01*
X032086Y01219D02*
Y012164D01*
X032136D01*
Y01219D01*
X032162D01*
Y01224D01*
X032136D01*
Y012266D01*
X032086D01*
Y01224D01*
X03206D01*
Y01219D01*
X032086D01*
X031463Y011943D02*
Y011918D01*
X031514D01*
Y011943D01*
X031539D01*
Y011994D01*
X031514D01*
Y012019D01*
X031463D01*
Y011994D01*
X031438D01*
Y011943D01*
X031463D01*
X030084Y011143D02*
X030033Y011245D01*
X030135D01*
X030084Y011143D01*
X02983D02*
X029779Y011245D01*
X029881D01*
X02983Y011143D01*
X029449Y011651D02*
X029474Y011677D01*
X0295D01*
X029474Y011702D01*
X0295Y011727D01*
X029474D01*
X029449Y011753D01*
X029424Y011727D01*
X029398D01*
X029424Y011702D01*
X029398Y011677D01*
X029424D01*
X029449Y011651D01*
X030465D02*
X03049Y011677D01*
X030516D01*
X03049Y011702D01*
X030516Y011727D01*
X03049D01*
X030465Y011753D01*
X03044Y011727D01*
X030414D01*
X03044Y011702D01*
X030414Y011677D01*
X03044D01*
X030465Y011651D01*
X029906D02*
X029932Y011702D01*
X029906Y011753D01*
X029957Y011727D01*
X030008Y011753D01*
X029982Y011702D01*
X030008Y011651D01*
X029957Y011677D01*
X029906Y011651D01*
X030186Y01219D02*
Y012164D01*
X030236D01*
Y01219D01*
X030262D01*
Y01224D01*
X030236D01*
Y012266D01*
X030186D01*
Y01224D01*
X03016D01*
Y01219D01*
X030186D01*
X029563Y011943D02*
Y011918D01*
X029614D01*
Y011943D01*
X029639D01*
Y011994D01*
X029614D01*
Y012019D01*
X029563D01*
Y011994D01*
X029538D01*
Y011943D01*
X029563D01*
X027679Y011143D02*
X027628Y011245D01*
X02773D01*
X027679Y011143D01*
X027425D02*
X027374Y011245D01*
X027476D01*
X027425Y011143D01*
X027044Y011651D02*
X027069Y011677D01*
X027095D01*
X027069Y011702D01*
X027095Y011727D01*
X027069D01*
X027044Y011753D01*
X027019Y011727D01*
X026993D01*
X027019Y011702D01*
X026993Y011677D01*
X027019D01*
X027044Y011651D01*
X02806D02*
X028085Y011677D01*
X028111D01*
X028085Y011702D01*
X028111Y011727D01*
X028085D01*
X02806Y011753D01*
X028035Y011727D01*
X028009D01*
X028035Y011702D01*
X028009Y011677D01*
X028035D01*
X02806Y011651D01*
X027501D02*
X027527Y011702D01*
X027501Y011753D01*
X027552Y011727D01*
X027603Y011753D01*
X027577Y011702D01*
X027603Y011651D01*
X027552Y011677D01*
X027501Y011651D01*
X027781Y01219D02*
Y012164D01*
X027831D01*
Y01219D01*
X027857D01*
Y01224D01*
X027831D01*
Y012266D01*
X027781D01*
Y01224D01*
X027755D01*
Y01219D01*
X027781D01*
X027158Y011943D02*
Y011918D01*
X027209D01*
Y011943D01*
X027235D01*
Y011994D01*
X027209D01*
Y012019D01*
X027158D01*
Y011994D01*
X027133D01*
Y011943D01*
X027158D01*
X025779Y011143D02*
X025728Y011245D01*
X02583D01*
X025779Y011143D01*
X025525D02*
X025474Y011245D01*
X025576D01*
X025525Y011143D01*
X025144Y011651D02*
X025169Y011677D01*
X025195D01*
X025169Y011702D01*
X025195Y011727D01*
X025169D01*
X025144Y011753D01*
X025119Y011727D01*
X025093D01*
X025119Y011702D01*
X025093Y011677D01*
X025119D01*
X025144Y011651D01*
X02616D02*
X026185Y011677D01*
X026211D01*
X026185Y011702D01*
X026211Y011727D01*
X026185D01*
X02616Y011753D01*
X026135Y011727D01*
X026109D01*
X026135Y011702D01*
X026109Y011677D01*
X026135D01*
X02616Y011651D01*
X025601D02*
X025627Y011702D01*
X025601Y011753D01*
X025652Y011727D01*
X025703Y011753D01*
X025677Y011702D01*
X025703Y011651D01*
X025652Y011677D01*
X025601Y011651D01*
X025881Y01219D02*
Y012164D01*
X025931D01*
Y01219D01*
X025957D01*
Y01224D01*
X025931D01*
Y012266D01*
X025881D01*
Y01224D01*
X025855D01*
Y01219D01*
X025881D01*
X025258Y011943D02*
Y011918D01*
X025309D01*
Y011943D01*
X025335D01*
Y011994D01*
X025309D01*
Y012019D01*
X025258D01*
Y011994D01*
X025233D01*
Y011943D01*
X025258D01*
X023879Y011143D02*
X023828Y011245D01*
X02393D01*
X023879Y011143D01*
X023625D02*
X023574Y011245D01*
X023676D01*
X023625Y011143D01*
X023244Y011651D02*
X023269Y011677D01*
X023295D01*
X023269Y011702D01*
X023295Y011727D01*
X023269D01*
X023244Y011753D01*
X023219Y011727D01*
X023193D01*
X023219Y011702D01*
X023193Y011677D01*
X023219D01*
X023244Y011651D01*
X02426D02*
X024285Y011677D01*
X024311D01*
X024285Y011702D01*
X024311Y011727D01*
X024285D01*
X02426Y011753D01*
X024235Y011727D01*
X024209D01*
X024235Y011702D01*
X024209Y011677D01*
X024235D01*
X02426Y011651D01*
X023701D02*
X023727Y011702D01*
X023701Y011753D01*
X023752Y011727D01*
X023803Y011753D01*
X023777Y011702D01*
X023803Y011651D01*
X023752Y011677D01*
X023701Y011651D01*
X023981Y01219D02*
Y012164D01*
X024031D01*
Y01219D01*
X024057D01*
Y01224D01*
X024031D01*
Y012266D01*
X023981D01*
Y01224D01*
X023955D01*
Y01219D01*
X023981D01*
X023358Y011943D02*
Y011918D01*
X023409D01*
Y011943D01*
X023435D01*
Y011994D01*
X023409D01*
Y012019D01*
X023358D01*
Y011994D01*
X023333D01*
Y011943D01*
X023358D01*
X021979Y011143D02*
X021928Y011245D01*
X02203D01*
X021979Y011143D01*
X021725D02*
X021674Y011245D01*
X021776D01*
X021725Y011143D01*
X021344Y011651D02*
X021369Y011677D01*
X021395D01*
X021369Y011702D01*
X021395Y011727D01*
X021369D01*
X021344Y011753D01*
X021319Y011727D01*
X021293D01*
X021319Y011702D01*
X021293Y011677D01*
X021319D01*
X021344Y011651D01*
X02236D02*
X022385Y011677D01*
X022411D01*
X022385Y011702D01*
X022411Y011727D01*
X022385D01*
X02236Y011753D01*
X022335Y011727D01*
X022309D01*
X022335Y011702D01*
X022309Y011677D01*
X022335D01*
X02236Y011651D01*
X021801D02*
X021827Y011702D01*
X021801Y011753D01*
X021852Y011727D01*
X021903Y011753D01*
X021877Y011702D01*
X021903Y011651D01*
X021852Y011677D01*
X021801Y011651D01*
X022081Y01219D02*
Y012164D01*
X022131D01*
Y01219D01*
X022157D01*
Y01224D01*
X022131D01*
Y012266D01*
X022081D01*
Y01224D01*
X022055D01*
Y01219D01*
X022081D01*
X021458Y011943D02*
Y011918D01*
X021509D01*
Y011943D01*
X021535D01*
Y011994D01*
X021509D01*
Y012019D01*
X021458D01*
Y011994D01*
X021433D01*
Y011943D01*
X021458D01*
X019129Y011143D02*
X019078Y011245D01*
X01918D01*
X019129Y011143D01*
X018875D02*
X018824Y011245D01*
X018926D01*
X018875Y011143D01*
X018494Y011651D02*
X018519Y011677D01*
X018545D01*
X018519Y011702D01*
X018545Y011727D01*
X018519D01*
X018494Y011753D01*
X018469Y011727D01*
X018443D01*
X018469Y011702D01*
X018443Y011677D01*
X018469D01*
X018494Y011651D01*
X01951D02*
X019535Y011677D01*
X019561D01*
X019535Y011702D01*
X019561Y011727D01*
X019535D01*
X01951Y011753D01*
X019485Y011727D01*
X019459D01*
X019485Y011702D01*
X019459Y011677D01*
X019485D01*
X01951Y011651D01*
X018951D02*
X018977Y011702D01*
X018951Y011753D01*
X019002Y011727D01*
X019053Y011753D01*
X019027Y011702D01*
X019053Y011651D01*
X019002Y011677D01*
X018951Y011651D01*
X019231Y01219D02*
Y012164D01*
X019281D01*
Y01219D01*
X019307D01*
Y01224D01*
X019281D01*
Y012266D01*
X019231D01*
Y01224D01*
X019205D01*
Y01219D01*
X019231D01*
X018608Y011943D02*
Y011918D01*
X018659D01*
Y011943D01*
X018685D01*
Y011994D01*
X018659D01*
Y012019D01*
X018608D01*
Y011994D01*
X018583D01*
Y011943D01*
X018608D01*
X017229Y011143D02*
X017178Y011245D01*
X01728D01*
X017229Y011143D01*
X016975D02*
X016924Y011245D01*
X017026D01*
X016975Y011143D01*
X016594Y011651D02*
X016619Y011677D01*
X016645D01*
X016619Y011702D01*
X016645Y011727D01*
X016619D01*
X016594Y011753D01*
X016569Y011727D01*
X016543D01*
X016569Y011702D01*
X016543Y011677D01*
X016569D01*
X016594Y011651D01*
X01761D02*
X017635Y011677D01*
X017661D01*
X017635Y011702D01*
X017661Y011727D01*
X017635D01*
X01761Y011753D01*
X017585Y011727D01*
X017559D01*
X017585Y011702D01*
X017559Y011677D01*
X017585D01*
X01761Y011651D01*
X017051D02*
X017077Y011702D01*
X017051Y011753D01*
X017102Y011727D01*
X017153Y011753D01*
X017127Y011702D01*
X017153Y011651D01*
X017102Y011677D01*
X017051Y011651D01*
X017331Y01219D02*
Y012164D01*
X017381D01*
Y01219D01*
X017407D01*
Y01224D01*
X017381D01*
Y012266D01*
X017331D01*
Y01224D01*
X017305D01*
Y01219D01*
X017331D01*
X016708Y011943D02*
Y011918D01*
X016759D01*
Y011943D01*
X016785D01*
Y011994D01*
X016759D01*
Y012019D01*
X016708D01*
Y011994D01*
X016683D01*
Y011943D01*
X016708D01*
X015329Y011143D02*
X015278Y011245D01*
X01538D01*
X015329Y011143D01*
X015075D02*
X015024Y011245D01*
X015126D01*
X015075Y011143D01*
X014694Y011651D02*
X014719Y011677D01*
X014745D01*
X014719Y011702D01*
X014745Y011727D01*
X014719D01*
X014694Y011753D01*
X014669Y011727D01*
X014643D01*
X014669Y011702D01*
X014643Y011677D01*
X014669D01*
X014694Y011651D01*
X01571D02*
X015735Y011677D01*
X015761D01*
X015735Y011702D01*
X015761Y011727D01*
X015735D01*
X01571Y011753D01*
X015685Y011727D01*
X015659D01*
X015685Y011702D01*
X015659Y011677D01*
X015685D01*
X01571Y011651D01*
X015151D02*
X015177Y011702D01*
X015151Y011753D01*
X015202Y011727D01*
X015253Y011753D01*
X015227Y011702D01*
X015253Y011651D01*
X015202Y011677D01*
X015151Y011651D01*
X015431Y01219D02*
Y012164D01*
X015481D01*
Y01219D01*
X015507D01*
Y01224D01*
X015481D01*
Y012266D01*
X015431D01*
Y01224D01*
X015405D01*
Y01219D01*
X015431D01*
X014808Y011943D02*
Y011918D01*
X014859D01*
Y011943D01*
X014885D01*
Y011994D01*
X014859D01*
Y012019D01*
X014808D01*
Y011994D01*
X014783D01*
Y011943D01*
X014808D01*
X013429Y011143D02*
X013378Y011245D01*
X01348D01*
X013429Y011143D01*
X013175D02*
X013124Y011245D01*
X013226D01*
X013175Y011143D01*
X012794Y011651D02*
X012819Y011677D01*
X012845D01*
X012819Y011702D01*
X012845Y011727D01*
X012819D01*
X012794Y011753D01*
X012769Y011727D01*
X012743D01*
X012769Y011702D01*
X012743Y011677D01*
X012769D01*
X012794Y011651D01*
X01381D02*
X013835Y011677D01*
X013861D01*
X013835Y011702D01*
X013861Y011727D01*
X013835D01*
X01381Y011753D01*
X013785Y011727D01*
X013759D01*
X013785Y011702D01*
X013759Y011677D01*
X013785D01*
X01381Y011651D01*
X013251D02*
X013277Y011702D01*
X013251Y011753D01*
X013302Y011727D01*
X013353Y011753D01*
X013327Y011702D01*
X013353Y011651D01*
X013302Y011677D01*
X013251Y011651D01*
X013531Y01219D02*
Y012164D01*
X013581D01*
Y01219D01*
X013607D01*
Y01224D01*
X013581D01*
Y012266D01*
X013531D01*
Y01224D01*
X013505D01*
Y01219D01*
X013531D01*
X012908Y011943D02*
Y011918D01*
X012959D01*
Y011943D01*
X012985D01*
Y011994D01*
X012959D01*
Y012019D01*
X012908D01*
Y011994D01*
X012883D01*
Y011943D01*
X012908D01*
X010579Y011143D02*
X010528Y011245D01*
X01063D01*
X010579Y011143D01*
X010325D02*
X010274Y011245D01*
X010376D01*
X010325Y011143D01*
X009944Y011651D02*
X009969Y011677D01*
X009995D01*
X009969Y011702D01*
X009995Y011727D01*
X009969D01*
X009944Y011753D01*
X009919Y011727D01*
X009893D01*
X009919Y011702D01*
X009893Y011677D01*
X009919D01*
X009944Y011651D01*
X01096D02*
X010985Y011677D01*
X011011D01*
X010985Y011702D01*
X011011Y011727D01*
X010985D01*
X01096Y011753D01*
X010935Y011727D01*
X010909D01*
X010935Y011702D01*
X010909Y011677D01*
X010935D01*
X01096Y011651D01*
X010401D02*
X010427Y011702D01*
X010401Y011753D01*
X010452Y011727D01*
X010503Y011753D01*
X010477Y011702D01*
X010503Y011651D01*
X010452Y011677D01*
X010401Y011651D01*
X010681Y01219D02*
Y012164D01*
X010731D01*
Y01219D01*
X010757D01*
Y01224D01*
X010731D01*
Y012266D01*
X010681D01*
Y01224D01*
X010655D01*
Y01219D01*
X010681D01*
X010058Y011943D02*
Y011918D01*
X010109D01*
Y011943D01*
X010135D01*
Y011994D01*
X010109D01*
Y012019D01*
X010058D01*
Y011994D01*
X010033D01*
Y011943D01*
X010058D01*
X008679Y011143D02*
X008628Y011245D01*
X00873D01*
X008679Y011143D01*
X008425D02*
X008374Y011245D01*
X008476D01*
X008425Y011143D01*
X008044Y011651D02*
X008069Y011677D01*
X008095D01*
X008069Y011702D01*
X008095Y011727D01*
X008069D01*
X008044Y011753D01*
X008019Y011727D01*
X007993D01*
X008019Y011702D01*
X007993Y011677D01*
X008019D01*
X008044Y011651D01*
X00906D02*
X009085Y011677D01*
X009111D01*
X009085Y011702D01*
X009111Y011727D01*
X009085D01*
X00906Y011753D01*
X009035Y011727D01*
X009009D01*
X009035Y011702D01*
X009009Y011677D01*
X009035D01*
X00906Y011651D01*
X008501D02*
X008527Y011702D01*
X008501Y011753D01*
X008552Y011727D01*
X008603Y011753D01*
X008577Y011702D01*
X008603Y011651D01*
X008552Y011677D01*
X008501Y011651D01*
X008781Y01219D02*
Y012164D01*
X008831D01*
Y01219D01*
X008857D01*
Y01224D01*
X008831D01*
Y012266D01*
X008781D01*
Y01224D01*
X008755D01*
Y01219D01*
X008781D01*
X008158Y011943D02*
Y011918D01*
X008209D01*
Y011943D01*
X008235D01*
Y011994D01*
X008209D01*
Y012019D01*
X008158D01*
Y011994D01*
X008133D01*
Y011943D01*
X008158D01*
X006779Y011143D02*
X006728Y011245D01*
X00683D01*
X006779Y011143D01*
X006525D02*
X006474Y011245D01*
X006576D01*
X006525Y011143D01*
X006144Y011651D02*
X006169Y011677D01*
X006195D01*
X006169Y011702D01*
X006195Y011727D01*
X006169D01*
X006144Y011753D01*
X006119Y011727D01*
X006093D01*
X006119Y011702D01*
X006093Y011677D01*
X006119D01*
X006144Y011651D01*
X00716D02*
X007185Y011677D01*
X007211D01*
X007185Y011702D01*
X007211Y011727D01*
X007185D01*
X00716Y011753D01*
X007135Y011727D01*
X007109D01*
X007135Y011702D01*
X007109Y011677D01*
X007135D01*
X00716Y011651D01*
X006601D02*
X006627Y011702D01*
X006601Y011753D01*
X006652Y011727D01*
X006703Y011753D01*
X006677Y011702D01*
X006703Y011651D01*
X006652Y011677D01*
X006601Y011651D01*
X006881Y01219D02*
Y012164D01*
X006931D01*
Y01219D01*
X006957D01*
Y01224D01*
X006931D01*
Y012266D01*
X006881D01*
Y01224D01*
X006855D01*
Y01219D01*
X006881D01*
X006258Y011943D02*
Y011918D01*
X006309D01*
Y011943D01*
X006335D01*
Y011994D01*
X006309D01*
Y012019D01*
X006258D01*
Y011994D01*
X006233D01*
Y011943D01*
X006258D01*
X004879Y011143D02*
X004828Y011245D01*
X00493D01*
X004879Y011143D01*
X004625D02*
X004574Y011245D01*
X004676D01*
X004625Y011143D01*
X004244Y011651D02*
X004269Y011677D01*
X004295D01*
X004269Y011702D01*
X004295Y011727D01*
X004269D01*
X004244Y011753D01*
X004219Y011727D01*
X004193D01*
X004219Y011702D01*
X004193Y011677D01*
X004219D01*
X004244Y011651D01*
X00526D02*
X005285Y011677D01*
X005311D01*
X005285Y011702D01*
X005311Y011727D01*
X005285D01*
X00526Y011753D01*
X005235Y011727D01*
X005209D01*
X005235Y011702D01*
X005209Y011677D01*
X005235D01*
X00526Y011651D01*
X004701D02*
X004727Y011702D01*
X004701Y011753D01*
X004752Y011727D01*
X004803Y011753D01*
X004777Y011702D01*
X004803Y011651D01*
X004752Y011677D01*
X004701Y011651D01*
X004981Y01219D02*
Y012164D01*
X005031D01*
Y01219D01*
X005057D01*
Y01224D01*
X005031D01*
Y012266D01*
X004981D01*
Y01224D01*
X004955D01*
Y01219D01*
X004981D01*
X004358Y011943D02*
Y011918D01*
X004409D01*
Y011943D01*
X004435D01*
Y011994D01*
X004409D01*
Y012019D01*
X004358D01*
Y011994D01*
X004333D01*
Y011943D01*
X004358D01*
X001079Y011143D02*
X001028Y011245D01*
X00113D01*
X001079Y011143D01*
X000825D02*
X000774Y011245D01*
X000876D01*
X000825Y011143D01*
X000444Y011651D02*
X000469Y011677D01*
X000495D01*
X000469Y011702D01*
X000495Y011727D01*
X000469D01*
X000444Y011753D01*
X000419Y011727D01*
X000393D01*
X000419Y011702D01*
X000393Y011677D01*
X000419D01*
X000444Y011651D01*
X00146D02*
X001485Y011677D01*
X001511D01*
X001485Y011702D01*
X001511Y011727D01*
X001485D01*
X00146Y011753D01*
X001435Y011727D01*
X001409D01*
X001435Y011702D01*
X001409Y011677D01*
X001435D01*
X00146Y011651D01*
X000901D02*
X000927Y011702D01*
X000901Y011753D01*
X000952Y011727D01*
X001003Y011753D01*
X000977Y011702D01*
X001003Y011651D01*
X000952Y011677D01*
X000901Y011651D01*
X001181Y01219D02*
Y012164D01*
X001231D01*
Y01219D01*
X001257D01*
Y01224D01*
X001231D01*
Y012266D01*
X001181D01*
Y01224D01*
X001155D01*
Y01219D01*
X001181D01*
X000558Y011943D02*
Y011918D01*
X000609D01*
Y011943D01*
X000634D01*
Y011994D01*
X000609D01*
Y012019D01*
X000558D01*
Y011994D01*
X000533D01*
Y011943D01*
X000558D01*
X018014Y000438D02*
X018039Y000489D01*
X018014Y000539D01*
X018065Y000514D01*
X018115Y000539D01*
X01809Y000489D01*
X018115Y000438D01*
X018065Y000463D01*
X018014Y000438D01*
X008014D02*
X008039Y000489D01*
X008014Y000539D01*
X008064Y000514D01*
X008115Y000539D01*
X00809Y000489D01*
X008115Y000438D01*
X008064Y000463D01*
X008014Y000438D01*
X018014Y001962D02*
X018039D01*
X018065Y001987D01*
X01809Y001962D01*
X018115D01*
Y001987D01*
X01809Y002012D01*
X018115Y002038D01*
Y002063D01*
X01809D01*
X018065Y002038D01*
X018039Y002063D01*
X018014D01*
Y002038D01*
X018039Y002012D01*
X018014Y001987D01*
Y001962D01*
X008014D02*
X008039D01*
X008064Y001987D01*
X00809Y001962D01*
X008115D01*
Y001987D01*
X00809Y002012D01*
X008115Y002038D01*
Y002063D01*
X00809D01*
X008064Y002038D01*
X008039Y002063D01*
X008014D01*
Y002038D01*
X008039Y002012D01*
X008014Y001987D01*
Y001962D01*
X013191Y000755D02*
X013141Y000857D01*
X013242D01*
X013191Y000755D01*
X012938D02*
X012887Y000857D01*
X012988D01*
X012938Y000755D01*
X012557Y001263D02*
X012582Y001289D01*
X012607D01*
X012582Y001314D01*
X012607Y001339D01*
X012582D01*
X012557Y001365D01*
X012531Y001339D01*
X012506D01*
X012531Y001314D01*
X012506Y001289D01*
X012531D01*
X012557Y001263D01*
X013573D02*
X013598Y001289D01*
X013623D01*
X013598Y001314D01*
X013623Y001339D01*
X013598D01*
X013573Y001365D01*
X013547Y001339D01*
X013522D01*
X013547Y001314D01*
X013522Y001289D01*
X013547D01*
X013573Y001263D01*
X013014D02*
X013039Y001314D01*
X013014Y001365D01*
X013065Y001339D01*
X013115Y001365D01*
X01309Y001314D01*
X013115Y001263D01*
X013065Y001289D01*
X013014Y001263D01*
X013293Y001802D02*
Y001776D01*
X013344D01*
Y001802D01*
X013369D01*
Y001852D01*
X013344D01*
Y001878D01*
X013293D01*
Y001852D01*
X013268D01*
Y001802D01*
X013293D01*
X012671Y001555D02*
Y00153D01*
X012722D01*
Y001555D01*
X012747D01*
Y001606D01*
X012722D01*
Y001632D01*
X012671D01*
Y001606D01*
X012645D01*
Y001555D01*
X012671D01*
X026208Y009155D02*
Y00913D01*
X026259D01*
Y009155D01*
X026285D01*
Y009206D01*
X026259D01*
Y009232D01*
X026208D01*
Y009206D01*
X026183D01*
Y009155D01*
X026208D01*
X026831Y009402D02*
Y009376D01*
X026881D01*
Y009402D01*
X026907D01*
Y009452D01*
X026881D01*
Y009478D01*
X026831D01*
Y009452D01*
X026805D01*
Y009402D01*
X026831D01*
X026551Y008863D02*
X026577Y008914D01*
X026551Y008965D01*
X026602Y008939D01*
X026653Y008965D01*
X026627Y008914D01*
X026653Y008863D01*
X026602Y008889D01*
X026551Y008863D01*
X02711D02*
X027135Y008889D01*
X027161D01*
X027135Y008914D01*
X027161Y008939D01*
X027135D01*
X02711Y008965D01*
X027085Y008939D01*
X027059D01*
X027085Y008914D01*
X027059Y008889D01*
X027085D01*
X02711Y008863D01*
X026094D02*
X026119Y008889D01*
X026145D01*
X026119Y008914D01*
X026145Y008939D01*
X026119D01*
X026094Y008965D01*
X026069Y008939D01*
X026043D01*
X026069Y008914D01*
X026043Y008889D01*
X026069D01*
X026094Y008863D01*
X026475Y008355D02*
X026424Y008457D01*
X026526D01*
X026475Y008355D01*
X026729D02*
X026678Y008457D01*
X02678D01*
X026729Y008355D01*
X025357Y009562D02*
X025383D01*
X025408Y009587D01*
X025434Y009562D01*
X025459D01*
Y009587D01*
X025434Y009612D01*
X025459Y009638D01*
Y009663D01*
X025434D01*
X025408Y009638D01*
X025383Y009663D01*
X025357D01*
Y009638D01*
X025383Y009612D01*
X025357Y009587D01*
Y009562D01*
Y008038D02*
X025383Y008089D01*
X025357Y008139D01*
X025408Y008114D01*
X025459Y008139D01*
X025434Y008089D01*
X025459Y008038D01*
X025408Y008063D01*
X025357Y008038D01*
X027745Y009562D02*
X02777D01*
X027796Y009587D01*
X027821Y009562D01*
X027847D01*
Y009587D01*
X027821Y009612D01*
X027847Y009638D01*
Y009663D01*
X027821D01*
X027796Y009638D01*
X02777Y009663D01*
X027745D01*
Y009638D01*
X02777Y009612D01*
X027745Y009587D01*
Y009562D01*
Y008038D02*
X02777Y008089D01*
X027745Y008139D01*
X027796Y008114D01*
X027847Y008139D01*
X027821Y008089D01*
X027847Y008038D01*
X027796Y008063D01*
X027745Y008038D01*
X025971Y005355D02*
Y00533D01*
X026022D01*
Y005355D01*
X026047D01*
Y005406D01*
X026022D01*
Y005431D01*
X025971D01*
Y005406D01*
X025945D01*
Y005355D01*
X025971D01*
X026593Y005602D02*
Y005576D01*
X026644D01*
Y005602D01*
X026669D01*
Y005652D01*
X026644D01*
Y005678D01*
X026593D01*
Y005652D01*
X026568D01*
Y005602D01*
X026593D01*
X026314Y005063D02*
X026339Y005114D01*
X026314Y005165D01*
X026364Y005139D01*
X026415Y005165D01*
X02639Y005114D01*
X026415Y005063D01*
X026364Y005089D01*
X026314Y005063D01*
X026873D02*
X026898Y005089D01*
X026923D01*
X026898Y005114D01*
X026923Y005139D01*
X026898D01*
X026873Y005165D01*
X026847Y005139D01*
X026822D01*
X026847Y005114D01*
X026822Y005089D01*
X026847D01*
X026873Y005063D01*
X025857D02*
X025882Y005089D01*
X025907D01*
X025882Y005114D01*
X025907Y005139D01*
X025882D01*
X025857Y005165D01*
X025831Y005139D01*
X025806D01*
X025831Y005114D01*
X025806Y005089D01*
X025831D01*
X025857Y005063D01*
X026238Y004555D02*
X026187Y004657D01*
X026288D01*
X026238Y004555D01*
X026492D02*
X026441Y004657D01*
X026542D01*
X026492Y004555D01*
X02512Y005762D02*
X025145D01*
X025171Y005787D01*
X025196Y005762D01*
X025221D01*
Y005787D01*
X025196Y005812D01*
X025221Y005838D01*
Y005863D01*
X025196D01*
X025171Y005838D01*
X025145Y005863D01*
X02512D01*
Y005838D01*
X025145Y005812D01*
X02512Y005787D01*
Y005762D01*
Y004238D02*
X025145Y004288D01*
X02512Y004339D01*
X025171Y004314D01*
X025221Y004339D01*
X025196Y004288D01*
X025221Y004238D01*
X025171Y004263D01*
X02512Y004238D01*
X027508Y005762D02*
X027533D01*
X027558Y005787D01*
X027584Y005762D01*
X027609D01*
Y005787D01*
X027584Y005812D01*
X027609Y005838D01*
Y005863D01*
X027584D01*
X027558Y005838D01*
X027533Y005863D01*
X027508D01*
Y005838D01*
X027533Y005812D01*
X027508Y005787D01*
Y005762D01*
Y004238D02*
X027533Y004288D01*
X027508Y004339D01*
X027558Y004314D01*
X027609Y004339D01*
X027584Y004288D01*
X027609Y004238D01*
X027558Y004263D01*
X027508Y004238D01*
X025496Y003455D02*
Y00343D01*
X025547D01*
Y003455D01*
X025572D01*
Y003506D01*
X025547D01*
Y003531D01*
X025496D01*
Y003506D01*
X02547D01*
Y003455D01*
X025496D01*
X026118Y003702D02*
Y003676D01*
X026169D01*
Y003702D01*
X026194D01*
Y003752D01*
X026169D01*
Y003778D01*
X026118D01*
Y003752D01*
X026093D01*
Y003702D01*
X026118D01*
X025839Y003163D02*
X025864Y003214D01*
X025839Y003265D01*
X025889Y003239D01*
X02594Y003265D01*
X025915Y003214D01*
X02594Y003163D01*
X025889Y003189D01*
X025839Y003163D01*
X026398D02*
X026423Y003189D01*
X026448D01*
X026423Y003214D01*
X026448Y003239D01*
X026423D01*
X026398Y003265D01*
X026372Y003239D01*
X026347D01*
X026372Y003214D01*
X026347Y003189D01*
X026372D01*
X026398Y003163D01*
X025382D02*
X025407Y003189D01*
X025432D01*
X025407Y003214D01*
X025432Y003239D01*
X025407D01*
X025382Y003265D01*
X025356Y003239D01*
X025331D01*
X025356Y003214D01*
X025331Y003189D01*
X025356D01*
X025382Y003163D01*
X025762Y002655D02*
X025712Y002757D01*
X025813D01*
X025762Y002655D01*
X026017D02*
X025966Y002757D01*
X026067D01*
X026017Y002655D01*
X024645Y003862D02*
X02467D01*
X024696Y003887D01*
X024721Y003862D01*
X024746D01*
Y003887D01*
X024721Y003912D01*
X024746Y003938D01*
Y003963D01*
X024721D01*
X024696Y003938D01*
X02467Y003963D01*
X024645D01*
Y003938D01*
X02467Y003912D01*
X024645Y003887D01*
Y003862D01*
Y002338D02*
X02467Y002389D01*
X024645Y002439D01*
X024696Y002414D01*
X024746Y002439D01*
X024721Y002389D01*
X024746Y002338D01*
X024696Y002363D01*
X024645Y002338D01*
X027033Y003862D02*
X027058D01*
X027083Y003887D01*
X027109Y003862D01*
X027134D01*
Y003887D01*
X027109Y003912D01*
X027134Y003938D01*
Y003963D01*
X027109D01*
X027083Y003938D01*
X027058Y003963D01*
X027033D01*
Y003938D01*
X027058Y003912D01*
X027033Y003887D01*
Y003862D01*
Y002338D02*
X027058Y002389D01*
X027033Y002439D01*
X027083Y002414D01*
X027134Y002439D01*
X027109Y002389D01*
X027134Y002338D01*
X027083Y002363D01*
X027033Y002338D01*
X036728Y001555D02*
Y00153D01*
X036779D01*
Y001555D01*
X036805D01*
Y001606D01*
X036779D01*
Y001632D01*
X036728D01*
Y001606D01*
X036703D01*
Y001555D01*
X036728D01*
X037351Y001802D02*
Y001776D01*
X037401D01*
Y001802D01*
X037427D01*
Y001852D01*
X037401D01*
Y001878D01*
X037351D01*
Y001852D01*
X037325D01*
Y001802D01*
X037351D01*
X037071Y001263D02*
X037097Y001314D01*
X037071Y001365D01*
X037122Y001339D01*
X037173Y001365D01*
X037147Y001314D01*
X037173Y001263D01*
X037122Y001289D01*
X037071Y001263D01*
X03763D02*
X037655Y001289D01*
X037681D01*
X037655Y001314D01*
X037681Y001339D01*
X037655D01*
X03763Y001365D01*
X037605Y001339D01*
X037579D01*
X037605Y001314D01*
X037579Y001289D01*
X037605D01*
X03763Y001263D01*
X036614D02*
X036639Y001289D01*
X036665D01*
X036639Y001314D01*
X036665Y001339D01*
X036639D01*
X036614Y001365D01*
X036589Y001339D01*
X036563D01*
X036589Y001314D01*
X036563Y001289D01*
X036589D01*
X036614Y001263D01*
X036995Y000755D02*
X036944Y000857D01*
X037046D01*
X036995Y000755D01*
X037249D02*
X037198Y000857D01*
X0373D01*
X037249Y000755D01*
X035877Y001962D02*
X035903D01*
X035928Y001987D01*
X035954Y001962D01*
X035979D01*
Y001987D01*
X035954Y002012D01*
X035979Y002038D01*
Y002063D01*
X035954D01*
X035928Y002038D01*
X035903Y002063D01*
X035877D01*
Y002038D01*
X035903Y002012D01*
X035877Y001987D01*
Y001962D01*
Y000438D02*
X035903Y000489D01*
X035877Y000539D01*
X035928Y000514D01*
X035979Y000539D01*
X035954Y000489D01*
X035979Y000438D01*
X035928Y000463D01*
X035877Y000438D01*
X038265Y001962D02*
X03829D01*
X038316Y001987D01*
X038341Y001962D01*
X038367D01*
Y001987D01*
X038341Y002012D01*
X038367Y002038D01*
Y002063D01*
X038341D01*
X038316Y002038D01*
X03829Y002063D01*
X038265D01*
Y002038D01*
X03829Y002012D01*
X038265Y001987D01*
Y001962D01*
Y000438D02*
X03829Y000489D01*
X038265Y000539D01*
X038316Y000514D01*
X038367Y000539D01*
X038341Y000489D01*
X038367Y000438D01*
X038316Y000463D01*
X038265Y000438D01*
X029547Y010053D02*
X029572Y010078D01*
X029597D01*
X029572Y010103D01*
X029597Y010129D01*
X029572D01*
X029547Y010154D01*
X029521Y010129D01*
X029496D01*
X029521Y010103D01*
X029496Y010078D01*
X029521D01*
X029547Y010053D01*
Y010073D02*
X029562Y010088D01*
X029577D01*
X029562Y010103D01*
X029577Y010119D01*
X029562D01*
X029547Y010134D01*
X029531Y010119D01*
X029516D01*
X029531Y010103D01*
X029516Y010088D01*
X029531D01*
X029547Y010073D01*
X028867Y010053D02*
X028892Y010078D01*
X028917D01*
X028892Y010103D01*
X028917Y010129D01*
X028892D01*
X028867Y010154D01*
X028841Y010129D01*
X028816D01*
X028841Y010103D01*
X028816Y010078D01*
X028841D01*
X028867Y010053D01*
Y010073D02*
X028882Y010088D01*
X028897D01*
X028882Y010103D01*
X028897Y010119D01*
X028882D01*
X028867Y010134D01*
X028851Y010119D01*
X028836D01*
X028851Y010103D01*
X028836Y010088D01*
X028851D01*
X028867Y010073D01*
X000351Y004435D02*
Y004536D01*
X000452D01*
Y004435D01*
X000351D01*
X04114Y004087D02*
Y004188D01*
X041242D01*
Y004087D01*
X04114D01*
X002309Y000488D02*
Y000589D01*
X00241D01*
Y000488D01*
X002309D01*
X024409Y005072D02*
Y005174D01*
X024511D01*
Y005072D01*
X024409D01*
X040571Y011704D02*
X040597Y011755D01*
X040571Y011806D01*
X040622Y011781D01*
X040673Y011806D01*
X040648Y011755D01*
X040673Y011704D01*
X040622Y01173D01*
X040571Y011704D01*
X040592Y011725D02*
X040607Y011755D01*
X040592Y011786D01*
X040622Y01177D01*
X040653Y011786D01*
X040637Y011755D01*
X040653Y011725D01*
X040622Y01174D01*
X040592Y011725D01*
X039286Y012781D02*
X039312Y012832D01*
X039286Y012883D01*
X039337Y012857D01*
X039388Y012883D01*
X039362Y012832D01*
X039388Y012781D01*
X039337Y012807D01*
X039286Y012781D01*
X039307Y012802D02*
X039322Y012832D01*
X039307Y012863D01*
X039337Y012847D01*
X039367Y012863D01*
X039352Y012832D01*
X039367Y012802D01*
X039337Y012817D01*
X039307Y012802D01*
X039477Y012781D02*
X039502Y012832D01*
X039477Y012883D01*
X039527Y012857D01*
X039578Y012883D01*
X039553Y012832D01*
X039578Y012781D01*
X039527Y012807D01*
X039477Y012781D01*
X039497Y012802D02*
X039512Y012832D01*
X039497Y012863D01*
X039527Y012847D01*
X039558Y012863D01*
X039543Y012832D01*
X039558Y012802D01*
X039527Y012817D01*
X039497Y012802D01*
X039718Y012347D02*
X039743Y012398D01*
X039718Y012449D01*
X039769Y012423D01*
X03982Y012449D01*
X039794Y012398D01*
X03982Y012347D01*
X039769Y012372D01*
X039718Y012347D01*
X039738Y012367D02*
X039754Y012398D01*
X039738Y012428D01*
X039769Y012413D01*
X039799Y012428D01*
X039784Y012398D01*
X039799Y012367D01*
X039769Y012382D01*
X039738Y012367D01*
X039726Y012517D02*
X039751Y012568D01*
X039726Y012619D01*
X039776Y012593D01*
X039827Y012619D01*
X039802Y012568D01*
X039827Y012517D01*
X039776Y012543D01*
X039726Y012517D01*
X039746Y012537D02*
X039761Y012568D01*
X039746Y012598D01*
X039776Y012583D01*
X039807Y012598D01*
X039792Y012568D01*
X039807Y012537D01*
X039776Y012553D01*
X039746Y012537D01*
X039708Y012126D02*
X039733Y012177D01*
X039708Y012228D01*
X039759Y012202D01*
X039809Y012228D01*
X039784Y012177D01*
X039809Y012126D01*
X039759Y012151D01*
X039708Y012126D01*
X039728Y012146D02*
X039743Y012177D01*
X039728Y012207D01*
X039759Y012192D01*
X039789Y012207D01*
X039774Y012177D01*
X039789Y012146D01*
X039759Y012162D01*
X039728Y012146D01*
X03986Y012123D02*
X039886Y012174D01*
X03986Y012225D01*
X039911Y0122D01*
X039962Y012225D01*
X039936Y012174D01*
X039962Y012123D01*
X039911Y012149D01*
X03986Y012123D01*
X039881Y012144D02*
X039896Y012174D01*
X039881Y012205D01*
X039911Y012189D01*
X039942Y012205D01*
X039926Y012174D01*
X039942Y012144D01*
X039911Y012159D01*
X039881Y012144D01*
X041135Y012101D02*
X041161Y012151D01*
X041135Y012202D01*
X041186Y012177D01*
X041237Y012202D01*
X041211Y012151D01*
X041237Y012101D01*
X041186Y012126D01*
X041135Y012101D01*
X041156Y012121D02*
X041171Y012151D01*
X041156Y012182D01*
X041186Y012167D01*
X041217Y012182D01*
X041201Y012151D01*
X041217Y012121D01*
X041186Y012136D01*
X041156Y012121D01*
X033056Y002705D02*
X033081Y002756D01*
X033056Y002807D01*
X033106Y002781D01*
X033157Y002807D01*
X033132Y002756D01*
X033157Y002705D01*
X033106Y002731D01*
X033056Y002705D01*
X033076Y002725D02*
X033091Y002756D01*
X033076Y002786D01*
X033106Y002771D01*
X033137Y002786D01*
X033122Y002756D01*
X033137Y002725D01*
X033106Y002741D01*
X033076Y002725D01*
X038545Y01045D02*
X03857Y0105D01*
X038545Y010551D01*
X038595Y010526D01*
X038646Y010551D01*
X038621Y0105D01*
X038646Y01045D01*
X038595Y010475D01*
X038545Y01045D01*
X038565Y01047D02*
X03858Y0105D01*
X038565Y010531D01*
X038595Y010516D01*
X038626Y010531D01*
X038611Y0105D01*
X038626Y01047D01*
X038595Y010485D01*
X038565Y01047D01*
X038707Y010442D02*
X038732Y010493D01*
X038707Y010544D01*
X038758Y010518D01*
X038809Y010544D01*
X038783Y010493D01*
X038809Y010442D01*
X038758Y010467D01*
X038707Y010442D01*
X038727Y010462D02*
X038743Y010493D01*
X038727Y010523D01*
X038758Y010508D01*
X038788Y010523D01*
X038773Y010493D01*
X038788Y010462D01*
X038758Y010478D01*
X038727Y010462D01*
X041412Y010066D02*
X041438Y010117D01*
X041412Y010168D01*
X041463Y010142D01*
X041514Y010168D01*
X041488Y010117D01*
X041514Y010066D01*
X041463Y010091D01*
X041412Y010066D01*
X041432Y010086D02*
X041448Y010117D01*
X041432Y010147D01*
X041463Y010132D01*
X041493Y010147D01*
X041478Y010117D01*
X041493Y010086D01*
X041463Y010102D01*
X041432Y010086D01*
X040343Y012629D02*
X040368Y01268D01*
X040343Y01273D01*
X040394Y012705D01*
X040444Y01273D01*
X040419Y01268D01*
X040444Y012629D01*
X040394Y012654D01*
X040343Y012629D01*
X040363Y012649D02*
X040378Y01268D01*
X040363Y01271D01*
X040394Y012695D01*
X040424Y01271D01*
X040409Y01268D01*
X040424Y012649D01*
X040394Y012664D01*
X040363Y012649D01*
X040775Y012619D02*
X0408Y01267D01*
X040775Y01272D01*
X040825Y012695D01*
X040876Y01272D01*
X040851Y01267D01*
X040876Y012619D01*
X040825Y012644D01*
X040775Y012619D01*
X040795Y012639D02*
X04081Y01267D01*
X040795Y0127D01*
X040825Y012685D01*
X040856Y0127D01*
X040841Y01267D01*
X040856Y012639D01*
X040825Y012654D01*
X040795Y012639D01*
X037968Y011643D02*
X037993Y011694D01*
X037968Y011745D01*
X038019Y01172D01*
X03807Y011745D01*
X038044Y011694D01*
X03807Y011643D01*
X038019Y011669D01*
X037968Y011643D01*
X037988Y011664D02*
X038003Y011694D01*
X037988Y011725D01*
X038019Y011709D01*
X038049Y011725D01*
X038034Y011694D01*
X038049Y011664D01*
X038019Y011679D01*
X037988Y011664D01*
X034785Y003063D02*
X034811Y003114D01*
X034785Y003165D01*
X034836Y003139D01*
X034887Y003165D01*
X034861Y003114D01*
X034887Y003063D01*
X034836Y003089D01*
X034785Y003063D01*
X034806Y003084D02*
X034821Y003114D01*
X034806Y003145D01*
X034836Y003129D01*
X034867Y003145D01*
X034851Y003114D01*
X034867Y003084D01*
X034836Y003099D01*
X034806Y003084D01*
X03426Y002428D02*
X034285Y002479D01*
X03426Y00253D01*
X03431Y002504D01*
X034361Y00253D01*
X034336Y002479D01*
X034361Y002428D01*
X03431Y002454D01*
X03426Y002428D01*
X03428Y002449D02*
X034295Y002479D01*
X03428Y00251D01*
X03431Y002494D01*
X034341Y00251D01*
X034326Y002479D01*
X034341Y002449D01*
X03431Y002464D01*
X03428Y002449D01*
X041793Y010091D02*
X041819Y010142D01*
X041793Y010193D01*
X041844Y010168D01*
X041895Y010193D01*
X041869Y010142D01*
X041895Y010091D01*
X041844Y010117D01*
X041793Y010091D01*
X041813Y010112D02*
X041829Y010142D01*
X041813Y010173D01*
X041844Y010157D01*
X041874Y010173D01*
X041859Y010142D01*
X041874Y010112D01*
X041844Y010127D01*
X041813Y010112D01*
X029169Y010338D02*
X029195Y010389D01*
X029169Y010439D01*
X02922Y010414D01*
X029271Y010439D01*
X029246Y010389D01*
X029271Y010338D01*
X02922Y010363D01*
X029169Y010338D01*
X02919Y010358D02*
X029205Y010389D01*
X02919Y010419D01*
X02922Y010404D01*
X029251Y010419D01*
X029235Y010389D01*
X029251Y010358D01*
X02922Y010373D01*
X02919Y010358D01*
X020168Y01079D02*
X020193Y010841D01*
X020168Y010892D01*
X020218Y010866D01*
X020269Y010892D01*
X020244Y010841D01*
X020269Y01079D01*
X020218Y010815D01*
X020168Y01079D01*
X020188Y01081D02*
X020203Y010841D01*
X020188Y010871D01*
X020218Y010856D01*
X020249Y010871D01*
X020234Y010841D01*
X020249Y01081D01*
X020218Y010825D01*
X020188Y01081D01*
X020587Y010582D02*
X020612Y010632D01*
X020587Y010683D01*
X020638Y010658D01*
X020688Y010683D01*
X020663Y010632D01*
X020688Y010582D01*
X020638Y010607D01*
X020587Y010582D01*
X020607Y010602D02*
X020622Y010632D01*
X020607Y010663D01*
X020638Y010648D01*
X020668Y010663D01*
X020653Y010632D01*
X020668Y010602D01*
X020638Y010617D01*
X020607Y010602D01*
X028164Y011158D02*
X028189Y011209D01*
X028164Y01126D01*
X028214Y011234D01*
X028265Y01126D01*
X02824Y011209D01*
X028265Y011158D01*
X028214Y011184D01*
X028164Y011158D01*
X028184Y011179D02*
X028199Y011209D01*
X028184Y011239D01*
X028214Y011224D01*
X028245Y011239D01*
X02823Y011209D01*
X028245Y011179D01*
X028214Y011194D01*
X028184Y011179D01*
X028169Y011321D02*
X028194Y011372D01*
X028169Y011422D01*
X028219Y011397D01*
X02827Y011422D01*
X028245Y011372D01*
X02827Y011321D01*
X028219Y011346D01*
X028169Y011321D01*
X028189Y011341D02*
X028204Y011372D01*
X028189Y011402D01*
X028219Y011387D01*
X02825Y011402D01*
X028235Y011372D01*
X02825Y011341D01*
X028219Y011356D01*
X028189Y011341D01*
X021168Y011201D02*
X021194Y011252D01*
X021168Y011303D01*
X021219Y011278D01*
X02127Y011303D01*
X021245Y011252D01*
X02127Y011201D01*
X021219Y011227D01*
X021168Y011201D01*
X021189Y011222D02*
X021204Y011252D01*
X021189Y011283D01*
X021219Y011267D01*
X02125Y011283D01*
X021234Y011252D01*
X02125Y011222D01*
X021219Y011237D01*
X021189Y011222D01*
X02125Y011346D02*
X021275Y011397D01*
X02125Y011448D01*
X0213Y011422D01*
X021351Y011448D01*
X021326Y011397D01*
X021351Y011346D01*
X0213Y011372D01*
X02125Y011346D01*
X02127Y011367D02*
X021285Y011397D01*
X02127Y011427D01*
X0213Y011412D01*
X021331Y011427D01*
X021316Y011397D01*
X021331Y011367D01*
X0213Y011382D01*
X02127Y011367D01*
X019789Y011217D02*
X019815Y011267D01*
X019789Y011318D01*
X01984Y011293D01*
X019891Y011318D01*
X019865Y011267D01*
X019891Y011217D01*
X01984Y011242D01*
X019789Y011217D01*
X019809Y011237D02*
X019825Y011267D01*
X019809Y011298D01*
X01984Y011283D01*
X01987Y011298D01*
X019855Y011267D01*
X01987Y011237D01*
X01984Y011252D01*
X019809Y011237D01*
X019685Y011339D02*
X01971Y011389D01*
X019685Y01144D01*
X019736Y011415D01*
X019787Y01144D01*
X019761Y011389D01*
X019787Y011339D01*
X019736Y011364D01*
X019685Y011339D01*
X019705Y011359D02*
X019721Y011389D01*
X019705Y01142D01*
X019736Y011405D01*
X019766Y01142D01*
X019751Y011389D01*
X019766Y011359D01*
X019736Y011374D01*
X019705Y011359D01*
X034933Y009931D02*
X034958Y009982D01*
X034933Y010033D01*
X034983Y010008D01*
X035034Y010033D01*
X035009Y009982D01*
X035034Y009931D01*
X034983Y009957D01*
X034933Y009931D01*
X034953Y009952D02*
X034968Y009982D01*
X034953Y010013D01*
X034983Y009997D01*
X035014Y010013D01*
X034999Y009982D01*
X035014Y009952D01*
X034983Y009967D01*
X034953Y009952D01*
X022151Y010526D02*
X022177Y010577D01*
X022151Y010627D01*
X022202Y010602D01*
X022253Y010627D01*
X022228Y010577D01*
X022253Y010526D01*
X022202Y010551D01*
X022151Y010526D01*
X022172Y010546D02*
X022187Y010577D01*
X022172Y010607D01*
X022202Y010592D01*
X022233Y010607D01*
X022217Y010577D01*
X022233Y010546D01*
X022202Y010561D01*
X022172Y010546D01*
X020579Y01095D02*
X020604Y011001D01*
X020579Y011052D01*
X02063Y011026D01*
X020681Y011052D01*
X020655Y011001D01*
X020681Y01095D01*
X02063Y010975D01*
X020579Y01095D01*
X020599Y01097D02*
X020615Y011001D01*
X020599Y011031D01*
X02063Y011016D01*
X02066Y011031D01*
X020645Y011001D01*
X02066Y01097D01*
X02063Y010986D01*
X020599Y01097D01*
X021613Y010315D02*
X021638Y010366D01*
X021613Y010417D01*
X021664Y010391D01*
X021714Y010417D01*
X021689Y010366D01*
X021714Y010315D01*
X021664Y01034D01*
X021613Y010315D01*
X021633Y010335D02*
X021648Y010366D01*
X021633Y010396D01*
X021664Y010381D01*
X021694Y010396D01*
X021679Y010366D01*
X021694Y010335D01*
X021664Y01035D01*
X021633Y010335D01*
X02236Y010988D02*
X022385Y011039D01*
X02236Y01109D01*
X02241Y011064D01*
X022461Y01109D01*
X022436Y011039D01*
X022461Y010988D01*
X02241Y011013D01*
X02236Y010988D01*
X02238Y011008D02*
X022395Y011039D01*
X02238Y011069D01*
X02241Y011054D01*
X022441Y011069D01*
X022426Y011039D01*
X022441Y011008D01*
X02241Y011024D01*
X02238Y011008D01*
X039444Y010582D02*
X039469Y010632D01*
X039444Y010683D01*
X039494Y010658D01*
X039545Y010683D01*
X03952Y010632D01*
X039545Y010582D01*
X039494Y010607D01*
X039444Y010582D01*
X039464Y010602D02*
X039479Y010632D01*
X039464Y010663D01*
X039494Y010648D01*
X039525Y010663D01*
X03951Y010632D01*
X039525Y010602D01*
X039494Y010617D01*
X039464Y010602D01*
X021623Y010665D02*
X021648Y010716D01*
X021623Y010767D01*
X021674Y010742D01*
X021725Y010767D01*
X021699Y010716D01*
X021725Y010665D01*
X021674Y010691D01*
X021623Y010665D01*
X021643Y010686D02*
X021659Y010716D01*
X021643Y010747D01*
X021674Y010732D01*
X021704Y010747D01*
X021689Y010716D01*
X021704Y010686D01*
X021674Y010701D01*
X021643Y010686D01*
X04158Y010259D02*
X041605Y01031D01*
X04158Y010361D01*
X041631Y010335D01*
X041681Y010361D01*
X041656Y01031D01*
X041681Y010259D01*
X041631Y010284D01*
X04158Y010259D01*
X0416Y010279D02*
X041615Y01031D01*
X0416Y01034D01*
X041631Y010325D01*
X041661Y01034D01*
X041646Y01031D01*
X041661Y010279D01*
X041631Y010295D01*
X0416Y010279D01*
X039489Y010845D02*
X039514Y010896D01*
X039489Y010946D01*
X03954Y010921D01*
X03959Y010946D01*
X039565Y010896D01*
X03959Y010845D01*
X03954Y01087D01*
X039489Y010845D01*
X039509Y010865D02*
X039524Y010896D01*
X039509Y010926D01*
X03954Y010911D01*
X03957Y010926D01*
X039555Y010896D01*
X03957Y010865D01*
X03954Y01088D01*
X039509Y010865D01*
X020864Y01175D02*
X020889Y011801D01*
X020864Y011852D01*
X020914Y011826D01*
X020965Y011852D01*
X02094Y011801D01*
X020965Y01175D01*
X020914Y011775D01*
X020864Y01175D01*
X020884Y01177D02*
X020899Y011801D01*
X020884Y011831D01*
X020914Y011816D01*
X020945Y011831D01*
X02093Y011801D01*
X020945Y01177D01*
X020914Y011786D01*
X020884Y01177D01*
X020721Y012276D02*
X020747Y012327D01*
X020721Y012377D01*
X020772Y012352D01*
X020823Y012377D01*
X020798Y012327D01*
X020823Y012276D01*
X020772Y012301D01*
X020721Y012276D01*
X020742Y012296D02*
X020757Y012327D01*
X020742Y012357D01*
X020772Y012342D01*
X020803Y012357D01*
X020787Y012327D01*
X020803Y012296D01*
X020772Y012311D01*
X020742Y012296D01*
X020577Y012413D02*
X020602Y012464D01*
X020577Y012515D01*
X020627Y012489D01*
X020678Y012515D01*
X020653Y012464D01*
X020678Y012413D01*
X020627Y012438D01*
X020577Y012413D01*
X020597Y012433D02*
X020612Y012464D01*
X020597Y012494D01*
X020627Y012479D01*
X020658Y012494D01*
X020643Y012464D01*
X020658Y012433D01*
X020627Y012449D01*
X020597Y012433D01*
X041019Y002289D02*
X041045Y00234D01*
X041019Y002391D01*
X04107Y002365D01*
X041121Y002391D01*
X041095Y00234D01*
X041121Y002289D01*
X04107Y002315D01*
X041019Y002289D01*
X04104Y00231D02*
X041055Y00234D01*
X04104Y00237D01*
X04107Y002355D01*
X0411Y00237D01*
X041085Y00234D01*
X0411Y00231D01*
X04107Y002325D01*
X04104Y00231D01*
X035139Y002309D02*
X035165Y00236D01*
X035139Y002411D01*
X03519Y002385D01*
X035241Y002411D01*
X035215Y00236D01*
X035241Y002309D01*
X03519Y002335D01*
X035139Y002309D01*
X035159Y00233D02*
X035175Y00236D01*
X035159Y00239D01*
X03519Y002375D01*
X03522Y00239D01*
X035205Y00236D01*
X03522Y00233D01*
X03519Y002345D01*
X035159Y00233D01*
X039619Y002409D02*
X039645Y00246D01*
X039619Y002511D01*
X03967Y002485D01*
X039721Y002511D01*
X039695Y00246D01*
X039721Y002409D01*
X03967Y002435D01*
X039619Y002409D01*
X03964Y00243D02*
X039655Y00246D01*
X03964Y00249D01*
X03967Y002475D01*
X0397Y00249D01*
X039685Y00246D01*
X0397Y00243D01*
X03967Y002445D01*
X03964Y00243D01*
X035399Y002399D02*
X035425Y00245D01*
X035399Y002501D01*
X03545Y002475D01*
X035501Y002501D01*
X035475Y00245D01*
X035501Y002399D01*
X03545Y002425D01*
X035399Y002399D01*
X03542Y00242D02*
X035435Y00245D01*
X03542Y00248D01*
X03545Y002465D01*
X03548Y00248D01*
X035465Y00245D01*
X03548Y00242D01*
X03545Y002435D01*
X03542Y00242D01*
X035649Y002479D02*
X035675Y00253D01*
X035649Y002581D01*
X0357Y002555D01*
X035751Y002581D01*
X035725Y00253D01*
X035751Y002479D01*
X0357Y002505D01*
X035649Y002479D01*
X03567Y0025D02*
X035685Y00253D01*
X03567Y00256D01*
X0357Y002545D01*
X03573Y00256D01*
X035715Y00253D01*
X03573Y0025D01*
X0357Y002515D01*
X03567Y0025D01*
X038729Y002969D02*
X038755Y00302D01*
X038729Y003071D01*
X03878Y003045D01*
X038831Y003071D01*
X038805Y00302D01*
X038831Y002969D01*
X03878Y002995D01*
X038729Y002969D01*
X03875Y00299D02*
X038765Y00302D01*
X03875Y00305D01*
X03878Y003035D01*
X03881Y00305D01*
X038795Y00302D01*
X03881Y00299D01*
X03878Y003005D01*
X03875Y00299D01*
X029899Y002979D02*
X029925Y00303D01*
X029899Y003081D01*
X02995Y003055D01*
X030001Y003081D01*
X029975Y00303D01*
X030001Y002979D01*
X02995Y003005D01*
X029899Y002979D01*
X02992Y003D02*
X029935Y00303D01*
X02992Y00306D01*
X02995Y003045D01*
X02998Y00306D01*
X029965Y00303D01*
X02998Y003D01*
X02995Y003015D01*
X02992Y003D01*
X023429Y002489D02*
X023455Y00254D01*
X023429Y002591D01*
X02348Y002565D01*
X023531Y002591D01*
X023505Y00254D01*
X023531Y002489D01*
X02348Y002515D01*
X023429Y002489D01*
X02345Y00251D02*
X023465Y00254D01*
X02345Y00257D01*
X02348Y002555D01*
X02351Y00257D01*
X023495Y00254D01*
X02351Y00251D01*
X02348Y002525D01*
X02345Y00251D01*
X028669Y002919D02*
X028695Y00297D01*
X028669Y003021D01*
X02872Y002995D01*
X028771Y003021D01*
X028745Y00297D01*
X028771Y002919D01*
X02872Y002945D01*
X028669Y002919D01*
X02869Y00294D02*
X028705Y00297D01*
X02869Y003D01*
X02872Y002985D01*
X02875Y003D01*
X028735Y00297D01*
X02875Y00294D01*
X02872Y002955D01*
X02869Y00294D01*
X028829Y002749D02*
X028855Y0028D01*
X028829Y002851D01*
X02888Y002825D01*
X028931Y002851D01*
X028905Y0028D01*
X028931Y002749D01*
X02888Y002775D01*
X028829Y002749D01*
X02885Y00277D02*
X028865Y0028D01*
X02885Y00283D01*
X02888Y002815D01*
X02891Y00283D01*
X028895Y0028D01*
X02891Y00277D01*
X02888Y002785D01*
X02885Y00277D01*
X028939Y002599D02*
X028965Y00265D01*
X028939Y002701D01*
X02899Y002675D01*
X029041Y002701D01*
X029015Y00265D01*
X029041Y002599D01*
X02899Y002625D01*
X028939Y002599D01*
X02896Y00262D02*
X028975Y00265D01*
X02896Y00268D01*
X02899Y002665D01*
X02902Y00268D01*
X029005Y00265D01*
X02902Y00262D01*
X02899Y002635D01*
X02896Y00262D01*
X010629Y003909D02*
X010654Y00396D01*
X010629Y004011D01*
X01068Y003986D01*
X010731Y004011D01*
X010705Y00396D01*
X010731Y003909D01*
X01068Y003935D01*
X010629Y003909D01*
X010649Y00393D02*
X010665Y00396D01*
X010649Y003991D01*
X01068Y003975D01*
X01071Y003991D01*
X010695Y00396D01*
X01071Y00393D01*
X01068Y003945D01*
X010649Y00393D01*
X029529Y003739D02*
X029555Y00379D01*
X029529Y003841D01*
X02958Y003815D01*
X029631Y003841D01*
X029605Y00379D01*
X029631Y003739D01*
X02958Y003765D01*
X029529Y003739D01*
X02955Y00376D02*
X029565Y00379D01*
X02955Y00382D01*
X02958Y003805D01*
X02961Y00382D01*
X029595Y00379D01*
X02961Y00376D01*
X02958Y003775D01*
X02955Y00376D01*
X029539Y003569D02*
X029565Y00362D01*
X029539Y003671D01*
X02959Y003645D01*
X029641Y003671D01*
X029615Y00362D01*
X029641Y003569D01*
X02959Y003595D01*
X029539Y003569D01*
X02956Y00359D02*
X029575Y00362D01*
X02956Y00365D01*
X02959Y003635D01*
X02962Y00365D01*
X029605Y00362D01*
X02962Y00359D01*
X02959Y003605D01*
X02956Y00359D01*
X010749Y003789D02*
X010775Y00384D01*
X010749Y003891D01*
X0108Y003865D01*
X010851Y003891D01*
X010825Y00384D01*
X010851Y003789D01*
X0108Y003815D01*
X010749Y003789D01*
X01077Y00381D02*
X010785Y00384D01*
X01077Y00387D01*
X0108Y003855D01*
X01083Y00387D01*
X010815Y00384D01*
X01083Y00381D01*
X0108Y003825D01*
X01077Y00381D01*
X025369Y004779D02*
X025395Y00483D01*
X025369Y004881D01*
X02542Y004855D01*
X025471Y004881D01*
X025445Y00483D01*
X025471Y004779D01*
X02542Y004805D01*
X025369Y004779D01*
X02539Y0048D02*
X025405Y00483D01*
X02539Y00486D01*
X02542Y004845D01*
X02545Y00486D01*
X025435Y00483D01*
X02545Y0048D01*
X02542Y004815D01*
X02539Y0048D01*
X040759Y012159D02*
X040785Y01221D01*
X040759Y012261D01*
X04081Y012235D01*
X040861Y012261D01*
X040835Y01221D01*
X040861Y012159D01*
X04081Y012185D01*
X040759Y012159D01*
X04078Y01218D02*
X040795Y01221D01*
X04078Y01224D01*
X04081Y012225D01*
X04084Y01224D01*
X040825Y01221D01*
X04084Y01218D01*
X04081Y012195D01*
X04078Y01218D01*
X023375Y002202D02*
X023401Y002253D01*
X023375Y002304D01*
X023426Y002279D01*
X023477Y002304D01*
X023452Y002253D01*
X023477Y002202D01*
X023426Y002228D01*
X023375Y002202D01*
X023396Y002223D02*
X023411Y002253D01*
X023396Y002284D01*
X023426Y002269D01*
X023457Y002284D01*
X023441Y002253D01*
X023457Y002223D01*
X023426Y002238D01*
X023396Y002223D01*
X021021Y002142D02*
X021046Y002192D01*
X021021Y002243D01*
X021071Y002218D01*
X021122Y002243D01*
X021097Y002192D01*
X021122Y002142D01*
X021071Y002167D01*
X021021Y002142D01*
X021041Y002162D02*
X021056Y002192D01*
X021041Y002223D01*
X021071Y002208D01*
X021102Y002223D01*
X021087Y002192D01*
X021102Y002162D01*
X021071Y002177D01*
X021041Y002162D01*
X033038Y004781D02*
X033064Y004831D01*
X033038Y004882D01*
X033089Y004857D01*
X03314Y004882D01*
X033114Y004831D01*
X03314Y004781D01*
X033089Y004806D01*
X033038Y004781D01*
X033059Y004801D02*
X033074Y004831D01*
X033059Y004862D01*
X033089Y004847D01*
X033119Y004862D01*
X033104Y004831D01*
X033119Y004801D01*
X033089Y004816D01*
X033059Y004801D01*
X033237Y002552D02*
X033262Y002602D01*
X033237Y002653D01*
X033288Y002628D01*
X033339Y002653D01*
X033313Y002602D01*
X033339Y002552D01*
X033288Y002577D01*
X033237Y002552D01*
X033257Y002572D02*
X033273Y002602D01*
X033257Y002633D01*
X033288Y002618D01*
X033318Y002633D01*
X033303Y002602D01*
X033318Y002572D01*
X033288Y002587D01*
X033257Y002572D01*
X029729Y002426D02*
X029755Y002477D01*
X029729Y002527D01*
X02978Y002502D01*
X029831Y002527D01*
X029805Y002477D01*
X029831Y002426D01*
X02978Y002451D01*
X029729Y002426D01*
X02975Y002446D02*
X029765Y002477D01*
X02975Y002507D01*
X02978Y002492D01*
X029811Y002507D01*
X029795Y002477D01*
X029811Y002446D01*
X02978Y002461D01*
X02975Y002446D01*
X030399Y003319D02*
X030425Y00337D01*
X030399Y003421D01*
X03045Y003395D01*
X030501Y003421D01*
X030475Y00337D01*
X030501Y003319D01*
X03045Y003344D01*
X030399Y003319D01*
X03042Y003339D02*
X030435Y00337D01*
X03042Y0034D01*
X03045Y003385D01*
X03048Y0034D01*
X030465Y00337D01*
X03048Y003339D01*
X03045Y003355D01*
X03042Y003339D01*
X034277Y003319D02*
X034302Y00337D01*
X034277Y003421D01*
X034327Y003395D01*
X034378Y003421D01*
X034353Y00337D01*
X034378Y003319D01*
X034327Y003344D01*
X034277Y003319D01*
X034297Y003339D02*
X034312Y00337D01*
X034297Y0034D01*
X034327Y003385D01*
X034358Y0034D01*
X034343Y00337D01*
X034358Y003339D01*
X034327Y003355D01*
X034297Y003339D01*
X034439Y003197D02*
X034464Y003248D01*
X034439Y003299D01*
X03449Y003273D01*
X03454Y003299D01*
X034515Y003248D01*
X03454Y003197D01*
X03449Y003223D01*
X034439Y003197D01*
X034459Y003218D02*
X034474Y003248D01*
X034459Y003278D01*
X03449Y003263D01*
X03452Y003278D01*
X034505Y003248D01*
X03452Y003218D01*
X03449Y003233D01*
X034459Y003218D01*
X030298Y003197D02*
X030323Y003248D01*
X030298Y003299D01*
X030348Y003273D01*
X030399Y003299D01*
X030374Y003248D01*
X030399Y003197D01*
X030348Y003223D01*
X030298Y003197D01*
X030318Y003218D02*
X030333Y003248D01*
X030318Y003278D01*
X030348Y003263D01*
X030379Y003278D01*
X030364Y003248D01*
X030379Y003218D01*
X030348Y003233D01*
X030318Y003218D01*
X028227Y002D02*
X028252Y00205D01*
X028227Y002101D01*
X028278Y002076D01*
X028329Y002101D01*
X028303Y00205D01*
X028329Y002D01*
X028278Y002025D01*
X028227Y002D01*
X028247Y00202D02*
X028263Y00205D01*
X028247Y002081D01*
X028278Y002066D01*
X028308Y002081D01*
X028293Y00205D01*
X028308Y00202D01*
X028278Y002035D01*
X028247Y00202D01*
X021427Y012332D02*
X021452Y012383D01*
X021427Y012434D01*
X021477Y012408D01*
X021528Y012434D01*
X021503Y012383D01*
X021528Y012332D01*
X021477Y012358D01*
X021427Y012332D01*
X021447Y012353D02*
X021462Y012383D01*
X021447Y012413D01*
X021477Y012398D01*
X021508Y012413D01*
X021493Y012383D01*
X021508Y012353D01*
X021477Y012368D01*
X021447Y012353D01*
X019254Y012677D02*
X01928Y012728D01*
X019254Y012779D01*
X019305Y012754D01*
X019356Y012779D01*
X019331Y012728D01*
X019356Y012677D01*
X019305Y012703D01*
X019254Y012677D01*
X019275Y012698D02*
X01929Y012728D01*
X019275Y012759D01*
X019305Y012743D01*
X019336Y012759D01*
X019321Y012728D01*
X019336Y012698D01*
X019305Y012713D01*
X019275Y012698D01*
X036225Y009754D02*
X036251Y009805D01*
X036225Y009856D01*
X036276Y00983D01*
X036327Y009856D01*
X036302Y009805D01*
X036327Y009754D01*
X036276Y009779D01*
X036225Y009754D01*
X036246Y009774D02*
X036261Y009805D01*
X036246Y009835D01*
X036276Y00982D01*
X036307Y009835D01*
X036291Y009805D01*
X036307Y009774D01*
X036276Y00979D01*
X036246Y009774D01*
X042295Y008536D02*
X04232Y008587D01*
X042295Y008638D01*
X042346Y008612D01*
X042397Y008638D01*
X042371Y008587D01*
X042397Y008536D01*
X042346Y008561D01*
X042295Y008536D01*
X042315Y008556D02*
X042331Y008587D01*
X042315Y008617D01*
X042346Y008602D01*
X042376Y008617D01*
X042361Y008587D01*
X042376Y008556D01*
X042346Y008572D01*
X042315Y008556D01*
X040894Y007744D02*
X04092Y007795D01*
X040894Y007846D01*
X040945Y007821D01*
X040996Y007846D01*
X04097Y007795D01*
X040996Y007744D01*
X040945Y00777D01*
X040894Y007744D01*
X040915Y007765D02*
X04093Y007795D01*
X040915Y007826D01*
X040945Y00781D01*
X040976Y007826D01*
X04096Y007795D01*
X040976Y007765D01*
X040945Y00778D01*
X040915Y007765D01*
X040245Y008597D02*
X04027Y008648D01*
X040245Y008699D01*
X040295Y008673D01*
X040346Y008699D01*
X040321Y008648D01*
X040346Y008597D01*
X040295Y008622D01*
X040245Y008597D01*
X040265Y008617D02*
X04028Y008648D01*
X040265Y008678D01*
X040295Y008663D01*
X040326Y008678D01*
X040311Y008648D01*
X040326Y008617D01*
X040295Y008633D01*
X040265Y008617D01*
X039737Y00947D02*
X039763Y009521D01*
X039737Y009571D01*
X039788Y009546D01*
X039839Y009571D01*
X039813Y009521D01*
X039839Y00947D01*
X039788Y009495D01*
X039737Y00947D01*
X039758Y00949D02*
X039773Y009521D01*
X039758Y009551D01*
X039788Y009536D01*
X039818Y009551D01*
X039803Y009521D01*
X039818Y00949D01*
X039788Y009505D01*
X039758Y00949D01*
X038824Y009734D02*
X038849Y009785D01*
X038824Y009835D01*
X038874Y00981D01*
X038925Y009835D01*
X0389Y009785D01*
X038925Y009734D01*
X038874Y009759D01*
X038824Y009734D01*
X038844Y009754D02*
X038859Y009785D01*
X038844Y009815D01*
X038874Y0098D01*
X038905Y009815D01*
X03889Y009785D01*
X038905Y009754D01*
X038874Y009769D01*
X038844Y009754D01*
X041402Y012251D02*
X041427Y012302D01*
X041402Y012353D01*
X041453Y012327D01*
X041503Y012353D01*
X041478Y012302D01*
X041503Y012251D01*
X041453Y012276D01*
X041402Y012251D01*
X041422Y012271D02*
X041437Y012302D01*
X041422Y012332D01*
X041453Y012317D01*
X041483Y012332D01*
X041468Y012302D01*
X041483Y012271D01*
X041453Y012287D01*
X041422Y012271D01*
X040224Y012089D02*
X04025Y012139D01*
X040224Y01219D01*
X040275Y012165D01*
X040326Y01219D01*
X040301Y012139D01*
X040326Y012089D01*
X040275Y012114D01*
X040224Y012089D01*
X040245Y012109D02*
X04026Y012139D01*
X040245Y01217D01*
X040275Y012155D01*
X040306Y01217D01*
X04029Y012139D01*
X040306Y012109D01*
X040275Y012124D01*
X040245Y012109D01*
X034567Y006932D02*
X034592Y006982D01*
X034567Y007033D01*
X034618Y007008D01*
X034668Y007033D01*
X034643Y006982D01*
X034668Y006932D01*
X034618Y006957D01*
X034567Y006932D01*
X034587Y006952D02*
X034602Y006982D01*
X034587Y007013D01*
X034618Y006998D01*
X034648Y007013D01*
X034633Y006982D01*
X034648Y006952D01*
X034618Y006967D01*
X034587Y006952D01*
X034788Y006299D02*
X034813Y00635D01*
X034788Y006401D01*
X034839Y006375D01*
X034889Y006401D01*
X034864Y00635D01*
X034889Y006299D01*
X034839Y006325D01*
X034788Y006299D01*
X034808Y00632D02*
X034823Y00635D01*
X034808Y00638D01*
X034839Y006365D01*
X034869Y00638D01*
X034854Y00635D01*
X034869Y00632D01*
X034839Y006335D01*
X034808Y00632D01*
X033873Y010259D02*
X033899Y010309D01*
X033873Y01036D01*
X033924Y010335D01*
X033975Y01036D01*
X03395Y010309D01*
X033975Y010259D01*
X033924Y010284D01*
X033873Y010259D01*
X033894Y010279D02*
X033909Y010309D01*
X033894Y01034D01*
X033924Y010325D01*
X033955Y01034D01*
X033939Y010309D01*
X033955Y010279D01*
X033924Y010294D01*
X033894Y010279D01*
X029474Y011323D02*
X0295Y011374D01*
X029474Y011425D01*
X029525Y0114D01*
X029576Y011425D01*
X02955Y011374D01*
X029576Y011323D01*
X029525Y011349D01*
X029474Y011323D01*
X029494Y011344D02*
X02951Y011374D01*
X029494Y011405D01*
X029525Y011389D01*
X029555Y011405D01*
X02954Y011374D01*
X029555Y011344D01*
X029525Y011359D01*
X029494Y011344D01*
X029472Y011161D02*
X029497Y011212D01*
X029472Y011262D01*
X029522Y011237D01*
X029573Y011262D01*
X029548Y011212D01*
X029573Y011161D01*
X029522Y011186D01*
X029472Y011161D01*
X029492Y011181D02*
X029507Y011212D01*
X029492Y011242D01*
X029522Y011227D01*
X029553Y011242D01*
X029538Y011212D01*
X029553Y011181D01*
X029522Y011196D01*
X029492Y011181D01*
X040787Y011755D02*
X040813Y011806D01*
X040787Y011857D01*
X040838Y011831D01*
X040889Y011857D01*
X040864Y011806D01*
X040889Y011755D01*
X040838Y011781D01*
X040787Y011755D01*
X040808Y011775D02*
X040823Y011806D01*
X040808Y011836D01*
X040838Y011821D01*
X040869Y011836D01*
X040853Y011806D01*
X040869Y011775D01*
X040838Y011791D01*
X040808Y011775D01*
X038062Y010955D02*
X038087Y011006D01*
X038062Y011057D01*
X038113Y011031D01*
X038164Y011057D01*
X038138Y011006D01*
X038164Y010955D01*
X038113Y01098D01*
X038062Y010955D01*
X038082Y010975D02*
X038097Y011006D01*
X038082Y011036D01*
X038113Y011021D01*
X038143Y011036D01*
X038128Y011006D01*
X038143Y010975D01*
X038113Y010991D01*
X038082Y010975D01*
X039205Y011496D02*
X03923Y011547D01*
X039205Y011598D01*
X039256Y011572D01*
X039307Y011598D01*
X039281Y011547D01*
X039307Y011496D01*
X039256Y011521D01*
X039205Y011496D01*
X039225Y011516D02*
X03924Y011547D01*
X039225Y011577D01*
X039256Y011562D01*
X039286Y011577D01*
X039271Y011547D01*
X039286Y011516D01*
X039256Y011532D01*
X039225Y011516D01*
X040227Y012296D02*
X040252Y012347D01*
X040227Y012398D01*
X040278Y012372D01*
X040329Y012398D01*
X040303Y012347D01*
X040329Y012296D01*
X040278Y012322D01*
X040227Y012296D01*
X040247Y012316D02*
X040263Y012347D01*
X040247Y012377D01*
X040278Y012362D01*
X040308Y012377D01*
X040293Y012347D01*
X040308Y012316D01*
X040278Y012332D01*
X040247Y012316D01*
X041227Y012482D02*
X041252Y012532D01*
X041227Y012583D01*
X041278Y012558D01*
X041328Y012583D01*
X041303Y012532D01*
X041328Y012482D01*
X041278Y012507D01*
X041227Y012482D01*
X041247Y012502D02*
X041262Y012532D01*
X041247Y012563D01*
X041278Y012548D01*
X041308Y012563D01*
X041293Y012532D01*
X041308Y012502D01*
X041278Y012517D01*
X041247Y012502D01*
X03873Y012129D02*
X038755Y012179D01*
X03873Y01223D01*
X038781Y012205D01*
X038832Y01223D01*
X038806Y012179D01*
X038832Y012129D01*
X038781Y012154D01*
X03873Y012129D01*
X03875Y012149D02*
X038765Y012179D01*
X03875Y01221D01*
X038781Y012195D01*
X038811Y01221D01*
X038796Y012179D01*
X038811Y012149D01*
X038781Y012164D01*
X03875Y012149D01*
X038926Y012372D02*
X038951Y012423D01*
X038926Y012474D01*
X038976Y012449D01*
X039027Y012474D01*
X039002Y012423D01*
X039027Y012372D01*
X038976Y012398D01*
X038926Y012372D01*
X038946Y012393D02*
X038961Y012423D01*
X038946Y012454D01*
X038976Y012438D01*
X039007Y012454D01*
X038992Y012423D01*
X039007Y012393D01*
X038976Y012408D01*
X038946Y012393D01*
X028834Y003043D02*
X028859Y003094D01*
X028834Y003145D01*
X028885Y003119D01*
X028936Y003145D01*
X02891Y003094D01*
X028936Y003043D01*
X028885Y003068D01*
X028834Y003043D01*
X028854Y003063D02*
X02887Y003094D01*
X028854Y003124D01*
X028885Y003109D01*
X028915Y003124D01*
X0289Y003094D01*
X028915Y003063D01*
X028885Y003078D01*
X028854Y003063D01*
X033132Y003635D02*
X033157Y003686D01*
X033132Y003736D01*
X033183Y003711D01*
X033233Y003736D01*
X033208Y003686D01*
X033233Y003635D01*
X033183Y00366D01*
X033132Y003635D01*
X033152Y003655D02*
X033167Y003686D01*
X033152Y003716D01*
X033183Y003701D01*
X033213Y003716D01*
X033198Y003686D01*
X033213Y003655D01*
X033183Y00367D01*
X033152Y003655D01*
X029152Y004049D02*
X029177Y0041D01*
X029152Y00415D01*
X029202Y004125D01*
X029253Y00415D01*
X029228Y0041D01*
X029253Y004049D01*
X029202Y004074D01*
X029152Y004049D01*
X029172Y004069D02*
X029187Y0041D01*
X029172Y00413D01*
X029202Y004115D01*
X029233Y00413D01*
X029218Y0041D01*
X029233Y004069D01*
X029202Y004084D01*
X029172Y004069D01*
X028209Y006015D02*
X028235Y006066D01*
X028209Y006116D01*
X02826Y006091D01*
X028311Y006116D01*
X028285Y006066D01*
X028311Y006015D01*
X02826Y00604D01*
X028209Y006015D01*
X02823Y006035D02*
X028245Y006066D01*
X02823Y006096D01*
X02826Y006081D01*
X028291Y006096D01*
X028275Y006066D01*
X028291Y006035D01*
X02826Y00605D01*
X02823Y006035D01*
X028164Y003424D02*
X028189Y003475D01*
X028164Y003526D01*
X028214Y0035D01*
X028265Y003526D01*
X02824Y003475D01*
X028265Y003424D01*
X028214Y003449D01*
X028164Y003424D01*
X028184Y003444D02*
X028199Y003475D01*
X028184Y003505D01*
X028214Y00349D01*
X028245Y003505D01*
X02823Y003475D01*
X028245Y003444D01*
X028214Y003459D01*
X028184Y003444D01*
X028095Y010498D02*
X02812Y010549D01*
X028095Y010599D01*
X028146Y010574D01*
X028197Y010599D01*
X028171Y010549D01*
X028197Y010498D01*
X028146Y010523D01*
X028095Y010498D01*
X028115Y010518D02*
X02813Y010549D01*
X028115Y010579D01*
X028146Y010564D01*
X028176Y010579D01*
X028161Y010549D01*
X028176Y010518D01*
X028146Y010533D01*
X028115Y010518D01*
X017289Y002458D02*
X017314Y002508D01*
X017289Y002559D01*
X01734Y002534D01*
X01739Y002559D01*
X017365Y002508D01*
X01739Y002458D01*
X01734Y002483D01*
X017289Y002458D01*
X017309Y002478D02*
X017324Y002508D01*
X017309Y002539D01*
X01734Y002524D01*
X01737Y002539D01*
X017355Y002508D01*
X01737Y002478D01*
X01734Y002493D01*
X017309Y002478D01*
X008042Y002548D02*
X008067Y002598D01*
X008042Y002649D01*
X008092Y002624D01*
X008143Y002649D01*
X008118Y002598D01*
X008143Y002548D01*
X008092Y002573D01*
X008042Y002548D01*
X008062Y002568D02*
X008077Y002598D01*
X008062Y002629D01*
X008092Y002614D01*
X008123Y002629D01*
X008108Y002598D01*
X008123Y002568D01*
X008092Y002583D01*
X008062Y002568D01*
X028951Y003299D02*
X028976Y00335D01*
X028951Y003401D01*
X029002Y003376D01*
X029053Y003401D01*
X029027Y00335D01*
X029053Y003299D01*
X029002Y003325D01*
X028951Y003299D01*
X028971Y00332D02*
X028986Y00335D01*
X028971Y003381D01*
X029002Y003365D01*
X029032Y003381D01*
X029017Y00335D01*
X029032Y00332D01*
X029002Y003335D01*
X028971Y00332D01*
X029365Y003188D02*
X02939Y003238D01*
X029365Y003289D01*
X029416Y003264D01*
X029467Y003289D01*
X029441Y003238D01*
X029467Y003188D01*
X029416Y003213D01*
X029365Y003188D01*
X029385Y003208D02*
X029401Y003238D01*
X029385Y003269D01*
X029416Y003254D01*
X029446Y003269D01*
X029431Y003238D01*
X029446Y003208D01*
X029416Y003223D01*
X029385Y003208D01*
D114*
X034163Y004793D02*
G03*
X034163Y004793I-000051J0D01*
G01*
X03003Y005436D02*
G03*
X03003Y005436I-000051J0D01*
G01*
X037685Y011952D02*
G03*
X037685Y011952I-000051J0D01*
G01*
Y011702D02*
G03*
X037685Y011702I-000051J0D01*
G01*
Y011452D02*
G03*
X037685Y011452I-000051J0D01*
G01*
X036235Y011952D02*
G03*
X036235Y011952I-000051J0D01*
G01*
Y011452D02*
G03*
X036235Y011452I-000051J0D01*
G01*
X017403Y010314D02*
G03*
X017403Y010314I-000051J0D01*
G01*
X001803D02*
G03*
X001803Y010314I-000051J0D01*
G01*
X033033D02*
G03*
X033033Y010314I-000051J0D01*
G01*
D115*
X037665Y011952D02*
G03*
X037665Y011952I-00003J0D01*
G01*
Y011702D02*
G03*
X037665Y011702I-00003J0D01*
G01*
Y011452D02*
G03*
X037665Y011452I-00003J0D01*
G01*
X036215Y011952D02*
G03*
X036215Y011952I-00003J0D01*
G01*
Y011452D02*
G03*
X036215Y011452I-00003J0D01*
G01*
M02*
