M48
;Layer_Color=6321
;FILE_FORMAT=4:4
METRIC
;TYPE=PLATED
T3F00S00C0.7112
T4F00S00C1.0000
T5F00S00C1.0160
T6F00S00C1.7500
T7F00S00C2.6000
%
T03
X00857882Y00290852
X01080000Y00384000
X01067979Y00396021
X01738246Y00251228
X02107140Y00219240
X02342620Y00225330
X02348000Y00254000
X02827790Y00205030
X02899000Y00265000
X02888000Y00280000
X02888488Y00309372
X02872000Y00297000
X02900172Y00335026
X02941574Y00323850
X02959000Y00362000
X02958000Y00379000
X02995000Y00303000
X03034850Y00324800
X03045000Y00336980
X02978010Y00247660
X02821432Y00347472
X03318256Y00368554
X03310636Y00275590
X03328790Y00260250
X03431032Y00247904
X03432730Y00336980
X03448970Y00324800
X03483610Y00311404
X03518993Y00236000
X03545000Y00245000
X03570000Y00253000
X03862535Y00286380
X03967000Y00246000
X04107000Y00234000
X04094510Y00779520
X03467478Y00700300
X03484496Y00619782
X03308900Y00483140
X02920238Y00409956
X02826004Y00606552
X02560000Y00480000
X01981370Y01127676
Y01147676
X02021840Y01084072
X02062988Y01100074
X02063750Y01063244
X02167382Y01071626
X02166366Y01036574
X02220214Y01057656
X02241042Y01103884
X02121916Y01125220
X02130044Y01139698
X02091436Y01180084
X02821940Y01137158
X02821432Y01120902
X02814574Y01054862
X02922016Y01038860
X02952242Y01121156
X02952496Y01137412
X03392424Y01030946
X03498342Y00998220
X03627610Y00980490
X03887450Y00978460
X03875786Y01049274
X03859530Y01050036
X03811270Y01100582
X03801872Y01169416
X03925570Y01154684
X03953970Y01089550
X03949446Y01063244
X03978800Y00952070
X04046598Y00864638
X04085714Y01024404
X04171312Y01030754
X04181980Y00995194
X04250306Y00860574
X04083812Y01180592
X04062222Y01175512
X04081000Y01221000
X04118610Y01215136
X04145260Y01230180
X04127754Y01253236
X04094226Y01257808
X04080510Y01267968
X04039362
X04027782Y01234694
X04027520Y01213940
X03991102Y01217422
X03975862Y01217676
X03976878Y01239774
X03977640Y01256792
X03977132Y01274318
X03896868Y01249426
X03878072Y01217930
X02147740Y01238300
X02054860Y01244600
Y01226820
Y01209040
X01930530Y01272810
T04
X00111310Y00078680
X00136710
X00349410
X00374810
X00231950Y00269160
X00206550
X00516125Y00269100
X00541525
X00706625
X00732025
X00612962Y00078600
X00587562
X00897125Y00269100
X00922525
X01087625
X01113025
X01278125
X01303525
X01468625
X01494025
X01327337Y00078600
X01301938
X01659125Y00269100
X01684525
X01849625
X01875025
X02040125
X02065525
X02230625
X02256025
X02254438Y00078600
X02279837
X02041712
X02016313
X02492563
X02517962
X02730688
X02756088
X02613213Y00269100
X02587812
X02996875Y00078660
X03022275
X03187355
X03212755
X03376835
X03402235
X03212755Y00269140
X03187355
X03619835Y00269092
X03645235
X03810335Y00269080
X03835735
X03740485Y00078580
X03715085
X04000835
X04026235
Y00269080
X04000835
X04153235Y00237330
Y00211930
X04026227Y00459588
X04000827
X04000835Y00650080
X04026235
X04153223Y00618336
Y00592936
X03835731Y00650084
X03810331
X03645235
X03619835
Y00459588
X03645235
X03810331
X03835731
X03403235Y00650100
X03377835
X03212755
X03187355
X03022275
X02996875
X02732275
X02706875
X02494150
X02468750
X02635438Y00459600
X02660837
X02351275
X02325875
X02160775
X02135375
X02113150Y00650100
X02087750
X02278250
X02303650
X01922650
X01897250
X01732150
X01706750
X01754375Y00459600
X01779775
X01944875
X01970275
X01589275
X01563875
X01398775
X01373375
X01208275
X01325750Y00650100
X01351150
X01516250
X01541650
X01160650
X01135250
X00970150
X00944750
X00992375Y00459600
X01017775
X01182875
X00827275
X00801875
X00636775
X00611375
X00446275
X00420875
X00398650Y00650100
X00563750
X00589150
X00754250
X00779650
X00373250
X00160525
X00135125
X00158938Y00459600
X00184338
X00112900Y00840600
X00087500
X00278000
X00303400
X00112900Y01119400
X00087500
X00468500
X00493900
X00659000
X00684400
Y00840600
X00659000
X00493900
X00468500
X00849500
X00874900
X01040000
X01065400
Y01119400
X01040000
X00874900
X00849500
X01325750
X01351150
X01516250
X01541650
X01446400Y00840600
X01421000
X01255900
X01230500
X01611500
X01636900
X01802000
X01827400
X01897250Y01119400
X01922650
X01732150
X01706750
X02183000
X02208400
X02373500
Y00840600
X02208400
X02183000
X02017900
X01992500
X02398900
X02659250
X02684650
X02754500Y01119400
X02589400
X02564000
X02398900
X02779900
X02996500
X03021900
X03022275Y00840580
X02996875
X03187355
X03212755
X03377835
X03403235
X03402860Y01119400
X03377460
X03212380
X03186980
X03619835Y00840580
X03645235
X03812255
X03837655
X04000835
X04026235
X04191335
X04216735
T05
X03618450Y01145200
X03763450
Y01170200
Y01195200
X03618450
T06
X00087180Y00156150
X00149410Y00180788
X00182420Y00346630
X00244650Y00371268
X00325280Y00156150
X00387510Y00180788
X00563433Y00156070
X00625662Y00180708
X00682495Y00346570
X00744725Y00371208
X00554225
X00491995Y00346570
X00872995
X00935225Y00371208
X01063495Y00346570
X01125725Y00371208
X01253995Y00346570
X01316225Y00371208
X01444495Y00346570
X01506725Y00371208
X01340038Y00180708
X01277807Y00156070
X01634995Y00346570
X01697225Y00371208
X01825495Y00346570
X01887725Y00371208
X02015995Y00346570
X02078225Y00371208
X02206495Y00346570
X02268725Y00371208
X02292538Y00180708
X02230307Y00156070
X02054413Y00180708
X01992182Y00156070
X02468432
X02530663Y00180708
X02563683Y00346570
X02625912Y00371208
X02706558Y00156070
X02768788Y00180708
X02972745Y00156130
X03034975Y00180768
X03163225Y00156130
Y00346610
X03225455Y00371248
Y00180768
X03352705Y00156130
X03414935Y00180768
X03690955Y00156050
X03753185Y00180688
X03786205Y00346550
X03848435Y00371188
X03657935Y00371200
X03595705Y00346562
X03976705Y00346550
X04038935Y00371188
Y00180688
X03976705Y00156050
X04255343Y00199230
X04230705Y00261460
X04255331Y00580236
X04230693Y00642466
X04038927Y00561696
X03976697Y00537058
X03976705Y00727550
X04038935Y00752188
X03848431Y00752192
X03786201Y00727554
X03657935Y00752192
X03595705Y00727554
Y00537058
X03657935Y00561696
X03786201Y00537058
X03848431Y00561696
X03415935Y00752208
X03353705Y00727570
X03225455Y00752208
X03163225Y00727570
X03034975Y00752208
X02972745Y00727570
X02744975Y00752208
X02682745Y00727570
X02673538Y00561708
X02611307Y00537070
X02506850Y00752208
X02444620Y00727570
X02316350Y00752208
X02254120Y00727570
X02125850Y00752208
X02063620Y00727570
X02111245Y00537070
X02173475Y00561708
X02301745Y00537070
X02363975Y00561708
X01982975
X01920745Y00537070
X01792475Y00561708
X01730245Y00537070
X01601975Y00561708
X01682620Y00727570
X01744850Y00752208
X01873120Y00727570
X01935350Y00752208
X01554350
X01492120Y00727570
X01363850Y00752208
X01301620Y00727570
X01349245Y00537070
X01411475Y00561708
X01539745Y00537070
X01220975Y00561708
X01158745Y00537070
X01030475Y00561708
X00968245Y00537070
X00839975Y00561708
X00920620Y00727570
X00982850Y00752208
X01111120Y00727570
X01173350Y00752208
X00792350
X00730120Y00727570
X00601850Y00752208
X00539620Y00727570
X00411350Y00752208
X00458975Y00561708
X00587245Y00537070
X00649475Y00561708
X00777745Y00537070
X00396745
X00197038Y00561708
X00134808Y00537070
X00110995Y00727570
X00173225Y00752208
X00349120Y00727570
X00316100Y00942708
X00253870Y00918070
X00125600Y00942708
X00063370Y00918070
X00444370
X00506600Y00942708
X00634870Y00918070
X00697100Y00942708
X00825370Y00918070
X00887600Y00942708
X01015870Y00918070
X01078100Y00942708
X01206370Y00918070
X01268600Y00942708
X01396870Y00918070
X01459100Y00942708
X01587370Y00918070
X01649600Y00942708
X01777870Y00918070
X01840100Y00942708
X01968370Y00918070
X02030600Y00942708
X02158870Y00918070
X02221100Y00942708
X02349370Y00918070
X02411600Y00942708
X02635120Y00918070
X02697350Y00942708
X02972745Y00918050
X03034975Y00942688
X03163225Y00918050
X03225455Y00942688
X03353705Y00918050
X03415935Y00942688
X03595705Y00918050
X03657935Y00942688
X03788125Y00918050
X03850355Y00942688
X03976705Y00918050
X04038935Y00942688
X04167205Y00918050
X04229435Y00942688
X03415560Y01221508
X03353330Y01196870
X03225080Y01221508
X03162850Y01196870
X03034600Y01221508
X02972370Y01196870
X02792600Y01221508
X02730370Y01196870
X02602100Y01221508
X02539870Y01196870
X02411600Y01221508
X02349370Y01196870
X02221100Y01221508
X02158870Y01196870
X01935350Y01221508
X01873120Y01196870
X01744850Y01221508
X01682620Y01196870
X01554350Y01221508
X01492120Y01196870
X01363850Y01221508
X01301620Y01196870
X01078100Y01221508
X01015870Y01196870
X00887600Y01221508
X00825370Y01196870
X00697100Y01221508
X00634870Y01196870
X00506600Y01221508
X00444370Y01196870
X00125600Y01221508
X00063370Y01196870
T07
X03688450Y01110510
Y01231160
M30
