M48
;Layer_Color=6321
;FILE_FORMAT=4:4
METRIC
;TYPE=PLATED
T3F00S00C0.7112
T4F00S00C1.0000
T5F00S00C1.0160
T6F00S00C1.7500
T7F00S00C2.6000
%
T03
X00809244Y00259842
X01067979Y00396021
X01080000Y00384000
X01733950Y00250844
X02107140Y00219240
X02342620Y00225330
X02348000Y00254000
X02827790Y00205030
X02899000Y00265000
X02888000Y00280000
X02888488Y00309372
X02872000Y00297000
X02900172Y00335026
X02941574Y00323850
X02959000Y00362000
X02958000Y00379000
X02995000Y00303000
X03034850Y00324800
X03045000Y00336980
X02978010Y00247660
X02821432Y00347472
X03318256Y00368554
X03310636Y00275590
X03328790Y00260250
X03431032Y00247904
X03432730Y00336980
X03448970Y00324800
X03483610Y00311404
X03518993Y00236000
X03545000Y00245000
X03570000Y00253000
X03878000Y00302000
X03967000Y00246000
X04107000Y00234000
X04094510Y00779520
X03461766Y00698246
X03483864Y00635000
X03308900Y00483140
X02920238Y00409956
X02826004Y00606552
X02542000Y00483000
X01983994Y01126744
X01973580Y01138936
X02021840Y01084072
X02062988Y01100074
X02063750Y01063244
X02167382Y01071626
X02166366Y01036574
X02220214Y01057656
X02241042Y01103884
X02121916Y01125220
X02130044Y01139698
X02091436Y01180084
X02821940Y01137158
X02821432Y01120902
X02814574Y01054862
X02922016Y01038860
X02952242Y01121156
X02952496Y01137412
X03392424Y01030946
X03498342Y00998220
X03627610Y00980490
X03887450Y00978460
X03875786Y01049274
X03859530Y01050036
X03811270Y01100582
X03801872Y01169416
X03925570Y01154684
X03953970Y01089550
X03949446Y01063244
X03978800Y00952070
X04029550Y00864780
X04234580Y00858690
X04184396Y01014222
X04163060Y01030986
X04146296Y01011682
X04083812Y01180592
X04062222Y01175512
X04081000Y01221000
X04118610Y01215136
X04145260Y01230180
X04127754Y01253236
X04082542Y01266952
X04039362Y01267968
X04027782Y01234694
X04027520Y01213940
X03991102Y01217422
X03975862Y01217676
X03976878Y01239774
X03977640Y01256792
X03952750Y01283206
X03933698Y01283208
X03897630Y01242314
X03878072Y01217930
X02147740Y01238300
X02077212Y01232662
X02062734Y01246378
X01930530Y01272810
T04
X00106250Y00080600
X00131650
X00343750
X00369150
X00227700Y00271825
X00202300
X00510000Y00270600
X00535400
X00700000
X00725400
X00606650Y00080600
X00581250
X00890000Y00270600
X00915400
X01080000
X01105400
X01270000
X01295400
X01460000
X01485400
X01319150Y00080600
X01293750
X01650000Y00270600
X01675400
X01840000
X01865400
X02030000
X02055400
X02220000
X02245400
X02243750Y00080600
X02269150
X02031650
X02006250
X02481250
X02506650
X02718750
X02744150
X02601650Y00270600
X02576250
X02983000Y00080600
X03008400
X03173000
Y00270600
X03198400
Y00080600
X03362000
X03387400
X03699500
X03724900
X03794500Y00270600
X03819900
X03629900
X03604500
X03984500
X04009900
X04136400Y00239100
Y00213700
X04009900Y00080600
X03984500
Y00460600
X04009900
Y00650600
X03984500
X04136400Y00619100
Y00593700
X03819900Y00650600
X03794500
X03629900
X03604500
Y00460600
X03629900
X03794500
X03819900
X03388400Y00650600
X03363000
X03198400
X03173000
X03008400
X02983000
X02720400Y00651600
X02695000
X02482900
X02457500
X02623750Y00460600
X02649150
X02340400
X02315000
X02150400
X02125000
X02102900Y00651600
X02077500
X02267500
X02292900
X01912900
X01887500
X01722900
X01697500
X01745000Y00460600
X01770400
X01935000
X01960400
X01580400
X01555000
X01390400
X01365000
X01200400
X01317500Y00651600
X01342900
X01507500
X01532900
X01152900
X01127500
X00962900
X00937500
X00985000Y00460600
X01010400
X01175000
X00820400
X00795000
X00630400
X00605000
X00440400
X00415000
X00557500Y00650600
X00582900
X00747500Y00651600
X00772900
X00392900Y00650600
X00367500
X00155400
X00130000
X00153800Y00460950
X00179200
X00107900Y00840600
X00082500
X00272500
X00297900
X00107900Y01119400
X00082500
X00462500
X00487900
X00652500
X00677900
Y00841600
X00652500
X00487900Y00840600
X00462500
X00842500
X00867900
X01032500
X01057900
Y01119400
X01032500
X00867900
X00842500
X01317500
X01342900
X01507500
X01532900
X01437900Y00840600
X01412500
X01247900
X01222500
X01602500
X01627900
X01792500
X01817900
X01982500
X01912900Y01119400
X01887500
X01722900
X01697500
X02172500
X02197900
X02362500
Y00840600
X02197900
X02172500
X02007900
X02387900
X02647500
X02672900
X02742500Y01119400
X02767900
X02577900
X02552500
X02387900
X02983000
X03008400
X03173000
Y00840600
X03008400
X02983000
X03198400
X03363000
X03388400
Y01119400
X03363000
X03198400
X03604500Y00840600
X03629900
X03794500
X03819900
X03984500
X04009900
X04174500
X04199900
T05
X03618450Y01145200
X03763450
Y01170200
Y01195200
X03618450
T06
X00082120Y00158070
X00144350Y00182708
X00319620Y00158070
X00381850Y00182708
X00240400Y00373933
X00178170Y00349295
X00485870Y00348070
X00548100Y00372708
X00675870Y00348070
X00738100Y00372708
X00619350Y00182708
X00557120Y00158070
X00865870Y00348070
X00928100Y00372708
X01055870Y00348070
X01118100Y00372708
X01245870Y00348070
X01308100Y00372708
X01435870Y00348070
X01498100Y00372708
X01331850Y00182708
X01269620Y00158070
X01625870Y00348070
X01688100Y00372708
X01815870Y00348070
X01878100Y00372708
X01982120Y00158070
X02044350Y00182708
X02219620Y00158070
X02281850Y00182708
X02258100Y00372708
X02195870Y00348070
X02068100Y00372708
X02005870Y00348070
X02552120
X02614350Y00372708
X02519350Y00182708
X02457120Y00158070
X02694620
X02756850Y00182708
X02958870Y00158070
X03021100Y00182708
X03148870Y00158070
Y00348070
X03211100Y00372708
Y00182708
X03337870Y00158070
X03400100Y00182708
X03675370Y00158070
X03737600Y00182708
X03770370Y00348070
X03832600Y00372708
X03960370Y00348070
Y00158070
X03642600Y00372708
X03580370Y00348070
X04022600Y00372708
Y00182708
X04238508Y00201000
X04213870Y00263230
X04238508Y00581000
X04213870Y00643230
X04022600Y00562708
Y00752708
X03960370Y00728070
X03832600Y00752708
X03770370Y00728070
X03642600Y00752708
X03580370Y00728070
Y00538070
X03642600Y00562708
X03770370Y00538070
X03832600Y00562708
X03960370Y00538070
X03401100Y00752708
X03338870Y00728070
X03211100Y00752708
X03148870Y00728070
X03021100Y00752708
X02958870Y00728070
X02733100Y00753708
X02670870Y00729070
X02661850Y00562708
X02599620Y00538070
X02495600Y00753708
X02433370Y00729070
X02305600Y00753708
X02243370Y00729070
X02115600Y00753708
X02053370Y00729070
X02100870Y00538070
X02163100Y00562708
X02290870Y00538070
X02353100Y00562708
X01973100
X01910870Y00538070
X01783100Y00562708
X01720870Y00538070
X01593100Y00562708
X01673370Y00729070
X01735600Y00753708
X01863370Y00729070
X01925600Y00753708
X01545600
X01483370Y00729070
X01355600Y00753708
X01293370Y00729070
X01340870Y00538070
X01403100Y00562708
X01530870Y00538070
X01213100Y00562708
X01150870Y00538070
X01023100Y00562708
X00960870Y00538070
X00833100Y00562708
X00913370Y00729070
X00975600Y00753708
X01103370Y00729070
X01165600Y00753708
X00785600
X00723370Y00729070
X00595600Y00752708
X00533370Y00728070
X00405600Y00752708
X00453100Y00562708
X00580870Y00538070
X00643100Y00562708
X00770870Y00538070
X00390870
X00191900Y00563058
X00129670Y00538420
X00105870Y00728070
X00168100Y00752708
X00343370Y00728070
X00310600Y00942708
X00248370Y00918070
X00120600Y00942708
X00058370Y00918070
X00438370
X00500600Y00942708
X00628370Y00919070
X00690600Y00943708
X00818370Y00918070
X00880600Y00942708
X01008370Y00918070
X01070600Y00942708
X01198370Y00918070
X01260600Y00942708
X01388370Y00918070
X01450600Y00942708
X01578370Y00918070
X01640600Y00942708
X01768370Y00918070
X01830600Y00942708
X01958370Y00918070
X02020600Y00942708
X02148370Y00918070
X02210600Y00942708
X02338370Y00918070
X02400600Y00942708
X02623370Y00918070
X02685600Y00942708
X02958870Y00918070
X03021100Y00942708
X03148870Y00918070
X03211100Y00942708
X03338870Y00918070
X03401100Y00942708
X03580370Y00918070
X03642600Y00942708
X03770370Y00918070
X03832600Y00942708
X03960370Y00918070
X04022600Y00942708
X04150370Y00918070
X04212600Y00942708
X03401100Y01221508
X03338870Y01196870
X03211100Y01221508
X03148870Y01196870
X03021100Y01221508
X02958870Y01196870
X02780600Y01221508
X02718370Y01196870
X02590600Y01221508
X02528370Y01196870
X02400600Y01221508
X02338370Y01196870
X02210600Y01221508
X02148370Y01196870
X01925600Y01221508
X01863370Y01196870
X01735600Y01221508
X01673370Y01196870
X01545600Y01221508
X01483370Y01196870
X01355600Y01221508
X01293370Y01196870
X01070600Y01221508
X01008370Y01196870
X00880600Y01221508
X00818370Y01196870
X00690600Y01221508
X00628370Y01196870
X00500600Y01221508
X00438370Y01196870
X00120600Y01221508
X00058370Y01196870
T07
X03688450Y01110510
Y01231160
M30
