G04 Layer_Color=15132400*
%FSTAX42Y42*%
%MOMM*%
G71*
G01*
G75*
%ADD13C,0.25*%
%ADD61C,0.20*%
%ADD62C,0.50*%
%ADD63C,0.16*%
D13*
X036008Y011448D02*
G03*
X036008Y011448I-000013J0D01*
G01*
X039115Y012814D02*
G03*
X039115Y012814I-000011J0D01*
G01*
X027224Y004218D02*
Y005934D01*
X027582Y004014D02*
X027895D01*
X04111Y009676D02*
X042634D01*
Y008152D02*
Y009676D01*
X04111Y008152D02*
X042634D01*
X04111D02*
Y009676D01*
X040772Y004534D02*
X042692D01*
X040772Y005204D02*
X042692D01*
X040772Y004534D02*
Y005204D01*
X04111Y006826D02*
X042634D01*
X04111Y005302D02*
Y006826D01*
Y005302D02*
X042634D01*
Y006826D01*
X040772Y006924D02*
X042702D01*
X040772D02*
Y007594D01*
X042702D01*
Y007427D02*
Y007594D01*
Y006924D02*
Y007092D01*
X042692Y005037D02*
Y005204D01*
Y004534D02*
Y004702D01*
X040772Y000734D02*
X042692D01*
X040772Y001404D02*
X042692D01*
X040772Y000734D02*
Y001404D01*
X04111Y003026D02*
X042634D01*
X04111Y001502D02*
Y003026D01*
Y001502D02*
X042634D01*
Y003026D01*
X040772Y003124D02*
X042702D01*
X040772D02*
Y003794D01*
X042702D01*
Y003626D02*
Y003794D01*
Y003124D02*
Y003292D01*
X042692Y001236D02*
Y001404D01*
Y000734D02*
Y000902D01*
X00368Y002126D02*
Y004046D01*
X00301Y002126D02*
Y004046D01*
Y002126D02*
X00368D01*
X001388Y002464D02*
Y003988D01*
Y002464D02*
X002912D01*
Y003988D01*
X001388D02*
X002912D01*
X00129Y002126D02*
Y004056D01*
X00062Y002126D02*
X00129D01*
X00062D02*
Y004056D01*
X000788D01*
X001123D02*
X00129D01*
X00301Y004046D02*
X003177D01*
X003512D02*
X00368D01*
X00779Y009676D02*
X009314D01*
Y008152D02*
Y009676D01*
X00779Y008152D02*
X009314D01*
X00779D02*
Y009676D01*
X032995D02*
X034519D01*
Y008152D02*
Y009676D01*
X032995Y008152D02*
X034519D01*
X032995D02*
Y009676D01*
X002802Y002076D02*
X004326D01*
Y000552D02*
Y002076D01*
X002802Y000552D02*
X004326D01*
X002802D02*
Y002076D01*
X000428D02*
X001951D01*
Y000552D02*
Y002076D01*
X000428Y000552D02*
X001951D01*
X000428D02*
Y002076D01*
X026552D02*
X028077D01*
Y000552D02*
Y002076D01*
X026552Y000552D02*
X028077D01*
X026552D02*
Y002076D01*
X024177D02*
X025702D01*
Y000552D02*
Y002076D01*
X024177Y000552D02*
X025702D01*
X024177D02*
Y002076D01*
X026315Y007786D02*
X027839D01*
Y006262D02*
Y007786D01*
X026315Y006262D02*
X027839D01*
X026315D02*
Y007786D01*
X03921Y002076D02*
X040734D01*
Y000552D02*
Y002076D01*
X03921Y000552D02*
X040734D01*
X03921D02*
Y002076D01*
X032985D02*
X034509D01*
Y000552D02*
Y002076D01*
X032985Y000552D02*
X034509D01*
X032985D02*
Y002076D01*
X031095D02*
X032619D01*
Y000552D02*
Y002076D01*
X031095Y000552D02*
X032619D01*
X031095D02*
Y002076D01*
X029195D02*
X030719D01*
Y000552D02*
Y002076D01*
X029195Y000552D02*
X030719D01*
X029195D02*
Y002076D01*
X021802D02*
X023326D01*
Y000552D02*
Y002076D01*
X021802Y000552D02*
X023326D01*
X021802D02*
Y002076D01*
X019427D02*
X020951D01*
Y000552D02*
Y002076D01*
X019427Y000552D02*
X020951D01*
X019427D02*
Y002076D01*
X005178D02*
X006701D01*
Y000552D02*
Y002076D01*
X005178Y000552D02*
X006701D01*
X005178D02*
Y002076D01*
X031095Y003976D02*
X032619D01*
Y002452D02*
Y003976D01*
X031095Y002452D02*
X032619D01*
X031095D02*
Y003976D01*
X021565D02*
X023089D01*
Y002452D02*
Y003976D01*
X021565Y002452D02*
X023089D01*
X021565D02*
Y003976D01*
X019665D02*
X021189D01*
Y002452D02*
Y003976D01*
X019665Y002452D02*
X021189D01*
X019665D02*
Y003976D01*
X017765D02*
X019289D01*
Y002452D02*
Y003976D01*
X017765Y002452D02*
X019289D01*
X017765D02*
Y003976D01*
X015865D02*
X017389D01*
Y002452D02*
Y003976D01*
X015865Y002452D02*
X017389D01*
X015865D02*
Y003976D01*
X013965D02*
X015489D01*
Y002452D02*
Y003976D01*
X013965Y002452D02*
X015489D01*
X013965D02*
Y003976D01*
X012065D02*
X013589D01*
Y002452D02*
Y003976D01*
X012065Y002452D02*
X013589D01*
X012065D02*
Y003976D01*
X010165D02*
X011689D01*
Y002452D02*
Y003976D01*
X010165Y002452D02*
X011689D01*
X010165D02*
Y003976D01*
X008265D02*
X009789D01*
Y002452D02*
Y003976D01*
X008265Y002452D02*
X009789D01*
X008265D02*
Y003976D01*
X006365D02*
X007889D01*
Y002452D02*
Y003976D01*
X006365Y002452D02*
X007889D01*
X006365D02*
Y003976D01*
X004465D02*
X005989D01*
Y002452D02*
Y003976D01*
X004465Y002452D02*
X005989D01*
X004465D02*
Y003976D01*
X03921D02*
X040734D01*
Y002452D02*
Y003976D01*
X03921Y002452D02*
X040734D01*
X03921D02*
Y003976D01*
X03731D02*
X038834D01*
Y002452D02*
Y003976D01*
X03731Y002452D02*
X038834D01*
X03731D02*
Y003976D01*
X03541D02*
X036934D01*
Y002452D02*
Y003976D01*
X03541Y002452D02*
X036934D01*
X03541D02*
Y003976D01*
X03921Y005876D02*
X040734D01*
Y004352D02*
Y005876D01*
X03921Y004352D02*
X040734D01*
X03921D02*
Y005876D01*
X03731D02*
X038834D01*
Y004352D02*
Y005876D01*
X03731Y004352D02*
X038834D01*
X03731D02*
Y005876D01*
X03541D02*
X036934D01*
Y004352D02*
Y005876D01*
X03541Y004352D02*
X036934D01*
X03541D02*
Y005876D01*
X022515D02*
X024039D01*
Y004352D02*
Y005876D01*
X022515Y004352D02*
X024039D01*
X022515D02*
Y005876D01*
X020615D02*
X022139D01*
Y004352D02*
Y005876D01*
X020615Y004352D02*
X022139D01*
X020615D02*
Y005876D01*
X018715D02*
X020239D01*
Y004352D02*
Y005876D01*
X018715Y004352D02*
X020239D01*
X018715D02*
Y005876D01*
X016815D02*
X018339D01*
Y004352D02*
Y005876D01*
X016815Y004352D02*
X018339D01*
X016815D02*
Y005876D01*
X014915D02*
X016439D01*
Y004352D02*
Y005876D01*
X014915Y004352D02*
X016439D01*
X014915D02*
Y005876D01*
X013015D02*
X014539D01*
Y004352D02*
Y005876D01*
X013015Y004352D02*
X014539D01*
X013015D02*
Y005876D01*
X011115D02*
X012639D01*
Y004352D02*
Y005876D01*
X011115Y004352D02*
X012639D01*
X011115D02*
Y005876D01*
X009215D02*
X010739D01*
Y004352D02*
Y005876D01*
X009215Y004352D02*
X010739D01*
X009215D02*
Y005876D01*
X007315D02*
X008839D01*
Y004352D02*
Y005876D01*
X007315Y004352D02*
X008839D01*
X007315D02*
Y005876D01*
X005415D02*
X006939D01*
Y004352D02*
Y005876D01*
X005415Y004352D02*
X006939D01*
X005415D02*
Y005876D01*
X003515D02*
X005039D01*
Y004352D02*
Y005876D01*
X003515Y004352D02*
X005039D01*
X003515D02*
Y005876D01*
X000903Y00588D02*
X002427D01*
Y004356D02*
Y00588D01*
X000903Y004356D02*
X002427D01*
X000903D02*
Y00588D01*
X03921Y007776D02*
X040734D01*
Y006252D02*
Y007776D01*
X03921Y006252D02*
X040734D01*
X03921D02*
Y007776D01*
X03731D02*
X038834D01*
Y006252D02*
Y007776D01*
X03731Y006252D02*
X038834D01*
X03731D02*
Y007776D01*
X03541D02*
X036934D01*
Y006252D02*
Y007776D01*
X03541Y006252D02*
X036934D01*
X03541D02*
Y007776D01*
X032995D02*
X034519D01*
Y006252D02*
Y007776D01*
X032995Y006252D02*
X034519D01*
X032995D02*
Y007776D01*
X031095D02*
X032619D01*
Y006252D02*
Y007776D01*
X031095Y006252D02*
X032619D01*
X031095D02*
Y007776D01*
X029195D02*
X030719D01*
Y006252D02*
Y007776D01*
X029195Y006252D02*
X030719D01*
X029195D02*
Y007776D01*
X02394Y007786D02*
X025464D01*
Y006262D02*
Y007786D01*
X02394Y006262D02*
X025464D01*
X02394D02*
Y007786D01*
X02204D02*
X023564D01*
Y006262D02*
Y007786D01*
X02204Y006262D02*
X023564D01*
X02204D02*
Y007786D01*
X02014D02*
X021664D01*
Y006262D02*
Y007786D01*
X02014Y006262D02*
X021664D01*
X02014D02*
Y007786D01*
X01824D02*
X019764D01*
Y006262D02*
Y007786D01*
X01824Y006262D02*
X019764D01*
X01824D02*
Y007786D01*
X01634D02*
X017864D01*
Y006262D02*
Y007786D01*
X01634Y006262D02*
X017864D01*
X01634D02*
Y007786D01*
X01444D02*
X015964D01*
Y006262D02*
Y007786D01*
X01444Y006262D02*
X015964D01*
X01444D02*
Y007786D01*
X01254D02*
X014064D01*
Y006262D02*
Y007786D01*
X01254Y006262D02*
X014064D01*
X01254D02*
Y007786D01*
X01064D02*
X012164D01*
Y006262D02*
Y007786D01*
X01064Y006262D02*
X012164D01*
X01064D02*
Y007786D01*
X00874D02*
X010264D01*
Y006262D02*
Y007786D01*
X00874Y006262D02*
X010264D01*
X00874D02*
Y007786D01*
X00684D02*
X008364D01*
Y006262D02*
Y007786D01*
X00684Y006262D02*
X008364D01*
X00684D02*
Y007786D01*
X00494Y007776D02*
X006464D01*
Y006252D02*
Y007776D01*
X00494Y006252D02*
X006464D01*
X00494D02*
Y007776D01*
X00304D02*
X004564D01*
Y006252D02*
Y007776D01*
X00304Y006252D02*
X004564D01*
X00304D02*
Y007776D01*
X000665D02*
X002189D01*
Y006252D02*
Y007776D01*
X000665Y006252D02*
X002189D01*
X000665D02*
Y007776D01*
X03921Y009676D02*
X040734D01*
Y008152D02*
Y009676D01*
X03921Y008152D02*
X040734D01*
X03921D02*
Y009676D01*
X03731D02*
X038834D01*
Y008152D02*
Y009676D01*
X03731Y008152D02*
X038834D01*
X03731D02*
Y009676D01*
X03541D02*
X036934D01*
Y008152D02*
Y009676D01*
X03541Y008152D02*
X036934D01*
X03541D02*
Y009676D01*
X031095D02*
X032619D01*
Y008152D02*
Y009676D01*
X031095Y008152D02*
X032619D01*
X031095D02*
Y009676D01*
X029195D02*
X030719D01*
Y008152D02*
Y009676D01*
X029195Y008152D02*
X030719D01*
X029195D02*
Y009676D01*
X02299D02*
X024514D01*
Y008152D02*
Y009676D01*
X02299Y008152D02*
X024514D01*
X02299D02*
Y009676D01*
X02109D02*
X022614D01*
Y008152D02*
Y009676D01*
X02109Y008152D02*
X022614D01*
X02109D02*
Y009676D01*
X01919D02*
X020714D01*
Y008152D02*
Y009676D01*
X01919Y008152D02*
X020714D01*
X01919D02*
Y009676D01*
X01729D02*
X018814D01*
Y008152D02*
Y009676D01*
X01729Y008152D02*
X018814D01*
X01729D02*
Y009676D01*
X01539D02*
X016914D01*
Y008152D02*
Y009676D01*
X01539Y008152D02*
X016914D01*
X01539D02*
Y009676D01*
X01349D02*
X015014D01*
Y008152D02*
Y009676D01*
X01349Y008152D02*
X015014D01*
X01349D02*
Y009676D01*
X01159D02*
X013114D01*
Y008152D02*
Y009676D01*
X01159Y008152D02*
X013114D01*
X01159D02*
Y009676D01*
X00969D02*
X011214D01*
Y008152D02*
Y009676D01*
X00969Y008152D02*
X011214D01*
X00969D02*
Y009676D01*
X00589Y009686D02*
X007414D01*
Y008162D02*
Y009686D01*
X00589Y008162D02*
X007414D01*
X00589D02*
Y009686D01*
X00399Y009676D02*
X005514D01*
Y008152D02*
Y009676D01*
X00399Y008152D02*
X005514D01*
X00399D02*
Y009676D01*
X00209D02*
X003614D01*
Y008152D02*
Y009676D01*
X00209Y008152D02*
X003614D01*
X00209D02*
Y009676D01*
X00019D02*
X001714D01*
Y008152D02*
Y009676D01*
X00019Y008152D02*
X001714D01*
X00019D02*
Y009676D01*
X032995Y012464D02*
X034519D01*
Y01094D02*
Y012464D01*
X032995Y01094D02*
X034519D01*
X032995D02*
Y012464D01*
X031095D02*
X032619D01*
Y01094D02*
Y012464D01*
X031095Y01094D02*
X032619D01*
X031095D02*
Y012464D01*
X029195D02*
X030719D01*
Y01094D02*
Y012464D01*
X029195Y01094D02*
X030719D01*
X029195D02*
Y012464D01*
X02679D02*
X028314D01*
Y01094D02*
Y012464D01*
X02679Y01094D02*
X028314D01*
X02679D02*
Y012464D01*
X02489D02*
X026414D01*
Y01094D02*
Y012464D01*
X02489Y01094D02*
X026414D01*
X02489D02*
Y012464D01*
X02299D02*
X024514D01*
Y01094D02*
Y012464D01*
X02299Y01094D02*
X024514D01*
X02299D02*
Y012464D01*
X02109D02*
X022614D01*
Y01094D02*
Y012464D01*
X02109Y01094D02*
X022614D01*
X02109D02*
Y012464D01*
X01824D02*
X019662D01*
X01824Y01094D02*
X019662D01*
X01824D02*
Y012464D01*
X01634D02*
X017864D01*
Y01094D02*
Y012464D01*
X01634Y01094D02*
X017864D01*
X01634D02*
Y012464D01*
X01444D02*
X015964D01*
Y01094D02*
Y012464D01*
X01444Y01094D02*
X015964D01*
X01444D02*
Y012464D01*
X01254D02*
X014064D01*
Y01094D02*
Y012464D01*
X01254Y01094D02*
X014064D01*
X01254D02*
Y012464D01*
X00969D02*
X011214D01*
Y01094D02*
Y012464D01*
X00969Y01094D02*
X011214D01*
X00969D02*
Y012464D01*
X00779D02*
X009314D01*
Y01094D02*
Y012464D01*
X00779Y01094D02*
X009314D01*
X00779D02*
Y012464D01*
X00589D02*
X007414D01*
Y01094D02*
Y012464D01*
X00589Y01094D02*
X007414D01*
X00589D02*
Y012464D01*
X00399D02*
X005514D01*
Y01094D02*
Y012464D01*
X00399Y01094D02*
X005514D01*
X00399D02*
Y012464D01*
X00019D02*
X001714D01*
Y01094D02*
Y012464D01*
X00019Y01094D02*
X001714D01*
X00019D02*
Y012464D01*
X012303Y002076D02*
X013826D01*
Y000552D02*
Y002076D01*
X012303Y000552D02*
X013826D01*
X012303D02*
Y002076D01*
X007718Y000222D02*
Y002127D01*
Y000222D02*
X008416D01*
Y00214D01*
X00834D02*
X008416D01*
X007731D02*
X007819D01*
X017725Y000222D02*
Y00214D01*
Y000222D02*
X018399D01*
Y00214D01*
X018335D02*
X018399D01*
X017725D02*
X017802D01*
X028132Y007814D02*
Y009734D01*
X027462Y007814D02*
Y009734D01*
Y007814D02*
X028132D01*
X02584Y008152D02*
Y009676D01*
Y008152D02*
X027364D01*
Y009676D01*
X02584D02*
X027364D01*
X025742Y007814D02*
Y009744D01*
X025072Y007814D02*
X025742D01*
X025072D02*
Y009744D01*
X02524D01*
X025574D02*
X025742D01*
X027462Y009734D02*
X02763D01*
X027964D02*
X028132D01*
X027895Y004014D02*
Y005934D01*
X025602Y004352D02*
Y005876D01*
Y004352D02*
X027127D01*
Y005876D01*
X025602D02*
X027127D01*
X025504Y004981D02*
Y005944D01*
X024835Y004163D02*
Y005944D01*
X025002D01*
X025337D02*
X025504D01*
X027224Y005934D02*
X027392D01*
X027727D02*
X027895D01*
X02742Y002114D02*
Y004034D01*
X026749Y002114D02*
Y004034D01*
Y002114D02*
X02742D01*
X025127Y002452D02*
Y003976D01*
Y002452D02*
X026652D01*
Y003976D01*
X025127D02*
X026652D01*
X025029Y002114D02*
Y004044D01*
X02436Y002114D02*
X025029D01*
X02436D02*
Y004044D01*
X024527D01*
X024862D02*
X025029D01*
X026749Y004034D02*
X026917D01*
X027252D02*
X02742D01*
X038652Y000214D02*
Y002134D01*
X037982Y000214D02*
Y002134D01*
Y000214D02*
X038652D01*
X03636Y000552D02*
Y002076D01*
Y000552D02*
X037884D01*
Y002076D01*
X03636D02*
X037884D01*
X036262Y000214D02*
Y002144D01*
X035592Y000214D02*
X036262D01*
X035592D02*
Y002144D01*
X03576D01*
X036095D02*
X036262D01*
X037982Y002134D02*
X038149D01*
X038485D02*
X038652D01*
X0003Y012685D02*
X000274Y01271D01*
X000224D01*
X000198Y012685D01*
Y012659D01*
X000224Y012634D01*
X000274D01*
X0003Y012609D01*
Y012583D01*
X000274Y012558D01*
X000224D01*
X000198Y012583D01*
X00035Y01271D02*
Y012558D01*
X000401Y012609D01*
X000452Y012558D01*
Y01271D01*
X000503Y012685D02*
X000528Y01271D01*
X000579D01*
X000604Y012685D01*
Y012659D01*
X000579Y012634D01*
X000554D01*
X000579D01*
X000604Y012609D01*
Y012583D01*
X000579Y012558D01*
X000528D01*
X000503Y012583D01*
X0041Y012685D02*
X004074Y01271D01*
X004023D01*
X003998Y012685D01*
Y012659D01*
X004023Y012634D01*
X004074D01*
X0041Y012609D01*
Y012583D01*
X004074Y012558D01*
X004023D01*
X003998Y012583D01*
X00415Y01271D02*
Y012558D01*
X004201Y012609D01*
X004252Y012558D01*
Y01271D01*
X004379Y012558D02*
Y01271D01*
X004303Y012634D01*
X004404D01*
X005999Y012685D02*
X005974Y01271D01*
X005923D01*
X005898Y012685D01*
Y012659D01*
X005923Y012634D01*
X005974D01*
X005999Y012609D01*
Y012583D01*
X005974Y012558D01*
X005923D01*
X005898Y012583D01*
X00605Y01271D02*
Y012558D01*
X006101Y012609D01*
X006152Y012558D01*
Y01271D01*
X006304D02*
X006203D01*
Y012634D01*
X006253Y012659D01*
X006279D01*
X006304Y012634D01*
Y012583D01*
X006279Y012558D01*
X006228D01*
X006203Y012583D01*
X007899Y012685D02*
X007874Y01271D01*
X007823D01*
X007798Y012685D01*
Y012659D01*
X007823Y012634D01*
X007874D01*
X007899Y012609D01*
Y012583D01*
X007874Y012558D01*
X007823D01*
X007798Y012583D01*
X00795Y01271D02*
Y012558D01*
X008001Y012609D01*
X008052Y012558D01*
Y01271D01*
X008204D02*
X008153Y012685D01*
X008103Y012634D01*
Y012583D01*
X008128Y012558D01*
X008179D01*
X008204Y012583D01*
Y012609D01*
X008179Y012634D01*
X008103D01*
X009799Y012685D02*
X009774Y01271D01*
X009723D01*
X009698Y012685D01*
Y012659D01*
X009723Y012634D01*
X009774D01*
X009799Y012609D01*
Y012583D01*
X009774Y012558D01*
X009723D01*
X009698Y012583D01*
X00985Y01271D02*
Y012558D01*
X009901Y012609D01*
X009952Y012558D01*
Y01271D01*
X010002D02*
X010104D01*
Y012685D01*
X010002Y012583D01*
Y012558D01*
X012649Y012685D02*
X012624Y01271D01*
X012573D01*
X012548Y012685D01*
Y012659D01*
X012573Y012634D01*
X012624D01*
X012649Y012609D01*
Y012583D01*
X012624Y012558D01*
X012573D01*
X012548Y012583D01*
X0127Y01271D02*
Y012558D01*
X012751Y012609D01*
X012802Y012558D01*
Y01271D01*
X012852Y012685D02*
X012878Y01271D01*
X012928D01*
X012954Y012685D01*
Y012659D01*
X012928Y012634D01*
X012954Y012609D01*
Y012583D01*
X012928Y012558D01*
X012878D01*
X012852Y012583D01*
Y012609D01*
X012878Y012634D01*
X012852Y012659D01*
Y012685D01*
X012878Y012634D02*
X012928D01*
X014549Y012685D02*
X014524Y01271D01*
X014473D01*
X014448Y012685D01*
Y012659D01*
X014473Y012634D01*
X014524D01*
X014549Y012609D01*
Y012583D01*
X014524Y012558D01*
X014473D01*
X014448Y012583D01*
X0146Y01271D02*
Y012558D01*
X014651Y012609D01*
X014701Y012558D01*
Y01271D01*
X014752Y012583D02*
X014778Y012558D01*
X014828D01*
X014854Y012583D01*
Y012685D01*
X014828Y01271D01*
X014778D01*
X014752Y012685D01*
Y012659D01*
X014778Y012634D01*
X014854D01*
X016449Y012685D02*
X016424Y01271D01*
X016373D01*
X016347Y012685D01*
Y012659D01*
X016373Y012634D01*
X016424D01*
X016449Y012609D01*
Y012583D01*
X016424Y012558D01*
X016373D01*
X016347Y012583D01*
X0165Y01271D02*
Y012558D01*
X016551Y012609D01*
X016601Y012558D01*
Y01271D01*
X016652Y012558D02*
X016703D01*
X016678D01*
Y01271D01*
X016652Y012685D01*
X016779D02*
X016804Y01271D01*
X016855D01*
X016881Y012685D01*
Y012583D01*
X016855Y012558D01*
X016804D01*
X016779Y012583D01*
Y012685D01*
X018349D02*
X018324Y01271D01*
X018273D01*
X018247Y012685D01*
Y012659D01*
X018273Y012634D01*
X018324D01*
X018349Y012609D01*
Y012583D01*
X018324Y012558D01*
X018273D01*
X018247Y012583D01*
X0184Y01271D02*
Y012558D01*
X01845Y012609D01*
X018501Y012558D01*
Y01271D01*
X018552Y012558D02*
X018603D01*
X018577D01*
Y01271D01*
X018552Y012685D01*
X018679Y012558D02*
X01873D01*
X018704D01*
Y01271D01*
X018679Y012685D01*
X021199D02*
X021173Y01271D01*
X021123D01*
X021097Y012685D01*
Y012659D01*
X021123Y012634D01*
X021173D01*
X021199Y012609D01*
Y012583D01*
X021173Y012558D01*
X021123D01*
X021097Y012583D01*
X02125Y01271D02*
Y012558D01*
X0213Y012609D01*
X021351Y012558D01*
Y01271D01*
X021402Y012558D02*
X021453D01*
X021427D01*
Y01271D01*
X021402Y012685D01*
X02163Y012558D02*
X021529D01*
X02163Y012659D01*
Y012685D01*
X021605Y01271D01*
X021554D01*
X021529Y012685D01*
X023099D02*
X023073Y01271D01*
X023023D01*
X022997Y012685D01*
Y012659D01*
X023023Y012634D01*
X023073D01*
X023099Y012609D01*
Y012583D01*
X023073Y012558D01*
X023023D01*
X022997Y012583D01*
X02315Y01271D02*
Y012558D01*
X0232Y012609D01*
X023251Y012558D01*
Y01271D01*
X023302Y012558D02*
X023353D01*
X023327D01*
Y01271D01*
X023302Y012685D01*
X023429D02*
X023454Y01271D01*
X023505D01*
X02353Y012685D01*
Y012659D01*
X023505Y012634D01*
X02348D01*
X023505D01*
X02353Y012609D01*
Y012583D01*
X023505Y012558D01*
X023454D01*
X023429Y012583D01*
X024999Y012685D02*
X024973Y01271D01*
X024922D01*
X024897Y012685D01*
Y012659D01*
X024922Y012634D01*
X024973D01*
X024999Y012609D01*
Y012583D01*
X024973Y012558D01*
X024922D01*
X024897Y012583D01*
X025049Y01271D02*
Y012558D01*
X0251Y012609D01*
X025151Y012558D01*
Y01271D01*
X025202Y012558D02*
X025253D01*
X025227D01*
Y01271D01*
X025202Y012685D01*
X025405Y012558D02*
Y01271D01*
X025329Y012634D01*
X02543D01*
X026899Y012685D02*
X026873Y01271D01*
X026822D01*
X026797Y012685D01*
Y012659D01*
X026822Y012634D01*
X026873D01*
X026899Y012609D01*
Y012583D01*
X026873Y012558D01*
X026822D01*
X026797Y012583D01*
X026949Y01271D02*
Y012558D01*
X027Y012609D01*
X027051Y012558D01*
Y01271D01*
X027102Y012558D02*
X027152D01*
X027127D01*
Y01271D01*
X027102Y012685D01*
X02733Y01271D02*
X027229D01*
Y012634D01*
X027279Y012659D01*
X027305D01*
X02733Y012634D01*
Y012583D01*
X027305Y012558D01*
X027254D01*
X027229Y012583D01*
X029304Y012685D02*
X029279Y01271D01*
X029228D01*
X029202Y012685D01*
Y012659D01*
X029228Y012634D01*
X029279D01*
X029304Y012609D01*
Y012583D01*
X029279Y012558D01*
X029228D01*
X029202Y012583D01*
X029355Y01271D02*
Y012558D01*
X029406Y012609D01*
X029456Y012558D01*
Y01271D01*
X029507Y012558D02*
X029558D01*
X029532D01*
Y01271D01*
X029507Y012685D01*
X029736Y01271D02*
X029685Y012685D01*
X029634Y012634D01*
Y012583D01*
X029659Y012558D01*
X02971D01*
X029736Y012583D01*
Y012609D01*
X02971Y012634D01*
X029634D01*
X031204Y012685D02*
X031178Y01271D01*
X031128D01*
X031102Y012685D01*
Y012659D01*
X031128Y012634D01*
X031178D01*
X031204Y012609D01*
Y012583D01*
X031178Y012558D01*
X031128D01*
X031102Y012583D01*
X031255Y01271D02*
Y012558D01*
X031305Y012609D01*
X031356Y012558D01*
Y01271D01*
X031407Y012558D02*
X031458D01*
X031432D01*
Y01271D01*
X031407Y012685D01*
X031534Y01271D02*
X031636D01*
Y012685D01*
X031534Y012583D01*
Y012558D01*
X033104Y012685D02*
X033078Y01271D01*
X033028D01*
X033002Y012685D01*
Y012659D01*
X033028Y012634D01*
X033078D01*
X033104Y012609D01*
Y012583D01*
X033078Y012558D01*
X033028D01*
X033002Y012583D01*
X033155Y01271D02*
Y012558D01*
X033205Y012609D01*
X033256Y012558D01*
Y01271D01*
X033307Y012558D02*
X033358D01*
X033332D01*
Y01271D01*
X033307Y012685D01*
X033434D02*
X033459Y01271D01*
X03351D01*
X033535Y012685D01*
Y012659D01*
X03351Y012634D01*
X033535Y012609D01*
Y012583D01*
X03351Y012558D01*
X033459D01*
X033434Y012583D01*
Y012609D01*
X033459Y012634D01*
X033434Y012659D01*
Y012685D01*
X033459Y012634D02*
X03351D01*
X0003Y009898D02*
X000274Y009924D01*
X000224D01*
X000198Y009898D01*
Y009873D01*
X000224Y009848D01*
X000274D01*
X0003Y009822D01*
Y009797D01*
X000274Y009771D01*
X000224D01*
X000198Y009797D01*
X00035Y009924D02*
Y009771D01*
X000401Y009822D01*
X000452Y009771D01*
Y009924D01*
X000503Y009771D02*
X000554D01*
X000528D01*
Y009924D01*
X000503Y009898D01*
X00063Y009797D02*
X000655Y009771D01*
X000706D01*
X000731Y009797D01*
Y009898D01*
X000706Y009924D01*
X000655D01*
X00063Y009898D01*
Y009873D01*
X000655Y009848D01*
X000731D01*
X0022Y009898D02*
X002174Y009924D01*
X002123D01*
X002098Y009898D01*
Y009873D01*
X002123Y009848D01*
X002174D01*
X0022Y009822D01*
Y009797D01*
X002174Y009771D01*
X002123D01*
X002098Y009797D01*
X00225Y009924D02*
Y009771D01*
X002301Y009822D01*
X002352Y009771D01*
Y009924D01*
X002504Y009771D02*
X002403D01*
X002504Y009873D01*
Y009898D01*
X002479Y009924D01*
X002428D01*
X002403Y009898D01*
X002555D02*
X00258Y009924D01*
X002631D01*
X002657Y009898D01*
Y009797D01*
X002631Y009771D01*
X00258D01*
X002555Y009797D01*
Y009898D01*
X0041D02*
X004074Y009924D01*
X004023D01*
X003998Y009898D01*
Y009873D01*
X004023Y009848D01*
X004074D01*
X0041Y009822D01*
Y009797D01*
X004074Y009771D01*
X004023D01*
X003998Y009797D01*
X00415Y009924D02*
Y009771D01*
X004201Y009822D01*
X004252Y009771D01*
Y009924D01*
X004404Y009771D02*
X004303D01*
X004404Y009873D01*
Y009898D01*
X004379Y009924D01*
X004328D01*
X004303Y009898D01*
X004455Y009771D02*
X004506D01*
X00448D01*
Y009924D01*
X004455Y009898D01*
X005999Y009906D02*
X005974Y009931D01*
X005923D01*
X005898Y009906D01*
Y009881D01*
X005923Y009855D01*
X005974D01*
X005999Y00983D01*
Y009804D01*
X005974Y009779D01*
X005923D01*
X005898Y009804D01*
X00605Y009931D02*
Y009779D01*
X006101Y00983D01*
X006152Y009779D01*
Y009931D01*
X006304Y009779D02*
X006203D01*
X006304Y009881D01*
Y009906D01*
X006279Y009931D01*
X006228D01*
X006203Y009906D01*
X006456Y009779D02*
X006355D01*
X006456Y009881D01*
Y009906D01*
X006431Y009931D01*
X00638D01*
X006355Y009906D01*
X007932Y009897D02*
X007906Y009922D01*
X007855D01*
X00783Y009897D01*
Y009872D01*
X007855Y009846D01*
X007906D01*
X007932Y009821D01*
Y009795D01*
X007906Y00977D01*
X007855D01*
X00783Y009795D01*
X007982Y009922D02*
Y00977D01*
X008033Y009821D01*
X008084Y00977D01*
Y009922D01*
X008236Y00977D02*
X008135D01*
X008236Y009872D01*
Y009897D01*
X008211Y009922D01*
X00816D01*
X008135Y009897D01*
X008287D02*
X008312Y009922D01*
X008363D01*
X008389Y009897D01*
Y009872D01*
X008363Y009846D01*
X008338D01*
X008363D01*
X008389Y009821D01*
Y009795D01*
X008363Y00977D01*
X008312D01*
X008287Y009795D01*
X009799Y009898D02*
X009774Y009924D01*
X009723D01*
X009698Y009898D01*
Y009873D01*
X009723Y009848D01*
X009774D01*
X009799Y009822D01*
Y009797D01*
X009774Y009771D01*
X009723D01*
X009698Y009797D01*
X00985Y009924D02*
Y009771D01*
X009901Y009822D01*
X009952Y009771D01*
Y009924D01*
X010104Y009771D02*
X010002D01*
X010104Y009873D01*
Y009898D01*
X010079Y009924D01*
X010028D01*
X010002Y009898D01*
X010231Y009771D02*
Y009924D01*
X010155Y009848D01*
X010256D01*
X011699Y009898D02*
X011674Y009924D01*
X011623D01*
X011598Y009898D01*
Y009873D01*
X011623Y009848D01*
X011674D01*
X011699Y009822D01*
Y009797D01*
X011674Y009771D01*
X011623D01*
X011598Y009797D01*
X01175Y009924D02*
Y009771D01*
X011801Y009822D01*
X011852Y009771D01*
Y009924D01*
X012004Y009771D02*
X011902D01*
X012004Y009873D01*
Y009898D01*
X011979Y009924D01*
X011928D01*
X011902Y009898D01*
X012156Y009924D02*
X012055D01*
Y009848D01*
X012105Y009873D01*
X012131D01*
X012156Y009848D01*
Y009797D01*
X012131Y009771D01*
X01208D01*
X012055Y009797D01*
X013599Y009898D02*
X013574Y009924D01*
X013523D01*
X013498Y009898D01*
Y009873D01*
X013523Y009848D01*
X013574D01*
X013599Y009822D01*
Y009797D01*
X013574Y009771D01*
X013523D01*
X013498Y009797D01*
X01365Y009924D02*
Y009771D01*
X013701Y009822D01*
X013751Y009771D01*
Y009924D01*
X013904Y009771D02*
X013802D01*
X013904Y009873D01*
Y009898D01*
X013878Y009924D01*
X013828D01*
X013802Y009898D01*
X014056Y009924D02*
X014005Y009898D01*
X013955Y009848D01*
Y009797D01*
X01398Y009771D01*
X014031D01*
X014056Y009797D01*
Y009822D01*
X014031Y009848D01*
X013955D01*
X015499Y009898D02*
X015474Y009924D01*
X015423D01*
X015397Y009898D01*
Y009873D01*
X015423Y009848D01*
X015474D01*
X015499Y009822D01*
Y009797D01*
X015474Y009771D01*
X015423D01*
X015397Y009797D01*
X01555Y009924D02*
Y009771D01*
X015601Y009822D01*
X015651Y009771D01*
Y009924D01*
X015804Y009771D02*
X015702D01*
X015804Y009873D01*
Y009898D01*
X015778Y009924D01*
X015728D01*
X015702Y009898D01*
X015855Y009924D02*
X015956D01*
Y009898D01*
X015855Y009797D01*
Y009771D01*
X017399Y009898D02*
X017374Y009924D01*
X017323D01*
X017297Y009898D01*
Y009873D01*
X017323Y009848D01*
X017374D01*
X017399Y009822D01*
Y009797D01*
X017374Y009771D01*
X017323D01*
X017297Y009797D01*
X01745Y009924D02*
Y009771D01*
X017501Y009822D01*
X017551Y009771D01*
Y009924D01*
X017704Y009771D02*
X017602D01*
X017704Y009873D01*
Y009898D01*
X017678Y009924D01*
X017627D01*
X017602Y009898D01*
X017754D02*
X01778Y009924D01*
X017831D01*
X017856Y009898D01*
Y009873D01*
X017831Y009848D01*
X017856Y009822D01*
Y009797D01*
X017831Y009771D01*
X01778D01*
X017754Y009797D01*
Y009822D01*
X01778Y009848D01*
X017754Y009873D01*
Y009898D01*
X01778Y009848D02*
X017831D01*
X019299Y009898D02*
X019273Y009924D01*
X019223D01*
X019197Y009898D01*
Y009873D01*
X019223Y009848D01*
X019273D01*
X019299Y009822D01*
Y009797D01*
X019273Y009771D01*
X019223D01*
X019197Y009797D01*
X01935Y009924D02*
Y009771D01*
X0194Y009822D01*
X019451Y009771D01*
Y009924D01*
X019604Y009771D02*
X019502D01*
X019604Y009873D01*
Y009898D01*
X019578Y009924D01*
X019527D01*
X019502Y009898D01*
X019654Y009797D02*
X01968Y009771D01*
X019731D01*
X019756Y009797D01*
Y009898D01*
X019731Y009924D01*
X01968D01*
X019654Y009898D01*
Y009873D01*
X01968Y009848D01*
X019756D01*
X021199Y009898D02*
X021173Y009924D01*
X021123D01*
X021097Y009898D01*
Y009873D01*
X021123Y009848D01*
X021173D01*
X021199Y009822D01*
Y009797D01*
X021173Y009771D01*
X021123D01*
X021097Y009797D01*
X02125Y009924D02*
Y009771D01*
X0213Y009822D01*
X021351Y009771D01*
Y009924D01*
X021402Y009898D02*
X021427Y009924D01*
X021478D01*
X021504Y009898D01*
Y009873D01*
X021478Y009848D01*
X021453D01*
X021478D01*
X021504Y009822D01*
Y009797D01*
X021478Y009771D01*
X021427D01*
X021402Y009797D01*
X021554Y009898D02*
X02158Y009924D01*
X02163D01*
X021656Y009898D01*
Y009797D01*
X02163Y009771D01*
X02158D01*
X021554Y009797D01*
Y009898D01*
X023099D02*
X023073Y009924D01*
X023023D01*
X022997Y009898D01*
Y009873D01*
X023023Y009848D01*
X023073D01*
X023099Y009822D01*
Y009797D01*
X023073Y009771D01*
X023023D01*
X022997Y009797D01*
X02315Y009924D02*
Y009771D01*
X0232Y009822D01*
X023251Y009771D01*
Y009924D01*
X023302Y009898D02*
X023327Y009924D01*
X023378D01*
X023403Y009898D01*
Y009873D01*
X023378Y009848D01*
X023353D01*
X023378D01*
X023403Y009822D01*
Y009797D01*
X023378Y009771D01*
X023327D01*
X023302Y009797D01*
X023454Y009771D02*
X023505D01*
X02348D01*
Y009924D01*
X023454Y009898D01*
X029304D02*
X029279Y009924D01*
X029228D01*
X029202Y009898D01*
Y009873D01*
X029228Y009848D01*
X029279D01*
X029304Y009822D01*
Y009797D01*
X029279Y009771D01*
X029228D01*
X029202Y009797D01*
X029355Y009924D02*
Y009771D01*
X029406Y009822D01*
X029456Y009771D01*
Y009924D01*
X029507Y009898D02*
X029532Y009924D01*
X029583D01*
X029609Y009898D01*
Y009873D01*
X029583Y009848D01*
X029558D01*
X029583D01*
X029609Y009822D01*
Y009797D01*
X029583Y009771D01*
X029532D01*
X029507Y009797D01*
X029659Y009898D02*
X029685Y009924D01*
X029736D01*
X029761Y009898D01*
Y009873D01*
X029736Y009848D01*
X02971D01*
X029736D01*
X029761Y009822D01*
Y009797D01*
X029736Y009771D01*
X029685D01*
X029659Y009797D01*
X031204Y009898D02*
X031178Y009924D01*
X031128D01*
X031102Y009898D01*
Y009873D01*
X031128Y009848D01*
X031178D01*
X031204Y009822D01*
Y009797D01*
X031178Y009771D01*
X031128D01*
X031102Y009797D01*
X031255Y009924D02*
Y009771D01*
X031305Y009822D01*
X031356Y009771D01*
Y009924D01*
X031407Y009898D02*
X031432Y009924D01*
X031483D01*
X031509Y009898D01*
Y009873D01*
X031483Y009848D01*
X031458D01*
X031483D01*
X031509Y009822D01*
Y009797D01*
X031483Y009771D01*
X031432D01*
X031407Y009797D01*
X031636Y009771D02*
Y009924D01*
X031559Y009848D01*
X031661D01*
X034727Y008998D02*
X034752Y009024D01*
Y009075D01*
X034727Y0091D01*
X034702D01*
X034676Y009075D01*
Y009024D01*
X034651Y008998D01*
X034625D01*
X0346Y009024D01*
Y009075D01*
X034625Y0091D01*
X034752Y008948D02*
X0346D01*
X034651Y008897D01*
X0346Y008846D01*
X034752D01*
X034727Y008795D02*
X034752Y00877D01*
Y008719D01*
X034727Y008694D01*
X034702D01*
X034676Y008719D01*
Y008745D01*
Y008719D01*
X034651Y008694D01*
X034625D01*
X0346Y008719D01*
Y00877D01*
X034625Y008795D01*
X034752Y008541D02*
Y008643D01*
X034676D01*
X034702Y008592D01*
Y008567D01*
X034676Y008541D01*
X034625D01*
X0346Y008567D01*
Y008618D01*
X034625Y008643D01*
X035519Y009898D02*
X035494Y009924D01*
X035443D01*
X035418Y009898D01*
Y009873D01*
X035443Y009848D01*
X035494D01*
X035519Y009822D01*
Y009797D01*
X035494Y009771D01*
X035443D01*
X035418Y009797D01*
X03557Y009924D02*
Y009771D01*
X035621Y009822D01*
X035672Y009771D01*
Y009924D01*
X035722Y009898D02*
X035748Y009924D01*
X035799D01*
X035824Y009898D01*
Y009873D01*
X035799Y009848D01*
X035773D01*
X035799D01*
X035824Y009822D01*
Y009797D01*
X035799Y009771D01*
X035748D01*
X035722Y009797D01*
X035976Y009924D02*
X035926Y009898D01*
X035875Y009848D01*
Y009797D01*
X0359Y009771D01*
X035951D01*
X035976Y009797D01*
Y009822D01*
X035951Y009848D01*
X035875D01*
X037419Y009898D02*
X037394Y009924D01*
X037343D01*
X037318Y009898D01*
Y009873D01*
X037343Y009848D01*
X037394D01*
X037419Y009822D01*
Y009797D01*
X037394Y009771D01*
X037343D01*
X037318Y009797D01*
X03747Y009924D02*
Y009771D01*
X037521Y009822D01*
X037572Y009771D01*
Y009924D01*
X037622Y009898D02*
X037648Y009924D01*
X037699D01*
X037724Y009898D01*
Y009873D01*
X037699Y009848D01*
X037673D01*
X037699D01*
X037724Y009822D01*
Y009797D01*
X037699Y009771D01*
X037648D01*
X037622Y009797D01*
X037775Y009924D02*
X037876D01*
Y009898D01*
X037775Y009797D01*
Y009771D01*
X039319Y009898D02*
X039294Y009924D01*
X039243D01*
X039218Y009898D01*
Y009873D01*
X039243Y009848D01*
X039294D01*
X039319Y009822D01*
Y009797D01*
X039294Y009771D01*
X039243D01*
X039218Y009797D01*
X03937Y009924D02*
Y009771D01*
X039421Y009822D01*
X039472Y009771D01*
Y009924D01*
X039522Y009898D02*
X039548Y009924D01*
X039598D01*
X039624Y009898D01*
Y009873D01*
X039598Y009848D01*
X039573D01*
X039598D01*
X039624Y009822D01*
Y009797D01*
X039598Y009771D01*
X039548D01*
X039522Y009797D01*
X039675Y009898D02*
X0397Y009924D01*
X039751D01*
X039776Y009898D01*
Y009873D01*
X039751Y009848D01*
X039776Y009822D01*
Y009797D01*
X039751Y009771D01*
X0397D01*
X039675Y009797D01*
Y009822D01*
X0397Y009848D01*
X039675Y009873D01*
Y009898D01*
X0397Y009848D02*
X039751D01*
X042154Y009901D02*
X042128Y009926D01*
X042078D01*
X042052Y009901D01*
Y009875D01*
X042078Y00985D01*
X042128D01*
X042154Y009825D01*
Y009799D01*
X042128Y009774D01*
X042078D01*
X042052Y009799D01*
X042205Y009926D02*
Y009774D01*
X042255Y009825D01*
X042306Y009774D01*
Y009926D01*
X042357Y009901D02*
X042382Y009926D01*
X042433D01*
X042459Y009901D01*
Y009875D01*
X042433Y00985D01*
X042408D01*
X042433D01*
X042459Y009825D01*
Y009799D01*
X042433Y009774D01*
X042382D01*
X042357Y009799D01*
X042509D02*
X042535Y009774D01*
X042585D01*
X042611Y009799D01*
Y009901D01*
X042585Y009926D01*
X042535D01*
X042509Y009901D01*
Y009875D01*
X042535Y00985D01*
X042611D01*
X000775Y007998D02*
X000749Y008024D01*
X000698D01*
X000673Y007998D01*
Y007973D01*
X000698Y007948D01*
X000749D01*
X000775Y007922D01*
Y007897D01*
X000749Y007871D01*
X000698D01*
X000673Y007897D01*
X000825Y008024D02*
Y007871D01*
X000876Y007922D01*
X000927Y007871D01*
Y008024D01*
X001054Y007871D02*
Y008024D01*
X000978Y007948D01*
X001079D01*
X00113Y007998D02*
X001156Y008024D01*
X001206D01*
X001232Y007998D01*
Y007897D01*
X001206Y007871D01*
X001156D01*
X00113Y007897D01*
Y007998D01*
X00315D02*
X003124Y008024D01*
X003073D01*
X003048Y007998D01*
Y007973D01*
X003073Y007948D01*
X003124D01*
X00315Y007922D01*
Y007897D01*
X003124Y007871D01*
X003073D01*
X003048Y007897D01*
X0032Y008024D02*
Y007871D01*
X003251Y007922D01*
X003302Y007871D01*
Y008024D01*
X003429Y007871D02*
Y008024D01*
X003353Y007948D01*
X003454D01*
X003505Y007871D02*
X003556D01*
X00353D01*
Y008024D01*
X003505Y007998D01*
X005049D02*
X005024Y008024D01*
X004973D01*
X004948Y007998D01*
Y007973D01*
X004973Y007948D01*
X005024D01*
X005049Y007922D01*
Y007897D01*
X005024Y007871D01*
X004973D01*
X004948Y007897D01*
X0051Y008024D02*
Y007871D01*
X005151Y007922D01*
X005202Y007871D01*
Y008024D01*
X005329Y007871D02*
Y008024D01*
X005253Y007948D01*
X005354D01*
X005507Y007871D02*
X005405D01*
X005507Y007973D01*
Y007998D01*
X005481Y008024D01*
X00543D01*
X005405Y007998D01*
X006949Y008006D02*
X006924Y008031D01*
X006873D01*
X006848Y008006D01*
Y007981D01*
X006873Y007955D01*
X006924D01*
X006949Y00793D01*
Y007904D01*
X006924Y007879D01*
X006873D01*
X006848Y007904D01*
X007Y008031D02*
Y007879D01*
X007051Y00793D01*
X007102Y007879D01*
Y008031D01*
X007229Y007879D02*
Y008031D01*
X007153Y007955D01*
X007254D01*
X007305Y008006D02*
X00733Y008031D01*
X007381D01*
X007406Y008006D01*
Y007981D01*
X007381Y007955D01*
X007356D01*
X007381D01*
X007406Y00793D01*
Y007904D01*
X007381Y007879D01*
X00733D01*
X007305Y007904D01*
X008849Y008006D02*
X008824Y008031D01*
X008773D01*
X008748Y008006D01*
Y007981D01*
X008773Y007955D01*
X008824D01*
X008849Y00793D01*
Y007904D01*
X008824Y007879D01*
X008773D01*
X008748Y007904D01*
X0089Y008031D02*
Y007879D01*
X008951Y00793D01*
X009002Y007879D01*
Y008031D01*
X009129Y007879D02*
Y008031D01*
X009052Y007955D01*
X009154D01*
X009281Y007879D02*
Y008031D01*
X009205Y007955D01*
X009306D01*
X010749Y008006D02*
X010724Y008031D01*
X010673D01*
X010648Y008006D01*
Y007981D01*
X010673Y007955D01*
X010724D01*
X010749Y00793D01*
Y007904D01*
X010724Y007879D01*
X010673D01*
X010648Y007904D01*
X0108Y008031D02*
Y007879D01*
X010851Y00793D01*
X010902Y007879D01*
Y008031D01*
X011029Y007879D02*
Y008031D01*
X010952Y007955D01*
X011054D01*
X011206Y008031D02*
X011105D01*
Y007955D01*
X011156Y007981D01*
X011181D01*
X011206Y007955D01*
Y007904D01*
X011181Y007879D01*
X01113D01*
X011105Y007904D01*
X012649Y008006D02*
X012624Y008031D01*
X012573D01*
X012548Y008006D01*
Y007981D01*
X012573Y007955D01*
X012624D01*
X012649Y00793D01*
Y007904D01*
X012624Y007879D01*
X012573D01*
X012548Y007904D01*
X0127Y008031D02*
Y007879D01*
X012751Y00793D01*
X012802Y007879D01*
Y008031D01*
X012928Y007879D02*
Y008031D01*
X012852Y007955D01*
X012954D01*
X013106Y008031D02*
X013055Y008006D01*
X013005Y007955D01*
Y007904D01*
X01303Y007879D01*
X013081D01*
X013106Y007904D01*
Y00793D01*
X013081Y007955D01*
X013005D01*
X014549Y008006D02*
X014524Y008031D01*
X014473D01*
X014448Y008006D01*
Y007981D01*
X014473Y007955D01*
X014524D01*
X014549Y00793D01*
Y007904D01*
X014524Y007879D01*
X014473D01*
X014448Y007904D01*
X0146Y008031D02*
Y007879D01*
X014651Y00793D01*
X014701Y007879D01*
Y008031D01*
X014828Y007879D02*
Y008031D01*
X014752Y007955D01*
X014854D01*
X014905Y008031D02*
X015006D01*
Y008006D01*
X014905Y007904D01*
Y007879D01*
X016449Y008006D02*
X016424Y008031D01*
X016373D01*
X016347Y008006D01*
Y007981D01*
X016373Y007955D01*
X016424D01*
X016449Y00793D01*
Y007904D01*
X016424Y007879D01*
X016373D01*
X016347Y007904D01*
X0165Y008031D02*
Y007879D01*
X016551Y00793D01*
X016601Y007879D01*
Y008031D01*
X016728Y007879D02*
Y008031D01*
X016652Y007955D01*
X016754D01*
X016804Y008006D02*
X01683Y008031D01*
X016881D01*
X016906Y008006D01*
Y007981D01*
X016881Y007955D01*
X016906Y00793D01*
Y007904D01*
X016881Y007879D01*
X01683D01*
X016804Y007904D01*
Y00793D01*
X01683Y007955D01*
X016804Y007981D01*
Y008006D01*
X01683Y007955D02*
X016881D01*
X018349Y008006D02*
X018324Y008031D01*
X018273D01*
X018247Y008006D01*
Y007981D01*
X018273Y007955D01*
X018324D01*
X018349Y00793D01*
Y007904D01*
X018324Y007879D01*
X018273D01*
X018247Y007904D01*
X0184Y008031D02*
Y007879D01*
X01845Y00793D01*
X018501Y007879D01*
Y008031D01*
X018628Y007879D02*
Y008031D01*
X018552Y007955D01*
X018654D01*
X018704Y007904D02*
X01873Y007879D01*
X018781D01*
X018806Y007904D01*
Y008006D01*
X018781Y008031D01*
X01873D01*
X018704Y008006D01*
Y007981D01*
X01873Y007955D01*
X018806D01*
X020249Y008006D02*
X020223Y008031D01*
X020173D01*
X020147Y008006D01*
Y007981D01*
X020173Y007955D01*
X020223D01*
X020249Y00793D01*
Y007904D01*
X020223Y007879D01*
X020173D01*
X020147Y007904D01*
X0203Y008031D02*
Y007879D01*
X02035Y00793D01*
X020401Y007879D01*
Y008031D01*
X020554D02*
X020452D01*
Y007955D01*
X020503Y007981D01*
X020528D01*
X020554Y007955D01*
Y007904D01*
X020528Y007879D01*
X020477D01*
X020452Y007904D01*
X020604Y008006D02*
X02063Y008031D01*
X020681D01*
X020706Y008006D01*
Y007904D01*
X020681Y007879D01*
X02063D01*
X020604Y007904D01*
Y008006D01*
X022149D02*
X022123Y008031D01*
X022073D01*
X022047Y008006D01*
Y007981D01*
X022073Y007955D01*
X022123D01*
X022149Y00793D01*
Y007904D01*
X022123Y007879D01*
X022073D01*
X022047Y007904D01*
X0222Y008031D02*
Y007879D01*
X02225Y00793D01*
X022301Y007879D01*
Y008031D01*
X022453D02*
X022352D01*
Y007955D01*
X022403Y007981D01*
X022428D01*
X022453Y007955D01*
Y007904D01*
X022428Y007879D01*
X022377D01*
X022352Y007904D01*
X022504Y007879D02*
X022555D01*
X02253D01*
Y008031D01*
X022504Y008006D01*
X024049D02*
X024023Y008031D01*
X023973D01*
X023947Y008006D01*
Y007981D01*
X023973Y007955D01*
X024023D01*
X024049Y00793D01*
Y007904D01*
X024023Y007879D01*
X023973D01*
X023947Y007904D01*
X024099Y008031D02*
Y007879D01*
X02415Y00793D01*
X024201Y007879D01*
Y008031D01*
X024353D02*
X024252D01*
Y007955D01*
X024303Y007981D01*
X024328D01*
X024353Y007955D01*
Y007904D01*
X024328Y007879D01*
X024277D01*
X024252Y007904D01*
X024506Y007879D02*
X024404D01*
X024506Y007981D01*
Y008006D01*
X02448Y008031D01*
X02443D01*
X024404Y008006D01*
X026078Y006916D02*
X026053Y00689D01*
Y006839D01*
X026078Y006814D01*
X026103D01*
X026129Y006839D01*
Y00689D01*
X026154Y006916D01*
X02618D01*
X026205Y00689D01*
Y006839D01*
X02618Y006814D01*
X026053Y006966D02*
X026205D01*
X026154Y007017D01*
X026205Y007068D01*
X026053D01*
Y00722D02*
Y007119D01*
X026129D01*
X026103Y007169D01*
Y007195D01*
X026129Y00722D01*
X02618D01*
X026205Y007195D01*
Y007144D01*
X02618Y007119D01*
X026078Y007271D02*
X026053Y007296D01*
Y007347D01*
X026078Y007373D01*
X026103D01*
X026129Y007347D01*
Y007322D01*
Y007347D01*
X026154Y007373D01*
X02618D01*
X026205Y007347D01*
Y007296D01*
X02618Y007271D01*
X029304Y007998D02*
X029279Y008024D01*
X029228D01*
X029202Y007998D01*
Y007973D01*
X029228Y007948D01*
X029279D01*
X029304Y007922D01*
Y007897D01*
X029279Y007871D01*
X029228D01*
X029202Y007897D01*
X029355Y008024D02*
Y007871D01*
X029406Y007922D01*
X029456Y007871D01*
Y008024D01*
X029609D02*
X029507D01*
Y007948D01*
X029558Y007973D01*
X029583D01*
X029609Y007948D01*
Y007897D01*
X029583Y007871D01*
X029532D01*
X029507Y007897D01*
X029736Y007871D02*
Y008024D01*
X029659Y007948D01*
X029761D01*
X031204Y007998D02*
X031178Y008024D01*
X031128D01*
X031102Y007998D01*
Y007973D01*
X031128Y007948D01*
X031178D01*
X031204Y007922D01*
Y007897D01*
X031178Y007871D01*
X031128D01*
X031102Y007897D01*
X031255Y008024D02*
Y007871D01*
X031305Y007922D01*
X031356Y007871D01*
Y008024D01*
X031509D02*
X031407D01*
Y007948D01*
X031458Y007973D01*
X031483D01*
X031509Y007948D01*
Y007897D01*
X031483Y007871D01*
X031432D01*
X031407Y007897D01*
X031661Y008024D02*
X031559D01*
Y007948D01*
X03161Y007973D01*
X031636D01*
X031661Y007948D01*
Y007897D01*
X031636Y007871D01*
X031585D01*
X031559Y007897D01*
X033104Y007998D02*
X033078Y008024D01*
X033028D01*
X033002Y007998D01*
Y007973D01*
X033028Y007948D01*
X033078D01*
X033104Y007922D01*
Y007897D01*
X033078Y007871D01*
X033028D01*
X033002Y007897D01*
X033155Y008024D02*
Y007871D01*
X033205Y007922D01*
X033256Y007871D01*
Y008024D01*
X033408D02*
X033307D01*
Y007948D01*
X033358Y007973D01*
X033383D01*
X033408Y007948D01*
Y007897D01*
X033383Y007871D01*
X033332D01*
X033307Y007897D01*
X033561Y008024D02*
X03351Y007998D01*
X033459Y007948D01*
Y007897D01*
X033485Y007871D01*
X033535D01*
X033561Y007897D01*
Y007922D01*
X033535Y007948D01*
X033459D01*
X035519Y007998D02*
X035494Y008024D01*
X035443D01*
X035418Y007998D01*
Y007973D01*
X035443Y007948D01*
X035494D01*
X035519Y007922D01*
Y007897D01*
X035494Y007871D01*
X035443D01*
X035418Y007897D01*
X03557Y008024D02*
Y007871D01*
X035621Y007922D01*
X035672Y007871D01*
Y008024D01*
X035824D02*
X035722D01*
Y007948D01*
X035773Y007973D01*
X035799D01*
X035824Y007948D01*
Y007897D01*
X035799Y007871D01*
X035748D01*
X035722Y007897D01*
X035875Y008024D02*
X035976D01*
Y007998D01*
X035875Y007897D01*
Y007871D01*
X037419Y007998D02*
X037394Y008024D01*
X037343D01*
X037318Y007998D01*
Y007973D01*
X037343Y007948D01*
X037394D01*
X037419Y007922D01*
Y007897D01*
X037394Y007871D01*
X037343D01*
X037318Y007897D01*
X03747Y008024D02*
Y007871D01*
X037521Y007922D01*
X037572Y007871D01*
Y008024D01*
X037724D02*
X037622D01*
Y007948D01*
X037673Y007973D01*
X037699D01*
X037724Y007948D01*
Y007897D01*
X037699Y007871D01*
X037648D01*
X037622Y007897D01*
X037775Y007998D02*
X0378Y008024D01*
X037851D01*
X037876Y007998D01*
Y007973D01*
X037851Y007948D01*
X037876Y007922D01*
Y007897D01*
X037851Y007871D01*
X0378D01*
X037775Y007897D01*
Y007922D01*
X0378Y007948D01*
X037775Y007973D01*
Y007998D01*
X0378Y007948D02*
X037851D01*
X039319Y007998D02*
X039294Y008024D01*
X039243D01*
X039218Y007998D01*
Y007973D01*
X039243Y007948D01*
X039294D01*
X039319Y007922D01*
Y007897D01*
X039294Y007871D01*
X039243D01*
X039218Y007897D01*
X03937Y008024D02*
Y007871D01*
X039421Y007922D01*
X039472Y007871D01*
Y008024D01*
X039624D02*
X039522D01*
Y007948D01*
X039573Y007973D01*
X039598D01*
X039624Y007948D01*
Y007897D01*
X039598Y007871D01*
X039548D01*
X039522Y007897D01*
X039675D02*
X0397Y007871D01*
X039751D01*
X039776Y007897D01*
Y007998D01*
X039751Y008024D01*
X0397D01*
X039675Y007998D01*
Y007973D01*
X0397Y007948D01*
X039776D01*
X001011Y006101D02*
X000985Y006126D01*
X000935D01*
X000909Y006101D01*
Y006076D01*
X000935Y00605D01*
X000985D01*
X001011Y006025D01*
Y005999D01*
X000985Y005974D01*
X000935D01*
X000909Y005999D01*
X001062Y006126D02*
Y005974D01*
X001112Y006025D01*
X001163Y005974D01*
Y006126D01*
X001316D02*
X001265Y006101D01*
X001214Y00605D01*
Y005999D01*
X001239Y005974D01*
X00129D01*
X001316Y005999D01*
Y006025D01*
X00129Y00605D01*
X001214D01*
X001366Y005974D02*
X001417D01*
X001392D01*
Y006126D01*
X001366Y006101D01*
X003625Y006096D02*
X003599Y006121D01*
X003548D01*
X003523Y006096D01*
Y006071D01*
X003548Y006045D01*
X003599D01*
X003625Y00602D01*
Y005994D01*
X003599Y005969D01*
X003548D01*
X003523Y005994D01*
X003675Y006121D02*
Y005969D01*
X003726Y00602D01*
X003777Y005969D01*
Y006121D01*
X003929D02*
X003878Y006096D01*
X003828Y006045D01*
Y005994D01*
X003853Y005969D01*
X003904D01*
X003929Y005994D01*
Y00602D01*
X003904Y006045D01*
X003828D01*
X004082Y005969D02*
X00398D01*
X004082Y006071D01*
Y006096D01*
X004056Y006121D01*
X004005D01*
X00398Y006096D01*
X005524D02*
X005499Y006121D01*
X005448D01*
X005423Y006096D01*
Y006071D01*
X005448Y006045D01*
X005499D01*
X005524Y00602D01*
Y005994D01*
X005499Y005969D01*
X005448D01*
X005423Y005994D01*
X005575Y006121D02*
Y005969D01*
X005626Y00602D01*
X005677Y005969D01*
Y006121D01*
X005829D02*
X005778Y006096D01*
X005728Y006045D01*
Y005994D01*
X005753Y005969D01*
X005804D01*
X005829Y005994D01*
Y00602D01*
X005804Y006045D01*
X005728D01*
X00588Y006096D02*
X005905Y006121D01*
X005956D01*
X005982Y006096D01*
Y006071D01*
X005956Y006045D01*
X005931D01*
X005956D01*
X005982Y00602D01*
Y005994D01*
X005956Y005969D01*
X005905D01*
X00588Y005994D01*
X007424Y006096D02*
X007399Y006121D01*
X007348D01*
X007323Y006096D01*
Y006071D01*
X007348Y006045D01*
X007399D01*
X007424Y00602D01*
Y005994D01*
X007399Y005969D01*
X007348D01*
X007323Y005994D01*
X007475Y006121D02*
Y005969D01*
X007526Y00602D01*
X007577Y005969D01*
Y006121D01*
X007729D02*
X007678Y006096D01*
X007628Y006045D01*
Y005994D01*
X007653Y005969D01*
X007704D01*
X007729Y005994D01*
Y00602D01*
X007704Y006045D01*
X007628D01*
X007856Y005969D02*
Y006121D01*
X00778Y006045D01*
X007881D01*
X009324Y006096D02*
X009299Y006121D01*
X009248D01*
X009223Y006096D01*
Y006071D01*
X009248Y006045D01*
X009299D01*
X009324Y00602D01*
Y005994D01*
X009299Y005969D01*
X009248D01*
X009223Y005994D01*
X009375Y006121D02*
Y005969D01*
X009426Y00602D01*
X009477Y005969D01*
Y006121D01*
X009629D02*
X009578Y006096D01*
X009527Y006045D01*
Y005994D01*
X009553Y005969D01*
X009604D01*
X009629Y005994D01*
Y00602D01*
X009604Y006045D01*
X009527D01*
X009781Y006121D02*
X00968D01*
Y006045D01*
X009731Y006071D01*
X009756D01*
X009781Y006045D01*
Y005994D01*
X009756Y005969D01*
X009705D01*
X00968Y005994D01*
X011224Y006096D02*
X011199Y006121D01*
X011148D01*
X011123Y006096D01*
Y006071D01*
X011148Y006045D01*
X011199D01*
X011224Y00602D01*
Y005994D01*
X011199Y005969D01*
X011148D01*
X011123Y005994D01*
X011275Y006121D02*
Y005969D01*
X011326Y00602D01*
X011377Y005969D01*
Y006121D01*
X011529D02*
X011478Y006096D01*
X011427Y006045D01*
Y005994D01*
X011453Y005969D01*
X011504D01*
X011529Y005994D01*
Y00602D01*
X011504Y006045D01*
X011427D01*
X011681Y006121D02*
X01163Y006096D01*
X01158Y006045D01*
Y005994D01*
X011605Y005969D01*
X011656D01*
X011681Y005994D01*
Y00602D01*
X011656Y006045D01*
X01158D01*
X013124Y006096D02*
X013099Y006121D01*
X013048D01*
X013023Y006096D01*
Y006071D01*
X013048Y006045D01*
X013099D01*
X013124Y00602D01*
Y005994D01*
X013099Y005969D01*
X013048D01*
X013023Y005994D01*
X013175Y006121D02*
Y005969D01*
X013226Y00602D01*
X013276Y005969D01*
Y006121D01*
X013429D02*
X013378Y006096D01*
X013327Y006045D01*
Y005994D01*
X013353Y005969D01*
X013403D01*
X013429Y005994D01*
Y00602D01*
X013403Y006045D01*
X013327D01*
X01348Y006121D02*
X013581D01*
Y006096D01*
X01348Y005994D01*
Y005969D01*
X015024Y006096D02*
X014999Y006121D01*
X014948D01*
X014923Y006096D01*
Y006071D01*
X014948Y006045D01*
X014999D01*
X015024Y00602D01*
Y005994D01*
X014999Y005969D01*
X014948D01*
X014923Y005994D01*
X015075Y006121D02*
Y005969D01*
X015126Y00602D01*
X015176Y005969D01*
Y006121D01*
X015329D02*
X015278Y006096D01*
X015227Y006045D01*
Y005994D01*
X015253Y005969D01*
X015303D01*
X015329Y005994D01*
Y00602D01*
X015303Y006045D01*
X015227D01*
X01538Y006096D02*
X015405Y006121D01*
X015456D01*
X015481Y006096D01*
Y006071D01*
X015456Y006045D01*
X015481Y00602D01*
Y005994D01*
X015456Y005969D01*
X015405D01*
X01538Y005994D01*
Y00602D01*
X015405Y006045D01*
X01538Y006071D01*
Y006096D01*
X015405Y006045D02*
X015456D01*
X016924Y006096D02*
X016899Y006121D01*
X016848D01*
X016822Y006096D01*
Y006071D01*
X016848Y006045D01*
X016899D01*
X016924Y00602D01*
Y005994D01*
X016899Y005969D01*
X016848D01*
X016822Y005994D01*
X016975Y006121D02*
Y005969D01*
X017026Y00602D01*
X017076Y005969D01*
Y006121D01*
X017229D02*
X017178Y006096D01*
X017127Y006045D01*
Y005994D01*
X017153Y005969D01*
X017203D01*
X017229Y005994D01*
Y00602D01*
X017203Y006045D01*
X017127D01*
X017279Y005994D02*
X017305Y005969D01*
X017356D01*
X017381Y005994D01*
Y006096D01*
X017356Y006121D01*
X017305D01*
X017279Y006096D01*
Y006071D01*
X017305Y006045D01*
X017381D01*
X018824Y006096D02*
X018799Y006121D01*
X018748D01*
X018722Y006096D01*
Y006071D01*
X018748Y006045D01*
X018799D01*
X018824Y00602D01*
Y005994D01*
X018799Y005969D01*
X018748D01*
X018722Y005994D01*
X018875Y006121D02*
Y005969D01*
X018925Y00602D01*
X018976Y005969D01*
Y006121D01*
X019027D02*
X019129D01*
Y006096D01*
X019027Y005994D01*
Y005969D01*
X019179Y006096D02*
X019205Y006121D01*
X019256D01*
X019281Y006096D01*
Y005994D01*
X019256Y005969D01*
X019205D01*
X019179Y005994D01*
Y006096D01*
X020724D02*
X020698Y006121D01*
X020648D01*
X020622Y006096D01*
Y006071D01*
X020648Y006045D01*
X020698D01*
X020724Y00602D01*
Y005994D01*
X020698Y005969D01*
X020648D01*
X020622Y005994D01*
X020775Y006121D02*
Y005969D01*
X020825Y00602D01*
X020876Y005969D01*
Y006121D01*
X020927D02*
X021029D01*
Y006096D01*
X020927Y005994D01*
Y005969D01*
X021079D02*
X02113D01*
X021105D01*
Y006121D01*
X021079Y006096D01*
X022624D02*
X022598Y006121D01*
X022548D01*
X022522Y006096D01*
Y006071D01*
X022548Y006045D01*
X022598D01*
X022624Y00602D01*
Y005994D01*
X022598Y005969D01*
X022548D01*
X022522Y005994D01*
X022675Y006121D02*
Y005969D01*
X022725Y00602D01*
X022776Y005969D01*
Y006121D01*
X022827D02*
X022928D01*
Y006096D01*
X022827Y005994D01*
Y005969D01*
X023081D02*
X022979D01*
X023081Y006071D01*
Y006096D01*
X023055Y006121D01*
X023005D01*
X022979Y006096D01*
X035519D02*
X035494Y006121D01*
X035443D01*
X035418Y006096D01*
Y006071D01*
X035443Y006045D01*
X035494D01*
X035519Y00602D01*
Y005994D01*
X035494Y005969D01*
X035443D01*
X035418Y005994D01*
X03557Y006121D02*
Y005969D01*
X035621Y00602D01*
X035672Y005969D01*
Y006121D01*
X035722D02*
X035824D01*
Y006096D01*
X035722Y005994D01*
Y005969D01*
X035951D02*
Y006121D01*
X035875Y006045D01*
X035976D01*
X037419Y006096D02*
X037394Y006121D01*
X037343D01*
X037318Y006096D01*
Y006071D01*
X037343Y006045D01*
X037394D01*
X037419Y00602D01*
Y005994D01*
X037394Y005969D01*
X037343D01*
X037318Y005994D01*
X03747Y006121D02*
Y005969D01*
X037521Y00602D01*
X037572Y005969D01*
Y006121D01*
X037622D02*
X037724D01*
Y006096D01*
X037622Y005994D01*
Y005969D01*
X037876Y006121D02*
X037775D01*
Y006045D01*
X037826Y006071D01*
X037851D01*
X037876Y006045D01*
Y005994D01*
X037851Y005969D01*
X0378D01*
X037775Y005994D01*
X039319Y006096D02*
X039294Y006121D01*
X039243D01*
X039218Y006096D01*
Y006071D01*
X039243Y006045D01*
X039294D01*
X039319Y00602D01*
Y005994D01*
X039294Y005969D01*
X039243D01*
X039218Y005994D01*
X03937Y006121D02*
Y005969D01*
X039421Y00602D01*
X039472Y005969D01*
Y006121D01*
X039522D02*
X039624D01*
Y006096D01*
X039522Y005994D01*
Y005969D01*
X039776Y006121D02*
X039725Y006096D01*
X039675Y006045D01*
Y005994D01*
X0397Y005969D01*
X039751D01*
X039776Y005994D01*
Y00602D01*
X039751Y006045D01*
X039675D01*
X035519Y004196D02*
X035494Y004221D01*
X035443D01*
X035418Y004196D01*
Y004171D01*
X035443Y004145D01*
X035494D01*
X035519Y00412D01*
Y004094D01*
X035494Y004069D01*
X035443D01*
X035418Y004094D01*
X03557Y004221D02*
Y004069D01*
X035621Y00412D01*
X035672Y004069D01*
Y004221D01*
X035722D02*
X035824D01*
Y004196D01*
X035722Y004094D01*
Y004069D01*
X035875Y004221D02*
X035976D01*
Y004196D01*
X035875Y004094D01*
Y004069D01*
X037419Y004196D02*
X037394Y004221D01*
X037343D01*
X037318Y004196D01*
Y004171D01*
X037343Y004145D01*
X037394D01*
X037419Y00412D01*
Y004094D01*
X037394Y004069D01*
X037343D01*
X037318Y004094D01*
X03747Y004221D02*
Y004069D01*
X037521Y00412D01*
X037572Y004069D01*
Y004221D01*
X037622D02*
X037724D01*
Y004196D01*
X037622Y004094D01*
Y004069D01*
X037775Y004196D02*
X0378Y004221D01*
X037851D01*
X037876Y004196D01*
Y004171D01*
X037851Y004145D01*
X037876Y00412D01*
Y004094D01*
X037851Y004069D01*
X0378D01*
X037775Y004094D01*
Y00412D01*
X0378Y004145D01*
X037775Y004171D01*
Y004196D01*
X0378Y004145D02*
X037851D01*
X039319Y004196D02*
X039294Y004221D01*
X039243D01*
X039218Y004196D01*
Y004171D01*
X039243Y004145D01*
X039294D01*
X039319Y00412D01*
Y004094D01*
X039294Y004069D01*
X039243D01*
X039218Y004094D01*
X03937Y004221D02*
Y004069D01*
X039421Y00412D01*
X039472Y004069D01*
Y004221D01*
X039522D02*
X039624D01*
Y004196D01*
X039522Y004094D01*
Y004069D01*
X039675Y004094D02*
X0397Y004069D01*
X039751D01*
X039776Y004094D01*
Y004196D01*
X039751Y004221D01*
X0397D01*
X039675Y004196D01*
Y004171D01*
X0397Y004145D01*
X039776D01*
X004575Y004196D02*
X004549Y004221D01*
X004498D01*
X004473Y004196D01*
Y004171D01*
X004498Y004145D01*
X004549D01*
X004575Y00412D01*
Y004094D01*
X004549Y004069D01*
X004498D01*
X004473Y004094D01*
X004625Y004221D02*
Y004069D01*
X004676Y00412D01*
X004727Y004069D01*
Y004221D01*
X004778Y004196D02*
X004803Y004221D01*
X004854D01*
X004879Y004196D01*
Y004171D01*
X004854Y004145D01*
X004879Y00412D01*
Y004094D01*
X004854Y004069D01*
X004803D01*
X004778Y004094D01*
Y00412D01*
X004803Y004145D01*
X004778Y004171D01*
Y004196D01*
X004803Y004145D02*
X004854D01*
X00493Y004069D02*
X004981D01*
X004955D01*
Y004221D01*
X00493Y004196D01*
X006474D02*
X006449Y004221D01*
X006398D01*
X006373Y004196D01*
Y004171D01*
X006398Y004145D01*
X006449D01*
X006474Y00412D01*
Y004094D01*
X006449Y004069D01*
X006398D01*
X006373Y004094D01*
X006525Y004221D02*
Y004069D01*
X006576Y00412D01*
X006627Y004069D01*
Y004221D01*
X006678Y004196D02*
X006703Y004221D01*
X006754D01*
X006779Y004196D01*
Y004171D01*
X006754Y004145D01*
X006779Y00412D01*
Y004094D01*
X006754Y004069D01*
X006703D01*
X006678Y004094D01*
Y00412D01*
X006703Y004145D01*
X006678Y004171D01*
Y004196D01*
X006703Y004145D02*
X006754D01*
X006931Y004069D02*
X00683D01*
X006931Y004171D01*
Y004196D01*
X006906Y004221D01*
X006855D01*
X00683Y004196D01*
X008374D02*
X008349Y004221D01*
X008298D01*
X008273Y004196D01*
Y004171D01*
X008298Y004145D01*
X008349D01*
X008374Y00412D01*
Y004094D01*
X008349Y004069D01*
X008298D01*
X008273Y004094D01*
X008425Y004221D02*
Y004069D01*
X008476Y00412D01*
X008527Y004069D01*
Y004221D01*
X008577Y004196D02*
X008603Y004221D01*
X008654D01*
X008679Y004196D01*
Y004171D01*
X008654Y004145D01*
X008679Y00412D01*
Y004094D01*
X008654Y004069D01*
X008603D01*
X008577Y004094D01*
Y00412D01*
X008603Y004145D01*
X008577Y004171D01*
Y004196D01*
X008603Y004145D02*
X008654D01*
X00873Y004196D02*
X008755Y004221D01*
X008806D01*
X008831Y004196D01*
Y004171D01*
X008806Y004145D01*
X008781D01*
X008806D01*
X008831Y00412D01*
Y004094D01*
X008806Y004069D01*
X008755D01*
X00873Y004094D01*
X010274Y004196D02*
X010249Y004221D01*
X010198D01*
X010173Y004196D01*
Y004171D01*
X010198Y004145D01*
X010249D01*
X010274Y00412D01*
Y004094D01*
X010249Y004069D01*
X010198D01*
X010173Y004094D01*
X010325Y004221D02*
Y004069D01*
X010376Y00412D01*
X010427Y004069D01*
Y004221D01*
X010477Y004196D02*
X010503Y004221D01*
X010554D01*
X010579Y004196D01*
Y004171D01*
X010554Y004145D01*
X010579Y00412D01*
Y004094D01*
X010554Y004069D01*
X010503D01*
X010477Y004094D01*
Y00412D01*
X010503Y004145D01*
X010477Y004171D01*
Y004196D01*
X010503Y004145D02*
X010554D01*
X010706Y004069D02*
Y004221D01*
X01063Y004145D01*
X010731D01*
X012174Y004196D02*
X012149Y004221D01*
X012098D01*
X012073Y004196D01*
Y004171D01*
X012098Y004145D01*
X012149D01*
X012174Y00412D01*
Y004094D01*
X012149Y004069D01*
X012098D01*
X012073Y004094D01*
X012225Y004221D02*
Y004069D01*
X012276Y00412D01*
X012327Y004069D01*
Y004221D01*
X012377Y004196D02*
X012403Y004221D01*
X012453D01*
X012479Y004196D01*
Y004171D01*
X012453Y004145D01*
X012479Y00412D01*
Y004094D01*
X012453Y004069D01*
X012403D01*
X012377Y004094D01*
Y00412D01*
X012403Y004145D01*
X012377Y004171D01*
Y004196D01*
X012403Y004145D02*
X012453D01*
X012631Y004221D02*
X01253D01*
Y004145D01*
X01258Y004171D01*
X012606D01*
X012631Y004145D01*
Y004094D01*
X012606Y004069D01*
X012555D01*
X01253Y004094D01*
X014074Y004196D02*
X014049Y004221D01*
X013998D01*
X013973Y004196D01*
Y004171D01*
X013998Y004145D01*
X014049D01*
X014074Y00412D01*
Y004094D01*
X014049Y004069D01*
X013998D01*
X013973Y004094D01*
X014125Y004221D02*
Y004069D01*
X014176Y00412D01*
X014226Y004069D01*
Y004221D01*
X014277Y004196D02*
X014303Y004221D01*
X014353D01*
X014379Y004196D01*
Y004171D01*
X014353Y004145D01*
X014379Y00412D01*
Y004094D01*
X014353Y004069D01*
X014303D01*
X014277Y004094D01*
Y00412D01*
X014303Y004145D01*
X014277Y004171D01*
Y004196D01*
X014303Y004145D02*
X014353D01*
X014531Y004221D02*
X01448Y004196D01*
X01443Y004145D01*
Y004094D01*
X014455Y004069D01*
X014506D01*
X014531Y004094D01*
Y00412D01*
X014506Y004145D01*
X01443D01*
X015974Y004196D02*
X015949Y004221D01*
X015898D01*
X015872Y004196D01*
Y004171D01*
X015898Y004145D01*
X015949D01*
X015974Y00412D01*
Y004094D01*
X015949Y004069D01*
X015898D01*
X015872Y004094D01*
X016025Y004221D02*
Y004069D01*
X016076Y00412D01*
X016126Y004069D01*
Y004221D01*
X016177Y004196D02*
X016203Y004221D01*
X016253D01*
X016279Y004196D01*
Y004171D01*
X016253Y004145D01*
X016279Y00412D01*
Y004094D01*
X016253Y004069D01*
X016203D01*
X016177Y004094D01*
Y00412D01*
X016203Y004145D01*
X016177Y004171D01*
Y004196D01*
X016203Y004145D02*
X016253D01*
X01633Y004221D02*
X016431D01*
Y004196D01*
X01633Y004094D01*
Y004069D01*
X017874Y004196D02*
X017849Y004221D01*
X017798D01*
X017772Y004196D01*
Y004171D01*
X017798Y004145D01*
X017849D01*
X017874Y00412D01*
Y004094D01*
X017849Y004069D01*
X017798D01*
X017772Y004094D01*
X017925Y004221D02*
Y004069D01*
X017976Y00412D01*
X018026Y004069D01*
Y004221D01*
X018077Y004196D02*
X018102Y004221D01*
X018153D01*
X018179Y004196D01*
Y004171D01*
X018153Y004145D01*
X018179Y00412D01*
Y004094D01*
X018153Y004069D01*
X018102D01*
X018077Y004094D01*
Y00412D01*
X018102Y004145D01*
X018077Y004171D01*
Y004196D01*
X018102Y004145D02*
X018153D01*
X018229Y004196D02*
X018255Y004221D01*
X018306D01*
X018331Y004196D01*
Y004171D01*
X018306Y004145D01*
X018331Y00412D01*
Y004094D01*
X018306Y004069D01*
X018255D01*
X018229Y004094D01*
Y00412D01*
X018255Y004145D01*
X018229Y004171D01*
Y004196D01*
X018255Y004145D02*
X018306D01*
X019774Y004196D02*
X019748Y004221D01*
X019698D01*
X019672Y004196D01*
Y004171D01*
X019698Y004145D01*
X019748D01*
X019774Y00412D01*
Y004094D01*
X019748Y004069D01*
X019698D01*
X019672Y004094D01*
X019825Y004221D02*
Y004069D01*
X019875Y00412D01*
X019926Y004069D01*
Y004221D01*
X019977Y004196D02*
X020002Y004221D01*
X020053D01*
X020079Y004196D01*
Y004171D01*
X020053Y004145D01*
X020079Y00412D01*
Y004094D01*
X020053Y004069D01*
X020002D01*
X019977Y004094D01*
Y00412D01*
X020002Y004145D01*
X019977Y004171D01*
Y004196D01*
X020002Y004145D02*
X020053D01*
X020129Y004094D02*
X020155Y004069D01*
X020206D01*
X020231Y004094D01*
Y004196D01*
X020206Y004221D01*
X020155D01*
X020129Y004196D01*
Y004171D01*
X020155Y004145D01*
X020231D01*
X021674Y004196D02*
X021648Y004221D01*
X021598D01*
X021572Y004196D01*
Y004171D01*
X021598Y004145D01*
X021648D01*
X021674Y00412D01*
Y004094D01*
X021648Y004069D01*
X021598D01*
X021572Y004094D01*
X021725Y004221D02*
Y004069D01*
X021775Y00412D01*
X021826Y004069D01*
Y004221D01*
X021877Y004094D02*
X021902Y004069D01*
X021953D01*
X021978Y004094D01*
Y004196D01*
X021953Y004221D01*
X021902D01*
X021877Y004196D01*
Y004171D01*
X021902Y004145D01*
X021978D01*
X022029Y004196D02*
X022055Y004221D01*
X022105D01*
X022131Y004196D01*
Y004094D01*
X022105Y004069D01*
X022055D01*
X022029Y004094D01*
Y004196D01*
X031204D02*
X031178Y004221D01*
X031128D01*
X031102Y004196D01*
Y004171D01*
X031128Y004145D01*
X031178D01*
X031204Y00412D01*
Y004094D01*
X031178Y004069D01*
X031128D01*
X031102Y004094D01*
X031255Y004221D02*
Y004069D01*
X031305Y00412D01*
X031356Y004069D01*
Y004221D01*
X031407Y004094D02*
X031432Y004069D01*
X031483D01*
X031509Y004094D01*
Y004196D01*
X031483Y004221D01*
X031432D01*
X031407Y004196D01*
Y004171D01*
X031432Y004145D01*
X031509D01*
X031559Y004196D02*
X031585Y004221D01*
X031636D01*
X031661Y004196D01*
Y004171D01*
X031636Y004145D01*
X03161D01*
X031636D01*
X031661Y00412D01*
Y004094D01*
X031636Y004069D01*
X031585D01*
X031559Y004094D01*
X000511Y000361D02*
X000486Y000386D01*
X000435D01*
X000409Y000361D01*
Y000336D01*
X000435Y00031D01*
X000486D01*
X000511Y000285D01*
Y000259D01*
X000486Y000234D01*
X000435D01*
X000409Y000259D01*
X000562Y000386D02*
Y000234D01*
X000613Y000285D01*
X000663Y000234D01*
Y000386D01*
X000714Y000259D02*
X00074Y000234D01*
X00079D01*
X000816Y000259D01*
Y000361D01*
X00079Y000386D01*
X00074D01*
X000714Y000361D01*
Y000336D01*
X00074Y00031D01*
X000816D01*
X000968Y000386D02*
X000867D01*
Y00031D01*
X000917Y000336D01*
X000943D01*
X000968Y00031D01*
Y000259D01*
X000943Y000234D01*
X000892D01*
X000867Y000259D01*
X002903Y000368D02*
X002878Y000393D01*
X002827D01*
X002801Y000368D01*
Y000343D01*
X002827Y000317D01*
X002878D01*
X002903Y000292D01*
Y000266D01*
X002878Y000241D01*
X002827D01*
X002801Y000266D01*
X002954Y000393D02*
Y000241D01*
X003005Y000292D01*
X003055Y000241D01*
Y000393D01*
X003106Y000266D02*
X003132Y000241D01*
X003182D01*
X003208Y000266D01*
Y000368D01*
X003182Y000393D01*
X003132D01*
X003106Y000368D01*
Y000343D01*
X003132Y000317D01*
X003208D01*
X00336Y000393D02*
X003309Y000368D01*
X003259Y000317D01*
Y000266D01*
X003284Y000241D01*
X003335D01*
X00336Y000266D01*
Y000292D01*
X003335Y000317D01*
X003259D01*
X005286Y002296D02*
X00526Y002322D01*
X00521D01*
X005184Y002296D01*
Y002271D01*
X00521Y002245D01*
X00526D01*
X005286Y00222D01*
Y002195D01*
X00526Y002169D01*
X00521D01*
X005184Y002195D01*
X005336Y002322D02*
Y002169D01*
X005387Y00222D01*
X005438Y002169D01*
Y002322D01*
X005489Y002195D02*
X005514Y002169D01*
X005565D01*
X00559Y002195D01*
Y002296D01*
X005565Y002322D01*
X005514D01*
X005489Y002296D01*
Y002271D01*
X005514Y002245D01*
X00559D01*
X005641Y002322D02*
X005743D01*
Y002296D01*
X005641Y002195D01*
Y002169D01*
X019538Y002296D02*
X019512Y002322D01*
X019461D01*
X019436Y002296D01*
Y002271D01*
X019461Y002245D01*
X019512D01*
X019538Y00222D01*
Y002195D01*
X019512Y002169D01*
X019461D01*
X019436Y002195D01*
X019588Y002322D02*
Y002169D01*
X019639Y00222D01*
X01969Y002169D01*
Y002322D01*
X019741Y002195D02*
X019766Y002169D01*
X019817D01*
X019842Y002195D01*
Y002296D01*
X019817Y002322D01*
X019766D01*
X019741Y002296D01*
Y002271D01*
X019766Y002245D01*
X019842D01*
X019893Y002195D02*
X019919Y002169D01*
X019969D01*
X019995Y002195D01*
Y002296D01*
X019969Y002322D01*
X019919D01*
X019893Y002296D01*
Y002271D01*
X019919Y002245D01*
X019995D01*
X021913Y002296D02*
X021887Y002322D01*
X021836D01*
X021811Y002296D01*
Y002271D01*
X021836Y002245D01*
X021887D01*
X021913Y00222D01*
Y002195D01*
X021887Y002169D01*
X021836D01*
X021811Y002195D01*
X021963Y002322D02*
Y002169D01*
X022014Y00222D01*
X022065Y002169D01*
Y002322D01*
X022116Y002169D02*
X022166D01*
X022141D01*
Y002322D01*
X022116Y002296D01*
X022243D02*
X022268Y002322D01*
X022319D01*
X022344Y002296D01*
Y002195D01*
X022319Y002169D01*
X022268D01*
X022243Y002195D01*
Y002296D01*
X022395D02*
X02242Y002322D01*
X022471D01*
X022497Y002296D01*
Y002195D01*
X022471Y002169D01*
X02242D01*
X022395Y002195D01*
Y002296D01*
X02391Y001088D02*
X023885Y001063D01*
Y001012D01*
X02391Y000986D01*
X023935D01*
X023961Y001012D01*
Y001063D01*
X023986Y001088D01*
X024012D01*
X024037Y001063D01*
Y001012D01*
X024012Y000986D01*
X023885Y001139D02*
X024037D01*
X023986Y00119D01*
X024037Y00124D01*
X023885D01*
X024037Y001291D02*
Y001342D01*
Y001317D01*
X023885D01*
X02391Y001291D01*
Y001418D02*
X023885Y001444D01*
Y001494D01*
X02391Y00152D01*
X024012D01*
X024037Y001494D01*
Y001444D01*
X024012Y001418D01*
X02391D01*
X024037Y001571D02*
Y001621D01*
Y001596D01*
X023885D01*
X02391Y001571D01*
X02632Y001088D02*
X026295Y001063D01*
Y001012D01*
X02632Y000986D01*
X026345D01*
X026371Y001012D01*
Y001063D01*
X026396Y001088D01*
X026422D01*
X026447Y001063D01*
Y001012D01*
X026422Y000986D01*
X026295Y001139D02*
X026447D01*
X026396Y00119D01*
X026447Y00124D01*
X026295D01*
X026447Y001291D02*
Y001342D01*
Y001317D01*
X026295D01*
X02632Y001291D01*
Y001418D02*
X026295Y001444D01*
Y001494D01*
X02632Y00152D01*
X026422D01*
X026447Y001494D01*
Y001444D01*
X026422Y001418D01*
X02632D01*
X026447Y001672D02*
Y001571D01*
X026345Y001672D01*
X02632D01*
X026295Y001647D01*
Y001596D01*
X02632Y001571D01*
X029304Y002296D02*
X029279Y002322D01*
X029228D01*
X029202Y002296D01*
Y002271D01*
X029228Y002245D01*
X029279D01*
X029304Y00222D01*
Y002195D01*
X029279Y002169D01*
X029228D01*
X029202Y002195D01*
X029355Y002322D02*
Y002169D01*
X029406Y00222D01*
X029456Y002169D01*
Y002322D01*
X029507Y002169D02*
X029558D01*
X029532D01*
Y002322D01*
X029507Y002296D01*
X029634D02*
X029659Y002322D01*
X02971D01*
X029736Y002296D01*
Y002195D01*
X02971Y002169D01*
X029659D01*
X029634Y002195D01*
Y002296D01*
X029786D02*
X029812Y002322D01*
X029863D01*
X029888Y002296D01*
Y002271D01*
X029863Y002245D01*
X029837D01*
X029863D01*
X029888Y00222D01*
Y002195D01*
X029863Y002169D01*
X029812D01*
X029786Y002195D01*
X031204Y002296D02*
X031178Y002322D01*
X031128D01*
X031102Y002296D01*
Y002271D01*
X031128Y002245D01*
X031178D01*
X031204Y00222D01*
Y002195D01*
X031178Y002169D01*
X031128D01*
X031102Y002195D01*
X031255Y002322D02*
Y002169D01*
X031305Y00222D01*
X031356Y002169D01*
Y002322D01*
X031407Y002169D02*
X031458D01*
X031432D01*
Y002322D01*
X031407Y002296D01*
X031534D02*
X031559Y002322D01*
X03161D01*
X031636Y002296D01*
Y002195D01*
X03161Y002169D01*
X031559D01*
X031534Y002195D01*
Y002296D01*
X031762Y002169D02*
Y002322D01*
X031686Y002245D01*
X031788D01*
X033094Y002296D02*
X033068Y002322D01*
X033017D01*
X032992Y002296D01*
Y002271D01*
X033017Y002245D01*
X033068D01*
X033094Y00222D01*
Y002195D01*
X033068Y002169D01*
X033017D01*
X032992Y002195D01*
X033144Y002322D02*
Y002169D01*
X033195Y00222D01*
X033246Y002169D01*
Y002322D01*
X033297Y002169D02*
X033348D01*
X033322D01*
Y002322D01*
X033297Y002296D01*
X033424D02*
X033449Y002322D01*
X0335D01*
X033525Y002296D01*
Y002195D01*
X0335Y002169D01*
X033449D01*
X033424Y002195D01*
Y002296D01*
X033678Y002322D02*
X033576D01*
Y002245D01*
X033627Y002271D01*
X033652D01*
X033678Y002245D01*
Y002195D01*
X033652Y002169D01*
X033601D01*
X033576Y002195D01*
X039319Y002296D02*
X039294Y002322D01*
X039243D01*
X039218Y002296D01*
Y002271D01*
X039243Y002245D01*
X039294D01*
X039319Y00222D01*
Y002195D01*
X039294Y002169D01*
X039243D01*
X039218Y002195D01*
X03937Y002322D02*
Y002169D01*
X039421Y00222D01*
X039472Y002169D01*
Y002322D01*
X039522Y002169D02*
X039573D01*
X039548D01*
Y002322D01*
X039522Y002296D01*
X039649D02*
X039675Y002322D01*
X039725D01*
X039751Y002296D01*
Y002195D01*
X039725Y002169D01*
X039675D01*
X039649Y002195D01*
Y002296D01*
X039802Y002322D02*
X039903D01*
Y002296D01*
X039802Y002195D01*
Y002169D01*
X024849Y008732D02*
X024824Y008706D01*
Y008655D01*
X024849Y00863D01*
X024874D01*
X0249Y008655D01*
Y008706D01*
X024925Y008732D01*
X024951D01*
X024976Y008706D01*
Y008655D01*
X024951Y00863D01*
X024824Y008782D02*
X024976D01*
X024925Y008833D01*
X024976Y008884D01*
X024824D01*
X024849Y008935D02*
X024824Y00896D01*
Y009011D01*
X024849Y009036D01*
X024874D01*
X0249Y009011D01*
Y008985D01*
Y009011D01*
X024925Y009036D01*
X024951D01*
X024976Y009011D01*
Y00896D01*
X024951Y008935D01*
X024976Y009189D02*
Y009087D01*
X024874Y009189D01*
X024849D01*
X024824Y009163D01*
Y009112D01*
X024849Y009087D01*
X040907Y006365D02*
X040881Y00634D01*
Y006289D01*
X040907Y006264D01*
X040932D01*
X040958Y006289D01*
Y00634D01*
X040983Y006365D01*
X041008D01*
X041034Y00634D01*
Y006289D01*
X041008Y006264D01*
X040881Y006416D02*
X041034D01*
X040983Y006467D01*
X041034Y006518D01*
X040881D01*
Y00667D02*
X040907Y006619D01*
X040958Y006568D01*
X041008D01*
X041034Y006594D01*
Y006645D01*
X041008Y00667D01*
X040983D01*
X040958Y006645D01*
Y006568D01*
X040907Y006721D02*
X040881Y006746D01*
Y006797D01*
X040907Y006822D01*
X041008D01*
X041034Y006797D01*
Y006746D01*
X041008Y006721D01*
X040907D01*
X024948Y006172D02*
X024922Y006198D01*
X024872D01*
X024846Y006172D01*
Y006147D01*
X024872Y006121D01*
X024922D01*
X024948Y006096D01*
Y006071D01*
X024922Y006045D01*
X024872D01*
X024846Y006071D01*
X024999Y006198D02*
Y006045D01*
X025049Y006096D01*
X0251Y006045D01*
Y006198D01*
X025151D02*
X025253D01*
Y006172D01*
X025151Y006071D01*
Y006045D01*
X025303Y006172D02*
X025329Y006198D01*
X02538D01*
X025405Y006172D01*
Y006147D01*
X02538Y006121D01*
X025354D01*
X02538D01*
X025405Y006096D01*
Y006071D01*
X02538Y006045D01*
X025329D01*
X025303Y006071D01*
X001915Y002337D02*
X00189Y002362D01*
X001839D01*
X001814Y002337D01*
Y002311D01*
X001839Y002286D01*
X00189D01*
X001915Y002261D01*
Y002235D01*
X00189Y00221D01*
X001839D01*
X001814Y002235D01*
X001966Y002362D02*
Y00221D01*
X002017Y002261D01*
X002067Y00221D01*
Y002362D01*
X002118Y002337D02*
X002144Y002362D01*
X002194D01*
X00222Y002337D01*
Y002311D01*
X002194Y002286D01*
X00222Y002261D01*
Y002235D01*
X002194Y00221D01*
X002144D01*
X002118Y002235D01*
Y002261D01*
X002144Y002286D01*
X002118Y002311D01*
Y002337D01*
X002144Y002286D02*
X002194D01*
X002271Y002337D02*
X002296Y002362D01*
X002347D01*
X002372Y002337D01*
Y002235D01*
X002347Y00221D01*
X002296D01*
X002271Y002235D01*
Y002337D01*
X024135Y003028D02*
X02411Y003003D01*
Y002952D01*
X024135Y002926D01*
X02416D01*
X024186Y002952D01*
Y003003D01*
X024211Y003028D01*
X024237D01*
X024262Y003003D01*
Y002952D01*
X024237Y002926D01*
X02411Y003079D02*
X024262D01*
X024211Y00313D01*
X024262Y00318D01*
X02411D01*
X024237Y003231D02*
X024262Y003257D01*
Y003307D01*
X024237Y003333D01*
X024135D01*
X02411Y003307D01*
Y003257D01*
X024135Y003231D01*
X02416D01*
X024186Y003257D01*
Y003333D01*
X024262Y003485D02*
Y003384D01*
X02416Y003485D01*
X024135D01*
X02411Y00346D01*
Y003409D01*
X024135Y003384D01*
X040853Y002601D02*
X040828Y002576D01*
Y002525D01*
X040853Y002499D01*
X040879D01*
X040904Y002525D01*
Y002576D01*
X04093Y002601D01*
X040955D01*
X04098Y002576D01*
Y002525D01*
X040955Y002499D01*
X040828Y002652D02*
X04098D01*
X04093Y002702D01*
X04098Y002753D01*
X040828D01*
X040955Y002804D02*
X04098Y002829D01*
Y00288D01*
X040955Y002906D01*
X040853D01*
X040828Y00288D01*
Y002829D01*
X040853Y002804D01*
X040879D01*
X040904Y002829D01*
Y002906D01*
X04098Y003033D02*
X040828D01*
X040904Y002956D01*
Y003058D01*
X03587Y012449D02*
X035972Y012347D01*
X03587D02*
X035972Y012449D01*
X03587Y012398D02*
X035972D01*
X035921Y012347D02*
Y012449D01*
X036022Y012322D02*
X036073D01*
X036048D01*
Y012474D01*
X036022Y012449D01*
X04161Y011744D02*
X041559D01*
X041534Y011718D01*
Y011617D01*
X041559Y011591D01*
X04161D01*
X041635Y011617D01*
Y011718D01*
X04161Y011744D01*
X041686Y011591D02*
Y011744D01*
X041788Y011591D01*
Y011744D01*
X041839Y011718D02*
X041864Y011744D01*
X041915D01*
X04194Y011718D01*
Y011693D01*
X041915Y011667D01*
X041889D01*
X041915D01*
X04194Y011642D01*
Y011617D01*
X041915Y011591D01*
X041864D01*
X041839Y011617D01*
X041709Y012301D02*
Y01225D01*
X041735Y012225D01*
X041836D01*
X041862Y01225D01*
Y012301D01*
X041836Y012327D01*
X041735D01*
X041709Y012301D01*
X041862Y012377D02*
X041709D01*
X041862Y012479D01*
X041709D01*
X041862Y012606D02*
X041709D01*
X041786Y01253D01*
Y012631D01*
X042047Y011585D02*
Y011737D01*
X042123D01*
X042149Y011712D01*
Y011661D01*
X042123Y011636D01*
X042047D01*
X042098D02*
X042149Y011585D01*
X042276D02*
Y011737D01*
X0422Y011661D01*
X042301D01*
X042453Y011585D02*
X042352D01*
X042453Y011687D01*
Y011712D01*
X042428Y011737D01*
X042377D01*
X042352Y011712D01*
X042047Y012167D02*
Y012319D01*
X042123D01*
X042149Y012294D01*
Y012243D01*
X042123Y012217D01*
X042047D01*
X042098D02*
X042149Y012167D01*
X042276D02*
Y012319D01*
X0422Y012243D01*
X042301D01*
X042352Y012294D02*
X042377Y012319D01*
X042428D01*
X042453Y012294D01*
Y012268D01*
X042428Y012243D01*
X042403D01*
X042428D01*
X042453Y012217D01*
Y012192D01*
X042428Y012167D01*
X042377D01*
X042352Y012192D01*
X039258Y011935D02*
X03936Y011783D01*
Y011935D02*
X039258Y011783D01*
X039411D02*
X039461D01*
X039436D01*
Y011935D01*
X039411Y01191D01*
X01241Y002316D02*
X012385Y002342D01*
X012334D01*
X012309Y002316D01*
Y002291D01*
X012334Y002266D01*
X012385D01*
X01241Y00224D01*
Y002215D01*
X012385Y002189D01*
X012334D01*
X012309Y002215D01*
X012461Y002342D02*
Y002189D01*
X012512Y00224D01*
X012563Y002189D01*
Y002342D01*
X012614Y002215D02*
X012639Y002189D01*
X01269D01*
X012715Y002215D01*
Y002316D01*
X01269Y002342D01*
X012639D01*
X012614Y002316D01*
Y002291D01*
X012639Y002266D01*
X012715D01*
X012766Y002189D02*
X012817D01*
X012791D01*
Y002342D01*
X012766Y002316D01*
X038868Y002049D02*
X038894Y002075D01*
Y002126D01*
X038868Y002151D01*
X038843D01*
X038817Y002126D01*
Y002075D01*
X038792Y002049D01*
X038767D01*
X038741Y002075D01*
Y002126D01*
X038767Y002151D01*
X038894Y001999D02*
X038741D01*
X038792Y001948D01*
X038741Y001897D01*
X038894D01*
X038767Y001846D02*
X038741Y001821D01*
Y00177D01*
X038767Y001745D01*
X038868D01*
X038894Y00177D01*
Y001821D01*
X038868Y001846D01*
X038843D01*
X038817Y001821D01*
Y001745D01*
X038868Y001694D02*
X038894Y001668D01*
Y001618D01*
X038868Y001592D01*
X038843D01*
X038817Y001618D01*
X038792Y001592D01*
X038767D01*
X038741Y001618D01*
Y001668D01*
X038767Y001694D01*
X038792D01*
X038817Y001668D01*
X038843Y001694D01*
X038868D01*
X038817Y001668D02*
Y001618D01*
D61*
X041718Y011918D02*
Y012045D01*
X041934Y011918D02*
Y012045D01*
X0417Y011358D02*
Y011485D01*
X041916Y011358D02*
Y011485D01*
D62*
X036335Y011341D02*
Y012062D01*
X03748D01*
Y011341D02*
Y012062D01*
X036335Y011341D02*
X03748D01*
D63*
X039305Y012088D02*
X039521D01*
X039216D02*
X039305D01*
M02*
